%TF.GenerationSoftware,KiCad,Pcbnew,8.0.2*%
%TF.CreationDate,2024-06-01T03:16:02+02:00*%
%TF.ProjectId,Hellboard,48656c6c-626f-4617-9264-2e6b69636164,rev?*%
%TF.SameCoordinates,Original*%
%TF.FileFunction,Copper,L1,Top*%
%TF.FilePolarity,Positive*%
%FSLAX46Y46*%
G04 Gerber Fmt 4.6, Leading zero omitted, Abs format (unit mm)*
G04 Created by KiCad (PCBNEW 8.0.2) date 2024-06-01 03:16:02*
%MOMM*%
%LPD*%
G01*
G04 APERTURE LIST*
%TA.AperFunction,SMDPad,CuDef*%
%ADD10C,1.500000*%
%TD*%
%TA.AperFunction,SMDPad,CuDef*%
%ADD11R,1.135000X0.700000*%
%TD*%
%TA.AperFunction,SMDPad,CuDef*%
%ADD12R,0.558000X1.538199*%
%TD*%
%TA.AperFunction,ComponentPad*%
%ADD13R,1.700000X1.700000*%
%TD*%
%TA.AperFunction,ComponentPad*%
%ADD14O,1.700000X1.700000*%
%TD*%
%TA.AperFunction,ViaPad*%
%ADD15C,0.600000*%
%TD*%
%TA.AperFunction,Conductor*%
%ADD16C,0.500000*%
%TD*%
%TA.AperFunction,Conductor*%
%ADD17C,0.400000*%
%TD*%
%TA.AperFunction,Conductor*%
%ADD18C,0.200000*%
%TD*%
G04 APERTURE END LIST*
D10*
%TO.P,TP3,1,1*%
%TO.N,Net-(D2-DOUT)*%
X82900000Y-58000000D03*
%TD*%
D11*
%TO.P,D6,3,DOUT*%
%TO.N,Net-(D6-DOUT)*%
X74082500Y-77850000D03*
%TO.P,D6,4,VSS*%
%TO.N,GND*%
X74082500Y-76750000D03*
%TO.P,D6,5,DIN*%
%TO.N,Net-(D5-DOUT)*%
X71817500Y-76750000D03*
%TO.P,D6,6,VDD*%
%TO.N,+5V*%
X71817500Y-77850000D03*
%TD*%
D10*
%TO.P,TP8,1,1*%
%TO.N,Net-(D7-DOUT)*%
X101100000Y-77600000D03*
%TD*%
D11*
%TO.P,D8,3,DOUT*%
%TO.N,Net-(D8-DOUT)*%
X112082500Y-77850000D03*
%TO.P,D8,4,VSS*%
%TO.N,GND*%
X112082500Y-76750000D03*
%TO.P,D8,5,DIN*%
%TO.N,Net-(D7-DOUT)*%
X109817500Y-76750000D03*
%TO.P,D8,6,VDD*%
%TO.N,+5V*%
X109817500Y-77850000D03*
%TD*%
D10*
%TO.P,TP6,1,1*%
%TO.N,Net-(D5-DOUT)*%
X63500000Y-77400000D03*
%TD*%
D12*
%TO.P,CR1,1,S*%
%TO.N,EEPROM_CS*%
X134400000Y-54010600D03*
%TO.P,CR1,2,C*%
%TO.N,EEPROM_SCK*%
X133130000Y-54010600D03*
%TO.P,CR1,3,D*%
%TO.N,EEPROM_MOSI*%
X131860000Y-54010600D03*
%TO.P,CR1,4,Q*%
%TO.N,EEPROM_MISO*%
X130590000Y-54010600D03*
%TO.P,CR1,5,VSS*%
%TO.N,GND*%
X130590000Y-59370000D03*
%TO.P,CR1,6,ORG*%
X131860000Y-59370000D03*
%TO.P,CR1,7,DU*%
%TO.N,unconnected-(CR1-DU-Pad7)*%
X133130000Y-59370000D03*
%TO.P,CR1,8,VCC*%
%TO.N,+3.3V*%
X134400000Y-59370000D03*
%TD*%
D10*
%TO.P,TP7,1,1*%
%TO.N,Net-(D6-DOUT)*%
X82600000Y-77300000D03*
%TD*%
D11*
%TO.P,D1,3,DOUT*%
%TO.N,Net-(D1-DOUT)*%
X110117500Y-56450000D03*
%TO.P,D1,4,VSS*%
%TO.N,GND*%
X110117500Y-57550000D03*
%TO.P,D1,5,DIN*%
%TO.N,Net-(D1-DIN)*%
X112382500Y-57550000D03*
%TO.P,D1,6,VDD*%
%TO.N,+5V*%
X112382500Y-56450000D03*
%TD*%
D13*
%TO.P,J1,1,GND*%
%TO.N,GND*%
X136700000Y-47100000D03*
D14*
%TO.P,J1,2,VCC*%
%TO.N,+3.3V*%
X139240000Y-47100000D03*
%TO.P,J1,3,SCL*%
%TO.N,OLED_SCL*%
X141780000Y-47100000D03*
%TO.P,J1,4,SDA*%
%TO.N,OLED_SDA*%
X144320000Y-47100000D03*
%TD*%
D11*
%TO.P,D2,3,DOUT*%
%TO.N,Net-(D2-DOUT)*%
X91117500Y-56450000D03*
%TO.P,D2,4,VSS*%
%TO.N,GND*%
X91117500Y-57550000D03*
%TO.P,D2,5,DIN*%
%TO.N,Net-(D1-DOUT)*%
X93382500Y-57550000D03*
%TO.P,D2,6,VDD*%
%TO.N,+5V*%
X93382500Y-56450000D03*
%TD*%
%TO.P,D3,3,DOUT*%
%TO.N,Net-(D3-DOUT)*%
X72117500Y-56450000D03*
%TO.P,D3,4,VSS*%
%TO.N,GND*%
X72117500Y-57550000D03*
%TO.P,D3,5,DIN*%
%TO.N,Net-(D2-DOUT)*%
X74382500Y-57550000D03*
%TO.P,D3,6,VDD*%
%TO.N,+5V*%
X74382500Y-56450000D03*
%TD*%
D10*
%TO.P,TP5,1,1*%
%TO.N,Net-(D4-DOUT)*%
X47200000Y-62100000D03*
%TD*%
%TO.P,TP2,1,1*%
%TO.N,Net-(D1-DOUT)*%
X101600000Y-58000000D03*
%TD*%
D11*
%TO.P,D7,3,DOUT*%
%TO.N,Net-(D7-DOUT)*%
X93082500Y-77850000D03*
%TO.P,D7,4,VSS*%
%TO.N,GND*%
X93082500Y-76750000D03*
%TO.P,D7,5,DIN*%
%TO.N,Net-(D6-DOUT)*%
X90817500Y-76750000D03*
%TO.P,D7,6,VDD*%
%TO.N,+5V*%
X90817500Y-77850000D03*
%TD*%
D10*
%TO.P,TP9,1,1*%
%TO.N,Net-(D8-DOUT)*%
X115400000Y-77800000D03*
%TD*%
D11*
%TO.P,D4,3,DOUT*%
%TO.N,Net-(D4-DOUT)*%
X53117500Y-56450000D03*
%TO.P,D4,4,VSS*%
%TO.N,GND*%
X53117500Y-57550000D03*
%TO.P,D4,5,DIN*%
%TO.N,Net-(D3-DOUT)*%
X55382500Y-57550000D03*
%TO.P,D4,6,VDD*%
%TO.N,+5V*%
X55382500Y-56450000D03*
%TD*%
%TO.P,D5,3,DOUT*%
%TO.N,Net-(D5-DOUT)*%
X55082500Y-77850000D03*
%TO.P,D5,4,VSS*%
%TO.N,GND*%
X55082500Y-76750000D03*
%TO.P,D5,5,DIN*%
%TO.N,Net-(D4-DOUT)*%
X52817500Y-76750000D03*
%TO.P,D5,6,VDD*%
%TO.N,+5V*%
X52817500Y-77850000D03*
%TD*%
D10*
%TO.P,TP4,1,1*%
%TO.N,Net-(D3-DOUT)*%
X63900000Y-58100000D03*
%TD*%
D15*
%TO.N,+5V*%
X127380000Y-61620000D03*
X157814313Y-74554313D03*
X121920000Y-60660000D03*
%TO.N,OLED_SDA*%
X136380000Y-71370000D03*
%TO.N,OLED_SCL*%
X140130000Y-74370000D03*
%TO.N,EEPROM_CS*%
X144989400Y-54510600D03*
%TO.N,EEPROM_SCK*%
X142630000Y-52370000D03*
%TO.N,GND*%
X87200000Y-78000000D03*
X58100000Y-79100000D03*
X96600000Y-78600000D03*
X111400000Y-66000000D03*
X63500000Y-74250000D03*
X91400000Y-66000000D03*
X133000000Y-65400000D03*
X130800000Y-68200000D03*
X44700000Y-61400000D03*
X106700000Y-78300000D03*
X146800000Y-48100000D03*
X44200000Y-47500000D03*
X72200000Y-65900000D03*
X110200000Y-46600000D03*
X90900000Y-80800000D03*
X108250000Y-58750000D03*
X48500000Y-43400000D03*
X144300000Y-53000000D03*
X129500000Y-77300000D03*
X72100000Y-46400000D03*
X44200000Y-76600000D03*
X100100000Y-59500000D03*
X122700000Y-43200000D03*
X68400000Y-78100000D03*
X119100000Y-56500000D03*
X63900000Y-65100000D03*
X91000000Y-46600000D03*
X134600000Y-76200000D03*
X127200000Y-52500000D03*
X158400000Y-53900000D03*
X151200000Y-47800000D03*
X157900000Y-47400000D03*
X155500000Y-74500000D03*
X116400000Y-63300000D03*
X146900000Y-51900000D03*
X51000000Y-58750000D03*
X50400000Y-60900000D03*
X82600000Y-53700000D03*
X101700000Y-65400000D03*
X141500000Y-74400000D03*
X48500000Y-80900000D03*
X109900000Y-80800000D03*
X154100000Y-43600000D03*
X125900000Y-77600000D03*
X53000000Y-65900000D03*
X77700000Y-78800000D03*
X121700000Y-58700000D03*
X149100000Y-54100000D03*
X121200000Y-77400000D03*
X89250000Y-58750000D03*
X101700000Y-53500000D03*
X53200000Y-46500000D03*
X140500000Y-45300000D03*
X101750000Y-74000000D03*
X49500000Y-74500000D03*
X123100000Y-63500000D03*
X70000000Y-58750000D03*
X82600000Y-61500000D03*
X71900000Y-80900000D03*
X138000000Y-77500000D03*
X63300000Y-53800000D03*
X128300000Y-60600000D03*
X126600000Y-47500000D03*
X138100000Y-53300000D03*
X120600000Y-48000000D03*
X82750000Y-74000000D03*
X124300000Y-48700000D03*
%TO.N,+3.3V*%
X133380000Y-60870000D03*
X152880000Y-74370000D03*
%TO.N,EEPROM_MISO*%
X147630000Y-54370000D03*
%TO.N,EEPROM_MOSI*%
X140130000Y-51470000D03*
%TO.N,SW_1_3*%
X121750000Y-45750000D03*
X121750000Y-50250000D03*
%TO.N,SW_1_4*%
X123000000Y-51000000D03*
X123000000Y-45750000D03*
%TO.N,Net-(D1-DIN)*%
X121750000Y-61620000D03*
%TD*%
D16*
%TO.N,+5V*%
X111500000Y-80000000D02*
X127750000Y-80000000D01*
X56332500Y-55500000D02*
X55382500Y-56450000D01*
X92967500Y-80000000D02*
X90817500Y-77850000D01*
X112382500Y-56132500D02*
X111750000Y-55500000D01*
D17*
X121000000Y-60500000D02*
X121760000Y-60500000D01*
X157814313Y-74695737D02*
X157814313Y-74554313D01*
D18*
X112382500Y-56450000D02*
X112382500Y-56132500D01*
D16*
X109817500Y-78317500D02*
X111500000Y-80000000D01*
X69467500Y-80200000D02*
X55167500Y-80200000D01*
X92432500Y-55500000D02*
X75332500Y-55500000D01*
X108135000Y-80000000D02*
X92967500Y-80000000D01*
D17*
X116950000Y-56450000D02*
X121000000Y-60500000D01*
D16*
X109817500Y-77850000D02*
X109817500Y-78317500D01*
X93382500Y-56450000D02*
X92432500Y-55500000D01*
X90817500Y-77850000D02*
X88667500Y-80000000D01*
X73967500Y-80000000D02*
X71817500Y-77850000D01*
X75332500Y-55500000D02*
X74382500Y-56450000D01*
D17*
X121760000Y-60500000D02*
X121920000Y-60660000D01*
D16*
X109817500Y-78317500D02*
X108135000Y-80000000D01*
D17*
X127380000Y-79630000D02*
X127750000Y-80000000D01*
D16*
X73432500Y-55500000D02*
X56332500Y-55500000D01*
D17*
X127380000Y-61620000D02*
X127380000Y-79630000D01*
D16*
X55167500Y-80200000D02*
X52817500Y-77850000D01*
X111750000Y-55500000D02*
X94332500Y-55500000D01*
D17*
X116950000Y-56450000D02*
X112382500Y-56450000D01*
D16*
X94332500Y-55500000D02*
X93382500Y-56450000D01*
X127750000Y-80000000D02*
X155000000Y-80000000D01*
X157814313Y-77185687D02*
X157814313Y-74554313D01*
X155000000Y-80000000D02*
X157814313Y-77185687D01*
X74382500Y-56450000D02*
X73432500Y-55500000D01*
X88667500Y-80000000D02*
X73967500Y-80000000D01*
X71817500Y-77850000D02*
X69467500Y-80200000D01*
D18*
%TO.N,OLED_SDA*%
X151130000Y-50580000D02*
X147650000Y-47100000D01*
X149630000Y-55370000D02*
X151130000Y-53870000D01*
X136380000Y-71370000D02*
X136380000Y-57120000D01*
X147650000Y-47100000D02*
X144320000Y-47100000D01*
X138130000Y-55370000D02*
X149630000Y-55370000D01*
X151130000Y-53870000D02*
X151130000Y-50580000D01*
X136380000Y-57120000D02*
X138130000Y-55370000D01*
%TO.N,OLED_SCL*%
X140130000Y-74271471D02*
X137630000Y-71771471D01*
X141780000Y-46020000D02*
X141780000Y-47100000D01*
X151880000Y-54120000D02*
X151880000Y-49870000D01*
X137630000Y-71771471D02*
X137630000Y-57120000D01*
X140130000Y-74370000D02*
X140130000Y-74271471D01*
X151880000Y-49870000D02*
X147410000Y-45400000D01*
X138630000Y-56120000D02*
X149880000Y-56120000D01*
X149880000Y-56120000D02*
X151880000Y-54120000D01*
X137630000Y-57120000D02*
X138630000Y-56120000D01*
X147410000Y-45400000D02*
X142400000Y-45400000D01*
X142400000Y-45400000D02*
X141780000Y-46020000D01*
%TO.N,EEPROM_CS*%
X134400000Y-54010600D02*
X134900000Y-54510600D01*
X134900000Y-54510600D02*
X144989400Y-54510600D01*
%TO.N,EEPROM_SCK*%
X133380000Y-52620000D02*
X133630000Y-52370000D01*
X133630000Y-52370000D02*
X142630000Y-52370000D01*
X133130000Y-52870000D02*
X133380000Y-52620000D01*
X133130000Y-54010600D02*
X133130000Y-52870000D01*
%TO.N,GND*%
X55732500Y-76100000D02*
X55082500Y-76750000D01*
X63500000Y-76100000D02*
X63500000Y-74250000D01*
X82750000Y-75750000D02*
X82750000Y-74000000D01*
X108250000Y-58750000D02*
X109450000Y-57550000D01*
X70000000Y-58750000D02*
X71200000Y-57550000D01*
D16*
X128500000Y-52500000D02*
X133900000Y-47100000D01*
D18*
X93750000Y-76082500D02*
X93082500Y-76750000D01*
X112082500Y-76750000D02*
X112082500Y-76082500D01*
D16*
X131860000Y-59370000D02*
X130370000Y-59370000D01*
X131860000Y-75360000D02*
X131860000Y-59370000D01*
D18*
X117250000Y-62500000D02*
X116000000Y-61250000D01*
X50250000Y-75250000D02*
X49500000Y-74500000D01*
X101750000Y-76082500D02*
X93750000Y-76082500D01*
D16*
X155500000Y-77250000D02*
X154250000Y-78500000D01*
D18*
X90450000Y-57550000D02*
X91117500Y-57550000D01*
D16*
X154250000Y-78500000D02*
X135000000Y-78500000D01*
D18*
X116000000Y-61250000D02*
X113817500Y-61250000D01*
D16*
X128500000Y-57500000D02*
X128500000Y-52500000D01*
D18*
X82750000Y-75750000D02*
X75082500Y-75750000D01*
X113817500Y-61250000D02*
X110117500Y-57550000D01*
X109450000Y-57550000D02*
X110117500Y-57550000D01*
X74082500Y-76750000D02*
X73432500Y-76100000D01*
X53582500Y-75250000D02*
X50250000Y-75250000D01*
X55082500Y-76750000D02*
X53582500Y-75250000D01*
X75082500Y-75750000D02*
X74082500Y-76750000D01*
X52200000Y-57550000D02*
X53117500Y-57550000D01*
X73432500Y-76100000D02*
X63500000Y-76100000D01*
X122750000Y-62500000D02*
X117250000Y-62500000D01*
X93082500Y-76750000D02*
X92082500Y-75750000D01*
D16*
X131860000Y-59370000D02*
X130590000Y-59370000D01*
X155500000Y-74500000D02*
X155500000Y-77250000D01*
D18*
X112082500Y-76082500D02*
X101750000Y-76082500D01*
X125880000Y-59370000D02*
X122750000Y-62500000D01*
X101750000Y-76082500D02*
X101750000Y-74000000D01*
D16*
X135000000Y-78500000D02*
X131860000Y-75360000D01*
D18*
X51000000Y-58750000D02*
X52200000Y-57550000D01*
D16*
X130370000Y-59370000D02*
X128500000Y-57500000D01*
D18*
X130590000Y-59370000D02*
X125880000Y-59370000D01*
X92082500Y-75750000D02*
X82750000Y-75750000D01*
X63500000Y-76100000D02*
X55732500Y-76100000D01*
X71200000Y-57550000D02*
X72117500Y-57550000D01*
X89250000Y-58750000D02*
X90450000Y-57550000D01*
D16*
X133900000Y-47100000D02*
X136700000Y-47100000D01*
D18*
X130590000Y-59370000D02*
X130590000Y-59090000D01*
D17*
%TO.N,+3.3V*%
X134400000Y-57890000D02*
X132621301Y-57890000D01*
X139240000Y-48760000D02*
X139240000Y-47100000D01*
X129380000Y-53372501D02*
X132882501Y-49870000D01*
X152880000Y-75120000D02*
X151380000Y-76620000D01*
X138130000Y-49870000D02*
X139240000Y-48760000D01*
X134380000Y-61870000D02*
X133380000Y-60870000D01*
X134380000Y-72120000D02*
X134380000Y-61870000D01*
X132882501Y-49870000D02*
X138130000Y-49870000D01*
X152880000Y-74370000D02*
X152880000Y-75120000D01*
X129380000Y-54648699D02*
X129380000Y-53372501D01*
X134400000Y-61850000D02*
X134400000Y-59370000D01*
X132621301Y-57890000D02*
X129380000Y-54648699D01*
X134400000Y-59370000D02*
X134400000Y-57890000D01*
X134380000Y-61870000D02*
X134400000Y-61850000D01*
X151380000Y-76620000D02*
X138880000Y-76620000D01*
X138880000Y-76620000D02*
X134380000Y-72120000D01*
D18*
%TO.N,EEPROM_MISO*%
X130590000Y-54010600D02*
X130590000Y-53410000D01*
X133380000Y-50620000D02*
X143880000Y-50620000D01*
X143880000Y-50620000D02*
X147630000Y-54370000D01*
X130590000Y-53410000D02*
X133380000Y-50620000D01*
%TO.N,EEPROM_MOSI*%
X133530000Y-51470000D02*
X140130000Y-51470000D01*
X131860000Y-54010600D02*
X131860000Y-53140000D01*
X131860000Y-53140000D02*
X133530000Y-51470000D01*
%TO.N,SW_1_3*%
X121750000Y-45750000D02*
X121750000Y-50250000D01*
%TO.N,SW_1_4*%
X123000000Y-45750000D02*
X123000000Y-51000000D01*
%TO.N,Net-(D1-DIN)*%
X120370000Y-61620000D02*
X121750000Y-61620000D01*
X116300000Y-57550000D02*
X120370000Y-61620000D01*
X112382500Y-57550000D02*
X116300000Y-57550000D01*
%TO.N,Net-(D8-DOUT)*%
X115350000Y-77850000D02*
X115400000Y-77800000D01*
X112082500Y-77850000D02*
X115350000Y-77850000D01*
%TO.N,Net-(D1-DOUT)*%
X103050000Y-56450000D02*
X101950000Y-57550000D01*
X110117500Y-56450000D02*
X103050000Y-56450000D01*
X101950000Y-57550000D02*
X93382500Y-57550000D01*
%TO.N,Net-(D2-DOUT)*%
X84050000Y-56450000D02*
X82950000Y-57550000D01*
X82950000Y-57550000D02*
X74382500Y-57550000D01*
X91117500Y-56450000D02*
X84050000Y-56450000D01*
%TO.N,Net-(D3-DOUT)*%
X72117500Y-56450000D02*
X67050000Y-56450000D01*
X67050000Y-56450000D02*
X65950000Y-57550000D01*
X65950000Y-57550000D02*
X55382500Y-57550000D01*
%TO.N,Net-(D4-DOUT)*%
X47250000Y-73500000D02*
X50500000Y-76750000D01*
X47250000Y-59750000D02*
X47250000Y-73500000D01*
X50500000Y-76750000D02*
X52817500Y-76750000D01*
X53117500Y-56450000D02*
X50550000Y-56450000D01*
X50550000Y-56450000D02*
X47250000Y-59750000D01*
%TO.N,Net-(D5-DOUT)*%
X62650000Y-77850000D02*
X63750000Y-76750000D01*
X55082500Y-77850000D02*
X62650000Y-77850000D01*
X63750000Y-76750000D02*
X71817500Y-76750000D01*
%TO.N,Net-(D6-DOUT)*%
X81400000Y-77850000D02*
X82500000Y-76750000D01*
X82500000Y-76750000D02*
X90817500Y-76750000D01*
X74082500Y-77850000D02*
X81400000Y-77850000D01*
%TO.N,Net-(D7-DOUT)*%
X93082500Y-77850000D02*
X100650000Y-77850000D01*
X101750000Y-76750000D02*
X109817500Y-76750000D01*
X100650000Y-77850000D02*
X101750000Y-76750000D01*
%TD*%
%TA.AperFunction,Conductor*%
%TO.N,GND*%
G36*
X154808363Y-42520185D02*
G01*
X154829005Y-42536819D01*
X159063181Y-46770995D01*
X159096666Y-46832318D01*
X159099500Y-46858676D01*
X159099500Y-57745500D01*
X159079815Y-57812539D01*
X159027011Y-57858294D01*
X158975500Y-57869500D01*
X138834108Y-57869500D01*
X138706812Y-57903608D01*
X138592686Y-57969500D01*
X138592683Y-57969502D01*
X138499502Y-58062683D01*
X138499500Y-58062686D01*
X138461887Y-58127833D01*
X138411319Y-58176048D01*
X138342712Y-58189270D01*
X138277847Y-58163302D01*
X138237319Y-58106387D01*
X138230500Y-58065832D01*
X138230500Y-57420097D01*
X138250185Y-57353058D01*
X138266819Y-57332416D01*
X138842417Y-56756819D01*
X138903740Y-56723334D01*
X138930098Y-56720500D01*
X149793331Y-56720500D01*
X149793347Y-56720501D01*
X149800943Y-56720501D01*
X149959054Y-56720501D01*
X149959057Y-56720501D01*
X150111785Y-56679577D01*
X150161904Y-56650639D01*
X150248716Y-56600520D01*
X150360520Y-56488716D01*
X150360520Y-56488714D01*
X150370728Y-56478507D01*
X150370730Y-56478504D01*
X152238506Y-54610728D01*
X152238511Y-54610724D01*
X152248714Y-54600520D01*
X152248716Y-54600520D01*
X152360520Y-54488716D01*
X152429060Y-54370000D01*
X152439577Y-54351785D01*
X152480500Y-54199057D01*
X152480500Y-54040943D01*
X152480500Y-49959060D01*
X152480501Y-49959047D01*
X152480501Y-49790944D01*
X152471031Y-49755601D01*
X152439577Y-49638216D01*
X152402922Y-49574727D01*
X152360524Y-49501290D01*
X152360518Y-49501282D01*
X147897590Y-45038355D01*
X147897588Y-45038352D01*
X147778717Y-44919481D01*
X147778716Y-44919480D01*
X147691904Y-44869360D01*
X147691904Y-44869359D01*
X147691900Y-44869358D01*
X147641785Y-44840423D01*
X147489057Y-44799499D01*
X147330943Y-44799499D01*
X147323347Y-44799499D01*
X147323331Y-44799500D01*
X142320940Y-44799500D01*
X142280019Y-44810464D01*
X142280019Y-44810465D01*
X142242751Y-44820451D01*
X142168214Y-44840423D01*
X142168209Y-44840426D01*
X142031290Y-44919475D01*
X142031282Y-44919481D01*
X141299481Y-45651282D01*
X141299479Y-45651285D01*
X141249361Y-45738094D01*
X141249359Y-45738096D01*
X141220425Y-45788209D01*
X141220422Y-45788215D01*
X141210091Y-45826769D01*
X141173724Y-45886429D01*
X141142725Y-45907053D01*
X141102169Y-45925965D01*
X140908597Y-46061505D01*
X140741505Y-46228597D01*
X140611575Y-46414158D01*
X140556998Y-46457783D01*
X140487500Y-46464977D01*
X140425145Y-46433454D01*
X140408425Y-46414158D01*
X140278494Y-46228597D01*
X140111402Y-46061506D01*
X140111395Y-46061501D01*
X139917834Y-45925967D01*
X139917830Y-45925965D01*
X139824872Y-45882618D01*
X139703663Y-45826097D01*
X139703659Y-45826096D01*
X139703655Y-45826094D01*
X139475413Y-45764938D01*
X139475403Y-45764936D01*
X139240001Y-45744341D01*
X139239999Y-45744341D01*
X139004596Y-45764936D01*
X139004586Y-45764938D01*
X138776344Y-45826094D01*
X138776335Y-45826098D01*
X138562171Y-45925964D01*
X138562169Y-45925965D01*
X138368600Y-46061503D01*
X138246284Y-46183819D01*
X138184961Y-46217303D01*
X138115269Y-46212319D01*
X138059336Y-46170447D01*
X138042421Y-46139470D01*
X137993354Y-46007913D01*
X137993350Y-46007906D01*
X137907190Y-45892812D01*
X137907187Y-45892809D01*
X137792093Y-45806649D01*
X137792086Y-45806645D01*
X137657379Y-45756403D01*
X137657372Y-45756401D01*
X137597844Y-45750000D01*
X136950000Y-45750000D01*
X136950000Y-46666988D01*
X136892993Y-46634075D01*
X136765826Y-46600000D01*
X136634174Y-46600000D01*
X136507007Y-46634075D01*
X136450000Y-46666988D01*
X136450000Y-45750000D01*
X135802155Y-45750000D01*
X135742627Y-45756401D01*
X135742620Y-45756403D01*
X135607913Y-45806645D01*
X135607906Y-45806649D01*
X135492812Y-45892809D01*
X135492809Y-45892812D01*
X135406649Y-46007906D01*
X135406645Y-46007913D01*
X135356403Y-46142620D01*
X135356401Y-46142627D01*
X135350000Y-46202155D01*
X135350000Y-46850000D01*
X136266988Y-46850000D01*
X136234075Y-46907007D01*
X136200000Y-47034174D01*
X136200000Y-47165826D01*
X136234075Y-47292993D01*
X136266988Y-47350000D01*
X135350000Y-47350000D01*
X135350000Y-47997844D01*
X135356401Y-48057372D01*
X135356403Y-48057379D01*
X135406645Y-48192086D01*
X135406649Y-48192093D01*
X135492809Y-48307187D01*
X135492812Y-48307190D01*
X135607906Y-48393350D01*
X135607913Y-48393354D01*
X135742620Y-48443596D01*
X135742627Y-48443598D01*
X135802155Y-48449999D01*
X135802172Y-48450000D01*
X136450000Y-48450000D01*
X136450000Y-47533012D01*
X136507007Y-47565925D01*
X136634174Y-47600000D01*
X136765826Y-47600000D01*
X136892993Y-47565925D01*
X136950000Y-47533012D01*
X136950000Y-48450000D01*
X137597828Y-48450000D01*
X137597844Y-48449999D01*
X137657372Y-48443598D01*
X137657379Y-48443596D01*
X137792086Y-48393354D01*
X137792093Y-48393350D01*
X137907187Y-48307190D01*
X137907190Y-48307187D01*
X137993350Y-48192093D01*
X137993354Y-48192086D01*
X138042422Y-48060529D01*
X138084293Y-48004595D01*
X138149757Y-47980178D01*
X138218030Y-47995030D01*
X138246282Y-48016178D01*
X138368597Y-48138493D01*
X138368600Y-48138496D01*
X138486623Y-48221136D01*
X138530248Y-48275713D01*
X138539500Y-48322711D01*
X138539500Y-48418481D01*
X138519815Y-48485520D01*
X138503181Y-48506162D01*
X137876162Y-49133181D01*
X137814839Y-49166666D01*
X137788481Y-49169500D01*
X132813504Y-49169500D01*
X132705091Y-49191065D01*
X132705090Y-49191065D01*
X132691632Y-49193742D01*
X132678174Y-49196419D01*
X132678172Y-49196420D01*
X132625367Y-49218292D01*
X132625365Y-49218293D01*
X132625364Y-49218292D01*
X132550692Y-49249223D01*
X132468545Y-49304113D01*
X132435956Y-49325888D01*
X132435952Y-49325891D01*
X128835888Y-52925954D01*
X128835887Y-52925955D01*
X128759222Y-53040693D01*
X128706422Y-53168166D01*
X128706420Y-53168173D01*
X128704425Y-53178207D01*
X128704423Y-53178215D01*
X128679500Y-53303505D01*
X128679500Y-53303508D01*
X128679500Y-54579705D01*
X128679500Y-54717693D01*
X128679500Y-54717695D01*
X128679499Y-54717695D01*
X128706418Y-54853021D01*
X128706421Y-54853031D01*
X128759222Y-54980506D01*
X128835887Y-55095244D01*
X128835888Y-55095245D01*
X131629863Y-57889219D01*
X131663348Y-57950542D01*
X131658364Y-58020234D01*
X131616492Y-58076167D01*
X131551028Y-58100584D01*
X131542182Y-58100900D01*
X131533155Y-58100900D01*
X131473627Y-58107301D01*
X131473620Y-58107303D01*
X131338913Y-58157545D01*
X131338906Y-58157549D01*
X131299310Y-58187191D01*
X131233846Y-58211608D01*
X131165573Y-58196756D01*
X131150690Y-58187191D01*
X131111093Y-58157549D01*
X131111086Y-58157545D01*
X130976379Y-58107303D01*
X130976372Y-58107301D01*
X130916844Y-58100900D01*
X130840000Y-58100900D01*
X130840000Y-59120000D01*
X131986000Y-59120000D01*
X132053039Y-59139685D01*
X132098794Y-59192489D01*
X132110000Y-59244000D01*
X132110000Y-60639100D01*
X132186828Y-60639100D01*
X132186844Y-60639099D01*
X132246372Y-60632698D01*
X132246376Y-60632697D01*
X132381090Y-60582451D01*
X132398092Y-60569723D01*
X132463555Y-60545302D01*
X132531829Y-60560151D01*
X132581237Y-60609553D01*
X132596093Y-60677826D01*
X132595206Y-60683801D01*
X132595411Y-60683825D01*
X132574435Y-60869996D01*
X132574435Y-60870003D01*
X132594630Y-61049249D01*
X132594631Y-61049254D01*
X132654211Y-61219523D01*
X132700458Y-61293124D01*
X132750184Y-61372262D01*
X132877738Y-61499816D01*
X133030478Y-61595789D01*
X133133984Y-61632007D01*
X133180710Y-61661367D01*
X133643181Y-62123838D01*
X133676666Y-62185161D01*
X133679500Y-62211519D01*
X133679500Y-72051006D01*
X133679500Y-72188994D01*
X133679500Y-72188996D01*
X133679499Y-72188996D01*
X133706418Y-72324322D01*
X133706421Y-72324332D01*
X133759222Y-72451807D01*
X133835887Y-72566545D01*
X138433454Y-77164112D01*
X138548192Y-77240777D01*
X138675667Y-77293578D01*
X138675672Y-77293580D01*
X138675676Y-77293580D01*
X138675677Y-77293581D01*
X138811003Y-77320500D01*
X138811006Y-77320500D01*
X151448996Y-77320500D01*
X151552053Y-77300000D01*
X151584328Y-77293580D01*
X151691691Y-77249109D01*
X151711807Y-77240777D01*
X151711808Y-77240776D01*
X151711811Y-77240775D01*
X151826543Y-77164114D01*
X153424113Y-75566543D01*
X153500774Y-75451812D01*
X153500775Y-75451811D01*
X153553580Y-75324328D01*
X153580500Y-75188993D01*
X153580500Y-74795493D01*
X153599508Y-74729519D01*
X153604724Y-74721215D01*
X153605789Y-74719522D01*
X153665368Y-74549255D01*
X153685565Y-74370000D01*
X153682201Y-74340145D01*
X153665369Y-74190750D01*
X153665368Y-74190745D01*
X153616837Y-74052051D01*
X153605789Y-74020478D01*
X153509816Y-73867738D01*
X153382262Y-73740184D01*
X153368895Y-73731785D01*
X153229523Y-73644211D01*
X153059254Y-73584631D01*
X153059249Y-73584630D01*
X152880004Y-73564435D01*
X152879996Y-73564435D01*
X152700750Y-73584630D01*
X152700745Y-73584631D01*
X152530476Y-73644211D01*
X152377737Y-73740184D01*
X152250184Y-73867737D01*
X152154211Y-74020476D01*
X152094631Y-74190745D01*
X152094630Y-74190750D01*
X152074435Y-74369996D01*
X152074435Y-74370003D01*
X152094630Y-74549249D01*
X152094631Y-74549254D01*
X152154213Y-74719529D01*
X152157231Y-74725795D01*
X152155994Y-74726390D01*
X152172929Y-74786303D01*
X152152565Y-74853139D01*
X152136616Y-74872726D01*
X151126162Y-75883181D01*
X151064839Y-75916666D01*
X151038481Y-75919500D01*
X139221519Y-75919500D01*
X139154480Y-75899815D01*
X139133838Y-75883181D01*
X135116819Y-71866162D01*
X135083334Y-71804839D01*
X135080500Y-71778481D01*
X135080500Y-62031750D01*
X135082883Y-62007558D01*
X135087493Y-61984385D01*
X135090449Y-61969522D01*
X135100500Y-61918993D01*
X135100500Y-60452486D01*
X135119005Y-60389462D01*
X135118547Y-60389212D01*
X135119698Y-60387102D01*
X135120185Y-60385447D01*
X135122143Y-60382625D01*
X135122797Y-60381429D01*
X135173091Y-60246582D01*
X135173103Y-60246472D01*
X135179500Y-60186973D01*
X135179499Y-58553028D01*
X135173091Y-58493417D01*
X135150972Y-58434114D01*
X135122797Y-58358571D01*
X135118546Y-58350786D01*
X135120680Y-58349620D01*
X135100815Y-58296352D01*
X135100500Y-58287513D01*
X135100500Y-57821004D01*
X135073581Y-57685677D01*
X135073580Y-57685676D01*
X135073580Y-57685672D01*
X135025944Y-57570668D01*
X135020778Y-57558195D01*
X135020771Y-57558182D01*
X134944114Y-57443458D01*
X134944111Y-57443454D01*
X134846545Y-57345888D01*
X134846541Y-57345885D01*
X134731817Y-57269228D01*
X134731804Y-57269221D01*
X134604332Y-57216421D01*
X134604322Y-57216418D01*
X134468995Y-57189500D01*
X134468993Y-57189500D01*
X132962820Y-57189500D01*
X132895781Y-57169815D01*
X132875139Y-57153181D01*
X131117657Y-55395699D01*
X131084172Y-55334376D01*
X131089156Y-55264684D01*
X131131026Y-55208752D01*
X131150690Y-55194031D01*
X131216153Y-55169615D01*
X131284426Y-55184466D01*
X131299309Y-55194031D01*
X131318972Y-55208751D01*
X131338668Y-55223495D01*
X131338671Y-55223497D01*
X131383618Y-55240261D01*
X131473517Y-55273791D01*
X131533127Y-55280200D01*
X132186872Y-55280199D01*
X132246483Y-55273791D01*
X132381331Y-55223496D01*
X132420688Y-55194032D01*
X132486152Y-55169615D01*
X132554425Y-55184466D01*
X132569309Y-55194031D01*
X132588972Y-55208751D01*
X132608668Y-55223495D01*
X132608671Y-55223497D01*
X132653618Y-55240261D01*
X132743517Y-55273791D01*
X132803127Y-55280200D01*
X133456872Y-55280199D01*
X133516483Y-55273791D01*
X133651331Y-55223496D01*
X133690688Y-55194032D01*
X133756152Y-55169615D01*
X133824425Y-55184466D01*
X133839309Y-55194031D01*
X133858972Y-55208751D01*
X133878668Y-55223495D01*
X133878671Y-55223497D01*
X133923618Y-55240261D01*
X134013517Y-55273791D01*
X134073127Y-55280200D01*
X134726872Y-55280199D01*
X134786483Y-55273791D01*
X134921331Y-55223496D01*
X135036546Y-55137246D01*
X135036546Y-55137245D01*
X135038433Y-55135833D01*
X135103897Y-55111416D01*
X135112744Y-55111100D01*
X137240302Y-55111100D01*
X137307341Y-55130785D01*
X137353096Y-55183589D01*
X137363040Y-55252747D01*
X137334015Y-55316303D01*
X137327983Y-55322781D01*
X135899481Y-56751282D01*
X135899477Y-56751287D01*
X135859562Y-56820424D01*
X135820424Y-56888211D01*
X135820423Y-56888212D01*
X135804001Y-56949500D01*
X135779499Y-57040943D01*
X135779499Y-57040945D01*
X135779499Y-57209046D01*
X135779500Y-57209059D01*
X135779500Y-70787587D01*
X135759815Y-70854626D01*
X135752450Y-70864896D01*
X135750186Y-70867734D01*
X135654211Y-71020476D01*
X135594631Y-71190745D01*
X135594630Y-71190750D01*
X135574435Y-71369996D01*
X135574435Y-71370003D01*
X135594630Y-71549249D01*
X135594631Y-71549254D01*
X135654211Y-71719523D01*
X135736528Y-71850528D01*
X135750184Y-71872262D01*
X135877738Y-71999816D01*
X136030478Y-72095789D01*
X136157349Y-72140183D01*
X136200745Y-72155368D01*
X136200750Y-72155369D01*
X136379996Y-72175565D01*
X136380000Y-72175565D01*
X136380004Y-72175565D01*
X136559249Y-72155369D01*
X136559252Y-72155368D01*
X136559255Y-72155368D01*
X136729522Y-72095789D01*
X136882262Y-71999816D01*
X136886024Y-71996054D01*
X136947347Y-71962569D01*
X137017039Y-71967553D01*
X137072972Y-72009425D01*
X137081092Y-72021735D01*
X137149477Y-72140183D01*
X137149481Y-72140188D01*
X137268349Y-72259056D01*
X137268355Y-72259061D01*
X139288116Y-74278822D01*
X139321601Y-74340145D01*
X139324435Y-74366503D01*
X139324435Y-74370003D01*
X139344630Y-74549249D01*
X139344631Y-74549254D01*
X139404211Y-74719523D01*
X139473530Y-74829843D01*
X139500184Y-74872262D01*
X139627738Y-74999816D01*
X139780478Y-75095789D01*
X139950745Y-75155368D01*
X139950750Y-75155369D01*
X140129996Y-75175565D01*
X140130000Y-75175565D01*
X140130004Y-75175565D01*
X140309249Y-75155369D01*
X140309252Y-75155368D01*
X140309255Y-75155368D01*
X140479522Y-75095789D01*
X140632262Y-74999816D01*
X140759816Y-74872262D01*
X140855789Y-74719522D01*
X140915368Y-74549255D01*
X140935565Y-74370000D01*
X140932201Y-74340145D01*
X140915369Y-74190750D01*
X140915368Y-74190745D01*
X140866837Y-74052051D01*
X140855789Y-74020478D01*
X140759816Y-73867738D01*
X140632262Y-73740184D01*
X140618895Y-73731785D01*
X140479521Y-73644210D01*
X140310035Y-73584905D01*
X140263308Y-73555544D01*
X138266819Y-71559055D01*
X138233334Y-71497732D01*
X138230500Y-71471374D01*
X138230500Y-70674167D01*
X138250185Y-70607128D01*
X138302989Y-70561373D01*
X138372147Y-70551429D01*
X138435703Y-70580454D01*
X138461887Y-70612167D01*
X138499497Y-70677310D01*
X138499499Y-70677312D01*
X138499500Y-70677314D01*
X138592686Y-70770500D01*
X138706814Y-70836392D01*
X138834108Y-70870500D01*
X158975500Y-70870500D01*
X159042539Y-70890185D01*
X159088294Y-70942989D01*
X159099500Y-70994500D01*
X159099500Y-77141324D01*
X159079815Y-77208363D01*
X159063181Y-77229005D01*
X158728145Y-77564040D01*
X158666822Y-77597525D01*
X158597130Y-77592541D01*
X158541197Y-77550669D01*
X158516780Y-77485205D01*
X158525903Y-77428905D01*
X158535972Y-77404599D01*
X158564813Y-77259604D01*
X158564813Y-77111769D01*
X158564813Y-74854285D01*
X158571771Y-74813330D01*
X158599681Y-74733568D01*
X158599682Y-74733562D01*
X158619878Y-74554316D01*
X158619878Y-74554309D01*
X158599682Y-74375063D01*
X158599681Y-74375058D01*
X158580659Y-74320696D01*
X158540102Y-74204791D01*
X158531279Y-74190750D01*
X158493013Y-74129850D01*
X158444129Y-74052051D01*
X158316575Y-73924497D01*
X158230097Y-73870159D01*
X158163836Y-73828524D01*
X157993567Y-73768944D01*
X157993562Y-73768943D01*
X157814317Y-73748748D01*
X157814309Y-73748748D01*
X157635063Y-73768943D01*
X157635058Y-73768944D01*
X157464789Y-73828524D01*
X157312050Y-73924497D01*
X157184497Y-74052050D01*
X157088524Y-74204789D01*
X157028944Y-74375058D01*
X157028943Y-74375063D01*
X157008748Y-74554309D01*
X157008748Y-74554316D01*
X157028943Y-74733562D01*
X157028944Y-74733567D01*
X157056855Y-74813330D01*
X157063813Y-74854285D01*
X157063813Y-76823457D01*
X157044128Y-76890496D01*
X157027494Y-76911138D01*
X154725451Y-79213181D01*
X154664128Y-79246666D01*
X154637770Y-79249500D01*
X128204500Y-79249500D01*
X128137461Y-79229815D01*
X128091706Y-79177011D01*
X128080500Y-79125500D01*
X128080500Y-62045493D01*
X128099508Y-61979519D01*
X128105787Y-61969525D01*
X128105786Y-61969525D01*
X128105789Y-61969522D01*
X128165368Y-61799255D01*
X128183159Y-61641354D01*
X128185565Y-61620003D01*
X128185565Y-61619996D01*
X128165369Y-61440750D01*
X128165368Y-61440745D01*
X128105788Y-61270476D01*
X128009815Y-61117737D01*
X127882262Y-60990184D01*
X127729523Y-60894211D01*
X127559254Y-60834631D01*
X127559249Y-60834630D01*
X127380004Y-60814435D01*
X127379996Y-60814435D01*
X127200750Y-60834630D01*
X127200745Y-60834631D01*
X127030476Y-60894211D01*
X126877737Y-60990184D01*
X126750184Y-61117737D01*
X126654211Y-61270476D01*
X126594631Y-61440745D01*
X126594630Y-61440750D01*
X126574435Y-61619996D01*
X126574435Y-61620003D01*
X126594630Y-61799249D01*
X126594631Y-61799254D01*
X126654212Y-61969525D01*
X126660492Y-61979519D01*
X126679500Y-62045493D01*
X126679500Y-79125500D01*
X126659815Y-79192539D01*
X126607011Y-79238294D01*
X126555500Y-79249500D01*
X115763831Y-79249500D01*
X115696792Y-79229815D01*
X115651037Y-79177011D01*
X115641093Y-79107853D01*
X115670118Y-79044297D01*
X115728896Y-79006523D01*
X115731738Y-79005725D01*
X115792828Y-78989355D01*
X115829330Y-78979575D01*
X116027639Y-78887102D01*
X116206877Y-78761598D01*
X116361598Y-78606877D01*
X116487102Y-78427639D01*
X116579575Y-78229330D01*
X116636207Y-78017977D01*
X116655277Y-77800000D01*
X116636207Y-77582023D01*
X116579575Y-77370670D01*
X116487102Y-77172362D01*
X116487100Y-77172359D01*
X116487099Y-77172357D01*
X116361599Y-76993124D01*
X116295486Y-76927011D01*
X116206877Y-76838402D01*
X116027639Y-76712898D01*
X116027640Y-76712898D01*
X116027638Y-76712897D01*
X115928484Y-76666661D01*
X115829330Y-76620425D01*
X115829326Y-76620424D01*
X115829322Y-76620422D01*
X115617977Y-76563793D01*
X115400002Y-76544723D01*
X115399998Y-76544723D01*
X115254682Y-76557436D01*
X115182023Y-76563793D01*
X115182020Y-76563793D01*
X114970677Y-76620422D01*
X114970668Y-76620426D01*
X114772361Y-76712898D01*
X114772357Y-76712900D01*
X114593121Y-76838402D01*
X114438403Y-76993120D01*
X114312899Y-77172360D01*
X114312898Y-77172362D01*
X114310314Y-77177903D01*
X114264145Y-77230342D01*
X114197932Y-77249500D01*
X113274000Y-77249500D01*
X113206961Y-77229815D01*
X113161206Y-77177011D01*
X113150000Y-77125500D01*
X113150000Y-77000000D01*
X112709167Y-77000000D01*
X112701188Y-76999572D01*
X112701183Y-76999678D01*
X112697879Y-76999500D01*
X112697873Y-76999500D01*
X112697866Y-76999500D01*
X111956500Y-76999500D01*
X111889461Y-76979815D01*
X111843706Y-76927011D01*
X111832500Y-76875500D01*
X111832500Y-76500000D01*
X112332500Y-76500000D01*
X113150000Y-76500000D01*
X113150000Y-76352172D01*
X113149999Y-76352155D01*
X113143598Y-76292627D01*
X113143596Y-76292620D01*
X113093354Y-76157913D01*
X113093350Y-76157906D01*
X113007190Y-76042812D01*
X113007187Y-76042809D01*
X112892093Y-75956649D01*
X112892086Y-75956645D01*
X112757379Y-75906403D01*
X112757372Y-75906401D01*
X112697844Y-75900000D01*
X112332500Y-75900000D01*
X112332500Y-76500000D01*
X111832500Y-76500000D01*
X111832500Y-75900000D01*
X111467155Y-75900000D01*
X111407627Y-75906401D01*
X111407620Y-75906403D01*
X111272913Y-75956645D01*
X111272906Y-75956649D01*
X111157812Y-76042809D01*
X111157809Y-76042812D01*
X111071649Y-76157906D01*
X111071646Y-76157912D01*
X111066447Y-76171851D01*
X111024574Y-76227783D01*
X110959109Y-76252198D01*
X110890836Y-76237345D01*
X110841432Y-76187938D01*
X110834083Y-76171845D01*
X110828796Y-76157669D01*
X110828793Y-76157664D01*
X110742547Y-76042455D01*
X110742544Y-76042452D01*
X110627335Y-75956206D01*
X110627328Y-75956202D01*
X110492482Y-75905908D01*
X110492483Y-75905908D01*
X110432883Y-75899501D01*
X110432881Y-75899500D01*
X110432873Y-75899500D01*
X110432864Y-75899500D01*
X109202129Y-75899500D01*
X109202123Y-75899501D01*
X109142516Y-75905908D01*
X109007671Y-75956202D01*
X109007664Y-75956206D01*
X108892457Y-76042451D01*
X108892451Y-76042457D01*
X108849515Y-76099812D01*
X108793581Y-76141682D01*
X108750249Y-76149500D01*
X101836669Y-76149500D01*
X101836653Y-76149499D01*
X101829057Y-76149499D01*
X101670943Y-76149499D01*
X101591010Y-76170917D01*
X101518216Y-76190422D01*
X101479286Y-76212899D01*
X101479285Y-76212898D01*
X101381284Y-76269479D01*
X101330349Y-76320413D01*
X101269025Y-76353897D01*
X101231863Y-76356258D01*
X101100004Y-76344723D01*
X101099998Y-76344723D01*
X100968151Y-76356258D01*
X100882023Y-76363793D01*
X100882020Y-76363793D01*
X100670677Y-76420422D01*
X100670668Y-76420426D01*
X100472361Y-76512898D01*
X100472357Y-76512900D01*
X100293121Y-76638402D01*
X100138402Y-76793121D01*
X100012900Y-76972357D01*
X100012898Y-76972361D01*
X99969284Y-77065892D01*
X99931056Y-77147873D01*
X99918137Y-77175577D01*
X99916383Y-77174759D01*
X99880016Y-77224165D01*
X99814750Y-77249109D01*
X99804908Y-77249500D01*
X94274000Y-77249500D01*
X94206961Y-77229815D01*
X94161206Y-77177011D01*
X94150000Y-77125500D01*
X94150000Y-77000000D01*
X93709167Y-77000000D01*
X93701188Y-76999572D01*
X93701183Y-76999678D01*
X93697879Y-76999500D01*
X93697873Y-76999500D01*
X93697866Y-76999500D01*
X92956500Y-76999500D01*
X92889461Y-76979815D01*
X92843706Y-76927011D01*
X92832500Y-76875500D01*
X92832500Y-76500000D01*
X93332500Y-76500000D01*
X94150000Y-76500000D01*
X94150000Y-76352172D01*
X94149999Y-76352155D01*
X94143598Y-76292627D01*
X94143596Y-76292620D01*
X94093354Y-76157913D01*
X94093350Y-76157906D01*
X94007190Y-76042812D01*
X94007187Y-76042809D01*
X93892093Y-75956649D01*
X93892086Y-75956645D01*
X93757379Y-75906403D01*
X93757372Y-75906401D01*
X93697844Y-75900000D01*
X93332500Y-75900000D01*
X93332500Y-76500000D01*
X92832500Y-76500000D01*
X92832500Y-75900000D01*
X92467155Y-75900000D01*
X92407627Y-75906401D01*
X92407620Y-75906403D01*
X92272913Y-75956645D01*
X92272906Y-75956649D01*
X92157812Y-76042809D01*
X92157809Y-76042812D01*
X92071649Y-76157906D01*
X92071646Y-76157912D01*
X92066447Y-76171851D01*
X92024574Y-76227783D01*
X91959109Y-76252198D01*
X91890836Y-76237345D01*
X91841432Y-76187938D01*
X91834083Y-76171845D01*
X91828796Y-76157669D01*
X91828793Y-76157664D01*
X91742547Y-76042455D01*
X91742544Y-76042452D01*
X91627335Y-75956206D01*
X91627328Y-75956202D01*
X91492482Y-75905908D01*
X91492483Y-75905908D01*
X91432883Y-75899501D01*
X91432881Y-75899500D01*
X91432873Y-75899500D01*
X91432864Y-75899500D01*
X90202129Y-75899500D01*
X90202123Y-75899501D01*
X90142516Y-75905908D01*
X90007671Y-75956202D01*
X90007664Y-75956206D01*
X89892457Y-76042451D01*
X89892451Y-76042457D01*
X89849515Y-76099812D01*
X89793581Y-76141682D01*
X89750249Y-76149500D01*
X83119171Y-76149500D01*
X83066767Y-76137882D01*
X83029330Y-76120425D01*
X83029326Y-76120424D01*
X83029322Y-76120422D01*
X82817977Y-76063793D01*
X82600002Y-76044723D01*
X82599998Y-76044723D01*
X82454682Y-76057436D01*
X82382023Y-76063793D01*
X82382020Y-76063793D01*
X82170677Y-76120422D01*
X82170668Y-76120426D01*
X81972361Y-76212898D01*
X81972357Y-76212900D01*
X81793121Y-76338402D01*
X81638402Y-76493121D01*
X81512900Y-76672357D01*
X81512898Y-76672361D01*
X81420424Y-76870670D01*
X81420423Y-76870673D01*
X81388880Y-76988390D01*
X81356787Y-77043976D01*
X81187582Y-77213182D01*
X81126262Y-77246666D01*
X81099903Y-77249500D01*
X75274000Y-77249500D01*
X75206961Y-77229815D01*
X75161206Y-77177011D01*
X75150000Y-77125500D01*
X75150000Y-77000000D01*
X74709167Y-77000000D01*
X74701188Y-76999572D01*
X74701183Y-76999678D01*
X74697879Y-76999500D01*
X74697873Y-76999500D01*
X74697866Y-76999500D01*
X73956500Y-76999500D01*
X73889461Y-76979815D01*
X73843706Y-76927011D01*
X73832500Y-76875500D01*
X73832500Y-76500000D01*
X74332500Y-76500000D01*
X75150000Y-76500000D01*
X75150000Y-76352172D01*
X75149999Y-76352155D01*
X75143598Y-76292627D01*
X75143596Y-76292620D01*
X75093354Y-76157913D01*
X75093350Y-76157906D01*
X75007190Y-76042812D01*
X75007187Y-76042809D01*
X74892093Y-75956649D01*
X74892086Y-75956645D01*
X74757379Y-75906403D01*
X74757372Y-75906401D01*
X74697844Y-75900000D01*
X74332500Y-75900000D01*
X74332500Y-76500000D01*
X73832500Y-76500000D01*
X73832500Y-75900000D01*
X73467155Y-75900000D01*
X73407627Y-75906401D01*
X73407620Y-75906403D01*
X73272913Y-75956645D01*
X73272906Y-75956649D01*
X73157812Y-76042809D01*
X73157809Y-76042812D01*
X73071649Y-76157906D01*
X73071646Y-76157912D01*
X73066447Y-76171851D01*
X73024574Y-76227783D01*
X72959109Y-76252198D01*
X72890836Y-76237345D01*
X72841432Y-76187938D01*
X72834083Y-76171845D01*
X72828796Y-76157669D01*
X72828793Y-76157664D01*
X72742547Y-76042455D01*
X72742544Y-76042452D01*
X72627335Y-75956206D01*
X72627328Y-75956202D01*
X72492482Y-75905908D01*
X72492483Y-75905908D01*
X72432883Y-75899501D01*
X72432881Y-75899500D01*
X72432873Y-75899500D01*
X72432864Y-75899500D01*
X71202129Y-75899500D01*
X71202123Y-75899501D01*
X71142516Y-75905908D01*
X71007671Y-75956202D01*
X71007664Y-75956206D01*
X70892457Y-76042451D01*
X70892451Y-76042457D01*
X70849515Y-76099812D01*
X70793581Y-76141682D01*
X70750249Y-76149500D01*
X63836669Y-76149500D01*
X63836653Y-76149499D01*
X63829057Y-76149499D01*
X63670943Y-76149499D01*
X63670941Y-76149499D01*
X63670935Y-76149500D01*
X63663414Y-76151515D01*
X63620523Y-76155266D01*
X63500003Y-76144723D01*
X63499998Y-76144723D01*
X63357703Y-76157172D01*
X63282023Y-76163793D01*
X63282020Y-76163793D01*
X63070677Y-76220422D01*
X63070668Y-76220426D01*
X62872361Y-76312898D01*
X62872357Y-76312900D01*
X62693121Y-76438402D01*
X62538402Y-76593121D01*
X62412900Y-76772357D01*
X62412898Y-76772361D01*
X62320426Y-76970668D01*
X62320422Y-76970677D01*
X62270339Y-77157593D01*
X62233974Y-77217254D01*
X62171127Y-77247783D01*
X62150564Y-77249500D01*
X56274000Y-77249500D01*
X56206961Y-77229815D01*
X56161206Y-77177011D01*
X56150000Y-77125500D01*
X56150000Y-77000000D01*
X55709167Y-77000000D01*
X55701188Y-76999572D01*
X55701183Y-76999678D01*
X55697879Y-76999500D01*
X55697873Y-76999500D01*
X55697866Y-76999500D01*
X54956500Y-76999500D01*
X54889461Y-76979815D01*
X54843706Y-76927011D01*
X54832500Y-76875500D01*
X54832500Y-76500000D01*
X55332500Y-76500000D01*
X56150000Y-76500000D01*
X56150000Y-76352172D01*
X56149999Y-76352155D01*
X56143598Y-76292627D01*
X56143596Y-76292620D01*
X56093354Y-76157913D01*
X56093350Y-76157906D01*
X56007190Y-76042812D01*
X56007187Y-76042809D01*
X55892093Y-75956649D01*
X55892086Y-75956645D01*
X55757379Y-75906403D01*
X55757372Y-75906401D01*
X55697844Y-75900000D01*
X55332500Y-75900000D01*
X55332500Y-76500000D01*
X54832500Y-76500000D01*
X54832500Y-75900000D01*
X54467155Y-75900000D01*
X54407627Y-75906401D01*
X54407620Y-75906403D01*
X54272913Y-75956645D01*
X54272906Y-75956649D01*
X54157812Y-76042809D01*
X54157809Y-76042812D01*
X54071649Y-76157906D01*
X54071646Y-76157912D01*
X54066447Y-76171851D01*
X54024574Y-76227783D01*
X53959109Y-76252198D01*
X53890836Y-76237345D01*
X53841432Y-76187938D01*
X53834083Y-76171845D01*
X53828796Y-76157669D01*
X53828793Y-76157664D01*
X53742547Y-76042455D01*
X53742544Y-76042452D01*
X53627335Y-75956206D01*
X53627328Y-75956202D01*
X53492482Y-75905908D01*
X53492483Y-75905908D01*
X53432883Y-75899501D01*
X53432881Y-75899500D01*
X53432873Y-75899500D01*
X53432864Y-75899500D01*
X52202129Y-75899500D01*
X52202123Y-75899501D01*
X52142516Y-75905908D01*
X52007671Y-75956202D01*
X52007664Y-75956206D01*
X51892457Y-76042451D01*
X51892451Y-76042457D01*
X51849515Y-76099812D01*
X51793581Y-76141682D01*
X51750249Y-76149500D01*
X50800097Y-76149500D01*
X50733058Y-76129815D01*
X50712416Y-76113181D01*
X47886819Y-73287584D01*
X47853334Y-73226261D01*
X47850500Y-73199903D01*
X47850500Y-72284167D01*
X47870185Y-72217128D01*
X47922989Y-72171373D01*
X47992147Y-72161429D01*
X48055703Y-72190454D01*
X48093477Y-72249232D01*
X48095076Y-72255228D01*
X48095721Y-72257917D01*
X48149290Y-72422788D01*
X48149291Y-72422791D01*
X48164076Y-72451807D01*
X48227998Y-72577260D01*
X48329899Y-72717514D01*
X48452486Y-72840101D01*
X48592740Y-72942002D01*
X48668502Y-72980604D01*
X48747208Y-73020708D01*
X48747211Y-73020709D01*
X48829648Y-73047494D01*
X48912088Y-73074280D01*
X48991391Y-73086840D01*
X49083313Y-73101400D01*
X49083318Y-73101400D01*
X49256687Y-73101400D01*
X49339695Y-73088252D01*
X49427912Y-73074280D01*
X49592791Y-73020708D01*
X49747260Y-72942002D01*
X49887514Y-72840101D01*
X50010101Y-72717514D01*
X50112002Y-72577260D01*
X50190708Y-72422791D01*
X50244280Y-72257912D01*
X50262926Y-72140187D01*
X50271400Y-72086687D01*
X50271400Y-71913312D01*
X50261831Y-71852900D01*
X52005600Y-71852900D01*
X52005600Y-72147099D01*
X52005601Y-72147116D01*
X52044001Y-72438796D01*
X52120152Y-72722994D01*
X52232734Y-72994794D01*
X52232742Y-72994810D01*
X52379840Y-73249589D01*
X52379851Y-73249605D01*
X52558948Y-73483009D01*
X52558954Y-73483016D01*
X52766983Y-73691045D01*
X52766990Y-73691051D01*
X52842182Y-73748748D01*
X53000403Y-73870155D01*
X53000410Y-73870159D01*
X53255189Y-74017257D01*
X53255205Y-74017265D01*
X53527005Y-74129847D01*
X53527007Y-74129847D01*
X53527013Y-74129850D01*
X53811200Y-74205998D01*
X54102894Y-74244400D01*
X54102901Y-74244400D01*
X54397099Y-74244400D01*
X54397106Y-74244400D01*
X54688800Y-74205998D01*
X54972987Y-74129850D01*
X55160812Y-74052051D01*
X55244794Y-74017265D01*
X55244797Y-74017263D01*
X55244803Y-74017261D01*
X55499597Y-73870155D01*
X55733011Y-73691050D01*
X55941050Y-73483011D01*
X56120155Y-73249597D01*
X56267261Y-72994803D01*
X56379850Y-72722987D01*
X56455998Y-72438800D01*
X56494400Y-72147106D01*
X56494400Y-71913312D01*
X58228600Y-71913312D01*
X58228600Y-72086687D01*
X58255720Y-72257913D01*
X58309290Y-72422788D01*
X58309291Y-72422791D01*
X58324076Y-72451807D01*
X58387998Y-72577260D01*
X58489899Y-72717514D01*
X58612486Y-72840101D01*
X58752740Y-72942002D01*
X58828502Y-72980604D01*
X58907208Y-73020708D01*
X58907211Y-73020709D01*
X58989648Y-73047494D01*
X59072088Y-73074280D01*
X59151391Y-73086840D01*
X59243313Y-73101400D01*
X59243318Y-73101400D01*
X59416687Y-73101400D01*
X59499695Y-73088252D01*
X59587912Y-73074280D01*
X59752791Y-73020708D01*
X59907260Y-72942002D01*
X60047514Y-72840101D01*
X60170101Y-72717514D01*
X60272002Y-72577260D01*
X60350708Y-72422791D01*
X60404280Y-72257912D01*
X60422926Y-72140187D01*
X60431400Y-72086687D01*
X60431400Y-71913312D01*
X67068600Y-71913312D01*
X67068600Y-72086687D01*
X67095720Y-72257913D01*
X67149290Y-72422788D01*
X67149291Y-72422791D01*
X67164076Y-72451807D01*
X67227998Y-72577260D01*
X67329899Y-72717514D01*
X67452486Y-72840101D01*
X67592740Y-72942002D01*
X67668502Y-72980604D01*
X67747208Y-73020708D01*
X67747211Y-73020709D01*
X67829648Y-73047494D01*
X67912088Y-73074280D01*
X67991391Y-73086840D01*
X68083313Y-73101400D01*
X68083318Y-73101400D01*
X68256687Y-73101400D01*
X68339695Y-73088252D01*
X68427912Y-73074280D01*
X68592791Y-73020708D01*
X68747260Y-72942002D01*
X68887514Y-72840101D01*
X69010101Y-72717514D01*
X69112002Y-72577260D01*
X69190708Y-72422791D01*
X69244280Y-72257912D01*
X69262926Y-72140187D01*
X69271400Y-72086687D01*
X69271400Y-71913312D01*
X69261831Y-71852900D01*
X71005600Y-71852900D01*
X71005600Y-72147099D01*
X71005601Y-72147116D01*
X71044001Y-72438796D01*
X71120152Y-72722994D01*
X71232734Y-72994794D01*
X71232742Y-72994810D01*
X71379840Y-73249589D01*
X71379851Y-73249605D01*
X71558948Y-73483009D01*
X71558954Y-73483016D01*
X71766983Y-73691045D01*
X71766990Y-73691051D01*
X71842182Y-73748748D01*
X72000403Y-73870155D01*
X72000410Y-73870159D01*
X72255189Y-74017257D01*
X72255205Y-74017265D01*
X72527005Y-74129847D01*
X72527007Y-74129847D01*
X72527013Y-74129850D01*
X72811200Y-74205998D01*
X73102894Y-74244400D01*
X73102901Y-74244400D01*
X73397099Y-74244400D01*
X73397106Y-74244400D01*
X73688800Y-74205998D01*
X73972987Y-74129850D01*
X74160812Y-74052051D01*
X74244794Y-74017265D01*
X74244797Y-74017263D01*
X74244803Y-74017261D01*
X74499597Y-73870155D01*
X74733011Y-73691050D01*
X74941050Y-73483011D01*
X75120155Y-73249597D01*
X75267261Y-72994803D01*
X75379850Y-72722987D01*
X75455998Y-72438800D01*
X75494400Y-72147106D01*
X75494400Y-71913312D01*
X77228600Y-71913312D01*
X77228600Y-72086687D01*
X77255720Y-72257913D01*
X77309290Y-72422788D01*
X77309291Y-72422791D01*
X77324076Y-72451807D01*
X77387998Y-72577260D01*
X77489899Y-72717514D01*
X77612486Y-72840101D01*
X77752740Y-72942002D01*
X77828502Y-72980604D01*
X77907208Y-73020708D01*
X77907211Y-73020709D01*
X77989648Y-73047494D01*
X78072088Y-73074280D01*
X78151391Y-73086840D01*
X78243313Y-73101400D01*
X78243318Y-73101400D01*
X78416687Y-73101400D01*
X78499695Y-73088252D01*
X78587912Y-73074280D01*
X78752791Y-73020708D01*
X78907260Y-72942002D01*
X79047514Y-72840101D01*
X79170101Y-72717514D01*
X79272002Y-72577260D01*
X79350708Y-72422791D01*
X79404280Y-72257912D01*
X79422926Y-72140187D01*
X79431400Y-72086687D01*
X79431400Y-71913312D01*
X86068600Y-71913312D01*
X86068600Y-72086687D01*
X86095720Y-72257913D01*
X86149290Y-72422788D01*
X86149291Y-72422791D01*
X86164076Y-72451807D01*
X86227998Y-72577260D01*
X86329899Y-72717514D01*
X86452486Y-72840101D01*
X86592740Y-72942002D01*
X86668502Y-72980604D01*
X86747208Y-73020708D01*
X86747211Y-73020709D01*
X86829648Y-73047494D01*
X86912088Y-73074280D01*
X86991391Y-73086840D01*
X87083313Y-73101400D01*
X87083318Y-73101400D01*
X87256687Y-73101400D01*
X87339695Y-73088252D01*
X87427912Y-73074280D01*
X87592791Y-73020708D01*
X87747260Y-72942002D01*
X87887514Y-72840101D01*
X88010101Y-72717514D01*
X88112002Y-72577260D01*
X88190708Y-72422791D01*
X88244280Y-72257912D01*
X88262926Y-72140187D01*
X88271400Y-72086687D01*
X88271400Y-71913312D01*
X88261831Y-71852900D01*
X90005600Y-71852900D01*
X90005600Y-72147099D01*
X90005601Y-72147116D01*
X90044001Y-72438796D01*
X90120152Y-72722994D01*
X90232734Y-72994794D01*
X90232742Y-72994810D01*
X90379840Y-73249589D01*
X90379851Y-73249605D01*
X90558948Y-73483009D01*
X90558954Y-73483016D01*
X90766983Y-73691045D01*
X90766990Y-73691051D01*
X90842182Y-73748748D01*
X91000403Y-73870155D01*
X91000410Y-73870159D01*
X91255189Y-74017257D01*
X91255205Y-74017265D01*
X91527005Y-74129847D01*
X91527007Y-74129847D01*
X91527013Y-74129850D01*
X91811200Y-74205998D01*
X92102894Y-74244400D01*
X92102901Y-74244400D01*
X92397099Y-74244400D01*
X92397106Y-74244400D01*
X92688800Y-74205998D01*
X92972987Y-74129850D01*
X93160812Y-74052051D01*
X93244794Y-74017265D01*
X93244797Y-74017263D01*
X93244803Y-74017261D01*
X93499597Y-73870155D01*
X93733011Y-73691050D01*
X93941050Y-73483011D01*
X94120155Y-73249597D01*
X94267261Y-72994803D01*
X94379850Y-72722987D01*
X94455998Y-72438800D01*
X94494400Y-72147106D01*
X94494400Y-71913312D01*
X96228600Y-71913312D01*
X96228600Y-72086687D01*
X96255720Y-72257913D01*
X96309290Y-72422788D01*
X96309291Y-72422791D01*
X96324076Y-72451807D01*
X96387998Y-72577260D01*
X96489899Y-72717514D01*
X96612486Y-72840101D01*
X96752740Y-72942002D01*
X96828502Y-72980604D01*
X96907208Y-73020708D01*
X96907211Y-73020709D01*
X96989648Y-73047494D01*
X97072088Y-73074280D01*
X97151391Y-73086840D01*
X97243313Y-73101400D01*
X97243318Y-73101400D01*
X97416687Y-73101400D01*
X97499695Y-73088252D01*
X97587912Y-73074280D01*
X97752791Y-73020708D01*
X97907260Y-72942002D01*
X98047514Y-72840101D01*
X98170101Y-72717514D01*
X98272002Y-72577260D01*
X98350708Y-72422791D01*
X98404280Y-72257912D01*
X98422926Y-72140187D01*
X98431400Y-72086687D01*
X98431400Y-71913312D01*
X105068600Y-71913312D01*
X105068600Y-72086687D01*
X105095720Y-72257913D01*
X105149290Y-72422788D01*
X105149291Y-72422791D01*
X105164076Y-72451807D01*
X105227998Y-72577260D01*
X105329899Y-72717514D01*
X105452486Y-72840101D01*
X105592740Y-72942002D01*
X105668502Y-72980604D01*
X105747208Y-73020708D01*
X105747211Y-73020709D01*
X105829648Y-73047494D01*
X105912088Y-73074280D01*
X105991391Y-73086840D01*
X106083313Y-73101400D01*
X106083318Y-73101400D01*
X106256687Y-73101400D01*
X106339695Y-73088252D01*
X106427912Y-73074280D01*
X106592791Y-73020708D01*
X106747260Y-72942002D01*
X106887514Y-72840101D01*
X107010101Y-72717514D01*
X107112002Y-72577260D01*
X107190708Y-72422791D01*
X107244280Y-72257912D01*
X107262926Y-72140187D01*
X107271400Y-72086687D01*
X107271400Y-71913312D01*
X107261831Y-71852900D01*
X109005600Y-71852900D01*
X109005600Y-72147099D01*
X109005601Y-72147116D01*
X109044001Y-72438796D01*
X109120152Y-72722994D01*
X109232734Y-72994794D01*
X109232742Y-72994810D01*
X109379840Y-73249589D01*
X109379851Y-73249605D01*
X109558948Y-73483009D01*
X109558954Y-73483016D01*
X109766983Y-73691045D01*
X109766990Y-73691051D01*
X109842182Y-73748748D01*
X110000403Y-73870155D01*
X110000410Y-73870159D01*
X110255189Y-74017257D01*
X110255205Y-74017265D01*
X110527005Y-74129847D01*
X110527007Y-74129847D01*
X110527013Y-74129850D01*
X110811200Y-74205998D01*
X111102894Y-74244400D01*
X111102901Y-74244400D01*
X111397099Y-74244400D01*
X111397106Y-74244400D01*
X111688800Y-74205998D01*
X111972987Y-74129850D01*
X112160812Y-74052051D01*
X112244794Y-74017265D01*
X112244797Y-74017263D01*
X112244803Y-74017261D01*
X112499597Y-73870155D01*
X112733011Y-73691050D01*
X112941050Y-73483011D01*
X113120155Y-73249597D01*
X113267261Y-72994803D01*
X113379850Y-72722987D01*
X113455998Y-72438800D01*
X113494400Y-72147106D01*
X113494400Y-71913312D01*
X115228600Y-71913312D01*
X115228600Y-72086687D01*
X115255720Y-72257913D01*
X115309290Y-72422788D01*
X115309291Y-72422791D01*
X115324076Y-72451807D01*
X115387998Y-72577260D01*
X115489899Y-72717514D01*
X115612486Y-72840101D01*
X115752740Y-72942002D01*
X115828502Y-72980604D01*
X115907208Y-73020708D01*
X115907211Y-73020709D01*
X115989648Y-73047494D01*
X116072088Y-73074280D01*
X116151391Y-73086840D01*
X116243313Y-73101400D01*
X116243318Y-73101400D01*
X116416687Y-73101400D01*
X116499695Y-73088252D01*
X116587912Y-73074280D01*
X116752791Y-73020708D01*
X116907260Y-72942002D01*
X117047514Y-72840101D01*
X117170101Y-72717514D01*
X117272002Y-72577260D01*
X117350708Y-72422791D01*
X117404280Y-72257912D01*
X117422926Y-72140187D01*
X117431400Y-72086687D01*
X117431400Y-71913312D01*
X117415622Y-71813702D01*
X117404280Y-71742088D01*
X117350708Y-71577209D01*
X117350708Y-71577208D01*
X117272001Y-71422739D01*
X117170101Y-71282486D01*
X117047514Y-71159899D01*
X116907260Y-71057998D01*
X116858874Y-71033344D01*
X116752791Y-70979291D01*
X116752788Y-70979290D01*
X116587913Y-70925720D01*
X116416687Y-70898600D01*
X116416682Y-70898600D01*
X116243318Y-70898600D01*
X116243313Y-70898600D01*
X116072086Y-70925720D01*
X115907211Y-70979290D01*
X115907208Y-70979291D01*
X115752739Y-71057998D01*
X115721405Y-71080764D01*
X115612486Y-71159899D01*
X115612484Y-71159901D01*
X115612483Y-71159901D01*
X115489901Y-71282483D01*
X115489901Y-71282484D01*
X115489899Y-71282486D01*
X115459231Y-71324697D01*
X115387998Y-71422739D01*
X115309291Y-71577208D01*
X115309290Y-71577211D01*
X115255720Y-71742086D01*
X115228600Y-71913312D01*
X113494400Y-71913312D01*
X113494400Y-71852894D01*
X113455998Y-71561200D01*
X113379850Y-71277013D01*
X113352300Y-71210500D01*
X113267265Y-71005205D01*
X113267257Y-71005189D01*
X113120159Y-70750410D01*
X113120155Y-70750403D01*
X113010216Y-70607128D01*
X112941051Y-70516990D01*
X112941045Y-70516983D01*
X112733016Y-70308954D01*
X112733009Y-70308948D01*
X112499605Y-70129851D01*
X112499603Y-70129849D01*
X112499597Y-70129845D01*
X112499592Y-70129842D01*
X112499589Y-70129840D01*
X112244810Y-69982742D01*
X112244794Y-69982734D01*
X111972994Y-69870152D01*
X111955927Y-69865579D01*
X111688800Y-69794002D01*
X111688799Y-69794001D01*
X111688796Y-69794001D01*
X111397116Y-69755601D01*
X111397111Y-69755600D01*
X111397106Y-69755600D01*
X111102894Y-69755600D01*
X111102888Y-69755600D01*
X111102883Y-69755601D01*
X110811203Y-69794001D01*
X110527005Y-69870152D01*
X110255205Y-69982734D01*
X110255189Y-69982742D01*
X110000410Y-70129840D01*
X110000394Y-70129851D01*
X109766990Y-70308948D01*
X109766983Y-70308954D01*
X109558954Y-70516983D01*
X109558948Y-70516990D01*
X109379851Y-70750394D01*
X109379840Y-70750410D01*
X109232742Y-71005189D01*
X109232734Y-71005205D01*
X109120152Y-71277005D01*
X109044001Y-71561203D01*
X109005601Y-71852883D01*
X109005600Y-71852900D01*
X107261831Y-71852900D01*
X107255622Y-71813702D01*
X107244280Y-71742088D01*
X107190708Y-71577209D01*
X107190708Y-71577208D01*
X107112001Y-71422738D01*
X107088580Y-71390503D01*
X107065099Y-71324697D01*
X107080924Y-71256642D01*
X107131029Y-71207947D01*
X107199507Y-71194071D01*
X107205068Y-71194675D01*
X107325266Y-71210500D01*
X107325273Y-71210500D01*
X107554727Y-71210500D01*
X107554734Y-71210500D01*
X107782238Y-71180548D01*
X108003887Y-71121158D01*
X108215888Y-71033344D01*
X108414612Y-70918611D01*
X108596661Y-70778919D01*
X108596665Y-70778914D01*
X108596670Y-70778911D01*
X108758911Y-70616670D01*
X108758914Y-70616665D01*
X108758919Y-70616661D01*
X108898611Y-70434612D01*
X109013344Y-70235888D01*
X109101158Y-70023887D01*
X109160548Y-69802238D01*
X109190500Y-69574734D01*
X109190500Y-69345266D01*
X109160548Y-69117762D01*
X109101158Y-68896113D01*
X109013344Y-68684112D01*
X108898611Y-68485388D01*
X108898608Y-68485385D01*
X108898607Y-68485382D01*
X108758918Y-68303338D01*
X108758911Y-68303330D01*
X108596670Y-68141089D01*
X108596661Y-68141081D01*
X108414617Y-68001392D01*
X108215890Y-67886657D01*
X108215876Y-67886650D01*
X108003887Y-67798842D01*
X107782238Y-67739452D01*
X107744215Y-67734446D01*
X107554741Y-67709500D01*
X107554734Y-67709500D01*
X107325266Y-67709500D01*
X107325258Y-67709500D01*
X107108715Y-67738009D01*
X107097762Y-67739452D01*
X107004076Y-67764554D01*
X106876112Y-67798842D01*
X106664123Y-67886650D01*
X106664109Y-67886657D01*
X106465382Y-68001392D01*
X106283338Y-68141081D01*
X106121081Y-68303338D01*
X105981392Y-68485382D01*
X105866657Y-68684109D01*
X105866650Y-68684123D01*
X105778842Y-68896112D01*
X105719453Y-69117759D01*
X105719451Y-69117770D01*
X105689500Y-69345258D01*
X105689500Y-69574741D01*
X105713312Y-69755600D01*
X105719452Y-69802238D01*
X105746614Y-69903608D01*
X105778842Y-70023887D01*
X105866650Y-70235876D01*
X105866657Y-70235890D01*
X105981392Y-70434617D01*
X106121081Y-70616661D01*
X106121089Y-70616670D01*
X106191338Y-70686919D01*
X106224823Y-70748242D01*
X106219839Y-70817934D01*
X106177967Y-70873867D01*
X106112503Y-70898284D01*
X106103657Y-70898600D01*
X106083313Y-70898600D01*
X105912086Y-70925720D01*
X105747211Y-70979290D01*
X105747208Y-70979291D01*
X105592739Y-71057998D01*
X105561405Y-71080764D01*
X105452486Y-71159899D01*
X105452484Y-71159901D01*
X105452483Y-71159901D01*
X105329901Y-71282483D01*
X105329901Y-71282484D01*
X105329899Y-71282486D01*
X105299231Y-71324697D01*
X105227998Y-71422739D01*
X105149291Y-71577208D01*
X105149290Y-71577211D01*
X105095720Y-71742086D01*
X105068600Y-71913312D01*
X98431400Y-71913312D01*
X98415622Y-71813702D01*
X98404280Y-71742088D01*
X98350708Y-71577209D01*
X98350708Y-71577208D01*
X98272001Y-71422739D01*
X98170101Y-71282486D01*
X98047514Y-71159899D01*
X97907260Y-71057998D01*
X97858874Y-71033344D01*
X97752791Y-70979291D01*
X97752788Y-70979290D01*
X97587913Y-70925720D01*
X97416687Y-70898600D01*
X97416682Y-70898600D01*
X97243318Y-70898600D01*
X97243313Y-70898600D01*
X97072086Y-70925720D01*
X96907211Y-70979290D01*
X96907208Y-70979291D01*
X96752739Y-71057998D01*
X96721405Y-71080764D01*
X96612486Y-71159899D01*
X96612484Y-71159901D01*
X96612483Y-71159901D01*
X96489901Y-71282483D01*
X96489901Y-71282484D01*
X96489899Y-71282486D01*
X96459231Y-71324697D01*
X96387998Y-71422739D01*
X96309291Y-71577208D01*
X96309290Y-71577211D01*
X96255720Y-71742086D01*
X96228600Y-71913312D01*
X94494400Y-71913312D01*
X94494400Y-71852894D01*
X94455998Y-71561200D01*
X94379850Y-71277013D01*
X94352300Y-71210500D01*
X94267265Y-71005205D01*
X94267257Y-71005189D01*
X94120159Y-70750410D01*
X94120155Y-70750403D01*
X94010216Y-70607128D01*
X93941051Y-70516990D01*
X93941045Y-70516983D01*
X93733016Y-70308954D01*
X93733009Y-70308948D01*
X93499605Y-70129851D01*
X93499603Y-70129849D01*
X93499597Y-70129845D01*
X93499592Y-70129842D01*
X93499589Y-70129840D01*
X93244810Y-69982742D01*
X93244794Y-69982734D01*
X92972994Y-69870152D01*
X92955927Y-69865579D01*
X92688800Y-69794002D01*
X92688799Y-69794001D01*
X92688796Y-69794001D01*
X92397116Y-69755601D01*
X92397111Y-69755600D01*
X92397106Y-69755600D01*
X92102894Y-69755600D01*
X92102888Y-69755600D01*
X92102883Y-69755601D01*
X91811203Y-69794001D01*
X91527005Y-69870152D01*
X91255205Y-69982734D01*
X91255189Y-69982742D01*
X91000410Y-70129840D01*
X91000394Y-70129851D01*
X90766990Y-70308948D01*
X90766983Y-70308954D01*
X90558954Y-70516983D01*
X90558948Y-70516990D01*
X90379851Y-70750394D01*
X90379840Y-70750410D01*
X90232742Y-71005189D01*
X90232734Y-71005205D01*
X90120152Y-71277005D01*
X90044001Y-71561203D01*
X90005601Y-71852883D01*
X90005600Y-71852900D01*
X88261831Y-71852900D01*
X88255622Y-71813702D01*
X88244280Y-71742088D01*
X88190708Y-71577209D01*
X88190708Y-71577208D01*
X88112001Y-71422738D01*
X88088580Y-71390503D01*
X88065099Y-71324697D01*
X88080924Y-71256642D01*
X88131029Y-71207947D01*
X88199507Y-71194071D01*
X88205068Y-71194675D01*
X88325266Y-71210500D01*
X88325273Y-71210500D01*
X88554727Y-71210500D01*
X88554734Y-71210500D01*
X88782238Y-71180548D01*
X89003887Y-71121158D01*
X89215888Y-71033344D01*
X89414612Y-70918611D01*
X89596661Y-70778919D01*
X89596665Y-70778914D01*
X89596670Y-70778911D01*
X89758911Y-70616670D01*
X89758914Y-70616665D01*
X89758919Y-70616661D01*
X89898611Y-70434612D01*
X90013344Y-70235888D01*
X90101158Y-70023887D01*
X90160548Y-69802238D01*
X90190500Y-69574734D01*
X90190500Y-69345266D01*
X90160548Y-69117762D01*
X90101158Y-68896113D01*
X90013344Y-68684112D01*
X89898611Y-68485388D01*
X89898608Y-68485385D01*
X89898607Y-68485382D01*
X89758918Y-68303338D01*
X89758911Y-68303330D01*
X89596670Y-68141089D01*
X89596661Y-68141081D01*
X89414617Y-68001392D01*
X89215890Y-67886657D01*
X89215876Y-67886650D01*
X89003887Y-67798842D01*
X88782238Y-67739452D01*
X88744215Y-67734446D01*
X88554741Y-67709500D01*
X88554734Y-67709500D01*
X88325266Y-67709500D01*
X88325258Y-67709500D01*
X88108715Y-67738009D01*
X88097762Y-67739452D01*
X88004076Y-67764554D01*
X87876112Y-67798842D01*
X87664123Y-67886650D01*
X87664109Y-67886657D01*
X87465382Y-68001392D01*
X87283338Y-68141081D01*
X87121081Y-68303338D01*
X86981392Y-68485382D01*
X86866657Y-68684109D01*
X86866650Y-68684123D01*
X86778842Y-68896112D01*
X86719453Y-69117759D01*
X86719451Y-69117770D01*
X86689500Y-69345258D01*
X86689500Y-69574741D01*
X86713312Y-69755600D01*
X86719452Y-69802238D01*
X86746614Y-69903608D01*
X86778842Y-70023887D01*
X86866650Y-70235876D01*
X86866657Y-70235890D01*
X86981392Y-70434617D01*
X87121081Y-70616661D01*
X87121089Y-70616670D01*
X87191338Y-70686919D01*
X87224823Y-70748242D01*
X87219839Y-70817934D01*
X87177967Y-70873867D01*
X87112503Y-70898284D01*
X87103657Y-70898600D01*
X87083313Y-70898600D01*
X86912086Y-70925720D01*
X86747211Y-70979290D01*
X86747208Y-70979291D01*
X86592739Y-71057998D01*
X86561405Y-71080764D01*
X86452486Y-71159899D01*
X86452484Y-71159901D01*
X86452483Y-71159901D01*
X86329901Y-71282483D01*
X86329901Y-71282484D01*
X86329899Y-71282486D01*
X86299231Y-71324697D01*
X86227998Y-71422739D01*
X86149291Y-71577208D01*
X86149290Y-71577211D01*
X86095720Y-71742086D01*
X86068600Y-71913312D01*
X79431400Y-71913312D01*
X79415622Y-71813702D01*
X79404280Y-71742088D01*
X79350708Y-71577209D01*
X79350708Y-71577208D01*
X79272001Y-71422739D01*
X79170101Y-71282486D01*
X79047514Y-71159899D01*
X78907260Y-71057998D01*
X78858874Y-71033344D01*
X78752791Y-70979291D01*
X78752788Y-70979290D01*
X78587913Y-70925720D01*
X78416687Y-70898600D01*
X78416682Y-70898600D01*
X78243318Y-70898600D01*
X78243313Y-70898600D01*
X78072086Y-70925720D01*
X77907211Y-70979290D01*
X77907208Y-70979291D01*
X77752739Y-71057998D01*
X77721405Y-71080764D01*
X77612486Y-71159899D01*
X77612484Y-71159901D01*
X77612483Y-71159901D01*
X77489901Y-71282483D01*
X77489901Y-71282484D01*
X77489899Y-71282486D01*
X77459231Y-71324697D01*
X77387998Y-71422739D01*
X77309291Y-71577208D01*
X77309290Y-71577211D01*
X77255720Y-71742086D01*
X77228600Y-71913312D01*
X75494400Y-71913312D01*
X75494400Y-71852894D01*
X75455998Y-71561200D01*
X75379850Y-71277013D01*
X75352300Y-71210500D01*
X75267265Y-71005205D01*
X75267257Y-71005189D01*
X75120159Y-70750410D01*
X75120155Y-70750403D01*
X75010216Y-70607128D01*
X74941051Y-70516990D01*
X74941045Y-70516983D01*
X74733016Y-70308954D01*
X74733009Y-70308948D01*
X74499605Y-70129851D01*
X74499603Y-70129849D01*
X74499597Y-70129845D01*
X74499592Y-70129842D01*
X74499589Y-70129840D01*
X74244810Y-69982742D01*
X74244794Y-69982734D01*
X73972994Y-69870152D01*
X73955927Y-69865579D01*
X73688800Y-69794002D01*
X73688799Y-69794001D01*
X73688796Y-69794001D01*
X73397116Y-69755601D01*
X73397111Y-69755600D01*
X73397106Y-69755600D01*
X73102894Y-69755600D01*
X73102888Y-69755600D01*
X73102883Y-69755601D01*
X72811203Y-69794001D01*
X72527005Y-69870152D01*
X72255205Y-69982734D01*
X72255189Y-69982742D01*
X72000410Y-70129840D01*
X72000394Y-70129851D01*
X71766990Y-70308948D01*
X71766983Y-70308954D01*
X71558954Y-70516983D01*
X71558948Y-70516990D01*
X71379851Y-70750394D01*
X71379840Y-70750410D01*
X71232742Y-71005189D01*
X71232734Y-71005205D01*
X71120152Y-71277005D01*
X71044001Y-71561203D01*
X71005601Y-71852883D01*
X71005600Y-71852900D01*
X69261831Y-71852900D01*
X69255622Y-71813702D01*
X69244280Y-71742088D01*
X69190708Y-71577209D01*
X69190708Y-71577208D01*
X69112001Y-71422738D01*
X69088580Y-71390503D01*
X69065099Y-71324697D01*
X69080924Y-71256642D01*
X69131029Y-71207947D01*
X69199507Y-71194071D01*
X69205068Y-71194675D01*
X69325266Y-71210500D01*
X69325273Y-71210500D01*
X69554727Y-71210500D01*
X69554734Y-71210500D01*
X69782238Y-71180548D01*
X70003887Y-71121158D01*
X70215888Y-71033344D01*
X70414612Y-70918611D01*
X70596661Y-70778919D01*
X70596665Y-70778914D01*
X70596670Y-70778911D01*
X70758911Y-70616670D01*
X70758914Y-70616665D01*
X70758919Y-70616661D01*
X70898611Y-70434612D01*
X71013344Y-70235888D01*
X71101158Y-70023887D01*
X71160548Y-69802238D01*
X71190500Y-69574734D01*
X71190500Y-69345266D01*
X71160548Y-69117762D01*
X71101158Y-68896113D01*
X71013344Y-68684112D01*
X70898611Y-68485388D01*
X70898608Y-68485385D01*
X70898607Y-68485382D01*
X70758918Y-68303338D01*
X70758911Y-68303330D01*
X70596670Y-68141089D01*
X70596661Y-68141081D01*
X70414617Y-68001392D01*
X70215890Y-67886657D01*
X70215876Y-67886650D01*
X70003887Y-67798842D01*
X69782238Y-67739452D01*
X69744215Y-67734446D01*
X69554741Y-67709500D01*
X69554734Y-67709500D01*
X69325266Y-67709500D01*
X69325258Y-67709500D01*
X69108715Y-67738009D01*
X69097762Y-67739452D01*
X69004076Y-67764554D01*
X68876112Y-67798842D01*
X68664123Y-67886650D01*
X68664109Y-67886657D01*
X68465382Y-68001392D01*
X68283338Y-68141081D01*
X68121081Y-68303338D01*
X67981392Y-68485382D01*
X67866657Y-68684109D01*
X67866650Y-68684123D01*
X67778842Y-68896112D01*
X67719453Y-69117759D01*
X67719451Y-69117770D01*
X67689500Y-69345258D01*
X67689500Y-69574741D01*
X67713312Y-69755600D01*
X67719452Y-69802238D01*
X67746614Y-69903608D01*
X67778842Y-70023887D01*
X67866650Y-70235876D01*
X67866657Y-70235890D01*
X67981392Y-70434617D01*
X68121081Y-70616661D01*
X68121089Y-70616670D01*
X68191338Y-70686919D01*
X68224823Y-70748242D01*
X68219839Y-70817934D01*
X68177967Y-70873867D01*
X68112503Y-70898284D01*
X68103657Y-70898600D01*
X68083313Y-70898600D01*
X67912086Y-70925720D01*
X67747211Y-70979290D01*
X67747208Y-70979291D01*
X67592739Y-71057998D01*
X67561405Y-71080764D01*
X67452486Y-71159899D01*
X67452484Y-71159901D01*
X67452483Y-71159901D01*
X67329901Y-71282483D01*
X67329901Y-71282484D01*
X67329899Y-71282486D01*
X67299231Y-71324697D01*
X67227998Y-71422739D01*
X67149291Y-71577208D01*
X67149290Y-71577211D01*
X67095720Y-71742086D01*
X67068600Y-71913312D01*
X60431400Y-71913312D01*
X60415622Y-71813702D01*
X60404280Y-71742088D01*
X60350708Y-71577209D01*
X60350708Y-71577208D01*
X60272001Y-71422739D01*
X60170101Y-71282486D01*
X60047514Y-71159899D01*
X59907260Y-71057998D01*
X59858874Y-71033344D01*
X59752791Y-70979291D01*
X59752788Y-70979290D01*
X59587913Y-70925720D01*
X59416687Y-70898600D01*
X59416682Y-70898600D01*
X59243318Y-70898600D01*
X59243313Y-70898600D01*
X59072086Y-70925720D01*
X58907211Y-70979290D01*
X58907208Y-70979291D01*
X58752739Y-71057998D01*
X58721405Y-71080764D01*
X58612486Y-71159899D01*
X58612484Y-71159901D01*
X58612483Y-71159901D01*
X58489901Y-71282483D01*
X58489901Y-71282484D01*
X58489899Y-71282486D01*
X58459231Y-71324697D01*
X58387998Y-71422739D01*
X58309291Y-71577208D01*
X58309290Y-71577211D01*
X58255720Y-71742086D01*
X58228600Y-71913312D01*
X56494400Y-71913312D01*
X56494400Y-71852894D01*
X56455998Y-71561200D01*
X56379850Y-71277013D01*
X56352300Y-71210500D01*
X56267265Y-71005205D01*
X56267257Y-71005189D01*
X56120159Y-70750410D01*
X56120155Y-70750403D01*
X56010216Y-70607128D01*
X55941051Y-70516990D01*
X55941045Y-70516983D01*
X55733016Y-70308954D01*
X55733009Y-70308948D01*
X55499605Y-70129851D01*
X55499603Y-70129849D01*
X55499597Y-70129845D01*
X55499592Y-70129842D01*
X55499589Y-70129840D01*
X55244810Y-69982742D01*
X55244794Y-69982734D01*
X54972994Y-69870152D01*
X54955927Y-69865579D01*
X54688800Y-69794002D01*
X54688799Y-69794001D01*
X54688796Y-69794001D01*
X54397116Y-69755601D01*
X54397111Y-69755600D01*
X54397106Y-69755600D01*
X54102894Y-69755600D01*
X54102888Y-69755600D01*
X54102883Y-69755601D01*
X53811203Y-69794001D01*
X53527005Y-69870152D01*
X53255205Y-69982734D01*
X53255189Y-69982742D01*
X53000410Y-70129840D01*
X53000394Y-70129851D01*
X52766990Y-70308948D01*
X52766983Y-70308954D01*
X52558954Y-70516983D01*
X52558948Y-70516990D01*
X52379851Y-70750394D01*
X52379840Y-70750410D01*
X52232742Y-71005189D01*
X52232734Y-71005205D01*
X52120152Y-71277005D01*
X52044001Y-71561203D01*
X52005601Y-71852883D01*
X52005600Y-71852900D01*
X50261831Y-71852900D01*
X50255622Y-71813702D01*
X50244280Y-71742088D01*
X50190708Y-71577209D01*
X50190708Y-71577208D01*
X50112001Y-71422738D01*
X50088580Y-71390503D01*
X50065099Y-71324697D01*
X50080924Y-71256642D01*
X50131029Y-71207947D01*
X50199507Y-71194071D01*
X50205068Y-71194675D01*
X50325266Y-71210500D01*
X50325273Y-71210500D01*
X50554727Y-71210500D01*
X50554734Y-71210500D01*
X50782238Y-71180548D01*
X51003887Y-71121158D01*
X51215888Y-71033344D01*
X51414612Y-70918611D01*
X51596661Y-70778919D01*
X51596665Y-70778914D01*
X51596670Y-70778911D01*
X51758911Y-70616670D01*
X51758914Y-70616665D01*
X51758919Y-70616661D01*
X51898611Y-70434612D01*
X52013344Y-70235888D01*
X52101158Y-70023887D01*
X52160548Y-69802238D01*
X52190500Y-69574734D01*
X52190500Y-69345266D01*
X52160548Y-69117762D01*
X52101158Y-68896113D01*
X52013344Y-68684112D01*
X51898611Y-68485388D01*
X51898608Y-68485385D01*
X51898607Y-68485382D01*
X51758918Y-68303338D01*
X51758911Y-68303330D01*
X51596670Y-68141089D01*
X51596661Y-68141081D01*
X51414617Y-68001392D01*
X51215890Y-67886657D01*
X51215876Y-67886650D01*
X51003887Y-67798842D01*
X50782238Y-67739452D01*
X50744215Y-67734446D01*
X50554741Y-67709500D01*
X50554734Y-67709500D01*
X50325266Y-67709500D01*
X50325258Y-67709500D01*
X50108715Y-67738009D01*
X50097762Y-67739452D01*
X50004076Y-67764554D01*
X49876112Y-67798842D01*
X49664123Y-67886650D01*
X49664109Y-67886657D01*
X49465382Y-68001392D01*
X49283338Y-68141081D01*
X49121081Y-68303338D01*
X48981392Y-68485382D01*
X48866657Y-68684109D01*
X48866650Y-68684123D01*
X48778842Y-68896112D01*
X48719453Y-69117759D01*
X48719451Y-69117770D01*
X48689500Y-69345258D01*
X48689500Y-69574741D01*
X48713312Y-69755600D01*
X48719452Y-69802238D01*
X48746614Y-69903608D01*
X48778842Y-70023887D01*
X48866650Y-70235876D01*
X48866657Y-70235890D01*
X48981392Y-70434617D01*
X49121081Y-70616661D01*
X49121089Y-70616670D01*
X49191338Y-70686919D01*
X49224823Y-70748242D01*
X49219839Y-70817934D01*
X49177967Y-70873867D01*
X49112503Y-70898284D01*
X49103657Y-70898600D01*
X49083313Y-70898600D01*
X48912086Y-70925720D01*
X48747211Y-70979290D01*
X48747208Y-70979291D01*
X48592739Y-71057998D01*
X48561405Y-71080764D01*
X48452486Y-71159899D01*
X48452484Y-71159901D01*
X48452483Y-71159901D01*
X48329901Y-71282483D01*
X48329901Y-71282484D01*
X48329899Y-71282486D01*
X48299231Y-71324697D01*
X48227998Y-71422739D01*
X48149291Y-71577208D01*
X48149290Y-71577211D01*
X48095720Y-71742084D01*
X48095075Y-71744775D01*
X48094548Y-71745691D01*
X48094214Y-71746722D01*
X48093997Y-71746651D01*
X48060287Y-71805368D01*
X47998262Y-71837534D01*
X47928692Y-71831061D01*
X47873667Y-71788003D01*
X47850655Y-71722032D01*
X47850500Y-71715832D01*
X47850500Y-66805258D01*
X55039500Y-66805258D01*
X55039500Y-67034741D01*
X55064446Y-67224215D01*
X55069452Y-67262238D01*
X55069453Y-67262240D01*
X55128842Y-67483887D01*
X55216650Y-67695876D01*
X55216657Y-67695890D01*
X55331392Y-67894617D01*
X55471081Y-68076661D01*
X55471089Y-68076670D01*
X55633330Y-68238911D01*
X55633338Y-68238918D01*
X55815382Y-68378607D01*
X55815385Y-68378608D01*
X55815388Y-68378611D01*
X56014112Y-68493344D01*
X56014117Y-68493346D01*
X56014123Y-68493349D01*
X56105480Y-68531190D01*
X56226113Y-68581158D01*
X56447762Y-68640548D01*
X56675266Y-68670500D01*
X56675273Y-68670500D01*
X56904727Y-68670500D01*
X56904734Y-68670500D01*
X57132238Y-68640548D01*
X57353887Y-68581158D01*
X57565888Y-68493344D01*
X57764612Y-68378611D01*
X57946661Y-68238919D01*
X57946665Y-68238914D01*
X57946670Y-68238911D01*
X58108911Y-68076670D01*
X58108914Y-68076665D01*
X58108919Y-68076661D01*
X58248611Y-67894612D01*
X58363344Y-67695888D01*
X58451158Y-67483887D01*
X58510548Y-67262238D01*
X58540500Y-67034734D01*
X58540500Y-66805266D01*
X58540499Y-66805258D01*
X74039500Y-66805258D01*
X74039500Y-67034741D01*
X74064446Y-67224215D01*
X74069452Y-67262238D01*
X74069453Y-67262240D01*
X74128842Y-67483887D01*
X74216650Y-67695876D01*
X74216657Y-67695890D01*
X74331392Y-67894617D01*
X74471081Y-68076661D01*
X74471089Y-68076670D01*
X74633330Y-68238911D01*
X74633338Y-68238918D01*
X74815382Y-68378607D01*
X74815385Y-68378608D01*
X74815388Y-68378611D01*
X75014112Y-68493344D01*
X75014117Y-68493346D01*
X75014123Y-68493349D01*
X75105480Y-68531190D01*
X75226113Y-68581158D01*
X75447762Y-68640548D01*
X75675266Y-68670500D01*
X75675273Y-68670500D01*
X75904727Y-68670500D01*
X75904734Y-68670500D01*
X76132238Y-68640548D01*
X76353887Y-68581158D01*
X76565888Y-68493344D01*
X76764612Y-68378611D01*
X76946661Y-68238919D01*
X76946665Y-68238914D01*
X76946670Y-68238911D01*
X77108911Y-68076670D01*
X77108914Y-68076665D01*
X77108919Y-68076661D01*
X77248611Y-67894612D01*
X77363344Y-67695888D01*
X77451158Y-67483887D01*
X77510548Y-67262238D01*
X77540500Y-67034734D01*
X77540500Y-66805266D01*
X77540499Y-66805258D01*
X93039500Y-66805258D01*
X93039500Y-67034741D01*
X93064446Y-67224215D01*
X93069452Y-67262238D01*
X93069453Y-67262240D01*
X93128842Y-67483887D01*
X93216650Y-67695876D01*
X93216657Y-67695890D01*
X93331392Y-67894617D01*
X93471081Y-68076661D01*
X93471089Y-68076670D01*
X93633330Y-68238911D01*
X93633338Y-68238918D01*
X93815382Y-68378607D01*
X93815385Y-68378608D01*
X93815388Y-68378611D01*
X94014112Y-68493344D01*
X94014117Y-68493346D01*
X94014123Y-68493349D01*
X94105480Y-68531190D01*
X94226113Y-68581158D01*
X94447762Y-68640548D01*
X94675266Y-68670500D01*
X94675273Y-68670500D01*
X94904727Y-68670500D01*
X94904734Y-68670500D01*
X95132238Y-68640548D01*
X95353887Y-68581158D01*
X95565888Y-68493344D01*
X95764612Y-68378611D01*
X95946661Y-68238919D01*
X95946665Y-68238914D01*
X95946670Y-68238911D01*
X96108911Y-68076670D01*
X96108914Y-68076665D01*
X96108919Y-68076661D01*
X96248611Y-67894612D01*
X96363344Y-67695888D01*
X96451158Y-67483887D01*
X96510548Y-67262238D01*
X96540500Y-67034734D01*
X96540500Y-66805266D01*
X96540499Y-66805258D01*
X112039500Y-66805258D01*
X112039500Y-67034741D01*
X112064446Y-67224215D01*
X112069452Y-67262238D01*
X112069453Y-67262240D01*
X112128842Y-67483887D01*
X112216650Y-67695876D01*
X112216657Y-67695890D01*
X112331392Y-67894617D01*
X112471081Y-68076661D01*
X112471089Y-68076670D01*
X112633330Y-68238911D01*
X112633338Y-68238918D01*
X112815382Y-68378607D01*
X112815385Y-68378608D01*
X112815388Y-68378611D01*
X113014112Y-68493344D01*
X113014117Y-68493346D01*
X113014123Y-68493349D01*
X113105480Y-68531190D01*
X113226113Y-68581158D01*
X113447762Y-68640548D01*
X113675266Y-68670500D01*
X113675273Y-68670500D01*
X113904727Y-68670500D01*
X113904734Y-68670500D01*
X114132238Y-68640548D01*
X114353887Y-68581158D01*
X114565888Y-68493344D01*
X114764612Y-68378611D01*
X114946661Y-68238919D01*
X114946665Y-68238914D01*
X114946670Y-68238911D01*
X115108911Y-68076670D01*
X115108914Y-68076665D01*
X115108919Y-68076661D01*
X115248611Y-67894612D01*
X115363344Y-67695888D01*
X115451158Y-67483887D01*
X115510548Y-67262238D01*
X115540500Y-67034734D01*
X115540500Y-66805266D01*
X115510548Y-66577762D01*
X115451158Y-66356113D01*
X115363344Y-66144112D01*
X115248611Y-65945388D01*
X115248608Y-65945385D01*
X115248607Y-65945382D01*
X115108918Y-65763338D01*
X115108911Y-65763330D01*
X114946670Y-65601089D01*
X114946661Y-65601081D01*
X114764617Y-65461392D01*
X114565890Y-65346657D01*
X114565876Y-65346650D01*
X114353887Y-65258842D01*
X114132238Y-65199452D01*
X114094215Y-65194446D01*
X113904741Y-65169500D01*
X113904734Y-65169500D01*
X113675266Y-65169500D01*
X113675258Y-65169500D01*
X113458715Y-65198009D01*
X113447762Y-65199452D01*
X113354076Y-65224554D01*
X113226112Y-65258842D01*
X113014123Y-65346650D01*
X113014109Y-65346657D01*
X112815382Y-65461392D01*
X112633338Y-65601081D01*
X112471081Y-65763338D01*
X112331392Y-65945382D01*
X112216657Y-66144109D01*
X112216650Y-66144123D01*
X112128842Y-66356112D01*
X112069453Y-66577759D01*
X112069451Y-66577770D01*
X112039500Y-66805258D01*
X96540499Y-66805258D01*
X96510548Y-66577762D01*
X96451158Y-66356113D01*
X96363344Y-66144112D01*
X96248611Y-65945388D01*
X96248608Y-65945385D01*
X96248607Y-65945382D01*
X96108918Y-65763338D01*
X96108911Y-65763330D01*
X95946670Y-65601089D01*
X95946661Y-65601081D01*
X95764617Y-65461392D01*
X95565890Y-65346657D01*
X95565876Y-65346650D01*
X95353887Y-65258842D01*
X95132238Y-65199452D01*
X95094215Y-65194446D01*
X94904741Y-65169500D01*
X94904734Y-65169500D01*
X94675266Y-65169500D01*
X94675258Y-65169500D01*
X94458715Y-65198009D01*
X94447762Y-65199452D01*
X94354076Y-65224554D01*
X94226112Y-65258842D01*
X94014123Y-65346650D01*
X94014109Y-65346657D01*
X93815382Y-65461392D01*
X93633338Y-65601081D01*
X93471081Y-65763338D01*
X93331392Y-65945382D01*
X93216657Y-66144109D01*
X93216650Y-66144123D01*
X93128842Y-66356112D01*
X93069453Y-66577759D01*
X93069451Y-66577770D01*
X93039500Y-66805258D01*
X77540499Y-66805258D01*
X77510548Y-66577762D01*
X77451158Y-66356113D01*
X77363344Y-66144112D01*
X77248611Y-65945388D01*
X77248608Y-65945385D01*
X77248607Y-65945382D01*
X77108918Y-65763338D01*
X77108911Y-65763330D01*
X76946670Y-65601089D01*
X76946661Y-65601081D01*
X76764617Y-65461392D01*
X76565890Y-65346657D01*
X76565876Y-65346650D01*
X76353887Y-65258842D01*
X76132238Y-65199452D01*
X76094215Y-65194446D01*
X75904741Y-65169500D01*
X75904734Y-65169500D01*
X75675266Y-65169500D01*
X75675258Y-65169500D01*
X75458715Y-65198009D01*
X75447762Y-65199452D01*
X75354076Y-65224554D01*
X75226112Y-65258842D01*
X75014123Y-65346650D01*
X75014109Y-65346657D01*
X74815382Y-65461392D01*
X74633338Y-65601081D01*
X74471081Y-65763338D01*
X74331392Y-65945382D01*
X74216657Y-66144109D01*
X74216650Y-66144123D01*
X74128842Y-66356112D01*
X74069453Y-66577759D01*
X74069451Y-66577770D01*
X74039500Y-66805258D01*
X58540499Y-66805258D01*
X58510548Y-66577762D01*
X58451158Y-66356113D01*
X58363344Y-66144112D01*
X58248611Y-65945388D01*
X58248608Y-65945385D01*
X58248607Y-65945382D01*
X58108918Y-65763338D01*
X58108911Y-65763330D01*
X57946670Y-65601089D01*
X57946661Y-65601081D01*
X57764617Y-65461392D01*
X57565890Y-65346657D01*
X57565876Y-65346650D01*
X57353887Y-65258842D01*
X57132238Y-65199452D01*
X57094215Y-65194446D01*
X56904741Y-65169500D01*
X56904734Y-65169500D01*
X56675266Y-65169500D01*
X56675258Y-65169500D01*
X56458715Y-65198009D01*
X56447762Y-65199452D01*
X56354076Y-65224554D01*
X56226112Y-65258842D01*
X56014123Y-65346650D01*
X56014109Y-65346657D01*
X55815382Y-65461392D01*
X55633338Y-65601081D01*
X55471081Y-65763338D01*
X55331392Y-65945382D01*
X55216657Y-66144109D01*
X55216650Y-66144123D01*
X55128842Y-66356112D01*
X55069453Y-66577759D01*
X55069451Y-66577770D01*
X55039500Y-66805258D01*
X47850500Y-66805258D01*
X47850500Y-63235644D01*
X47870185Y-63168605D01*
X47903377Y-63134069D01*
X48006877Y-63061598D01*
X48161598Y-62906877D01*
X48287102Y-62727639D01*
X48379575Y-62529330D01*
X48436207Y-62317977D01*
X48455277Y-62100000D01*
X48436207Y-61882023D01*
X48379575Y-61670670D01*
X48287102Y-61472362D01*
X48287100Y-61472359D01*
X48287099Y-61472357D01*
X48161599Y-61293124D01*
X48087997Y-61219522D01*
X48006877Y-61138402D01*
X48006872Y-61138399D01*
X48006869Y-61138396D01*
X47903376Y-61065928D01*
X47859751Y-61011351D01*
X47850500Y-60964354D01*
X47850500Y-60050097D01*
X47870185Y-59983058D01*
X47886819Y-59962416D01*
X49901392Y-57947844D01*
X52050000Y-57947844D01*
X52056401Y-58007372D01*
X52056403Y-58007379D01*
X52106645Y-58142086D01*
X52106649Y-58142093D01*
X52192809Y-58257187D01*
X52192812Y-58257190D01*
X52307906Y-58343350D01*
X52307913Y-58343354D01*
X52442620Y-58393596D01*
X52442627Y-58393598D01*
X52502155Y-58399999D01*
X52502172Y-58400000D01*
X52867500Y-58400000D01*
X52867500Y-57800000D01*
X52050000Y-57800000D01*
X52050000Y-57947844D01*
X49901392Y-57947844D01*
X50762417Y-57086819D01*
X50823740Y-57053334D01*
X50850098Y-57050500D01*
X51926000Y-57050500D01*
X51993039Y-57070185D01*
X52038794Y-57122989D01*
X52050000Y-57174500D01*
X52050000Y-57300000D01*
X52490833Y-57300000D01*
X52498811Y-57300427D01*
X52498817Y-57300322D01*
X52502102Y-57300497D01*
X52502127Y-57300500D01*
X53243501Y-57300499D01*
X53310539Y-57320183D01*
X53356294Y-57372987D01*
X53367500Y-57424499D01*
X53367500Y-58400000D01*
X53732828Y-58400000D01*
X53732844Y-58399999D01*
X53792372Y-58393598D01*
X53792379Y-58393596D01*
X53927086Y-58343354D01*
X53927093Y-58343350D01*
X54042187Y-58257190D01*
X54042190Y-58257187D01*
X54128350Y-58142093D01*
X54128354Y-58142086D01*
X54133550Y-58128155D01*
X54175420Y-58072220D01*
X54240884Y-58047801D01*
X54309157Y-58062651D01*
X54358564Y-58112055D01*
X54365915Y-58128151D01*
X54371203Y-58142330D01*
X54371206Y-58142335D01*
X54457452Y-58257544D01*
X54457455Y-58257547D01*
X54572664Y-58343793D01*
X54572671Y-58343797D01*
X54707517Y-58394091D01*
X54707516Y-58394091D01*
X54714444Y-58394835D01*
X54767127Y-58400500D01*
X55997872Y-58400499D01*
X56057483Y-58394091D01*
X56192331Y-58343796D01*
X56307546Y-58257546D01*
X56337166Y-58217979D01*
X56350485Y-58200188D01*
X56406419Y-58158318D01*
X56449751Y-58150500D01*
X62535516Y-58150500D01*
X62602555Y-58170185D01*
X62648310Y-58222989D01*
X62659044Y-58263693D01*
X62663792Y-58317971D01*
X62663794Y-58317982D01*
X62720422Y-58529322D01*
X62720424Y-58529326D01*
X62720425Y-58529330D01*
X62742044Y-58575692D01*
X62812897Y-58727638D01*
X62812898Y-58727639D01*
X62938402Y-58906877D01*
X63093123Y-59061598D01*
X63272361Y-59187102D01*
X63470670Y-59279575D01*
X63682023Y-59336207D01*
X63864926Y-59352208D01*
X63899998Y-59355277D01*
X63900000Y-59355277D01*
X63900002Y-59355277D01*
X63928254Y-59352805D01*
X64117977Y-59336207D01*
X64329330Y-59279575D01*
X64527639Y-59187102D01*
X64706877Y-59061598D01*
X64861598Y-58906877D01*
X64987102Y-58727639D01*
X65079575Y-58529330D01*
X65136207Y-58317977D01*
X65140956Y-58263692D01*
X65166408Y-58198624D01*
X65222999Y-58157645D01*
X65264484Y-58150500D01*
X65863331Y-58150500D01*
X65863347Y-58150501D01*
X65870943Y-58150501D01*
X66029054Y-58150501D01*
X66029057Y-58150501D01*
X66181785Y-58109577D01*
X66263002Y-58062686D01*
X66318716Y-58030520D01*
X66401392Y-57947844D01*
X71050000Y-57947844D01*
X71056401Y-58007372D01*
X71056403Y-58007379D01*
X71106645Y-58142086D01*
X71106649Y-58142093D01*
X71192809Y-58257187D01*
X71192812Y-58257190D01*
X71307906Y-58343350D01*
X71307913Y-58343354D01*
X71442620Y-58393596D01*
X71442627Y-58393598D01*
X71502155Y-58399999D01*
X71502172Y-58400000D01*
X71867500Y-58400000D01*
X71867500Y-57800000D01*
X71050000Y-57800000D01*
X71050000Y-57947844D01*
X66401392Y-57947844D01*
X66430520Y-57918716D01*
X66430520Y-57918714D01*
X66440724Y-57908511D01*
X66440727Y-57908506D01*
X67262416Y-57086819D01*
X67323739Y-57053334D01*
X67350097Y-57050500D01*
X70926000Y-57050500D01*
X70993039Y-57070185D01*
X71038794Y-57122989D01*
X71050000Y-57174500D01*
X71050000Y-57300000D01*
X71490833Y-57300000D01*
X71498811Y-57300427D01*
X71498817Y-57300322D01*
X71502102Y-57300497D01*
X71502127Y-57300500D01*
X72243501Y-57300499D01*
X72310539Y-57320183D01*
X72356294Y-57372987D01*
X72367500Y-57424499D01*
X72367500Y-58400000D01*
X72732828Y-58400000D01*
X72732844Y-58399999D01*
X72792372Y-58393598D01*
X72792379Y-58393596D01*
X72927086Y-58343354D01*
X72927093Y-58343350D01*
X73042187Y-58257190D01*
X73042190Y-58257187D01*
X73128350Y-58142093D01*
X73128354Y-58142086D01*
X73133550Y-58128155D01*
X73175420Y-58072220D01*
X73240884Y-58047801D01*
X73309157Y-58062651D01*
X73358564Y-58112055D01*
X73365915Y-58128151D01*
X73371203Y-58142330D01*
X73371206Y-58142335D01*
X73457452Y-58257544D01*
X73457455Y-58257547D01*
X73572664Y-58343793D01*
X73572671Y-58343797D01*
X73707517Y-58394091D01*
X73707516Y-58394091D01*
X73714444Y-58394835D01*
X73767127Y-58400500D01*
X74997872Y-58400499D01*
X75057483Y-58394091D01*
X75192331Y-58343796D01*
X75307546Y-58257546D01*
X75337166Y-58217979D01*
X75350485Y-58200188D01*
X75406419Y-58158318D01*
X75449751Y-58150500D01*
X81550564Y-58150500D01*
X81617603Y-58170185D01*
X81663358Y-58222989D01*
X81670339Y-58242407D01*
X81720422Y-58429322D01*
X81720424Y-58429326D01*
X81720425Y-58429330D01*
X81766661Y-58528484D01*
X81812897Y-58627638D01*
X81835882Y-58660463D01*
X81938402Y-58806877D01*
X82093123Y-58961598D01*
X82272361Y-59087102D01*
X82470670Y-59179575D01*
X82682023Y-59236207D01*
X82864926Y-59252208D01*
X82899998Y-59255277D01*
X82900000Y-59255277D01*
X82900002Y-59255277D01*
X82928254Y-59252805D01*
X83117977Y-59236207D01*
X83329330Y-59179575D01*
X83527639Y-59087102D01*
X83706877Y-58961598D01*
X83861598Y-58806877D01*
X83987102Y-58627639D01*
X84079575Y-58429330D01*
X84136207Y-58217977D01*
X84154622Y-58007483D01*
X84155277Y-58000002D01*
X84155277Y-57999997D01*
X84150950Y-57950542D01*
X84150714Y-57947844D01*
X90050000Y-57947844D01*
X90056401Y-58007372D01*
X90056403Y-58007379D01*
X90106645Y-58142086D01*
X90106649Y-58142093D01*
X90192809Y-58257187D01*
X90192812Y-58257190D01*
X90307906Y-58343350D01*
X90307913Y-58343354D01*
X90442620Y-58393596D01*
X90442627Y-58393598D01*
X90502155Y-58399999D01*
X90502172Y-58400000D01*
X90867500Y-58400000D01*
X90867500Y-57800000D01*
X90050000Y-57800000D01*
X90050000Y-57947844D01*
X84150714Y-57947844D01*
X84136207Y-57782023D01*
X84079575Y-57570670D01*
X84020541Y-57444072D01*
X84010050Y-57374999D01*
X84038569Y-57311215D01*
X84045216Y-57304017D01*
X84262417Y-57086816D01*
X84323739Y-57053334D01*
X84350097Y-57050500D01*
X89926000Y-57050500D01*
X89993039Y-57070185D01*
X90038794Y-57122989D01*
X90050000Y-57174500D01*
X90050000Y-57300000D01*
X90490833Y-57300000D01*
X90498811Y-57300427D01*
X90498817Y-57300322D01*
X90502102Y-57300497D01*
X90502127Y-57300500D01*
X91243501Y-57300499D01*
X91310539Y-57320183D01*
X91356294Y-57372987D01*
X91367500Y-57424499D01*
X91367500Y-58400000D01*
X91732828Y-58400000D01*
X91732844Y-58399999D01*
X91792372Y-58393598D01*
X91792379Y-58393596D01*
X91927086Y-58343354D01*
X91927093Y-58343350D01*
X92042187Y-58257190D01*
X92042190Y-58257187D01*
X92128350Y-58142093D01*
X92128354Y-58142086D01*
X92133550Y-58128155D01*
X92175420Y-58072220D01*
X92240884Y-58047801D01*
X92309157Y-58062651D01*
X92358564Y-58112055D01*
X92365915Y-58128151D01*
X92371203Y-58142330D01*
X92371206Y-58142335D01*
X92457452Y-58257544D01*
X92457455Y-58257547D01*
X92572664Y-58343793D01*
X92572671Y-58343797D01*
X92707517Y-58394091D01*
X92707516Y-58394091D01*
X92714444Y-58394835D01*
X92767127Y-58400500D01*
X93997872Y-58400499D01*
X94057483Y-58394091D01*
X94192331Y-58343796D01*
X94307546Y-58257546D01*
X94337166Y-58217979D01*
X94350485Y-58200188D01*
X94406419Y-58158318D01*
X94449751Y-58150500D01*
X100250564Y-58150500D01*
X100317603Y-58170185D01*
X100363358Y-58222989D01*
X100370339Y-58242407D01*
X100420422Y-58429322D01*
X100420424Y-58429326D01*
X100420425Y-58429330D01*
X100466661Y-58528484D01*
X100512897Y-58627638D01*
X100535882Y-58660463D01*
X100638402Y-58806877D01*
X100793123Y-58961598D01*
X100972361Y-59087102D01*
X101170670Y-59179575D01*
X101382023Y-59236207D01*
X101564926Y-59252208D01*
X101599998Y-59255277D01*
X101600000Y-59255277D01*
X101600002Y-59255277D01*
X101628254Y-59252805D01*
X101817977Y-59236207D01*
X102029330Y-59179575D01*
X102227639Y-59087102D01*
X102406877Y-58961598D01*
X102561598Y-58806877D01*
X102687102Y-58627639D01*
X102779575Y-58429330D01*
X102836207Y-58217977D01*
X102854622Y-58007483D01*
X102855277Y-58000002D01*
X102855277Y-57999997D01*
X102850950Y-57950542D01*
X102850714Y-57947844D01*
X109050000Y-57947844D01*
X109056401Y-58007372D01*
X109056403Y-58007379D01*
X109106645Y-58142086D01*
X109106649Y-58142093D01*
X109192809Y-58257187D01*
X109192812Y-58257190D01*
X109307906Y-58343350D01*
X109307913Y-58343354D01*
X109442620Y-58393596D01*
X109442627Y-58393598D01*
X109502155Y-58399999D01*
X109502172Y-58400000D01*
X109867500Y-58400000D01*
X109867500Y-57800000D01*
X109050000Y-57800000D01*
X109050000Y-57947844D01*
X102850714Y-57947844D01*
X102836207Y-57782023D01*
X102797890Y-57639022D01*
X102799553Y-57569174D01*
X102829982Y-57519251D01*
X103262416Y-57086819D01*
X103323739Y-57053334D01*
X103350097Y-57050500D01*
X108926000Y-57050500D01*
X108993039Y-57070185D01*
X109038794Y-57122989D01*
X109050000Y-57174500D01*
X109050000Y-57300000D01*
X109490833Y-57300000D01*
X109498811Y-57300427D01*
X109498817Y-57300322D01*
X109502102Y-57300497D01*
X109502127Y-57300500D01*
X110243501Y-57300499D01*
X110310539Y-57320183D01*
X110356294Y-57372987D01*
X110367500Y-57424499D01*
X110367500Y-58400000D01*
X110732828Y-58400000D01*
X110732844Y-58399999D01*
X110792372Y-58393598D01*
X110792379Y-58393596D01*
X110927086Y-58343354D01*
X110927093Y-58343350D01*
X111042187Y-58257190D01*
X111042190Y-58257187D01*
X111128350Y-58142093D01*
X111128354Y-58142086D01*
X111133550Y-58128155D01*
X111175420Y-58072220D01*
X111240884Y-58047801D01*
X111309157Y-58062651D01*
X111358564Y-58112055D01*
X111365915Y-58128151D01*
X111371203Y-58142330D01*
X111371206Y-58142335D01*
X111457452Y-58257544D01*
X111457455Y-58257547D01*
X111572664Y-58343793D01*
X111572671Y-58343797D01*
X111707517Y-58394091D01*
X111707516Y-58394091D01*
X111714444Y-58394835D01*
X111767127Y-58400500D01*
X112997872Y-58400499D01*
X113057483Y-58394091D01*
X113192331Y-58343796D01*
X113307546Y-58257546D01*
X113337166Y-58217979D01*
X113350485Y-58200188D01*
X113406419Y-58158318D01*
X113449751Y-58150500D01*
X115999903Y-58150500D01*
X116066942Y-58170185D01*
X116087584Y-58186819D01*
X119885139Y-61984374D01*
X119885149Y-61984385D01*
X119889479Y-61988715D01*
X119889480Y-61988716D01*
X120001284Y-62100520D01*
X120088095Y-62150639D01*
X120088097Y-62150641D01*
X120138213Y-62179576D01*
X120138215Y-62179577D01*
X120290942Y-62220500D01*
X120290943Y-62220500D01*
X121167588Y-62220500D01*
X121234627Y-62240185D01*
X121244903Y-62247555D01*
X121247736Y-62249814D01*
X121247738Y-62249816D01*
X121400478Y-62345789D01*
X121570745Y-62405368D01*
X121570750Y-62405369D01*
X121749996Y-62425565D01*
X121750000Y-62425565D01*
X121750004Y-62425565D01*
X121929249Y-62405369D01*
X121929252Y-62405368D01*
X121929255Y-62405368D01*
X122099522Y-62345789D01*
X122252262Y-62249816D01*
X122379816Y-62122262D01*
X122475789Y-61969522D01*
X122535368Y-61799255D01*
X122553159Y-61641354D01*
X122555565Y-61620003D01*
X122555565Y-61619996D01*
X122535369Y-61440750D01*
X122535366Y-61440737D01*
X122492661Y-61318693D01*
X122489099Y-61248914D01*
X122522021Y-61190056D01*
X122549816Y-61162262D01*
X122645789Y-61009522D01*
X122705368Y-60839255D01*
X122722881Y-60683825D01*
X122725565Y-60660003D01*
X122725565Y-60659996D01*
X122705369Y-60480750D01*
X122705368Y-60480745D01*
X122671034Y-60382625D01*
X122645789Y-60310478D01*
X122568167Y-60186944D01*
X129811000Y-60186944D01*
X129817401Y-60246472D01*
X129817403Y-60246479D01*
X129867645Y-60381186D01*
X129867649Y-60381193D01*
X129953809Y-60496287D01*
X129953812Y-60496290D01*
X130068906Y-60582450D01*
X130068913Y-60582454D01*
X130203620Y-60632696D01*
X130203627Y-60632698D01*
X130263155Y-60639099D01*
X130263172Y-60639100D01*
X130340000Y-60639100D01*
X130840000Y-60639100D01*
X130916828Y-60639100D01*
X130916844Y-60639099D01*
X130976372Y-60632698D01*
X130976379Y-60632696D01*
X131111086Y-60582454D01*
X131111089Y-60582452D01*
X131150688Y-60552809D01*
X131216153Y-60528391D01*
X131284426Y-60543242D01*
X131299312Y-60552809D01*
X131338910Y-60582452D01*
X131338913Y-60582454D01*
X131473620Y-60632696D01*
X131473627Y-60632698D01*
X131533155Y-60639099D01*
X131533172Y-60639100D01*
X131610000Y-60639100D01*
X131610000Y-59620000D01*
X130840000Y-59620000D01*
X130840000Y-60639100D01*
X130340000Y-60639100D01*
X130340000Y-59620000D01*
X129811000Y-59620000D01*
X129811000Y-60186944D01*
X122568167Y-60186944D01*
X122549816Y-60157738D01*
X122422262Y-60030184D01*
X122372211Y-59998735D01*
X122269521Y-59934210D01*
X122187524Y-59905518D01*
X122099255Y-59874632D01*
X122091187Y-59873722D01*
X122057624Y-59865064D01*
X121964329Y-59826420D01*
X121964321Y-59826418D01*
X121828996Y-59799500D01*
X121828994Y-59799500D01*
X121828993Y-59799500D01*
X121341519Y-59799500D01*
X121274480Y-59779815D01*
X121253838Y-59763181D01*
X120043712Y-58553055D01*
X129811000Y-58553055D01*
X129811000Y-59120000D01*
X130340000Y-59120000D01*
X130340000Y-58100900D01*
X130263155Y-58100900D01*
X130203627Y-58107301D01*
X130203620Y-58107303D01*
X130068913Y-58157545D01*
X130068906Y-58157549D01*
X129953812Y-58243709D01*
X129953809Y-58243712D01*
X129867649Y-58358806D01*
X129867645Y-58358813D01*
X129817403Y-58493520D01*
X129817401Y-58493527D01*
X129811000Y-58553055D01*
X120043712Y-58553055D01*
X117396546Y-55905888D01*
X117396545Y-55905887D01*
X117281807Y-55829222D01*
X117154332Y-55776421D01*
X117154322Y-55776418D01*
X117018996Y-55749500D01*
X117018994Y-55749500D01*
X117018993Y-55749500D01*
X113358231Y-55749500D01*
X113291192Y-55729815D01*
X113283920Y-55724767D01*
X113192331Y-55656204D01*
X113192328Y-55656202D01*
X113057482Y-55605908D01*
X113057483Y-55605908D01*
X112997883Y-55599501D01*
X112997881Y-55599500D01*
X112997873Y-55599500D01*
X112997865Y-55599500D01*
X112962230Y-55599500D01*
X112895191Y-55579815D01*
X112874549Y-55563181D01*
X112228421Y-54917052D01*
X112228414Y-54917046D01*
X112154729Y-54867812D01*
X112154729Y-54867813D01*
X112105491Y-54834913D01*
X111968917Y-54778343D01*
X111968907Y-54778340D01*
X111823920Y-54749500D01*
X111823918Y-54749500D01*
X94258582Y-54749500D01*
X94258580Y-54749500D01*
X94113592Y-54778340D01*
X94113586Y-54778342D01*
X93977008Y-54834914D01*
X93976996Y-54834921D01*
X93927769Y-54867813D01*
X93854088Y-54917044D01*
X93854080Y-54917050D01*
X93470181Y-55300950D01*
X93408858Y-55334435D01*
X93339166Y-55329451D01*
X93294819Y-55300950D01*
X92910921Y-54917052D01*
X92910914Y-54917046D01*
X92837229Y-54867812D01*
X92837229Y-54867813D01*
X92787991Y-54834913D01*
X92651417Y-54778343D01*
X92651407Y-54778340D01*
X92506420Y-54749500D01*
X92506418Y-54749500D01*
X75258582Y-54749500D01*
X75258580Y-54749500D01*
X75113592Y-54778340D01*
X75113586Y-54778342D01*
X74977008Y-54834914D01*
X74976996Y-54834921D01*
X74927769Y-54867813D01*
X74854088Y-54917044D01*
X74854080Y-54917050D01*
X74470181Y-55300950D01*
X74408858Y-55334435D01*
X74339166Y-55329451D01*
X74294819Y-55300950D01*
X73910921Y-54917052D01*
X73910914Y-54917046D01*
X73837229Y-54867812D01*
X73837229Y-54867813D01*
X73787991Y-54834913D01*
X73651417Y-54778343D01*
X73651407Y-54778340D01*
X73506420Y-54749500D01*
X73506418Y-54749500D01*
X56258582Y-54749500D01*
X56258580Y-54749500D01*
X56113592Y-54778340D01*
X56113586Y-54778342D01*
X55977008Y-54834914D01*
X55976996Y-54834921D01*
X55927770Y-54867811D01*
X55927771Y-54867812D01*
X55854081Y-54917049D01*
X55207949Y-55563181D01*
X55146626Y-55596666D01*
X55120268Y-55599500D01*
X54767130Y-55599500D01*
X54767123Y-55599501D01*
X54707516Y-55605908D01*
X54572671Y-55656202D01*
X54572664Y-55656206D01*
X54457455Y-55742452D01*
X54457452Y-55742455D01*
X54371206Y-55857664D01*
X54371203Y-55857670D01*
X54366182Y-55871133D01*
X54324310Y-55927066D01*
X54258846Y-55951483D01*
X54190573Y-55936631D01*
X54141168Y-55887225D01*
X54133818Y-55871133D01*
X54128796Y-55857670D01*
X54128793Y-55857664D01*
X54042547Y-55742455D01*
X54042544Y-55742452D01*
X53927335Y-55656206D01*
X53927328Y-55656202D01*
X53792482Y-55605908D01*
X53792483Y-55605908D01*
X53732883Y-55599501D01*
X53732881Y-55599500D01*
X53732873Y-55599500D01*
X53732864Y-55599500D01*
X52502129Y-55599500D01*
X52502123Y-55599501D01*
X52442516Y-55605908D01*
X52307671Y-55656202D01*
X52307664Y-55656206D01*
X52192457Y-55742451D01*
X52192451Y-55742457D01*
X52149515Y-55799812D01*
X52093581Y-55841682D01*
X52050249Y-55849500D01*
X50636670Y-55849500D01*
X50636654Y-55849499D01*
X50629058Y-55849499D01*
X50470943Y-55849499D01*
X50394579Y-55869961D01*
X50318214Y-55890423D01*
X50318209Y-55890426D01*
X50181290Y-55969475D01*
X50181282Y-55969481D01*
X46769481Y-59381282D01*
X46769480Y-59381284D01*
X46736162Y-59438993D01*
X46690423Y-59518215D01*
X46649499Y-59670943D01*
X46649499Y-59670945D01*
X46649499Y-59839046D01*
X46649500Y-59839059D01*
X46649500Y-60897930D01*
X46629815Y-60964969D01*
X46577914Y-61010308D01*
X46572365Y-61012896D01*
X46572360Y-61012898D01*
X46393121Y-61138402D01*
X46238402Y-61293121D01*
X46112900Y-61472357D01*
X46112898Y-61472361D01*
X46020426Y-61670668D01*
X46020422Y-61670677D01*
X45963793Y-61882020D01*
X45963793Y-61882024D01*
X45944723Y-62099997D01*
X45944723Y-62100002D01*
X45963793Y-62317975D01*
X45963793Y-62317979D01*
X46020422Y-62529322D01*
X46020424Y-62529326D01*
X46020425Y-62529330D01*
X46066661Y-62628484D01*
X46112897Y-62727638D01*
X46112898Y-62727639D01*
X46238402Y-62906877D01*
X46393123Y-63061598D01*
X46572361Y-63187102D01*
X46577900Y-63189685D01*
X46630339Y-63235851D01*
X46649500Y-63302068D01*
X46649500Y-73413330D01*
X46649499Y-73413348D01*
X46649499Y-73579054D01*
X46649498Y-73579054D01*
X46650993Y-73584632D01*
X46690423Y-73731785D01*
X46690424Y-73731787D01*
X46690423Y-73731787D01*
X46700217Y-73748749D01*
X46700218Y-73748751D01*
X46769475Y-73868709D01*
X46769481Y-73868717D01*
X46888349Y-73987585D01*
X46888355Y-73987590D01*
X50015139Y-77114374D01*
X50015149Y-77114385D01*
X50131285Y-77230521D01*
X50149046Y-77240775D01*
X50194553Y-77267048D01*
X50268215Y-77309577D01*
X50420943Y-77350500D01*
X51625500Y-77350500D01*
X51692539Y-77370185D01*
X51738294Y-77422989D01*
X51749500Y-77474500D01*
X51749500Y-78247870D01*
X51749501Y-78247876D01*
X51755908Y-78307483D01*
X51806202Y-78442328D01*
X51806206Y-78442335D01*
X51892452Y-78557544D01*
X51892455Y-78557547D01*
X52007664Y-78643793D01*
X52007671Y-78643797D01*
X52038451Y-78655277D01*
X52142517Y-78694091D01*
X52202127Y-78700500D01*
X52555269Y-78700499D01*
X52622308Y-78720183D01*
X52642950Y-78736818D01*
X54689086Y-80782954D01*
X54707837Y-80795482D01*
X54762770Y-80832186D01*
X54812005Y-80865084D01*
X54812006Y-80865084D01*
X54812007Y-80865085D01*
X54812009Y-80865086D01*
X54812543Y-80865307D01*
X54948587Y-80921658D01*
X54948591Y-80921658D01*
X54948592Y-80921659D01*
X55093579Y-80950500D01*
X55093582Y-80950500D01*
X69541420Y-80950500D01*
X69638962Y-80931096D01*
X69686413Y-80921658D01*
X69822995Y-80865084D01*
X69872229Y-80832186D01*
X69872234Y-80832183D01*
X69896571Y-80815921D01*
X69945916Y-80782952D01*
X71729819Y-78999047D01*
X71791142Y-78965563D01*
X71860834Y-78970547D01*
X71905181Y-78999048D01*
X73384548Y-80478415D01*
X73384549Y-80478416D01*
X73489081Y-80582948D01*
X73489085Y-80582952D01*
X73611998Y-80665080D01*
X73612011Y-80665087D01*
X73748582Y-80721656D01*
X73748587Y-80721658D01*
X73748591Y-80721658D01*
X73748592Y-80721659D01*
X73893579Y-80750500D01*
X73893582Y-80750500D01*
X88741420Y-80750500D01*
X88838962Y-80731096D01*
X88886413Y-80721658D01*
X89022995Y-80665084D01*
X89072229Y-80632186D01*
X89145916Y-80582952D01*
X90729818Y-78999047D01*
X90791141Y-78965563D01*
X90860832Y-78970547D01*
X90905180Y-78999048D01*
X92384548Y-80478415D01*
X92384549Y-80478416D01*
X92489081Y-80582948D01*
X92489085Y-80582952D01*
X92611998Y-80665080D01*
X92612011Y-80665087D01*
X92748582Y-80721656D01*
X92748587Y-80721658D01*
X92748591Y-80721658D01*
X92748592Y-80721659D01*
X92893579Y-80750500D01*
X92893582Y-80750500D01*
X108208920Y-80750500D01*
X108306462Y-80731096D01*
X108353913Y-80721658D01*
X108490495Y-80665084D01*
X108539729Y-80632186D01*
X108613416Y-80582952D01*
X109729818Y-79466547D01*
X109791141Y-79433063D01*
X109860832Y-79438047D01*
X109905180Y-79466548D01*
X111021580Y-80582948D01*
X111021584Y-80582951D01*
X111144498Y-80665080D01*
X111144511Y-80665087D01*
X111281082Y-80721656D01*
X111281087Y-80721658D01*
X111281091Y-80721658D01*
X111281092Y-80721659D01*
X111426079Y-80750500D01*
X111426082Y-80750500D01*
X155073920Y-80750500D01*
X155171462Y-80731096D01*
X155218913Y-80721658D01*
X155243219Y-80711589D01*
X155312688Y-80704120D01*
X155375167Y-80735394D01*
X155410821Y-80795482D01*
X155408328Y-80865307D01*
X155378354Y-80913831D01*
X154829005Y-81463181D01*
X154767682Y-81496666D01*
X154741324Y-81499500D01*
X48258676Y-81499500D01*
X48191637Y-81479815D01*
X48170995Y-81463181D01*
X43536819Y-76829005D01*
X43503334Y-76767682D01*
X43500500Y-76741324D01*
X43500500Y-51913312D01*
X48068600Y-51913312D01*
X48068600Y-52086687D01*
X48095720Y-52257913D01*
X48149290Y-52422788D01*
X48149291Y-52422791D01*
X48213728Y-52549254D01*
X48227998Y-52577260D01*
X48329899Y-52717514D01*
X48452486Y-52840101D01*
X48592740Y-52942002D01*
X48654238Y-52973337D01*
X48747208Y-53020708D01*
X48747211Y-53020709D01*
X48808717Y-53040693D01*
X48912088Y-53074280D01*
X48991391Y-53086840D01*
X49083313Y-53101400D01*
X49083318Y-53101400D01*
X49256687Y-53101400D01*
X49339695Y-53088252D01*
X49427912Y-53074280D01*
X49592791Y-53020708D01*
X49747260Y-52942002D01*
X49887514Y-52840101D01*
X50010101Y-52717514D01*
X50112002Y-52577260D01*
X50190708Y-52422791D01*
X50244280Y-52257912D01*
X50261831Y-52147099D01*
X50271400Y-52086687D01*
X50271400Y-51913312D01*
X50261831Y-51852900D01*
X52005600Y-51852900D01*
X52005600Y-52147099D01*
X52005601Y-52147116D01*
X52034944Y-52370003D01*
X52044002Y-52438800D01*
X52073598Y-52549255D01*
X52120152Y-52722994D01*
X52232734Y-52994794D01*
X52232742Y-52994810D01*
X52379840Y-53249589D01*
X52379851Y-53249605D01*
X52558948Y-53483009D01*
X52558954Y-53483016D01*
X52766983Y-53691045D01*
X52766990Y-53691051D01*
X52889181Y-53784811D01*
X53000403Y-53870155D01*
X53000410Y-53870159D01*
X53255189Y-54017257D01*
X53255205Y-54017265D01*
X53527005Y-54129847D01*
X53527007Y-54129847D01*
X53527013Y-54129850D01*
X53811200Y-54205998D01*
X54102894Y-54244400D01*
X54102901Y-54244400D01*
X54397099Y-54244400D01*
X54397106Y-54244400D01*
X54688800Y-54205998D01*
X54972987Y-54129850D01*
X55046318Y-54099475D01*
X55244794Y-54017265D01*
X55244797Y-54017263D01*
X55244803Y-54017261D01*
X55499597Y-53870155D01*
X55733011Y-53691050D01*
X55941050Y-53483011D01*
X56120155Y-53249597D01*
X56267261Y-52994803D01*
X56276153Y-52973337D01*
X56379847Y-52722994D01*
X56379846Y-52722994D01*
X56379850Y-52722987D01*
X56455998Y-52438800D01*
X56494400Y-52147106D01*
X56494400Y-51913312D01*
X58228600Y-51913312D01*
X58228600Y-52086687D01*
X58255720Y-52257913D01*
X58309290Y-52422788D01*
X58309291Y-52422791D01*
X58373728Y-52549254D01*
X58387998Y-52577260D01*
X58489899Y-52717514D01*
X58612486Y-52840101D01*
X58752740Y-52942002D01*
X58814238Y-52973337D01*
X58907208Y-53020708D01*
X58907211Y-53020709D01*
X58968717Y-53040693D01*
X59072088Y-53074280D01*
X59151391Y-53086840D01*
X59243313Y-53101400D01*
X59243318Y-53101400D01*
X59416687Y-53101400D01*
X59499695Y-53088252D01*
X59587912Y-53074280D01*
X59752791Y-53020708D01*
X59907260Y-52942002D01*
X60047514Y-52840101D01*
X60170101Y-52717514D01*
X60272002Y-52577260D01*
X60350708Y-52422791D01*
X60404280Y-52257912D01*
X60421831Y-52147099D01*
X60431400Y-52086687D01*
X60431400Y-51913312D01*
X67068600Y-51913312D01*
X67068600Y-52086687D01*
X67095720Y-52257913D01*
X67149290Y-52422788D01*
X67149291Y-52422791D01*
X67213728Y-52549254D01*
X67227998Y-52577260D01*
X67329899Y-52717514D01*
X67452486Y-52840101D01*
X67592740Y-52942002D01*
X67654238Y-52973337D01*
X67747208Y-53020708D01*
X67747211Y-53020709D01*
X67808717Y-53040693D01*
X67912088Y-53074280D01*
X67991391Y-53086840D01*
X68083313Y-53101400D01*
X68083318Y-53101400D01*
X68256687Y-53101400D01*
X68339695Y-53088252D01*
X68427912Y-53074280D01*
X68592791Y-53020708D01*
X68747260Y-52942002D01*
X68887514Y-52840101D01*
X69010101Y-52717514D01*
X69112002Y-52577260D01*
X69190708Y-52422791D01*
X69244280Y-52257912D01*
X69261831Y-52147099D01*
X69271400Y-52086687D01*
X69271400Y-51913312D01*
X69261831Y-51852900D01*
X71005600Y-51852900D01*
X71005600Y-52147099D01*
X71005601Y-52147116D01*
X71034944Y-52370003D01*
X71044002Y-52438800D01*
X71073598Y-52549255D01*
X71120152Y-52722994D01*
X71232734Y-52994794D01*
X71232742Y-52994810D01*
X71379840Y-53249589D01*
X71379851Y-53249605D01*
X71558948Y-53483009D01*
X71558954Y-53483016D01*
X71766983Y-53691045D01*
X71766990Y-53691051D01*
X71889181Y-53784811D01*
X72000403Y-53870155D01*
X72000410Y-53870159D01*
X72255189Y-54017257D01*
X72255205Y-54017265D01*
X72527005Y-54129847D01*
X72527007Y-54129847D01*
X72527013Y-54129850D01*
X72811200Y-54205998D01*
X73102894Y-54244400D01*
X73102901Y-54244400D01*
X73397099Y-54244400D01*
X73397106Y-54244400D01*
X73688800Y-54205998D01*
X73972987Y-54129850D01*
X74046318Y-54099475D01*
X74244794Y-54017265D01*
X74244797Y-54017263D01*
X74244803Y-54017261D01*
X74499597Y-53870155D01*
X74733011Y-53691050D01*
X74941050Y-53483011D01*
X75120155Y-53249597D01*
X75267261Y-52994803D01*
X75276153Y-52973337D01*
X75379847Y-52722994D01*
X75379846Y-52722994D01*
X75379850Y-52722987D01*
X75455998Y-52438800D01*
X75494400Y-52147106D01*
X75494400Y-51913312D01*
X77228600Y-51913312D01*
X77228600Y-52086687D01*
X77255720Y-52257913D01*
X77309290Y-52422788D01*
X77309291Y-52422791D01*
X77373728Y-52549254D01*
X77387998Y-52577260D01*
X77489899Y-52717514D01*
X77612486Y-52840101D01*
X77752740Y-52942002D01*
X77814238Y-52973337D01*
X77907208Y-53020708D01*
X77907211Y-53020709D01*
X77968717Y-53040693D01*
X78072088Y-53074280D01*
X78151391Y-53086840D01*
X78243313Y-53101400D01*
X78243318Y-53101400D01*
X78416687Y-53101400D01*
X78499695Y-53088252D01*
X78587912Y-53074280D01*
X78752791Y-53020708D01*
X78907260Y-52942002D01*
X79047514Y-52840101D01*
X79170101Y-52717514D01*
X79272002Y-52577260D01*
X79350708Y-52422791D01*
X79404280Y-52257912D01*
X79421831Y-52147099D01*
X79431400Y-52086687D01*
X79431400Y-51913312D01*
X86068600Y-51913312D01*
X86068600Y-52086687D01*
X86095720Y-52257913D01*
X86149290Y-52422788D01*
X86149291Y-52422791D01*
X86213728Y-52549254D01*
X86227998Y-52577260D01*
X86329899Y-52717514D01*
X86452486Y-52840101D01*
X86592740Y-52942002D01*
X86654238Y-52973337D01*
X86747208Y-53020708D01*
X86747211Y-53020709D01*
X86808717Y-53040693D01*
X86912088Y-53074280D01*
X86991391Y-53086840D01*
X87083313Y-53101400D01*
X87083318Y-53101400D01*
X87256687Y-53101400D01*
X87339695Y-53088252D01*
X87427912Y-53074280D01*
X87592791Y-53020708D01*
X87747260Y-52942002D01*
X87887514Y-52840101D01*
X88010101Y-52717514D01*
X88112002Y-52577260D01*
X88190708Y-52422791D01*
X88244280Y-52257912D01*
X88261831Y-52147099D01*
X88271400Y-52086687D01*
X88271400Y-51913312D01*
X88261831Y-51852900D01*
X90005600Y-51852900D01*
X90005600Y-52147099D01*
X90005601Y-52147116D01*
X90034944Y-52370003D01*
X90044002Y-52438800D01*
X90073598Y-52549255D01*
X90120152Y-52722994D01*
X90232734Y-52994794D01*
X90232742Y-52994810D01*
X90379840Y-53249589D01*
X90379851Y-53249605D01*
X90558948Y-53483009D01*
X90558954Y-53483016D01*
X90766983Y-53691045D01*
X90766990Y-53691051D01*
X90889181Y-53784811D01*
X91000403Y-53870155D01*
X91000410Y-53870159D01*
X91255189Y-54017257D01*
X91255205Y-54017265D01*
X91527005Y-54129847D01*
X91527007Y-54129847D01*
X91527013Y-54129850D01*
X91811200Y-54205998D01*
X92102894Y-54244400D01*
X92102901Y-54244400D01*
X92397099Y-54244400D01*
X92397106Y-54244400D01*
X92688800Y-54205998D01*
X92972987Y-54129850D01*
X93046318Y-54099475D01*
X93244794Y-54017265D01*
X93244797Y-54017263D01*
X93244803Y-54017261D01*
X93499597Y-53870155D01*
X93733011Y-53691050D01*
X93941050Y-53483011D01*
X94120155Y-53249597D01*
X94267261Y-52994803D01*
X94276153Y-52973337D01*
X94379847Y-52722994D01*
X94379846Y-52722994D01*
X94379850Y-52722987D01*
X94455998Y-52438800D01*
X94494400Y-52147106D01*
X94494400Y-51913312D01*
X96228600Y-51913312D01*
X96228600Y-52086687D01*
X96255720Y-52257913D01*
X96309290Y-52422788D01*
X96309291Y-52422791D01*
X96373728Y-52549254D01*
X96387998Y-52577260D01*
X96489899Y-52717514D01*
X96612486Y-52840101D01*
X96752740Y-52942002D01*
X96814238Y-52973337D01*
X96907208Y-53020708D01*
X96907211Y-53020709D01*
X96968717Y-53040693D01*
X97072088Y-53074280D01*
X97151391Y-53086840D01*
X97243313Y-53101400D01*
X97243318Y-53101400D01*
X97416687Y-53101400D01*
X97499695Y-53088252D01*
X97587912Y-53074280D01*
X97752791Y-53020708D01*
X97907260Y-52942002D01*
X98047514Y-52840101D01*
X98170101Y-52717514D01*
X98272002Y-52577260D01*
X98350708Y-52422791D01*
X98404280Y-52257912D01*
X98421831Y-52147099D01*
X98431400Y-52086687D01*
X98431400Y-51913312D01*
X105068600Y-51913312D01*
X105068600Y-52086687D01*
X105095720Y-52257913D01*
X105149290Y-52422788D01*
X105149291Y-52422791D01*
X105213728Y-52549254D01*
X105227998Y-52577260D01*
X105329899Y-52717514D01*
X105452486Y-52840101D01*
X105592740Y-52942002D01*
X105654238Y-52973337D01*
X105747208Y-53020708D01*
X105747211Y-53020709D01*
X105808717Y-53040693D01*
X105912088Y-53074280D01*
X105991391Y-53086840D01*
X106083313Y-53101400D01*
X106083318Y-53101400D01*
X106256687Y-53101400D01*
X106339695Y-53088252D01*
X106427912Y-53074280D01*
X106592791Y-53020708D01*
X106747260Y-52942002D01*
X106887514Y-52840101D01*
X107010101Y-52717514D01*
X107112002Y-52577260D01*
X107190708Y-52422791D01*
X107244280Y-52257912D01*
X107261831Y-52147099D01*
X107271400Y-52086687D01*
X107271400Y-51913312D01*
X107261831Y-51852900D01*
X109005600Y-51852900D01*
X109005600Y-52147099D01*
X109005601Y-52147116D01*
X109034944Y-52370003D01*
X109044002Y-52438800D01*
X109073598Y-52549255D01*
X109120152Y-52722994D01*
X109232734Y-52994794D01*
X109232742Y-52994810D01*
X109379840Y-53249589D01*
X109379851Y-53249605D01*
X109558948Y-53483009D01*
X109558954Y-53483016D01*
X109766983Y-53691045D01*
X109766990Y-53691051D01*
X109889181Y-53784811D01*
X110000403Y-53870155D01*
X110000410Y-53870159D01*
X110255189Y-54017257D01*
X110255205Y-54017265D01*
X110527005Y-54129847D01*
X110527007Y-54129847D01*
X110527013Y-54129850D01*
X110811200Y-54205998D01*
X111102894Y-54244400D01*
X111102901Y-54244400D01*
X111397099Y-54244400D01*
X111397106Y-54244400D01*
X111688800Y-54205998D01*
X111972987Y-54129850D01*
X112046318Y-54099475D01*
X112244794Y-54017265D01*
X112244797Y-54017263D01*
X112244803Y-54017261D01*
X112499597Y-53870155D01*
X112733011Y-53691050D01*
X112941050Y-53483011D01*
X113120155Y-53249597D01*
X113267261Y-52994803D01*
X113276153Y-52973337D01*
X113379847Y-52722994D01*
X113379846Y-52722994D01*
X113379850Y-52722987D01*
X113455998Y-52438800D01*
X113494400Y-52147106D01*
X113494400Y-51913312D01*
X115228600Y-51913312D01*
X115228600Y-52086687D01*
X115255720Y-52257913D01*
X115309290Y-52422788D01*
X115309291Y-52422791D01*
X115373728Y-52549254D01*
X115387998Y-52577260D01*
X115489899Y-52717514D01*
X115612486Y-52840101D01*
X115752740Y-52942002D01*
X115814238Y-52973337D01*
X115907208Y-53020708D01*
X115907211Y-53020709D01*
X115968717Y-53040693D01*
X116072088Y-53074280D01*
X116151391Y-53086840D01*
X116243313Y-53101400D01*
X116243318Y-53101400D01*
X116416687Y-53101400D01*
X116499695Y-53088252D01*
X116587912Y-53074280D01*
X116752791Y-53020708D01*
X116907260Y-52942002D01*
X117047514Y-52840101D01*
X117170101Y-52717514D01*
X117272002Y-52577260D01*
X117350708Y-52422791D01*
X117404280Y-52257912D01*
X117421831Y-52147099D01*
X117431400Y-52086687D01*
X117431400Y-51913312D01*
X117411135Y-51785368D01*
X117404280Y-51742088D01*
X117353120Y-51584631D01*
X117350709Y-51577211D01*
X117350708Y-51577208D01*
X117296082Y-51470000D01*
X117272002Y-51422740D01*
X117170101Y-51282486D01*
X117047514Y-51159899D01*
X116907260Y-51057998D01*
X116902485Y-51055565D01*
X116752791Y-50979291D01*
X116752788Y-50979290D01*
X116587913Y-50925720D01*
X116416687Y-50898600D01*
X116416682Y-50898600D01*
X116243318Y-50898600D01*
X116243313Y-50898600D01*
X116072086Y-50925720D01*
X115907211Y-50979290D01*
X115907208Y-50979291D01*
X115752739Y-51057998D01*
X115672719Y-51116136D01*
X115612486Y-51159899D01*
X115612484Y-51159901D01*
X115612483Y-51159901D01*
X115489901Y-51282483D01*
X115489901Y-51282484D01*
X115489899Y-51282486D01*
X115459231Y-51324697D01*
X115387998Y-51422739D01*
X115309291Y-51577208D01*
X115309290Y-51577211D01*
X115255720Y-51742086D01*
X115228600Y-51913312D01*
X113494400Y-51913312D01*
X113494400Y-51852894D01*
X113455998Y-51561200D01*
X113379850Y-51277013D01*
X113379847Y-51277005D01*
X113267265Y-51005205D01*
X113267257Y-51005189D01*
X113120159Y-50750410D01*
X113120155Y-50750403D01*
X112941050Y-50516989D01*
X112941045Y-50516983D01*
X112733016Y-50308954D01*
X112733009Y-50308948D01*
X112499605Y-50129851D01*
X112499603Y-50129849D01*
X112499597Y-50129845D01*
X112499592Y-50129842D01*
X112499589Y-50129840D01*
X112244810Y-49982742D01*
X112244794Y-49982734D01*
X111972994Y-49870152D01*
X111764541Y-49814297D01*
X111688800Y-49794002D01*
X111688799Y-49794001D01*
X111688796Y-49794001D01*
X111397116Y-49755601D01*
X111397111Y-49755600D01*
X111397106Y-49755600D01*
X111102894Y-49755600D01*
X111102888Y-49755600D01*
X111102883Y-49755601D01*
X110811203Y-49794001D01*
X110527005Y-49870152D01*
X110255205Y-49982734D01*
X110255189Y-49982742D01*
X110000410Y-50129840D01*
X110000394Y-50129851D01*
X109766990Y-50308948D01*
X109766983Y-50308954D01*
X109558954Y-50516983D01*
X109558948Y-50516990D01*
X109379851Y-50750394D01*
X109379840Y-50750410D01*
X109232742Y-51005189D01*
X109232734Y-51005205D01*
X109120152Y-51277005D01*
X109044001Y-51561203D01*
X109005601Y-51852883D01*
X109005600Y-51852900D01*
X107261831Y-51852900D01*
X107251135Y-51785368D01*
X107244280Y-51742088D01*
X107193120Y-51584631D01*
X107190709Y-51577211D01*
X107190708Y-51577208D01*
X107112001Y-51422738D01*
X107088580Y-51390503D01*
X107065099Y-51324697D01*
X107080924Y-51256642D01*
X107131029Y-51207947D01*
X107199507Y-51194071D01*
X107205068Y-51194675D01*
X107325266Y-51210500D01*
X107325273Y-51210500D01*
X107554727Y-51210500D01*
X107554734Y-51210500D01*
X107782238Y-51180548D01*
X108003887Y-51121158D01*
X108215888Y-51033344D01*
X108414612Y-50918611D01*
X108596661Y-50778919D01*
X108596665Y-50778914D01*
X108596670Y-50778911D01*
X108758911Y-50616670D01*
X108758914Y-50616665D01*
X108758919Y-50616661D01*
X108898611Y-50434612D01*
X109013344Y-50235888D01*
X109101158Y-50023887D01*
X109160548Y-49802238D01*
X109190500Y-49574734D01*
X109190500Y-49345266D01*
X109160548Y-49117762D01*
X109101158Y-48896113D01*
X109013344Y-48684112D01*
X108898611Y-48485388D01*
X108898608Y-48485385D01*
X108898607Y-48485382D01*
X108761874Y-48307190D01*
X108758919Y-48303339D01*
X108758918Y-48303338D01*
X108758911Y-48303330D01*
X108596670Y-48141089D01*
X108596661Y-48141081D01*
X108414617Y-48001392D01*
X108215890Y-47886657D01*
X108215876Y-47886650D01*
X108003887Y-47798842D01*
X107782238Y-47739452D01*
X107744215Y-47734446D01*
X107554741Y-47709500D01*
X107554734Y-47709500D01*
X107325266Y-47709500D01*
X107325258Y-47709500D01*
X107117761Y-47736819D01*
X107097762Y-47739452D01*
X107087443Y-47742217D01*
X106876112Y-47798842D01*
X106664123Y-47886650D01*
X106664109Y-47886657D01*
X106465382Y-48001392D01*
X106283338Y-48141081D01*
X106121081Y-48303338D01*
X105981392Y-48485382D01*
X105866657Y-48684109D01*
X105866650Y-48684123D01*
X105778842Y-48896112D01*
X105778842Y-48896113D01*
X105726406Y-49091811D01*
X105719453Y-49117759D01*
X105719451Y-49117770D01*
X105689500Y-49345258D01*
X105689500Y-49574741D01*
X105711903Y-49744896D01*
X105719452Y-49802238D01*
X105761472Y-49959060D01*
X105778842Y-50023887D01*
X105866650Y-50235876D01*
X105866657Y-50235890D01*
X105981392Y-50434617D01*
X106121081Y-50616661D01*
X106121089Y-50616670D01*
X106191338Y-50686919D01*
X106224823Y-50748242D01*
X106219839Y-50817934D01*
X106177967Y-50873867D01*
X106112503Y-50898284D01*
X106103657Y-50898600D01*
X106083313Y-50898600D01*
X105912086Y-50925720D01*
X105747211Y-50979290D01*
X105747208Y-50979291D01*
X105592739Y-51057998D01*
X105512719Y-51116136D01*
X105452486Y-51159899D01*
X105452484Y-51159901D01*
X105452483Y-51159901D01*
X105329901Y-51282483D01*
X105329901Y-51282484D01*
X105329899Y-51282486D01*
X105299231Y-51324697D01*
X105227998Y-51422739D01*
X105149291Y-51577208D01*
X105149290Y-51577211D01*
X105095720Y-51742086D01*
X105068600Y-51913312D01*
X98431400Y-51913312D01*
X98411135Y-51785368D01*
X98404280Y-51742088D01*
X98353120Y-51584631D01*
X98350709Y-51577211D01*
X98350708Y-51577208D01*
X98296082Y-51470000D01*
X98272002Y-51422740D01*
X98170101Y-51282486D01*
X98047514Y-51159899D01*
X97907260Y-51057998D01*
X97902485Y-51055565D01*
X97752791Y-50979291D01*
X97752788Y-50979290D01*
X97587913Y-50925720D01*
X97416687Y-50898600D01*
X97416682Y-50898600D01*
X97243318Y-50898600D01*
X97243313Y-50898600D01*
X97072086Y-50925720D01*
X96907211Y-50979290D01*
X96907208Y-50979291D01*
X96752739Y-51057998D01*
X96672719Y-51116136D01*
X96612486Y-51159899D01*
X96612484Y-51159901D01*
X96612483Y-51159901D01*
X96489901Y-51282483D01*
X96489901Y-51282484D01*
X96489899Y-51282486D01*
X96459231Y-51324697D01*
X96387998Y-51422739D01*
X96309291Y-51577208D01*
X96309290Y-51577211D01*
X96255720Y-51742086D01*
X96228600Y-51913312D01*
X94494400Y-51913312D01*
X94494400Y-51852894D01*
X94455998Y-51561200D01*
X94379850Y-51277013D01*
X94379847Y-51277005D01*
X94267265Y-51005205D01*
X94267257Y-51005189D01*
X94120159Y-50750410D01*
X94120155Y-50750403D01*
X93941050Y-50516989D01*
X93941045Y-50516983D01*
X93733016Y-50308954D01*
X93733009Y-50308948D01*
X93499605Y-50129851D01*
X93499603Y-50129849D01*
X93499597Y-50129845D01*
X93499592Y-50129842D01*
X93499589Y-50129840D01*
X93244810Y-49982742D01*
X93244794Y-49982734D01*
X92972994Y-49870152D01*
X92764541Y-49814297D01*
X92688800Y-49794002D01*
X92688799Y-49794001D01*
X92688796Y-49794001D01*
X92397116Y-49755601D01*
X92397111Y-49755600D01*
X92397106Y-49755600D01*
X92102894Y-49755600D01*
X92102888Y-49755600D01*
X92102883Y-49755601D01*
X91811203Y-49794001D01*
X91527005Y-49870152D01*
X91255205Y-49982734D01*
X91255189Y-49982742D01*
X91000410Y-50129840D01*
X91000394Y-50129851D01*
X90766990Y-50308948D01*
X90766983Y-50308954D01*
X90558954Y-50516983D01*
X90558948Y-50516990D01*
X90379851Y-50750394D01*
X90379840Y-50750410D01*
X90232742Y-51005189D01*
X90232734Y-51005205D01*
X90120152Y-51277005D01*
X90044001Y-51561203D01*
X90005601Y-51852883D01*
X90005600Y-51852900D01*
X88261831Y-51852900D01*
X88251135Y-51785368D01*
X88244280Y-51742088D01*
X88193120Y-51584631D01*
X88190709Y-51577211D01*
X88190708Y-51577208D01*
X88112001Y-51422738D01*
X88088580Y-51390503D01*
X88065099Y-51324697D01*
X88080924Y-51256642D01*
X88131029Y-51207947D01*
X88199507Y-51194071D01*
X88205068Y-51194675D01*
X88325266Y-51210500D01*
X88325273Y-51210500D01*
X88554727Y-51210500D01*
X88554734Y-51210500D01*
X88782238Y-51180548D01*
X89003887Y-51121158D01*
X89215888Y-51033344D01*
X89414612Y-50918611D01*
X89596661Y-50778919D01*
X89596665Y-50778914D01*
X89596670Y-50778911D01*
X89758911Y-50616670D01*
X89758914Y-50616665D01*
X89758919Y-50616661D01*
X89898611Y-50434612D01*
X90013344Y-50235888D01*
X90101158Y-50023887D01*
X90160548Y-49802238D01*
X90190500Y-49574734D01*
X90190500Y-49345266D01*
X90160548Y-49117762D01*
X90101158Y-48896113D01*
X90013344Y-48684112D01*
X89898611Y-48485388D01*
X89898608Y-48485385D01*
X89898607Y-48485382D01*
X89761874Y-48307190D01*
X89758919Y-48303339D01*
X89758918Y-48303338D01*
X89758911Y-48303330D01*
X89596670Y-48141089D01*
X89596661Y-48141081D01*
X89414617Y-48001392D01*
X89215890Y-47886657D01*
X89215876Y-47886650D01*
X89003887Y-47798842D01*
X88782238Y-47739452D01*
X88744215Y-47734446D01*
X88554741Y-47709500D01*
X88554734Y-47709500D01*
X88325266Y-47709500D01*
X88325258Y-47709500D01*
X88117761Y-47736819D01*
X88097762Y-47739452D01*
X88087443Y-47742217D01*
X87876112Y-47798842D01*
X87664123Y-47886650D01*
X87664109Y-47886657D01*
X87465382Y-48001392D01*
X87283338Y-48141081D01*
X87121081Y-48303338D01*
X86981392Y-48485382D01*
X86866657Y-48684109D01*
X86866650Y-48684123D01*
X86778842Y-48896112D01*
X86778842Y-48896113D01*
X86726406Y-49091811D01*
X86719453Y-49117759D01*
X86719451Y-49117770D01*
X86689500Y-49345258D01*
X86689500Y-49574741D01*
X86711903Y-49744896D01*
X86719452Y-49802238D01*
X86761472Y-49959060D01*
X86778842Y-50023887D01*
X86866650Y-50235876D01*
X86866657Y-50235890D01*
X86981392Y-50434617D01*
X87121081Y-50616661D01*
X87121089Y-50616670D01*
X87191338Y-50686919D01*
X87224823Y-50748242D01*
X87219839Y-50817934D01*
X87177967Y-50873867D01*
X87112503Y-50898284D01*
X87103657Y-50898600D01*
X87083313Y-50898600D01*
X86912086Y-50925720D01*
X86747211Y-50979290D01*
X86747208Y-50979291D01*
X86592739Y-51057998D01*
X86512719Y-51116136D01*
X86452486Y-51159899D01*
X86452484Y-51159901D01*
X86452483Y-51159901D01*
X86329901Y-51282483D01*
X86329901Y-51282484D01*
X86329899Y-51282486D01*
X86299231Y-51324697D01*
X86227998Y-51422739D01*
X86149291Y-51577208D01*
X86149290Y-51577211D01*
X86095720Y-51742086D01*
X86068600Y-51913312D01*
X79431400Y-51913312D01*
X79411135Y-51785368D01*
X79404280Y-51742088D01*
X79353120Y-51584631D01*
X79350709Y-51577211D01*
X79350708Y-51577208D01*
X79296082Y-51470000D01*
X79272002Y-51422740D01*
X79170101Y-51282486D01*
X79047514Y-51159899D01*
X78907260Y-51057998D01*
X78902485Y-51055565D01*
X78752791Y-50979291D01*
X78752788Y-50979290D01*
X78587913Y-50925720D01*
X78416687Y-50898600D01*
X78416682Y-50898600D01*
X78243318Y-50898600D01*
X78243313Y-50898600D01*
X78072086Y-50925720D01*
X77907211Y-50979290D01*
X77907208Y-50979291D01*
X77752739Y-51057998D01*
X77672719Y-51116136D01*
X77612486Y-51159899D01*
X77612484Y-51159901D01*
X77612483Y-51159901D01*
X77489901Y-51282483D01*
X77489901Y-51282484D01*
X77489899Y-51282486D01*
X77459231Y-51324697D01*
X77387998Y-51422739D01*
X77309291Y-51577208D01*
X77309290Y-51577211D01*
X77255720Y-51742086D01*
X77228600Y-51913312D01*
X75494400Y-51913312D01*
X75494400Y-51852894D01*
X75455998Y-51561200D01*
X75379850Y-51277013D01*
X75379847Y-51277005D01*
X75267265Y-51005205D01*
X75267257Y-51005189D01*
X75120159Y-50750410D01*
X75120155Y-50750403D01*
X74941050Y-50516989D01*
X74941045Y-50516983D01*
X74733016Y-50308954D01*
X74733009Y-50308948D01*
X74499605Y-50129851D01*
X74499603Y-50129849D01*
X74499597Y-50129845D01*
X74499592Y-50129842D01*
X74499589Y-50129840D01*
X74244810Y-49982742D01*
X74244794Y-49982734D01*
X73972994Y-49870152D01*
X73764541Y-49814297D01*
X73688800Y-49794002D01*
X73688799Y-49794001D01*
X73688796Y-49794001D01*
X73397116Y-49755601D01*
X73397111Y-49755600D01*
X73397106Y-49755600D01*
X73102894Y-49755600D01*
X73102888Y-49755600D01*
X73102883Y-49755601D01*
X72811203Y-49794001D01*
X72527005Y-49870152D01*
X72255205Y-49982734D01*
X72255189Y-49982742D01*
X72000410Y-50129840D01*
X72000394Y-50129851D01*
X71766990Y-50308948D01*
X71766983Y-50308954D01*
X71558954Y-50516983D01*
X71558948Y-50516990D01*
X71379851Y-50750394D01*
X71379840Y-50750410D01*
X71232742Y-51005189D01*
X71232734Y-51005205D01*
X71120152Y-51277005D01*
X71044001Y-51561203D01*
X71005601Y-51852883D01*
X71005600Y-51852900D01*
X69261831Y-51852900D01*
X69251135Y-51785368D01*
X69244280Y-51742088D01*
X69193120Y-51584631D01*
X69190709Y-51577211D01*
X69190708Y-51577208D01*
X69112001Y-51422738D01*
X69088580Y-51390503D01*
X69065099Y-51324697D01*
X69080924Y-51256642D01*
X69131029Y-51207947D01*
X69199507Y-51194071D01*
X69205068Y-51194675D01*
X69325266Y-51210500D01*
X69325273Y-51210500D01*
X69554727Y-51210500D01*
X69554734Y-51210500D01*
X69782238Y-51180548D01*
X70003887Y-51121158D01*
X70215888Y-51033344D01*
X70414612Y-50918611D01*
X70596661Y-50778919D01*
X70596665Y-50778914D01*
X70596670Y-50778911D01*
X70758911Y-50616670D01*
X70758914Y-50616665D01*
X70758919Y-50616661D01*
X70898611Y-50434612D01*
X71013344Y-50235888D01*
X71101158Y-50023887D01*
X71160548Y-49802238D01*
X71190500Y-49574734D01*
X71190500Y-49345266D01*
X71160548Y-49117762D01*
X71101158Y-48896113D01*
X71013344Y-48684112D01*
X70898611Y-48485388D01*
X70898608Y-48485385D01*
X70898607Y-48485382D01*
X70761874Y-48307190D01*
X70758919Y-48303339D01*
X70758918Y-48303338D01*
X70758911Y-48303330D01*
X70596670Y-48141089D01*
X70596661Y-48141081D01*
X70414617Y-48001392D01*
X70215890Y-47886657D01*
X70215876Y-47886650D01*
X70003887Y-47798842D01*
X69782238Y-47739452D01*
X69744215Y-47734446D01*
X69554741Y-47709500D01*
X69554734Y-47709500D01*
X69325266Y-47709500D01*
X69325258Y-47709500D01*
X69117761Y-47736819D01*
X69097762Y-47739452D01*
X69087443Y-47742217D01*
X68876112Y-47798842D01*
X68664123Y-47886650D01*
X68664109Y-47886657D01*
X68465382Y-48001392D01*
X68283338Y-48141081D01*
X68121081Y-48303338D01*
X67981392Y-48485382D01*
X67866657Y-48684109D01*
X67866650Y-48684123D01*
X67778842Y-48896112D01*
X67778842Y-48896113D01*
X67726406Y-49091811D01*
X67719453Y-49117759D01*
X67719451Y-49117770D01*
X67689500Y-49345258D01*
X67689500Y-49574741D01*
X67711903Y-49744896D01*
X67719452Y-49802238D01*
X67761472Y-49959060D01*
X67778842Y-50023887D01*
X67866650Y-50235876D01*
X67866657Y-50235890D01*
X67981392Y-50434617D01*
X68121081Y-50616661D01*
X68121089Y-50616670D01*
X68191338Y-50686919D01*
X68224823Y-50748242D01*
X68219839Y-50817934D01*
X68177967Y-50873867D01*
X68112503Y-50898284D01*
X68103657Y-50898600D01*
X68083313Y-50898600D01*
X67912086Y-50925720D01*
X67747211Y-50979290D01*
X67747208Y-50979291D01*
X67592739Y-51057998D01*
X67512719Y-51116136D01*
X67452486Y-51159899D01*
X67452484Y-51159901D01*
X67452483Y-51159901D01*
X67329901Y-51282483D01*
X67329901Y-51282484D01*
X67329899Y-51282486D01*
X67299231Y-51324697D01*
X67227998Y-51422739D01*
X67149291Y-51577208D01*
X67149290Y-51577211D01*
X67095720Y-51742086D01*
X67068600Y-51913312D01*
X60431400Y-51913312D01*
X60411135Y-51785368D01*
X60404280Y-51742088D01*
X60353120Y-51584631D01*
X60350709Y-51577211D01*
X60350708Y-51577208D01*
X60296082Y-51470000D01*
X60272002Y-51422740D01*
X60170101Y-51282486D01*
X60047514Y-51159899D01*
X59907260Y-51057998D01*
X59902485Y-51055565D01*
X59752791Y-50979291D01*
X59752788Y-50979290D01*
X59587913Y-50925720D01*
X59416687Y-50898600D01*
X59416682Y-50898600D01*
X59243318Y-50898600D01*
X59243313Y-50898600D01*
X59072086Y-50925720D01*
X58907211Y-50979290D01*
X58907208Y-50979291D01*
X58752739Y-51057998D01*
X58672719Y-51116136D01*
X58612486Y-51159899D01*
X58612484Y-51159901D01*
X58612483Y-51159901D01*
X58489901Y-51282483D01*
X58489901Y-51282484D01*
X58489899Y-51282486D01*
X58459231Y-51324697D01*
X58387998Y-51422739D01*
X58309291Y-51577208D01*
X58309290Y-51577211D01*
X58255720Y-51742086D01*
X58228600Y-51913312D01*
X56494400Y-51913312D01*
X56494400Y-51852894D01*
X56455998Y-51561200D01*
X56379850Y-51277013D01*
X56379847Y-51277005D01*
X56267265Y-51005205D01*
X56267257Y-51005189D01*
X56120159Y-50750410D01*
X56120155Y-50750403D01*
X55941050Y-50516989D01*
X55941045Y-50516983D01*
X55733016Y-50308954D01*
X55733009Y-50308948D01*
X55499605Y-50129851D01*
X55499603Y-50129849D01*
X55499597Y-50129845D01*
X55499592Y-50129842D01*
X55499589Y-50129840D01*
X55244810Y-49982742D01*
X55244794Y-49982734D01*
X54972994Y-49870152D01*
X54764541Y-49814297D01*
X54688800Y-49794002D01*
X54688799Y-49794001D01*
X54688796Y-49794001D01*
X54397116Y-49755601D01*
X54397111Y-49755600D01*
X54397106Y-49755600D01*
X54102894Y-49755600D01*
X54102888Y-49755600D01*
X54102883Y-49755601D01*
X53811203Y-49794001D01*
X53527005Y-49870152D01*
X53255205Y-49982734D01*
X53255189Y-49982742D01*
X53000410Y-50129840D01*
X53000394Y-50129851D01*
X52766990Y-50308948D01*
X52766983Y-50308954D01*
X52558954Y-50516983D01*
X52558948Y-50516990D01*
X52379851Y-50750394D01*
X52379840Y-50750410D01*
X52232742Y-51005189D01*
X52232734Y-51005205D01*
X52120152Y-51277005D01*
X52044001Y-51561203D01*
X52005601Y-51852883D01*
X52005600Y-51852900D01*
X50261831Y-51852900D01*
X50251135Y-51785368D01*
X50244280Y-51742088D01*
X50193120Y-51584631D01*
X50190709Y-51577211D01*
X50190708Y-51577208D01*
X50112001Y-51422738D01*
X50088580Y-51390503D01*
X50065099Y-51324697D01*
X50080924Y-51256642D01*
X50131029Y-51207947D01*
X50199507Y-51194071D01*
X50205068Y-51194675D01*
X50325266Y-51210500D01*
X50325273Y-51210500D01*
X50554727Y-51210500D01*
X50554734Y-51210500D01*
X50782238Y-51180548D01*
X51003887Y-51121158D01*
X51215888Y-51033344D01*
X51414612Y-50918611D01*
X51596661Y-50778919D01*
X51596665Y-50778914D01*
X51596670Y-50778911D01*
X51758911Y-50616670D01*
X51758914Y-50616665D01*
X51758919Y-50616661D01*
X51898611Y-50434612D01*
X52013344Y-50235888D01*
X52101158Y-50023887D01*
X52160548Y-49802238D01*
X52190500Y-49574734D01*
X52190500Y-49345266D01*
X52160548Y-49117762D01*
X52101158Y-48896113D01*
X52013344Y-48684112D01*
X51898611Y-48485388D01*
X51898608Y-48485385D01*
X51898607Y-48485382D01*
X51761874Y-48307190D01*
X51758919Y-48303339D01*
X51758918Y-48303338D01*
X51758911Y-48303330D01*
X51596670Y-48141089D01*
X51596661Y-48141081D01*
X51414617Y-48001392D01*
X51215890Y-47886657D01*
X51215876Y-47886650D01*
X51003887Y-47798842D01*
X50782238Y-47739452D01*
X50744215Y-47734446D01*
X50554741Y-47709500D01*
X50554734Y-47709500D01*
X50325266Y-47709500D01*
X50325258Y-47709500D01*
X50117761Y-47736819D01*
X50097762Y-47739452D01*
X50087443Y-47742217D01*
X49876112Y-47798842D01*
X49664123Y-47886650D01*
X49664109Y-47886657D01*
X49465382Y-48001392D01*
X49283338Y-48141081D01*
X49121081Y-48303338D01*
X48981392Y-48485382D01*
X48866657Y-48684109D01*
X48866650Y-48684123D01*
X48778842Y-48896112D01*
X48778842Y-48896113D01*
X48726406Y-49091811D01*
X48719453Y-49117759D01*
X48719451Y-49117770D01*
X48689500Y-49345258D01*
X48689500Y-49574741D01*
X48711903Y-49744896D01*
X48719452Y-49802238D01*
X48761472Y-49959060D01*
X48778842Y-50023887D01*
X48866650Y-50235876D01*
X48866657Y-50235890D01*
X48981392Y-50434617D01*
X49121081Y-50616661D01*
X49121089Y-50616670D01*
X49191338Y-50686919D01*
X49224823Y-50748242D01*
X49219839Y-50817934D01*
X49177967Y-50873867D01*
X49112503Y-50898284D01*
X49103657Y-50898600D01*
X49083313Y-50898600D01*
X48912086Y-50925720D01*
X48747211Y-50979290D01*
X48747208Y-50979291D01*
X48592739Y-51057998D01*
X48512719Y-51116136D01*
X48452486Y-51159899D01*
X48452484Y-51159901D01*
X48452483Y-51159901D01*
X48329901Y-51282483D01*
X48329901Y-51282484D01*
X48329899Y-51282486D01*
X48299231Y-51324697D01*
X48227998Y-51422739D01*
X48149291Y-51577208D01*
X48149290Y-51577211D01*
X48095720Y-51742086D01*
X48068600Y-51913312D01*
X43500500Y-51913312D01*
X43500500Y-47258676D01*
X43520185Y-47191637D01*
X43536819Y-47170995D01*
X43902556Y-46805258D01*
X55039500Y-46805258D01*
X55039500Y-47034741D01*
X55056759Y-47165826D01*
X55069452Y-47262238D01*
X55108242Y-47407007D01*
X55128842Y-47483887D01*
X55216650Y-47695876D01*
X55216657Y-47695890D01*
X55331392Y-47894617D01*
X55471081Y-48076661D01*
X55471089Y-48076670D01*
X55633330Y-48238911D01*
X55633338Y-48238918D01*
X55815382Y-48378607D01*
X55815385Y-48378608D01*
X55815388Y-48378611D01*
X56014112Y-48493344D01*
X56014117Y-48493346D01*
X56014123Y-48493349D01*
X56045057Y-48506162D01*
X56226113Y-48581158D01*
X56447762Y-48640548D01*
X56675266Y-48670500D01*
X56675273Y-48670500D01*
X56904727Y-48670500D01*
X56904734Y-48670500D01*
X57132238Y-48640548D01*
X57353887Y-48581158D01*
X57565888Y-48493344D01*
X57764612Y-48378611D01*
X57946661Y-48238919D01*
X57946665Y-48238914D01*
X57946670Y-48238911D01*
X58108911Y-48076670D01*
X58108914Y-48076665D01*
X58108919Y-48076661D01*
X58248611Y-47894612D01*
X58363344Y-47695888D01*
X58451158Y-47483887D01*
X58510548Y-47262238D01*
X58540500Y-47034734D01*
X58540500Y-46805266D01*
X58540499Y-46805258D01*
X74039500Y-46805258D01*
X74039500Y-47034741D01*
X74056759Y-47165826D01*
X74069452Y-47262238D01*
X74108242Y-47407007D01*
X74128842Y-47483887D01*
X74216650Y-47695876D01*
X74216657Y-47695890D01*
X74331392Y-47894617D01*
X74471081Y-48076661D01*
X74471089Y-48076670D01*
X74633330Y-48238911D01*
X74633338Y-48238918D01*
X74815382Y-48378607D01*
X74815385Y-48378608D01*
X74815388Y-48378611D01*
X75014112Y-48493344D01*
X75014117Y-48493346D01*
X75014123Y-48493349D01*
X75045057Y-48506162D01*
X75226113Y-48581158D01*
X75447762Y-48640548D01*
X75675266Y-48670500D01*
X75675273Y-48670500D01*
X75904727Y-48670500D01*
X75904734Y-48670500D01*
X76132238Y-48640548D01*
X76353887Y-48581158D01*
X76565888Y-48493344D01*
X76764612Y-48378611D01*
X76946661Y-48238919D01*
X76946665Y-48238914D01*
X76946670Y-48238911D01*
X77108911Y-48076670D01*
X77108914Y-48076665D01*
X77108919Y-48076661D01*
X77248611Y-47894612D01*
X77363344Y-47695888D01*
X77451158Y-47483887D01*
X77510548Y-47262238D01*
X77540500Y-47034734D01*
X77540500Y-46805266D01*
X77540499Y-46805258D01*
X93039500Y-46805258D01*
X93039500Y-47034741D01*
X93056759Y-47165826D01*
X93069452Y-47262238D01*
X93108242Y-47407007D01*
X93128842Y-47483887D01*
X93216650Y-47695876D01*
X93216657Y-47695890D01*
X93331392Y-47894617D01*
X93471081Y-48076661D01*
X93471089Y-48076670D01*
X93633330Y-48238911D01*
X93633338Y-48238918D01*
X93815382Y-48378607D01*
X93815385Y-48378608D01*
X93815388Y-48378611D01*
X94014112Y-48493344D01*
X94014117Y-48493346D01*
X94014123Y-48493349D01*
X94045057Y-48506162D01*
X94226113Y-48581158D01*
X94447762Y-48640548D01*
X94675266Y-48670500D01*
X94675273Y-48670500D01*
X94904727Y-48670500D01*
X94904734Y-48670500D01*
X95132238Y-48640548D01*
X95353887Y-48581158D01*
X95565888Y-48493344D01*
X95764612Y-48378611D01*
X95946661Y-48238919D01*
X95946665Y-48238914D01*
X95946670Y-48238911D01*
X96108911Y-48076670D01*
X96108914Y-48076665D01*
X96108919Y-48076661D01*
X96248611Y-47894612D01*
X96363344Y-47695888D01*
X96451158Y-47483887D01*
X96510548Y-47262238D01*
X96540500Y-47034734D01*
X96540500Y-46805266D01*
X96540499Y-46805258D01*
X112039500Y-46805258D01*
X112039500Y-47034741D01*
X112056759Y-47165826D01*
X112069452Y-47262238D01*
X112108242Y-47407007D01*
X112128842Y-47483887D01*
X112216650Y-47695876D01*
X112216657Y-47695890D01*
X112331392Y-47894617D01*
X112471081Y-48076661D01*
X112471089Y-48076670D01*
X112633330Y-48238911D01*
X112633338Y-48238918D01*
X112815382Y-48378607D01*
X112815385Y-48378608D01*
X112815388Y-48378611D01*
X113014112Y-48493344D01*
X113014117Y-48493346D01*
X113014123Y-48493349D01*
X113045057Y-48506162D01*
X113226113Y-48581158D01*
X113447762Y-48640548D01*
X113675266Y-48670500D01*
X113675273Y-48670500D01*
X113904727Y-48670500D01*
X113904734Y-48670500D01*
X114132238Y-48640548D01*
X114353887Y-48581158D01*
X114565888Y-48493344D01*
X114764612Y-48378611D01*
X114946661Y-48238919D01*
X114946665Y-48238914D01*
X114946670Y-48238911D01*
X115108911Y-48076670D01*
X115108914Y-48076665D01*
X115108919Y-48076661D01*
X115248611Y-47894612D01*
X115363344Y-47695888D01*
X115451158Y-47483887D01*
X115510548Y-47262238D01*
X115540500Y-47034734D01*
X115540500Y-46805266D01*
X115510548Y-46577762D01*
X115451158Y-46356113D01*
X115379791Y-46183819D01*
X115363349Y-46144123D01*
X115363346Y-46144117D01*
X115363344Y-46144112D01*
X115248611Y-45945388D01*
X115248608Y-45945385D01*
X115248607Y-45945382D01*
X115128007Y-45788215D01*
X115108919Y-45763339D01*
X115108918Y-45763338D01*
X115108911Y-45763330D01*
X115095577Y-45749996D01*
X120944435Y-45749996D01*
X120944435Y-45750000D01*
X120964630Y-45929249D01*
X120964631Y-45929254D01*
X121024211Y-46099523D01*
X121068776Y-46170447D01*
X121094999Y-46212181D01*
X121120185Y-46252263D01*
X121122445Y-46255097D01*
X121123334Y-46257275D01*
X121123889Y-46258158D01*
X121123734Y-46258255D01*
X121148855Y-46319783D01*
X121149500Y-46332412D01*
X121149500Y-49667587D01*
X121129815Y-49734626D01*
X121122450Y-49744896D01*
X121120186Y-49747734D01*
X121024211Y-49900476D01*
X120964631Y-50070745D01*
X120964630Y-50070750D01*
X120944435Y-50249996D01*
X120944435Y-50250003D01*
X120964630Y-50429249D01*
X120964631Y-50429254D01*
X121024211Y-50599523D01*
X121079126Y-50686919D01*
X121120184Y-50752262D01*
X121247738Y-50879816D01*
X121400478Y-50975789D01*
X121547625Y-51027278D01*
X121570745Y-51035368D01*
X121570750Y-51035369D01*
X121749996Y-51055565D01*
X121750000Y-51055565D01*
X121750004Y-51055565D01*
X121929249Y-51035369D01*
X121929251Y-51035368D01*
X121929255Y-51035368D01*
X121929258Y-51035366D01*
X121929262Y-51035366D01*
X122041444Y-50996112D01*
X122111223Y-50992550D01*
X122171850Y-51027278D01*
X122204078Y-51089272D01*
X122205619Y-51099269D01*
X122214630Y-51179250D01*
X122214631Y-51179254D01*
X122274211Y-51349523D01*
X122349912Y-51470000D01*
X122370184Y-51502262D01*
X122497738Y-51629816D01*
X122650478Y-51725789D01*
X122773554Y-51768855D01*
X122820745Y-51785368D01*
X122820750Y-51785369D01*
X122999996Y-51805565D01*
X123000000Y-51805565D01*
X123000004Y-51805565D01*
X123179249Y-51785369D01*
X123179252Y-51785368D01*
X123179255Y-51785368D01*
X123349522Y-51725789D01*
X123502262Y-51629816D01*
X123629816Y-51502262D01*
X123725789Y-51349522D01*
X123785368Y-51179255D01*
X123791914Y-51121157D01*
X123805565Y-51000003D01*
X123805565Y-50999996D01*
X123785369Y-50820750D01*
X123785368Y-50820745D01*
X123725788Y-50650476D01*
X123692645Y-50597730D01*
X123629816Y-50497738D01*
X123629814Y-50497736D01*
X123629813Y-50497734D01*
X123627550Y-50494896D01*
X123626659Y-50492715D01*
X123626111Y-50491842D01*
X123626264Y-50491745D01*
X123601144Y-50430209D01*
X123600500Y-50417587D01*
X123600500Y-46332412D01*
X123620185Y-46265373D01*
X123627555Y-46255097D01*
X123629810Y-46252267D01*
X123629816Y-46252262D01*
X123725789Y-46099522D01*
X123785368Y-45929255D01*
X123785739Y-45925967D01*
X123805565Y-45750000D01*
X123805565Y-45749996D01*
X123785369Y-45570750D01*
X123785368Y-45570745D01*
X123747104Y-45461392D01*
X123725789Y-45400478D01*
X123629816Y-45247738D01*
X123502262Y-45120184D01*
X123349523Y-45024211D01*
X123179254Y-44964631D01*
X123179249Y-44964630D01*
X123000004Y-44944435D01*
X122999996Y-44944435D01*
X122820750Y-44964630D01*
X122820745Y-44964631D01*
X122650476Y-45024211D01*
X122497737Y-45120184D01*
X122462681Y-45155241D01*
X122401358Y-45188726D01*
X122331666Y-45183742D01*
X122287319Y-45155241D01*
X122252262Y-45120184D01*
X122099523Y-45024211D01*
X121929254Y-44964631D01*
X121929249Y-44964630D01*
X121750004Y-44944435D01*
X121749996Y-44944435D01*
X121570750Y-44964630D01*
X121570745Y-44964631D01*
X121400476Y-45024211D01*
X121247737Y-45120184D01*
X121120184Y-45247737D01*
X121024211Y-45400476D01*
X120964631Y-45570745D01*
X120964630Y-45570750D01*
X120944435Y-45749996D01*
X115095577Y-45749996D01*
X114946670Y-45601089D01*
X114946661Y-45601081D01*
X114764617Y-45461392D01*
X114565890Y-45346657D01*
X114565876Y-45346650D01*
X114353887Y-45258842D01*
X114294472Y-45242922D01*
X114132238Y-45199452D01*
X114094215Y-45194446D01*
X113904741Y-45169500D01*
X113904734Y-45169500D01*
X113675266Y-45169500D01*
X113675258Y-45169500D01*
X113458715Y-45198009D01*
X113447762Y-45199452D01*
X113354076Y-45224554D01*
X113226112Y-45258842D01*
X113014123Y-45346650D01*
X113014109Y-45346657D01*
X112815382Y-45461392D01*
X112633338Y-45601081D01*
X112471081Y-45763338D01*
X112331392Y-45945382D01*
X112216657Y-46144109D01*
X112216650Y-46144123D01*
X112128842Y-46356112D01*
X112069453Y-46577759D01*
X112069451Y-46577770D01*
X112039500Y-46805258D01*
X96540499Y-46805258D01*
X96510548Y-46577762D01*
X96451158Y-46356113D01*
X96379791Y-46183819D01*
X96363349Y-46144123D01*
X96363346Y-46144117D01*
X96363344Y-46144112D01*
X96248611Y-45945388D01*
X96248608Y-45945385D01*
X96248607Y-45945382D01*
X96128007Y-45788215D01*
X96108919Y-45763339D01*
X96108918Y-45763338D01*
X96108911Y-45763330D01*
X95946670Y-45601089D01*
X95946661Y-45601081D01*
X95764617Y-45461392D01*
X95565890Y-45346657D01*
X95565876Y-45346650D01*
X95353887Y-45258842D01*
X95294472Y-45242922D01*
X95132238Y-45199452D01*
X95094215Y-45194446D01*
X94904741Y-45169500D01*
X94904734Y-45169500D01*
X94675266Y-45169500D01*
X94675258Y-45169500D01*
X94458715Y-45198009D01*
X94447762Y-45199452D01*
X94354076Y-45224554D01*
X94226112Y-45258842D01*
X94014123Y-45346650D01*
X94014109Y-45346657D01*
X93815382Y-45461392D01*
X93633338Y-45601081D01*
X93471081Y-45763338D01*
X93331392Y-45945382D01*
X93216657Y-46144109D01*
X93216650Y-46144123D01*
X93128842Y-46356112D01*
X93069453Y-46577759D01*
X93069451Y-46577770D01*
X93039500Y-46805258D01*
X77540499Y-46805258D01*
X77510548Y-46577762D01*
X77451158Y-46356113D01*
X77379791Y-46183819D01*
X77363349Y-46144123D01*
X77363346Y-46144117D01*
X77363344Y-46144112D01*
X77248611Y-45945388D01*
X77248608Y-45945385D01*
X77248607Y-45945382D01*
X77128007Y-45788215D01*
X77108919Y-45763339D01*
X77108918Y-45763338D01*
X77108911Y-45763330D01*
X76946670Y-45601089D01*
X76946661Y-45601081D01*
X76764617Y-45461392D01*
X76565890Y-45346657D01*
X76565876Y-45346650D01*
X76353887Y-45258842D01*
X76294472Y-45242922D01*
X76132238Y-45199452D01*
X76094215Y-45194446D01*
X75904741Y-45169500D01*
X75904734Y-45169500D01*
X75675266Y-45169500D01*
X75675258Y-45169500D01*
X75458715Y-45198009D01*
X75447762Y-45199452D01*
X75354076Y-45224554D01*
X75226112Y-45258842D01*
X75014123Y-45346650D01*
X75014109Y-45346657D01*
X74815382Y-45461392D01*
X74633338Y-45601081D01*
X74471081Y-45763338D01*
X74331392Y-45945382D01*
X74216657Y-46144109D01*
X74216650Y-46144123D01*
X74128842Y-46356112D01*
X74069453Y-46577759D01*
X74069451Y-46577770D01*
X74039500Y-46805258D01*
X58540499Y-46805258D01*
X58510548Y-46577762D01*
X58451158Y-46356113D01*
X58379791Y-46183819D01*
X58363349Y-46144123D01*
X58363346Y-46144117D01*
X58363344Y-46144112D01*
X58248611Y-45945388D01*
X58248608Y-45945385D01*
X58248607Y-45945382D01*
X58128007Y-45788215D01*
X58108919Y-45763339D01*
X58108918Y-45763338D01*
X58108911Y-45763330D01*
X57946670Y-45601089D01*
X57946661Y-45601081D01*
X57764617Y-45461392D01*
X57565890Y-45346657D01*
X57565876Y-45346650D01*
X57353887Y-45258842D01*
X57294472Y-45242922D01*
X57132238Y-45199452D01*
X57094215Y-45194446D01*
X56904741Y-45169500D01*
X56904734Y-45169500D01*
X56675266Y-45169500D01*
X56675258Y-45169500D01*
X56458715Y-45198009D01*
X56447762Y-45199452D01*
X56354076Y-45224554D01*
X56226112Y-45258842D01*
X56014123Y-45346650D01*
X56014109Y-45346657D01*
X55815382Y-45461392D01*
X55633338Y-45601081D01*
X55471081Y-45763338D01*
X55331392Y-45945382D01*
X55216657Y-46144109D01*
X55216650Y-46144123D01*
X55128842Y-46356112D01*
X55069453Y-46577759D01*
X55069451Y-46577770D01*
X55039500Y-46805258D01*
X43902556Y-46805258D01*
X48170995Y-42536819D01*
X48232318Y-42503334D01*
X48258676Y-42500500D01*
X154741324Y-42500500D01*
X154808363Y-42520185D01*
G37*
%TD.AperFunction*%
%TA.AperFunction,Conductor*%
G36*
X70692539Y-77370185D02*
G01*
X70738294Y-77422989D01*
X70749500Y-77474500D01*
X70749500Y-77805269D01*
X70729815Y-77872308D01*
X70713181Y-77892950D01*
X69192951Y-79413181D01*
X69131628Y-79446666D01*
X69105270Y-79449500D01*
X55529730Y-79449500D01*
X55462691Y-79429815D01*
X55442049Y-79413181D01*
X54941048Y-78912180D01*
X54907563Y-78850857D01*
X54912547Y-78781165D01*
X54954419Y-78725232D01*
X55019883Y-78700815D01*
X55028729Y-78700499D01*
X55697871Y-78700499D01*
X55697872Y-78700499D01*
X55757483Y-78694091D01*
X55892331Y-78643796D01*
X56007546Y-78557546D01*
X56048098Y-78503376D01*
X56050485Y-78500188D01*
X56106419Y-78458318D01*
X56149751Y-78450500D01*
X62563331Y-78450500D01*
X62563347Y-78450501D01*
X62570943Y-78450501D01*
X62729054Y-78450501D01*
X62729057Y-78450501D01*
X62739039Y-78447826D01*
X62808885Y-78449485D01*
X62842257Y-78466023D01*
X62872361Y-78487102D01*
X63070670Y-78579575D01*
X63282023Y-78636207D01*
X63464926Y-78652208D01*
X63499998Y-78655277D01*
X63500000Y-78655277D01*
X63500002Y-78655277D01*
X63528254Y-78652805D01*
X63717977Y-78636207D01*
X63929330Y-78579575D01*
X64127639Y-78487102D01*
X64306877Y-78361598D01*
X64461598Y-78206877D01*
X64587102Y-78027639D01*
X64679575Y-77829330D01*
X64736207Y-77617977D01*
X64748759Y-77474500D01*
X64749705Y-77463693D01*
X64775157Y-77398624D01*
X64831748Y-77357645D01*
X64873233Y-77350500D01*
X70625500Y-77350500D01*
X70692539Y-77370185D01*
G37*
%TD.AperFunction*%
%TA.AperFunction,Conductor*%
G36*
X89692539Y-77370185D02*
G01*
X89738294Y-77422989D01*
X89749500Y-77474500D01*
X89749500Y-77805270D01*
X89729815Y-77872309D01*
X89713181Y-77892951D01*
X88392951Y-79213181D01*
X88331628Y-79246666D01*
X88305270Y-79249500D01*
X74329729Y-79249500D01*
X74262690Y-79229815D01*
X74242048Y-79213181D01*
X73941048Y-78912180D01*
X73907563Y-78850857D01*
X73912547Y-78781165D01*
X73954419Y-78725232D01*
X74019883Y-78700815D01*
X74028729Y-78700499D01*
X74697871Y-78700499D01*
X74697872Y-78700499D01*
X74757483Y-78694091D01*
X74892331Y-78643796D01*
X75007546Y-78557546D01*
X75048098Y-78503376D01*
X75050485Y-78500188D01*
X75106419Y-78458318D01*
X75149751Y-78450500D01*
X81313331Y-78450500D01*
X81313347Y-78450501D01*
X81320943Y-78450501D01*
X81479054Y-78450501D01*
X81479057Y-78450501D01*
X81631785Y-78409577D01*
X81681904Y-78380639D01*
X81767630Y-78331147D01*
X81835530Y-78314676D01*
X81900751Y-78336959D01*
X81972361Y-78387102D01*
X82170670Y-78479575D01*
X82382023Y-78536207D01*
X82564926Y-78552208D01*
X82599998Y-78555277D01*
X82600000Y-78555277D01*
X82600002Y-78555277D01*
X82628254Y-78552805D01*
X82817977Y-78536207D01*
X83029330Y-78479575D01*
X83227639Y-78387102D01*
X83406877Y-78261598D01*
X83561598Y-78106877D01*
X83687102Y-77927639D01*
X83779575Y-77729330D01*
X83836207Y-77517977D01*
X83840956Y-77463692D01*
X83866408Y-77398624D01*
X83922999Y-77357645D01*
X83964484Y-77350500D01*
X89625500Y-77350500D01*
X89692539Y-77370185D01*
G37*
%TD.AperFunction*%
%TA.AperFunction,Conductor*%
G36*
X108692539Y-77370185D02*
G01*
X108738294Y-77422989D01*
X108749500Y-77474500D01*
X108749500Y-78247870D01*
X108749501Y-78247874D01*
X108750562Y-78257742D01*
X108738155Y-78326502D01*
X108714953Y-78358677D01*
X107860451Y-79213181D01*
X107799128Y-79246666D01*
X107772770Y-79249500D01*
X93329729Y-79249500D01*
X93262690Y-79229815D01*
X93242048Y-79213181D01*
X92941048Y-78912180D01*
X92907563Y-78850857D01*
X92912547Y-78781165D01*
X92954419Y-78725232D01*
X93019883Y-78700815D01*
X93028729Y-78700499D01*
X93697871Y-78700499D01*
X93697872Y-78700499D01*
X93757483Y-78694091D01*
X93892331Y-78643796D01*
X94007546Y-78557546D01*
X94048098Y-78503376D01*
X94050485Y-78500188D01*
X94106419Y-78458318D01*
X94149751Y-78450500D01*
X100130663Y-78450500D01*
X100197702Y-78470185D01*
X100218344Y-78486819D01*
X100293123Y-78561598D01*
X100472361Y-78687102D01*
X100670670Y-78779575D01*
X100882023Y-78836207D01*
X101064926Y-78852208D01*
X101099998Y-78855277D01*
X101100000Y-78855277D01*
X101100002Y-78855277D01*
X101128254Y-78852805D01*
X101317977Y-78836207D01*
X101529330Y-78779575D01*
X101727639Y-78687102D01*
X101906877Y-78561598D01*
X102061598Y-78406877D01*
X102187102Y-78227639D01*
X102279575Y-78029330D01*
X102336207Y-77817977D01*
X102355277Y-77600000D01*
X102355060Y-77597525D01*
X102345243Y-77485307D01*
X102359010Y-77416807D01*
X102407625Y-77366624D01*
X102468771Y-77350500D01*
X108625500Y-77350500D01*
X108692539Y-77370185D01*
G37*
%TD.AperFunction*%
%TA.AperFunction,Conductor*%
G36*
X143646942Y-51240185D02*
G01*
X143667584Y-51256819D01*
X146799298Y-54388533D01*
X146832783Y-54449856D01*
X146834837Y-54462330D01*
X146844630Y-54549251D01*
X146844634Y-54549262D01*
X146862570Y-54600520D01*
X146863979Y-54604545D01*
X146867541Y-54674324D01*
X146832813Y-54734951D01*
X146770819Y-54767179D01*
X146746938Y-54769500D01*
X145904550Y-54769500D01*
X145837511Y-54749815D01*
X145791756Y-54697011D01*
X145781330Y-54631616D01*
X145794965Y-54510602D01*
X145794965Y-54510596D01*
X145774769Y-54331350D01*
X145774768Y-54331345D01*
X145715189Y-54161078D01*
X145619216Y-54008338D01*
X145491662Y-53880784D01*
X145338923Y-53784811D01*
X145168654Y-53725231D01*
X145168649Y-53725230D01*
X144989404Y-53705035D01*
X144989396Y-53705035D01*
X144810150Y-53725230D01*
X144810145Y-53725231D01*
X144639876Y-53784811D01*
X144487136Y-53880785D01*
X144484303Y-53883045D01*
X144482124Y-53883934D01*
X144481242Y-53884489D01*
X144481144Y-53884334D01*
X144419617Y-53909455D01*
X144406988Y-53910100D01*
X135303499Y-53910100D01*
X135236460Y-53890415D01*
X135190705Y-53837611D01*
X135179499Y-53786100D01*
X135179499Y-53193629D01*
X135179498Y-53193623D01*
X135176763Y-53168173D01*
X135173091Y-53134017D01*
X135173090Y-53134015D01*
X135173090Y-53134012D01*
X135171308Y-53126469D01*
X135173664Y-53125912D01*
X135169527Y-53068156D01*
X135203004Y-53006829D01*
X135264323Y-52973337D01*
X135290696Y-52970500D01*
X142047588Y-52970500D01*
X142114627Y-52990185D01*
X142124903Y-52997555D01*
X142127736Y-52999814D01*
X142127738Y-52999816D01*
X142280478Y-53095789D01*
X142450745Y-53155368D01*
X142450750Y-53155369D01*
X142629996Y-53175565D01*
X142630000Y-53175565D01*
X142630004Y-53175565D01*
X142809249Y-53155369D01*
X142809252Y-53155368D01*
X142809255Y-53155368D01*
X142979522Y-53095789D01*
X143132262Y-52999816D01*
X143259816Y-52872262D01*
X143355789Y-52719522D01*
X143415368Y-52549255D01*
X143415369Y-52549249D01*
X143435565Y-52370003D01*
X143435565Y-52369996D01*
X143415369Y-52190750D01*
X143415368Y-52190745D01*
X143355789Y-52020478D01*
X143259816Y-51867738D01*
X143132262Y-51740184D01*
X143063553Y-51697011D01*
X142979523Y-51644211D01*
X142809254Y-51584631D01*
X142809249Y-51584630D01*
X142630004Y-51564435D01*
X142629996Y-51564435D01*
X142450750Y-51584630D01*
X142450745Y-51584631D01*
X142280476Y-51644211D01*
X142127736Y-51740185D01*
X142124903Y-51742445D01*
X142122724Y-51743334D01*
X142121842Y-51743889D01*
X142121744Y-51743734D01*
X142060217Y-51768855D01*
X142047588Y-51769500D01*
X141040576Y-51769500D01*
X140973537Y-51749815D01*
X140927782Y-51697011D01*
X140917356Y-51631617D01*
X140935565Y-51470003D01*
X140935565Y-51469997D01*
X140922989Y-51358384D01*
X140935043Y-51289562D01*
X140982392Y-51238182D01*
X141046209Y-51220500D01*
X143579903Y-51220500D01*
X143646942Y-51240185D01*
G37*
%TD.AperFunction*%
%TA.AperFunction,Conductor*%
G36*
X147416942Y-47720185D02*
G01*
X147437584Y-47736819D01*
X150493181Y-50792416D01*
X150526666Y-50853739D01*
X150529500Y-50880097D01*
X150529500Y-53569903D01*
X150509815Y-53636942D01*
X150493181Y-53657584D01*
X149417584Y-54733181D01*
X149356261Y-54766666D01*
X149329903Y-54769500D01*
X148513063Y-54769500D01*
X148446024Y-54749815D01*
X148400269Y-54697011D01*
X148390325Y-54627853D01*
X148396022Y-54604545D01*
X148415366Y-54549262D01*
X148415369Y-54549249D01*
X148435565Y-54370000D01*
X148435565Y-54369996D01*
X148415369Y-54190750D01*
X148415368Y-54190745D01*
X148355788Y-54020476D01*
X148286434Y-53910100D01*
X148259816Y-53867738D01*
X148132262Y-53740184D01*
X148108466Y-53725232D01*
X147979521Y-53644210D01*
X147809249Y-53584630D01*
X147722330Y-53574837D01*
X147657916Y-53547770D01*
X147648533Y-53539298D01*
X144367590Y-50258355D01*
X144367588Y-50258352D01*
X144248717Y-50139481D01*
X144248716Y-50139480D01*
X144161904Y-50089360D01*
X144161904Y-50089359D01*
X144161900Y-50089358D01*
X144111785Y-50060423D01*
X143959057Y-50019499D01*
X143800943Y-50019499D01*
X143793347Y-50019499D01*
X143793331Y-50019500D01*
X139270519Y-50019500D01*
X139203480Y-49999815D01*
X139157725Y-49947011D01*
X139147781Y-49877853D01*
X139176806Y-49814297D01*
X139182838Y-49807819D01*
X139784112Y-49206545D01*
X139784114Y-49206543D01*
X139860775Y-49091811D01*
X139913580Y-48964328D01*
X139940500Y-48828994D01*
X139940500Y-48691006D01*
X139940500Y-48322711D01*
X139960185Y-48255672D01*
X139993377Y-48221136D01*
X140107696Y-48141089D01*
X140111401Y-48138495D01*
X140278495Y-47971401D01*
X140408425Y-47785842D01*
X140463002Y-47742217D01*
X140532500Y-47735023D01*
X140594855Y-47766546D01*
X140611575Y-47785842D01*
X140741500Y-47971395D01*
X140741505Y-47971401D01*
X140908599Y-48138495D01*
X140912304Y-48141089D01*
X141102165Y-48274032D01*
X141102167Y-48274033D01*
X141102170Y-48274035D01*
X141316337Y-48373903D01*
X141316343Y-48373904D01*
X141316344Y-48373905D01*
X141371285Y-48388626D01*
X141544592Y-48435063D01*
X141715319Y-48450000D01*
X141779999Y-48455659D01*
X141780000Y-48455659D01*
X141780001Y-48455659D01*
X141844681Y-48450000D01*
X142015408Y-48435063D01*
X142243663Y-48373903D01*
X142457830Y-48274035D01*
X142651401Y-48138495D01*
X142818495Y-47971401D01*
X142948425Y-47785842D01*
X143003002Y-47742217D01*
X143072500Y-47735023D01*
X143134855Y-47766546D01*
X143151575Y-47785842D01*
X143281500Y-47971395D01*
X143281505Y-47971401D01*
X143448599Y-48138495D01*
X143452304Y-48141089D01*
X143642165Y-48274032D01*
X143642167Y-48274033D01*
X143642170Y-48274035D01*
X143856337Y-48373903D01*
X143856343Y-48373904D01*
X143856344Y-48373905D01*
X143911285Y-48388626D01*
X144084592Y-48435063D01*
X144255319Y-48450000D01*
X144319999Y-48455659D01*
X144320000Y-48455659D01*
X144320001Y-48455659D01*
X144384681Y-48450000D01*
X144555408Y-48435063D01*
X144783663Y-48373903D01*
X144997830Y-48274035D01*
X145191401Y-48138495D01*
X145358495Y-47971401D01*
X145494035Y-47777830D01*
X145496707Y-47772097D01*
X145542878Y-47719658D01*
X145609091Y-47700500D01*
X147349903Y-47700500D01*
X147416942Y-47720185D01*
G37*
%TD.AperFunction*%
%TD*%
M02*
