%TF.GenerationSoftware,KiCad,Pcbnew,8.0.2*%
%TF.CreationDate,2024-06-01T03:16:02+02:00*%
%TF.ProjectId,Hellboard,48656c6c-626f-4617-9264-2e6b69636164,rev?*%
%TF.SameCoordinates,Original*%
%TF.FileFunction,Legend,Top*%
%TF.FilePolarity,Positive*%
%FSLAX46Y46*%
G04 Gerber Fmt 4.6, Leading zero omitted, Abs format (unit mm)*
G04 Created by KiCad (PCBNEW 8.0.2) date 2024-06-01 03:16:02*
%MOMM*%
%LPD*%
G01*
G04 APERTURE LIST*
%ADD10C,0.150000*%
%ADD11C,0.120000*%
%ADD12C,0.152400*%
G04 APERTURE END LIST*
D10*
X81638095Y-55806819D02*
X82209523Y-55806819D01*
X81923809Y-56806819D02*
X81923809Y-55806819D01*
X82542857Y-56806819D02*
X82542857Y-55806819D01*
X82542857Y-55806819D02*
X82923809Y-55806819D01*
X82923809Y-55806819D02*
X83019047Y-55854438D01*
X83019047Y-55854438D02*
X83066666Y-55902057D01*
X83066666Y-55902057D02*
X83114285Y-55997295D01*
X83114285Y-55997295D02*
X83114285Y-56140152D01*
X83114285Y-56140152D02*
X83066666Y-56235390D01*
X83066666Y-56235390D02*
X83019047Y-56283009D01*
X83019047Y-56283009D02*
X82923809Y-56330628D01*
X82923809Y-56330628D02*
X82542857Y-56330628D01*
X83447619Y-55806819D02*
X84066666Y-55806819D01*
X84066666Y-55806819D02*
X83733333Y-56187771D01*
X83733333Y-56187771D02*
X83876190Y-56187771D01*
X83876190Y-56187771D02*
X83971428Y-56235390D01*
X83971428Y-56235390D02*
X84019047Y-56283009D01*
X84019047Y-56283009D02*
X84066666Y-56378247D01*
X84066666Y-56378247D02*
X84066666Y-56616342D01*
X84066666Y-56616342D02*
X84019047Y-56711580D01*
X84019047Y-56711580D02*
X83971428Y-56759200D01*
X83971428Y-56759200D02*
X83876190Y-56806819D01*
X83876190Y-56806819D02*
X83590476Y-56806819D01*
X83590476Y-56806819D02*
X83495238Y-56759200D01*
X83495238Y-56759200D02*
X83447619Y-56711580D01*
X73988094Y-75454819D02*
X73988094Y-74454819D01*
X73988094Y-74454819D02*
X73749999Y-74454819D01*
X73749999Y-74454819D02*
X73607142Y-74502438D01*
X73607142Y-74502438D02*
X73511904Y-74597676D01*
X73511904Y-74597676D02*
X73464285Y-74692914D01*
X73464285Y-74692914D02*
X73416666Y-74883390D01*
X73416666Y-74883390D02*
X73416666Y-75026247D01*
X73416666Y-75026247D02*
X73464285Y-75216723D01*
X73464285Y-75216723D02*
X73511904Y-75311961D01*
X73511904Y-75311961D02*
X73607142Y-75407200D01*
X73607142Y-75407200D02*
X73749999Y-75454819D01*
X73749999Y-75454819D02*
X73988094Y-75454819D01*
X72559523Y-74454819D02*
X72749999Y-74454819D01*
X72749999Y-74454819D02*
X72845237Y-74502438D01*
X72845237Y-74502438D02*
X72892856Y-74550057D01*
X72892856Y-74550057D02*
X72988094Y-74692914D01*
X72988094Y-74692914D02*
X73035713Y-74883390D01*
X73035713Y-74883390D02*
X73035713Y-75264342D01*
X73035713Y-75264342D02*
X72988094Y-75359580D01*
X72988094Y-75359580D02*
X72940475Y-75407200D01*
X72940475Y-75407200D02*
X72845237Y-75454819D01*
X72845237Y-75454819D02*
X72654761Y-75454819D01*
X72654761Y-75454819D02*
X72559523Y-75407200D01*
X72559523Y-75407200D02*
X72511904Y-75359580D01*
X72511904Y-75359580D02*
X72464285Y-75264342D01*
X72464285Y-75264342D02*
X72464285Y-75026247D01*
X72464285Y-75026247D02*
X72511904Y-74931009D01*
X72511904Y-74931009D02*
X72559523Y-74883390D01*
X72559523Y-74883390D02*
X72654761Y-74835771D01*
X72654761Y-74835771D02*
X72845237Y-74835771D01*
X72845237Y-74835771D02*
X72940475Y-74883390D01*
X72940475Y-74883390D02*
X72988094Y-74931009D01*
X72988094Y-74931009D02*
X73035713Y-75026247D01*
X99838095Y-75406819D02*
X100409523Y-75406819D01*
X100123809Y-76406819D02*
X100123809Y-75406819D01*
X100742857Y-76406819D02*
X100742857Y-75406819D01*
X100742857Y-75406819D02*
X101123809Y-75406819D01*
X101123809Y-75406819D02*
X101219047Y-75454438D01*
X101219047Y-75454438D02*
X101266666Y-75502057D01*
X101266666Y-75502057D02*
X101314285Y-75597295D01*
X101314285Y-75597295D02*
X101314285Y-75740152D01*
X101314285Y-75740152D02*
X101266666Y-75835390D01*
X101266666Y-75835390D02*
X101219047Y-75883009D01*
X101219047Y-75883009D02*
X101123809Y-75930628D01*
X101123809Y-75930628D02*
X100742857Y-75930628D01*
X101885714Y-75835390D02*
X101790476Y-75787771D01*
X101790476Y-75787771D02*
X101742857Y-75740152D01*
X101742857Y-75740152D02*
X101695238Y-75644914D01*
X101695238Y-75644914D02*
X101695238Y-75597295D01*
X101695238Y-75597295D02*
X101742857Y-75502057D01*
X101742857Y-75502057D02*
X101790476Y-75454438D01*
X101790476Y-75454438D02*
X101885714Y-75406819D01*
X101885714Y-75406819D02*
X102076190Y-75406819D01*
X102076190Y-75406819D02*
X102171428Y-75454438D01*
X102171428Y-75454438D02*
X102219047Y-75502057D01*
X102219047Y-75502057D02*
X102266666Y-75597295D01*
X102266666Y-75597295D02*
X102266666Y-75644914D01*
X102266666Y-75644914D02*
X102219047Y-75740152D01*
X102219047Y-75740152D02*
X102171428Y-75787771D01*
X102171428Y-75787771D02*
X102076190Y-75835390D01*
X102076190Y-75835390D02*
X101885714Y-75835390D01*
X101885714Y-75835390D02*
X101790476Y-75883009D01*
X101790476Y-75883009D02*
X101742857Y-75930628D01*
X101742857Y-75930628D02*
X101695238Y-76025866D01*
X101695238Y-76025866D02*
X101695238Y-76216342D01*
X101695238Y-76216342D02*
X101742857Y-76311580D01*
X101742857Y-76311580D02*
X101790476Y-76359200D01*
X101790476Y-76359200D02*
X101885714Y-76406819D01*
X101885714Y-76406819D02*
X102076190Y-76406819D01*
X102076190Y-76406819D02*
X102171428Y-76359200D01*
X102171428Y-76359200D02*
X102219047Y-76311580D01*
X102219047Y-76311580D02*
X102266666Y-76216342D01*
X102266666Y-76216342D02*
X102266666Y-76025866D01*
X102266666Y-76025866D02*
X102219047Y-75930628D01*
X102219047Y-75930628D02*
X102171428Y-75883009D01*
X102171428Y-75883009D02*
X102076190Y-75835390D01*
X111988094Y-75454819D02*
X111988094Y-74454819D01*
X111988094Y-74454819D02*
X111749999Y-74454819D01*
X111749999Y-74454819D02*
X111607142Y-74502438D01*
X111607142Y-74502438D02*
X111511904Y-74597676D01*
X111511904Y-74597676D02*
X111464285Y-74692914D01*
X111464285Y-74692914D02*
X111416666Y-74883390D01*
X111416666Y-74883390D02*
X111416666Y-75026247D01*
X111416666Y-75026247D02*
X111464285Y-75216723D01*
X111464285Y-75216723D02*
X111511904Y-75311961D01*
X111511904Y-75311961D02*
X111607142Y-75407200D01*
X111607142Y-75407200D02*
X111749999Y-75454819D01*
X111749999Y-75454819D02*
X111988094Y-75454819D01*
X110845237Y-74883390D02*
X110940475Y-74835771D01*
X110940475Y-74835771D02*
X110988094Y-74788152D01*
X110988094Y-74788152D02*
X111035713Y-74692914D01*
X111035713Y-74692914D02*
X111035713Y-74645295D01*
X111035713Y-74645295D02*
X110988094Y-74550057D01*
X110988094Y-74550057D02*
X110940475Y-74502438D01*
X110940475Y-74502438D02*
X110845237Y-74454819D01*
X110845237Y-74454819D02*
X110654761Y-74454819D01*
X110654761Y-74454819D02*
X110559523Y-74502438D01*
X110559523Y-74502438D02*
X110511904Y-74550057D01*
X110511904Y-74550057D02*
X110464285Y-74645295D01*
X110464285Y-74645295D02*
X110464285Y-74692914D01*
X110464285Y-74692914D02*
X110511904Y-74788152D01*
X110511904Y-74788152D02*
X110559523Y-74835771D01*
X110559523Y-74835771D02*
X110654761Y-74883390D01*
X110654761Y-74883390D02*
X110845237Y-74883390D01*
X110845237Y-74883390D02*
X110940475Y-74931009D01*
X110940475Y-74931009D02*
X110988094Y-74978628D01*
X110988094Y-74978628D02*
X111035713Y-75073866D01*
X111035713Y-75073866D02*
X111035713Y-75264342D01*
X111035713Y-75264342D02*
X110988094Y-75359580D01*
X110988094Y-75359580D02*
X110940475Y-75407200D01*
X110940475Y-75407200D02*
X110845237Y-75454819D01*
X110845237Y-75454819D02*
X110654761Y-75454819D01*
X110654761Y-75454819D02*
X110559523Y-75407200D01*
X110559523Y-75407200D02*
X110511904Y-75359580D01*
X110511904Y-75359580D02*
X110464285Y-75264342D01*
X110464285Y-75264342D02*
X110464285Y-75073866D01*
X110464285Y-75073866D02*
X110511904Y-74978628D01*
X110511904Y-74978628D02*
X110559523Y-74931009D01*
X110559523Y-74931009D02*
X110654761Y-74883390D01*
X62238095Y-75206819D02*
X62809523Y-75206819D01*
X62523809Y-76206819D02*
X62523809Y-75206819D01*
X63142857Y-76206819D02*
X63142857Y-75206819D01*
X63142857Y-75206819D02*
X63523809Y-75206819D01*
X63523809Y-75206819D02*
X63619047Y-75254438D01*
X63619047Y-75254438D02*
X63666666Y-75302057D01*
X63666666Y-75302057D02*
X63714285Y-75397295D01*
X63714285Y-75397295D02*
X63714285Y-75540152D01*
X63714285Y-75540152D02*
X63666666Y-75635390D01*
X63666666Y-75635390D02*
X63619047Y-75683009D01*
X63619047Y-75683009D02*
X63523809Y-75730628D01*
X63523809Y-75730628D02*
X63142857Y-75730628D01*
X64571428Y-75206819D02*
X64380952Y-75206819D01*
X64380952Y-75206819D02*
X64285714Y-75254438D01*
X64285714Y-75254438D02*
X64238095Y-75302057D01*
X64238095Y-75302057D02*
X64142857Y-75444914D01*
X64142857Y-75444914D02*
X64095238Y-75635390D01*
X64095238Y-75635390D02*
X64095238Y-76016342D01*
X64095238Y-76016342D02*
X64142857Y-76111580D01*
X64142857Y-76111580D02*
X64190476Y-76159200D01*
X64190476Y-76159200D02*
X64285714Y-76206819D01*
X64285714Y-76206819D02*
X64476190Y-76206819D01*
X64476190Y-76206819D02*
X64571428Y-76159200D01*
X64571428Y-76159200D02*
X64619047Y-76111580D01*
X64619047Y-76111580D02*
X64666666Y-76016342D01*
X64666666Y-76016342D02*
X64666666Y-75778247D01*
X64666666Y-75778247D02*
X64619047Y-75683009D01*
X64619047Y-75683009D02*
X64571428Y-75635390D01*
X64571428Y-75635390D02*
X64476190Y-75587771D01*
X64476190Y-75587771D02*
X64285714Y-75587771D01*
X64285714Y-75587771D02*
X64190476Y-75635390D01*
X64190476Y-75635390D02*
X64142857Y-75683009D01*
X64142857Y-75683009D02*
X64095238Y-75778247D01*
X132135419Y-56023633D02*
X132087800Y-55976014D01*
X132087800Y-55976014D02*
X132040180Y-55833157D01*
X132040180Y-55833157D02*
X132040180Y-55737919D01*
X132040180Y-55737919D02*
X132087800Y-55595062D01*
X132087800Y-55595062D02*
X132183038Y-55499824D01*
X132183038Y-55499824D02*
X132278276Y-55452205D01*
X132278276Y-55452205D02*
X132468752Y-55404586D01*
X132468752Y-55404586D02*
X132611609Y-55404586D01*
X132611609Y-55404586D02*
X132802085Y-55452205D01*
X132802085Y-55452205D02*
X132897323Y-55499824D01*
X132897323Y-55499824D02*
X132992561Y-55595062D01*
X132992561Y-55595062D02*
X133040180Y-55737919D01*
X133040180Y-55737919D02*
X133040180Y-55833157D01*
X133040180Y-55833157D02*
X132992561Y-55976014D01*
X132992561Y-55976014D02*
X132944942Y-56023633D01*
X132040180Y-57023633D02*
X132516371Y-56690300D01*
X132040180Y-56452205D02*
X133040180Y-56452205D01*
X133040180Y-56452205D02*
X133040180Y-56833157D01*
X133040180Y-56833157D02*
X132992561Y-56928395D01*
X132992561Y-56928395D02*
X132944942Y-56976014D01*
X132944942Y-56976014D02*
X132849704Y-57023633D01*
X132849704Y-57023633D02*
X132706847Y-57023633D01*
X132706847Y-57023633D02*
X132611609Y-56976014D01*
X132611609Y-56976014D02*
X132563990Y-56928395D01*
X132563990Y-56928395D02*
X132516371Y-56833157D01*
X132516371Y-56833157D02*
X132516371Y-56452205D01*
X132040180Y-57976014D02*
X132040180Y-57404586D01*
X132040180Y-57690300D02*
X133040180Y-57690300D01*
X133040180Y-57690300D02*
X132897323Y-57595062D01*
X132897323Y-57595062D02*
X132802085Y-57499824D01*
X132802085Y-57499824D02*
X132754466Y-57404586D01*
X136646180Y-53756600D02*
X136408085Y-53756600D01*
X136503323Y-53518505D02*
X136408085Y-53756600D01*
X136408085Y-53756600D02*
X136503323Y-53994695D01*
X136217609Y-53613743D02*
X136408085Y-53756600D01*
X136408085Y-53756600D02*
X136217609Y-53899457D01*
X135555819Y-53756599D02*
X135793914Y-53756599D01*
X135698676Y-53994694D02*
X135793914Y-53756599D01*
X135793914Y-53756599D02*
X135698676Y-53518504D01*
X135984390Y-53899456D02*
X135793914Y-53756599D01*
X135793914Y-53756599D02*
X135984390Y-53613742D01*
X81338095Y-75106819D02*
X81909523Y-75106819D01*
X81623809Y-76106819D02*
X81623809Y-75106819D01*
X82242857Y-76106819D02*
X82242857Y-75106819D01*
X82242857Y-75106819D02*
X82623809Y-75106819D01*
X82623809Y-75106819D02*
X82719047Y-75154438D01*
X82719047Y-75154438D02*
X82766666Y-75202057D01*
X82766666Y-75202057D02*
X82814285Y-75297295D01*
X82814285Y-75297295D02*
X82814285Y-75440152D01*
X82814285Y-75440152D02*
X82766666Y-75535390D01*
X82766666Y-75535390D02*
X82719047Y-75583009D01*
X82719047Y-75583009D02*
X82623809Y-75630628D01*
X82623809Y-75630628D02*
X82242857Y-75630628D01*
X83147619Y-75106819D02*
X83814285Y-75106819D01*
X83814285Y-75106819D02*
X83385714Y-76106819D01*
X111988094Y-55454819D02*
X111988094Y-54454819D01*
X111988094Y-54454819D02*
X111749999Y-54454819D01*
X111749999Y-54454819D02*
X111607142Y-54502438D01*
X111607142Y-54502438D02*
X111511904Y-54597676D01*
X111511904Y-54597676D02*
X111464285Y-54692914D01*
X111464285Y-54692914D02*
X111416666Y-54883390D01*
X111416666Y-54883390D02*
X111416666Y-55026247D01*
X111416666Y-55026247D02*
X111464285Y-55216723D01*
X111464285Y-55216723D02*
X111511904Y-55311961D01*
X111511904Y-55311961D02*
X111607142Y-55407200D01*
X111607142Y-55407200D02*
X111749999Y-55454819D01*
X111749999Y-55454819D02*
X111988094Y-55454819D01*
X110464285Y-55454819D02*
X111035713Y-55454819D01*
X110749999Y-55454819D02*
X110749999Y-54454819D01*
X110749999Y-54454819D02*
X110845237Y-54597676D01*
X110845237Y-54597676D02*
X110940475Y-54692914D01*
X110940475Y-54692914D02*
X111035713Y-54740533D01*
X92988094Y-55454819D02*
X92988094Y-54454819D01*
X92988094Y-54454819D02*
X92749999Y-54454819D01*
X92749999Y-54454819D02*
X92607142Y-54502438D01*
X92607142Y-54502438D02*
X92511904Y-54597676D01*
X92511904Y-54597676D02*
X92464285Y-54692914D01*
X92464285Y-54692914D02*
X92416666Y-54883390D01*
X92416666Y-54883390D02*
X92416666Y-55026247D01*
X92416666Y-55026247D02*
X92464285Y-55216723D01*
X92464285Y-55216723D02*
X92511904Y-55311961D01*
X92511904Y-55311961D02*
X92607142Y-55407200D01*
X92607142Y-55407200D02*
X92749999Y-55454819D01*
X92749999Y-55454819D02*
X92988094Y-55454819D01*
X92035713Y-54550057D02*
X91988094Y-54502438D01*
X91988094Y-54502438D02*
X91892856Y-54454819D01*
X91892856Y-54454819D02*
X91654761Y-54454819D01*
X91654761Y-54454819D02*
X91559523Y-54502438D01*
X91559523Y-54502438D02*
X91511904Y-54550057D01*
X91511904Y-54550057D02*
X91464285Y-54645295D01*
X91464285Y-54645295D02*
X91464285Y-54740533D01*
X91464285Y-54740533D02*
X91511904Y-54883390D01*
X91511904Y-54883390D02*
X92083332Y-55454819D01*
X92083332Y-55454819D02*
X91464285Y-55454819D01*
X73988094Y-55454819D02*
X73988094Y-54454819D01*
X73988094Y-54454819D02*
X73749999Y-54454819D01*
X73749999Y-54454819D02*
X73607142Y-54502438D01*
X73607142Y-54502438D02*
X73511904Y-54597676D01*
X73511904Y-54597676D02*
X73464285Y-54692914D01*
X73464285Y-54692914D02*
X73416666Y-54883390D01*
X73416666Y-54883390D02*
X73416666Y-55026247D01*
X73416666Y-55026247D02*
X73464285Y-55216723D01*
X73464285Y-55216723D02*
X73511904Y-55311961D01*
X73511904Y-55311961D02*
X73607142Y-55407200D01*
X73607142Y-55407200D02*
X73749999Y-55454819D01*
X73749999Y-55454819D02*
X73988094Y-55454819D01*
X73083332Y-54454819D02*
X72464285Y-54454819D01*
X72464285Y-54454819D02*
X72797618Y-54835771D01*
X72797618Y-54835771D02*
X72654761Y-54835771D01*
X72654761Y-54835771D02*
X72559523Y-54883390D01*
X72559523Y-54883390D02*
X72511904Y-54931009D01*
X72511904Y-54931009D02*
X72464285Y-55026247D01*
X72464285Y-55026247D02*
X72464285Y-55264342D01*
X72464285Y-55264342D02*
X72511904Y-55359580D01*
X72511904Y-55359580D02*
X72559523Y-55407200D01*
X72559523Y-55407200D02*
X72654761Y-55454819D01*
X72654761Y-55454819D02*
X72940475Y-55454819D01*
X72940475Y-55454819D02*
X73035713Y-55407200D01*
X73035713Y-55407200D02*
X73083332Y-55359580D01*
X45938095Y-59906819D02*
X46509523Y-59906819D01*
X46223809Y-60906819D02*
X46223809Y-59906819D01*
X46842857Y-60906819D02*
X46842857Y-59906819D01*
X46842857Y-59906819D02*
X47223809Y-59906819D01*
X47223809Y-59906819D02*
X47319047Y-59954438D01*
X47319047Y-59954438D02*
X47366666Y-60002057D01*
X47366666Y-60002057D02*
X47414285Y-60097295D01*
X47414285Y-60097295D02*
X47414285Y-60240152D01*
X47414285Y-60240152D02*
X47366666Y-60335390D01*
X47366666Y-60335390D02*
X47319047Y-60383009D01*
X47319047Y-60383009D02*
X47223809Y-60430628D01*
X47223809Y-60430628D02*
X46842857Y-60430628D01*
X48319047Y-59906819D02*
X47842857Y-59906819D01*
X47842857Y-59906819D02*
X47795238Y-60383009D01*
X47795238Y-60383009D02*
X47842857Y-60335390D01*
X47842857Y-60335390D02*
X47938095Y-60287771D01*
X47938095Y-60287771D02*
X48176190Y-60287771D01*
X48176190Y-60287771D02*
X48271428Y-60335390D01*
X48271428Y-60335390D02*
X48319047Y-60383009D01*
X48319047Y-60383009D02*
X48366666Y-60478247D01*
X48366666Y-60478247D02*
X48366666Y-60716342D01*
X48366666Y-60716342D02*
X48319047Y-60811580D01*
X48319047Y-60811580D02*
X48271428Y-60859200D01*
X48271428Y-60859200D02*
X48176190Y-60906819D01*
X48176190Y-60906819D02*
X47938095Y-60906819D01*
X47938095Y-60906819D02*
X47842857Y-60859200D01*
X47842857Y-60859200D02*
X47795238Y-60811580D01*
X100338095Y-55806819D02*
X100909523Y-55806819D01*
X100623809Y-56806819D02*
X100623809Y-55806819D01*
X101242857Y-56806819D02*
X101242857Y-55806819D01*
X101242857Y-55806819D02*
X101623809Y-55806819D01*
X101623809Y-55806819D02*
X101719047Y-55854438D01*
X101719047Y-55854438D02*
X101766666Y-55902057D01*
X101766666Y-55902057D02*
X101814285Y-55997295D01*
X101814285Y-55997295D02*
X101814285Y-56140152D01*
X101814285Y-56140152D02*
X101766666Y-56235390D01*
X101766666Y-56235390D02*
X101719047Y-56283009D01*
X101719047Y-56283009D02*
X101623809Y-56330628D01*
X101623809Y-56330628D02*
X101242857Y-56330628D01*
X102195238Y-55902057D02*
X102242857Y-55854438D01*
X102242857Y-55854438D02*
X102338095Y-55806819D01*
X102338095Y-55806819D02*
X102576190Y-55806819D01*
X102576190Y-55806819D02*
X102671428Y-55854438D01*
X102671428Y-55854438D02*
X102719047Y-55902057D01*
X102719047Y-55902057D02*
X102766666Y-55997295D01*
X102766666Y-55997295D02*
X102766666Y-56092533D01*
X102766666Y-56092533D02*
X102719047Y-56235390D01*
X102719047Y-56235390D02*
X102147619Y-56806819D01*
X102147619Y-56806819D02*
X102766666Y-56806819D01*
X92988094Y-75454819D02*
X92988094Y-74454819D01*
X92988094Y-74454819D02*
X92749999Y-74454819D01*
X92749999Y-74454819D02*
X92607142Y-74502438D01*
X92607142Y-74502438D02*
X92511904Y-74597676D01*
X92511904Y-74597676D02*
X92464285Y-74692914D01*
X92464285Y-74692914D02*
X92416666Y-74883390D01*
X92416666Y-74883390D02*
X92416666Y-75026247D01*
X92416666Y-75026247D02*
X92464285Y-75216723D01*
X92464285Y-75216723D02*
X92511904Y-75311961D01*
X92511904Y-75311961D02*
X92607142Y-75407200D01*
X92607142Y-75407200D02*
X92749999Y-75454819D01*
X92749999Y-75454819D02*
X92988094Y-75454819D01*
X92083332Y-74454819D02*
X91416666Y-74454819D01*
X91416666Y-74454819D02*
X91845237Y-75454819D01*
X114138095Y-75606819D02*
X114709523Y-75606819D01*
X114423809Y-76606819D02*
X114423809Y-75606819D01*
X115042857Y-76606819D02*
X115042857Y-75606819D01*
X115042857Y-75606819D02*
X115423809Y-75606819D01*
X115423809Y-75606819D02*
X115519047Y-75654438D01*
X115519047Y-75654438D02*
X115566666Y-75702057D01*
X115566666Y-75702057D02*
X115614285Y-75797295D01*
X115614285Y-75797295D02*
X115614285Y-75940152D01*
X115614285Y-75940152D02*
X115566666Y-76035390D01*
X115566666Y-76035390D02*
X115519047Y-76083009D01*
X115519047Y-76083009D02*
X115423809Y-76130628D01*
X115423809Y-76130628D02*
X115042857Y-76130628D01*
X116090476Y-76606819D02*
X116280952Y-76606819D01*
X116280952Y-76606819D02*
X116376190Y-76559200D01*
X116376190Y-76559200D02*
X116423809Y-76511580D01*
X116423809Y-76511580D02*
X116519047Y-76368723D01*
X116519047Y-76368723D02*
X116566666Y-76178247D01*
X116566666Y-76178247D02*
X116566666Y-75797295D01*
X116566666Y-75797295D02*
X116519047Y-75702057D01*
X116519047Y-75702057D02*
X116471428Y-75654438D01*
X116471428Y-75654438D02*
X116376190Y-75606819D01*
X116376190Y-75606819D02*
X116185714Y-75606819D01*
X116185714Y-75606819D02*
X116090476Y-75654438D01*
X116090476Y-75654438D02*
X116042857Y-75702057D01*
X116042857Y-75702057D02*
X115995238Y-75797295D01*
X115995238Y-75797295D02*
X115995238Y-76035390D01*
X115995238Y-76035390D02*
X116042857Y-76130628D01*
X116042857Y-76130628D02*
X116090476Y-76178247D01*
X116090476Y-76178247D02*
X116185714Y-76225866D01*
X116185714Y-76225866D02*
X116376190Y-76225866D01*
X116376190Y-76225866D02*
X116471428Y-76178247D01*
X116471428Y-76178247D02*
X116519047Y-76130628D01*
X116519047Y-76130628D02*
X116566666Y-76035390D01*
X54988094Y-55454819D02*
X54988094Y-54454819D01*
X54988094Y-54454819D02*
X54749999Y-54454819D01*
X54749999Y-54454819D02*
X54607142Y-54502438D01*
X54607142Y-54502438D02*
X54511904Y-54597676D01*
X54511904Y-54597676D02*
X54464285Y-54692914D01*
X54464285Y-54692914D02*
X54416666Y-54883390D01*
X54416666Y-54883390D02*
X54416666Y-55026247D01*
X54416666Y-55026247D02*
X54464285Y-55216723D01*
X54464285Y-55216723D02*
X54511904Y-55311961D01*
X54511904Y-55311961D02*
X54607142Y-55407200D01*
X54607142Y-55407200D02*
X54749999Y-55454819D01*
X54749999Y-55454819D02*
X54988094Y-55454819D01*
X53559523Y-54788152D02*
X53559523Y-55454819D01*
X53797618Y-54407200D02*
X54035713Y-55121485D01*
X54035713Y-55121485D02*
X53416666Y-55121485D01*
X54988094Y-75454819D02*
X54988094Y-74454819D01*
X54988094Y-74454819D02*
X54749999Y-74454819D01*
X54749999Y-74454819D02*
X54607142Y-74502438D01*
X54607142Y-74502438D02*
X54511904Y-74597676D01*
X54511904Y-74597676D02*
X54464285Y-74692914D01*
X54464285Y-74692914D02*
X54416666Y-74883390D01*
X54416666Y-74883390D02*
X54416666Y-75026247D01*
X54416666Y-75026247D02*
X54464285Y-75216723D01*
X54464285Y-75216723D02*
X54511904Y-75311961D01*
X54511904Y-75311961D02*
X54607142Y-75407200D01*
X54607142Y-75407200D02*
X54749999Y-75454819D01*
X54749999Y-75454819D02*
X54988094Y-75454819D01*
X53511904Y-74454819D02*
X53988094Y-74454819D01*
X53988094Y-74454819D02*
X54035713Y-74931009D01*
X54035713Y-74931009D02*
X53988094Y-74883390D01*
X53988094Y-74883390D02*
X53892856Y-74835771D01*
X53892856Y-74835771D02*
X53654761Y-74835771D01*
X53654761Y-74835771D02*
X53559523Y-74883390D01*
X53559523Y-74883390D02*
X53511904Y-74931009D01*
X53511904Y-74931009D02*
X53464285Y-75026247D01*
X53464285Y-75026247D02*
X53464285Y-75264342D01*
X53464285Y-75264342D02*
X53511904Y-75359580D01*
X53511904Y-75359580D02*
X53559523Y-75407200D01*
X53559523Y-75407200D02*
X53654761Y-75454819D01*
X53654761Y-75454819D02*
X53892856Y-75454819D01*
X53892856Y-75454819D02*
X53988094Y-75407200D01*
X53988094Y-75407200D02*
X54035713Y-75359580D01*
X62638095Y-55906819D02*
X63209523Y-55906819D01*
X62923809Y-56906819D02*
X62923809Y-55906819D01*
X63542857Y-56906819D02*
X63542857Y-55906819D01*
X63542857Y-55906819D02*
X63923809Y-55906819D01*
X63923809Y-55906819D02*
X64019047Y-55954438D01*
X64019047Y-55954438D02*
X64066666Y-56002057D01*
X64066666Y-56002057D02*
X64114285Y-56097295D01*
X64114285Y-56097295D02*
X64114285Y-56240152D01*
X64114285Y-56240152D02*
X64066666Y-56335390D01*
X64066666Y-56335390D02*
X64019047Y-56383009D01*
X64019047Y-56383009D02*
X63923809Y-56430628D01*
X63923809Y-56430628D02*
X63542857Y-56430628D01*
X64971428Y-56240152D02*
X64971428Y-56906819D01*
X64733333Y-55859200D02*
X64495238Y-56573485D01*
X64495238Y-56573485D02*
X65114285Y-56573485D01*
D11*
%TO.C,TP3*%
X83850000Y-58000000D02*
G75*
G02*
X81950000Y-58000000I-950000J0D01*
G01*
X81950000Y-58000000D02*
G75*
G02*
X83850000Y-58000000I950000J0D01*
G01*
D10*
%TO.C,D6*%
X66250000Y-66000000D02*
X66250000Y-65000000D01*
X66250000Y-79000000D02*
X66250000Y-78000000D01*
X66250000Y-79000000D02*
X67250000Y-79000000D01*
X67250000Y-65000000D02*
X66250000Y-65000000D01*
D11*
X74370000Y-76150000D02*
X71530000Y-76150000D01*
X74370000Y-78450000D02*
X71530000Y-78450000D01*
D10*
X79250000Y-79000000D02*
X80250000Y-79000000D01*
X80250000Y-65000000D02*
X79250000Y-65000000D01*
X80250000Y-65000000D02*
X80250000Y-66000000D01*
X80250000Y-78000000D02*
X80250000Y-79000000D01*
D11*
X73250000Y-76150000D02*
X73450000Y-76150000D01*
X73450000Y-78450000D01*
X73250000Y-78450000D01*
X73250000Y-76150000D01*
G36*
X73250000Y-76150000D02*
G01*
X73450000Y-76150000D01*
X73450000Y-78450000D01*
X73250000Y-78450000D01*
X73250000Y-76150000D01*
G37*
%TO.C,TP8*%
X102050000Y-77600000D02*
G75*
G02*
X100150000Y-77600000I-950000J0D01*
G01*
X100150000Y-77600000D02*
G75*
G02*
X102050000Y-77600000I950000J0D01*
G01*
D10*
%TO.C,D8*%
X104250000Y-66000000D02*
X104250000Y-65000000D01*
X104250000Y-79000000D02*
X104250000Y-78000000D01*
X104250000Y-79000000D02*
X105250000Y-79000000D01*
X105250000Y-65000000D02*
X104250000Y-65000000D01*
D11*
X112370000Y-76150000D02*
X109530000Y-76150000D01*
X112370000Y-78450000D02*
X109530000Y-78450000D01*
D10*
X117250000Y-79000000D02*
X118250000Y-79000000D01*
X118250000Y-65000000D02*
X117250000Y-65000000D01*
X118250000Y-65000000D02*
X118250000Y-66000000D01*
X118250000Y-78000000D02*
X118250000Y-79000000D01*
D11*
X111250000Y-76150000D02*
X111450000Y-76150000D01*
X111450000Y-78450000D01*
X111250000Y-78450000D01*
X111250000Y-76150000D01*
G36*
X111250000Y-76150000D02*
G01*
X111450000Y-76150000D01*
X111450000Y-78450000D01*
X111250000Y-78450000D01*
X111250000Y-76150000D01*
G37*
%TO.C,TP6*%
X64450000Y-77400000D02*
G75*
G02*
X62550000Y-77400000I-950000J0D01*
G01*
X62550000Y-77400000D02*
G75*
G02*
X64450000Y-77400000I950000J0D01*
G01*
D12*
%TO.C,CR1*%
X129866100Y-54556700D02*
X129866100Y-58823900D01*
X135123900Y-58823900D02*
X135123900Y-54556700D01*
D11*
%TO.C,TP7*%
X83550000Y-77300000D02*
G75*
G02*
X81650000Y-77300000I-950000J0D01*
G01*
X81650000Y-77300000D02*
G75*
G02*
X83550000Y-77300000I950000J0D01*
G01*
D10*
%TO.C,D1*%
X104250000Y-46000000D02*
X104250000Y-45000000D01*
X104250000Y-59000000D02*
X104250000Y-58000000D01*
X104250000Y-59000000D02*
X105250000Y-59000000D01*
X105250000Y-45000000D02*
X104250000Y-45000000D01*
D11*
X109830000Y-55850000D02*
X112670000Y-55850000D01*
X109830000Y-58150000D02*
X112670000Y-58150000D01*
D10*
X117250000Y-59000000D02*
X118250000Y-59000000D01*
X118250000Y-45000000D02*
X117250000Y-45000000D01*
X118250000Y-45000000D02*
X118250000Y-46000000D01*
X118250000Y-58000000D02*
X118250000Y-59000000D01*
D11*
X110950000Y-58150000D02*
X110750000Y-58150000D01*
X110750000Y-55850000D01*
X110950000Y-55850000D01*
X110950000Y-58150000D01*
G36*
X110950000Y-58150000D02*
G01*
X110750000Y-58150000D01*
X110750000Y-55850000D01*
X110950000Y-55850000D01*
X110950000Y-58150000D01*
G37*
D10*
%TO.C,D2*%
X85250000Y-46000000D02*
X85250000Y-45000000D01*
X85250000Y-59000000D02*
X85250000Y-58000000D01*
X85250000Y-59000000D02*
X86250000Y-59000000D01*
X86250000Y-45000000D02*
X85250000Y-45000000D01*
D11*
X90830000Y-55850000D02*
X93670000Y-55850000D01*
X90830000Y-58150000D02*
X93670000Y-58150000D01*
D10*
X98250000Y-59000000D02*
X99250000Y-59000000D01*
X99250000Y-45000000D02*
X98250000Y-45000000D01*
X99250000Y-45000000D02*
X99250000Y-46000000D01*
X99250000Y-58000000D02*
X99250000Y-59000000D01*
D11*
X91950000Y-58150000D02*
X91750000Y-58150000D01*
X91750000Y-55850000D01*
X91950000Y-55850000D01*
X91950000Y-58150000D01*
G36*
X91950000Y-58150000D02*
G01*
X91750000Y-58150000D01*
X91750000Y-55850000D01*
X91950000Y-55850000D01*
X91950000Y-58150000D01*
G37*
D10*
%TO.C,D3*%
X66250000Y-46000000D02*
X66250000Y-45000000D01*
X66250000Y-59000000D02*
X66250000Y-58000000D01*
X66250000Y-59000000D02*
X67250000Y-59000000D01*
X67250000Y-45000000D02*
X66250000Y-45000000D01*
D11*
X71830000Y-55850000D02*
X74670000Y-55850000D01*
X71830000Y-58150000D02*
X74670000Y-58150000D01*
D10*
X79250000Y-59000000D02*
X80250000Y-59000000D01*
X80250000Y-45000000D02*
X79250000Y-45000000D01*
X80250000Y-45000000D02*
X80250000Y-46000000D01*
X80250000Y-58000000D02*
X80250000Y-59000000D01*
D11*
X72950000Y-58150000D02*
X72750000Y-58150000D01*
X72750000Y-55850000D01*
X72950000Y-55850000D01*
X72950000Y-58150000D01*
G36*
X72950000Y-58150000D02*
G01*
X72750000Y-58150000D01*
X72750000Y-55850000D01*
X72950000Y-55850000D01*
X72950000Y-58150000D01*
G37*
%TO.C,TP5*%
X48150000Y-62100000D02*
G75*
G02*
X46250000Y-62100000I-950000J0D01*
G01*
X46250000Y-62100000D02*
G75*
G02*
X48150000Y-62100000I950000J0D01*
G01*
%TO.C,TP2*%
X102550000Y-58000000D02*
G75*
G02*
X100650000Y-58000000I-950000J0D01*
G01*
X100650000Y-58000000D02*
G75*
G02*
X102550000Y-58000000I950000J0D01*
G01*
D10*
%TO.C,D7*%
X85250000Y-66000000D02*
X85250000Y-65000000D01*
X85250000Y-79000000D02*
X85250000Y-78000000D01*
X85250000Y-79000000D02*
X86250000Y-79000000D01*
X86250000Y-65000000D02*
X85250000Y-65000000D01*
D11*
X93370000Y-76150000D02*
X90530000Y-76150000D01*
X93370000Y-78450000D02*
X90530000Y-78450000D01*
D10*
X98250000Y-79000000D02*
X99250000Y-79000000D01*
X99250000Y-65000000D02*
X98250000Y-65000000D01*
X99250000Y-65000000D02*
X99250000Y-66000000D01*
X99250000Y-78000000D02*
X99250000Y-79000000D01*
D11*
X92250000Y-76150000D02*
X92450000Y-76150000D01*
X92450000Y-78450000D01*
X92250000Y-78450000D01*
X92250000Y-76150000D01*
G36*
X92250000Y-76150000D02*
G01*
X92450000Y-76150000D01*
X92450000Y-78450000D01*
X92250000Y-78450000D01*
X92250000Y-76150000D01*
G37*
%TO.C,TP9*%
X116350000Y-77800000D02*
G75*
G02*
X114450000Y-77800000I-950000J0D01*
G01*
X114450000Y-77800000D02*
G75*
G02*
X116350000Y-77800000I950000J0D01*
G01*
D10*
%TO.C,D4*%
X47250000Y-46000000D02*
X47250000Y-45000000D01*
X47250000Y-59000000D02*
X47250000Y-58000000D01*
X47250000Y-59000000D02*
X48250000Y-59000000D01*
X48250000Y-45000000D02*
X47250000Y-45000000D01*
D11*
X52830000Y-55850000D02*
X55670000Y-55850000D01*
X52830000Y-58150000D02*
X55670000Y-58150000D01*
D10*
X60250000Y-59000000D02*
X61250000Y-59000000D01*
X61250000Y-45000000D02*
X60250000Y-45000000D01*
X61250000Y-45000000D02*
X61250000Y-46000000D01*
X61250000Y-58000000D02*
X61250000Y-59000000D01*
D11*
X53950000Y-58150000D02*
X53750000Y-58150000D01*
X53750000Y-55850000D01*
X53950000Y-55850000D01*
X53950000Y-58150000D01*
G36*
X53950000Y-58150000D02*
G01*
X53750000Y-58150000D01*
X53750000Y-55850000D01*
X53950000Y-55850000D01*
X53950000Y-58150000D01*
G37*
D10*
%TO.C,D5*%
X47250000Y-66000000D02*
X47250000Y-65000000D01*
X47250000Y-79000000D02*
X47250000Y-78000000D01*
X47250000Y-79000000D02*
X48250000Y-79000000D01*
X48250000Y-65000000D02*
X47250000Y-65000000D01*
D11*
X55370000Y-76150000D02*
X52530000Y-76150000D01*
X55370000Y-78450000D02*
X52530000Y-78450000D01*
D10*
X60250000Y-79000000D02*
X61250000Y-79000000D01*
X61250000Y-65000000D02*
X60250000Y-65000000D01*
X61250000Y-65000000D02*
X61250000Y-66000000D01*
X61250000Y-78000000D02*
X61250000Y-79000000D01*
D11*
X54250000Y-76150000D02*
X54450000Y-76150000D01*
X54450000Y-78450000D01*
X54250000Y-78450000D01*
X54250000Y-76150000D01*
G36*
X54250000Y-76150000D02*
G01*
X54450000Y-76150000D01*
X54450000Y-78450000D01*
X54250000Y-78450000D01*
X54250000Y-76150000D01*
G37*
%TO.C,TP4*%
X64850000Y-58100000D02*
G75*
G02*
X62950000Y-58100000I-950000J0D01*
G01*
X62950000Y-58100000D02*
G75*
G02*
X64850000Y-58100000I950000J0D01*
G01*
%TD*%
M02*
