%TF.GenerationSoftware,KiCad,Pcbnew,8.0.2*%
%TF.CreationDate,2024-06-01T03:16:02+02:00*%
%TF.ProjectId,Hellboard,48656c6c-626f-4617-9264-2e6b69636164,rev?*%
%TF.SameCoordinates,Original*%
%TF.FileFunction,Copper,L2,Bot*%
%TF.FilePolarity,Positive*%
%FSLAX46Y46*%
G04 Gerber Fmt 4.6, Leading zero omitted, Abs format (unit mm)*
G04 Created by KiCad (PCBNEW 8.0.2) date 2024-06-01 03:16:02*
%MOMM*%
%LPD*%
G01*
G04 APERTURE LIST*
G04 Aperture macros list*
%AMRoundRect*
0 Rectangle with rounded corners*
0 $1 Rounding radius*
0 $2 $3 $4 $5 $6 $7 $8 $9 X,Y pos of 4 corners*
0 Add a 4 corners polygon primitive as box body*
4,1,4,$2,$3,$4,$5,$6,$7,$8,$9,$2,$3,0*
0 Add four circle primitives for the rounded corners*
1,1,$1+$1,$2,$3*
1,1,$1+$1,$4,$5*
1,1,$1+$1,$6,$7*
1,1,$1+$1,$8,$9*
0 Add four rect primitives between the rounded corners*
20,1,$1+$1,$2,$3,$4,$5,0*
20,1,$1+$1,$4,$5,$6,$7,0*
20,1,$1+$1,$6,$7,$8,$9,0*
20,1,$1+$1,$8,$9,$2,$3,0*%
%AMFreePoly0*
4,1,6,1.000000,0.000000,0.500000,-0.750000,-0.500000,-0.750000,-0.500000,0.750000,0.500000,0.750000,1.000000,0.000000,1.000000,0.000000,$1*%
%AMFreePoly1*
4,1,6,0.500000,-0.750000,-0.650000,-0.750000,-0.150000,0.000000,-0.650000,0.750000,0.500000,0.750000,0.500000,-0.750000,0.500000,-0.750000,$1*%
G04 Aperture macros list end*
%TA.AperFunction,SMDPad,CuDef*%
%ADD10R,3.085000X2.500000*%
%TD*%
%TA.AperFunction,SMDPad,CuDef*%
%ADD11R,2.915000X2.500000*%
%TD*%
%TA.AperFunction,ComponentPad*%
%ADD12R,1.700000X1.700000*%
%TD*%
%TA.AperFunction,ComponentPad*%
%ADD13O,1.700000X1.700000*%
%TD*%
%TA.AperFunction,SMDPad,CuDef*%
%ADD14FreePoly0,180.000000*%
%TD*%
%TA.AperFunction,SMDPad,CuDef*%
%ADD15FreePoly1,180.000000*%
%TD*%
%TA.AperFunction,SMDPad,CuDef*%
%ADD16RoundRect,0.250000X-0.337500X-0.475000X0.337500X-0.475000X0.337500X0.475000X-0.337500X0.475000X0*%
%TD*%
%TA.AperFunction,SMDPad,CuDef*%
%ADD17C,1.500000*%
%TD*%
%TA.AperFunction,SMDPad,CuDef*%
%ADD18O,1.500000X2.500000*%
%TD*%
%TA.AperFunction,SMDPad,CuDef*%
%ADD19O,2.500000X1.500000*%
%TD*%
%TA.AperFunction,SMDPad,CuDef*%
%ADD20RoundRect,0.250000X-0.450000X0.325000X-0.450000X-0.325000X0.450000X-0.325000X0.450000X0.325000X0*%
%TD*%
%TA.AperFunction,SMDPad,CuDef*%
%ADD21RoundRect,0.150000X0.587500X0.150000X-0.587500X0.150000X-0.587500X-0.150000X0.587500X-0.150000X0*%
%TD*%
%TA.AperFunction,ViaPad*%
%ADD22C,0.600000*%
%TD*%
%TA.AperFunction,Conductor*%
%ADD23C,0.400000*%
%TD*%
%TA.AperFunction,Conductor*%
%ADD24C,0.200000*%
%TD*%
%TA.AperFunction,Conductor*%
%ADD25C,0.500000*%
%TD*%
G04 APERTURE END LIST*
D10*
%TO.P,D6,1,SW1*%
%TO.N,SW_2_3*%
X79807500Y-66920000D03*
D11*
%TO.P,D6,2,SW2*%
%TO.N,GND*%
X65507500Y-69460000D03*
%TD*%
D10*
%TO.P,D8,1,SW1*%
%TO.N,SW_2_1*%
X117807500Y-66920000D03*
D11*
%TO.P,D8,2,SW2*%
%TO.N,GND*%
X103507500Y-69460000D03*
%TD*%
D10*
%TO.P,D1,1,SW1*%
%TO.N,SW_1_1*%
X117807500Y-46920000D03*
D11*
%TO.P,D1,2,SW2*%
%TO.N,GND*%
X103507500Y-49460000D03*
%TD*%
D12*
%TO.P,J1,1,GND*%
%TO.N,GND*%
X136700000Y-47100000D03*
D13*
%TO.P,J1,2,VCC*%
%TO.N,+3.3V*%
X139240000Y-47100000D03*
%TO.P,J1,3,SCL*%
%TO.N,OLED_SCL*%
X141780000Y-47100000D03*
%TO.P,J1,4,SDA*%
%TO.N,OLED_SDA*%
X144320000Y-47100000D03*
%TD*%
D10*
%TO.P,D2,1,SW1*%
%TO.N,SW_1_2*%
X98807500Y-46920000D03*
D11*
%TO.P,D2,2,SW2*%
%TO.N,GND*%
X84507500Y-49460000D03*
%TD*%
D10*
%TO.P,D3,1,SW1*%
%TO.N,SW_1_3*%
X79807500Y-46920000D03*
D11*
%TO.P,D3,2,SW2*%
%TO.N,GND*%
X65507500Y-49460000D03*
%TD*%
D10*
%TO.P,D7,1,SW1*%
%TO.N,SW_2_2*%
X98807500Y-66920000D03*
D11*
%TO.P,D7,2,SW2*%
%TO.N,GND*%
X84507500Y-69460000D03*
%TD*%
D10*
%TO.P,D4,1,SW1*%
%TO.N,SW_1_4*%
X60807500Y-46920000D03*
D11*
%TO.P,D4,2,SW2*%
%TO.N,GND*%
X46507500Y-49460000D03*
%TD*%
D10*
%TO.P,D5,1,SW1*%
%TO.N,SW_2_4*%
X60807500Y-66920000D03*
D11*
%TO.P,D5,2,SW2*%
%TO.N,GND*%
X46507500Y-69460000D03*
%TD*%
D14*
%TO.P,JP1,1,A*%
%TO.N,LED_DIN*%
X129855000Y-66120000D03*
D15*
%TO.P,JP1,2,B*%
%TO.N,Net-(D1-DIN)*%
X128405000Y-66120000D03*
%TD*%
D16*
%TO.P,C5,1*%
%TO.N,GND*%
X110212500Y-63000000D03*
%TO.P,C5,2*%
%TO.N,SW_2_1*%
X112287500Y-63000000D03*
%TD*%
%TO.P,C8,1*%
%TO.N,GND*%
X53212500Y-63000000D03*
%TO.P,C8,2*%
%TO.N,SW_2_4*%
X55287500Y-63000000D03*
%TD*%
D17*
%TO.P,TP1,1,1*%
%TO.N,Net-(D1-DIN)*%
X125605000Y-65620000D03*
%TD*%
D18*
%TO.P,U1,1,0*%
%TO.N,SW_1_1*%
X157950000Y-56250000D03*
%TO.P,U1,2,1*%
%TO.N,SW_1_2*%
X155410000Y-56250000D03*
%TO.P,U1,3,2*%
%TO.N,SW_1_3*%
X152870000Y-56250000D03*
%TO.P,U1,4,3*%
%TO.N,SW_1_4*%
X150330000Y-56250000D03*
%TO.P,U1,5,4*%
%TO.N,EEPROM_MISO*%
X147790000Y-56250000D03*
%TO.P,U1,6,5*%
%TO.N,EEPROM_CS*%
X145250000Y-56250000D03*
%TO.P,U1,7,6*%
%TO.N,EEPROM_SCK*%
X142710000Y-56250000D03*
%TO.P,U1,8,7*%
%TO.N,EEPROM_MOSI*%
X140170000Y-56250000D03*
%TO.P,U1,9,8*%
%TO.N,unconnected-(U1-8-Pad9)*%
X137630000Y-56250000D03*
D19*
%TO.P,U1,10,9*%
%TO.N,unconnected-(U1-9-Pad10)*%
X137130000Y-59290000D03*
%TO.P,U1,11,10*%
%TO.N,unconnected-(U1-10-Pad11)*%
X137130000Y-61830000D03*
%TO.P,U1,12,11*%
%TO.N,LED_DIN*%
X137130000Y-64370000D03*
%TO.P,U1,13,12*%
%TO.N,unconnected-(U1-12-Pad13)*%
X137130000Y-66910000D03*
%TO.P,U1,14,13*%
%TO.N,unconnected-(U1-13-Pad14)*%
X137130000Y-69450000D03*
D18*
%TO.P,U1,15,14*%
%TO.N,OLED_SDA*%
X137630000Y-72490000D03*
%TO.P,U1,16,15*%
%TO.N,OLED_SCL*%
X140170000Y-72490000D03*
%TO.P,U1,17,26*%
%TO.N,SW_2_1*%
X142710000Y-72490000D03*
%TO.P,U1,18,27*%
%TO.N,SW_2_2*%
X145250000Y-72490000D03*
%TO.P,U1,19,28*%
%TO.N,SW_2_3*%
X147790000Y-72490000D03*
%TO.P,U1,20,29*%
%TO.N,SW_2_4*%
X150330000Y-72490000D03*
%TO.P,U1,21,3V3*%
%TO.N,+3.3V*%
X152870000Y-72490000D03*
%TO.P,U1,22,GND*%
%TO.N,GND*%
X155410000Y-72490000D03*
%TO.P,U1,23,5V*%
%TO.N,+5V*%
X157950000Y-72490000D03*
%TD*%
D20*
%TO.P,R1,1*%
%TO.N,+5V*%
X125605000Y-60870000D03*
%TO.P,R1,2*%
%TO.N,Net-(D1-DIN)*%
X125605000Y-62920000D03*
%TD*%
D16*
%TO.P,C1,1*%
%TO.N,GND*%
X110212500Y-59750000D03*
%TO.P,C1,2*%
%TO.N,SW_1_1*%
X112287500Y-59750000D03*
%TD*%
D21*
%TO.P,Q1,1,G*%
%TO.N,+3.3V*%
X130105000Y-61870000D03*
%TO.P,Q1,2,S*%
%TO.N,LED_DIN*%
X130105000Y-63770000D03*
%TO.P,Q1,3,D*%
%TO.N,Net-(D1-DIN)*%
X128230000Y-62820000D03*
%TD*%
D20*
%TO.P,R2,1*%
%TO.N,+3.3V*%
X132355000Y-61620000D03*
%TO.P,R2,2*%
%TO.N,LED_DIN*%
X132355000Y-63670000D03*
%TD*%
D16*
%TO.P,C3,1*%
%TO.N,GND*%
X72212500Y-59500000D03*
%TO.P,C3,2*%
%TO.N,SW_1_3*%
X74287500Y-59500000D03*
%TD*%
%TO.P,C6,1*%
%TO.N,GND*%
X91212500Y-63000000D03*
%TO.P,C6,2*%
%TO.N,SW_2_2*%
X93287500Y-63000000D03*
%TD*%
%TO.P,C2,1*%
%TO.N,GND*%
X91212500Y-59500000D03*
%TO.P,C2,2*%
%TO.N,SW_1_2*%
X93287500Y-59500000D03*
%TD*%
%TO.P,C4,1*%
%TO.N,GND*%
X53212500Y-59500000D03*
%TO.P,C4,2*%
%TO.N,SW_1_4*%
X55287500Y-59500000D03*
%TD*%
%TO.P,C7,1*%
%TO.N,GND*%
X72212500Y-63000000D03*
%TO.P,C7,2*%
%TO.N,SW_2_3*%
X74287500Y-63000000D03*
%TD*%
D22*
%TO.N,+5V*%
X127380000Y-61620000D03*
X157814313Y-74554313D03*
X121920000Y-60660000D03*
%TO.N,OLED_SDA*%
X136380000Y-71370000D03*
%TO.N,OLED_SCL*%
X140130000Y-74370000D03*
%TO.N,EEPROM_CS*%
X144989400Y-54510600D03*
%TO.N,EEPROM_SCK*%
X142630000Y-52370000D03*
%TO.N,GND*%
X87200000Y-78000000D03*
X58100000Y-79100000D03*
X96600000Y-78600000D03*
X111400000Y-66000000D03*
X63500000Y-74250000D03*
X91400000Y-66000000D03*
X133000000Y-65400000D03*
X130800000Y-68200000D03*
X44700000Y-61400000D03*
X106700000Y-78300000D03*
X146800000Y-48100000D03*
X44200000Y-47500000D03*
X72200000Y-65900000D03*
X110200000Y-46600000D03*
X90900000Y-80800000D03*
X108250000Y-58750000D03*
X48500000Y-43400000D03*
X144300000Y-53000000D03*
X129500000Y-77300000D03*
X72100000Y-46400000D03*
X44200000Y-76600000D03*
X100100000Y-59500000D03*
X122700000Y-43200000D03*
X68400000Y-78100000D03*
X119100000Y-56500000D03*
X63900000Y-65100000D03*
X91000000Y-46600000D03*
X134600000Y-76200000D03*
X127200000Y-52500000D03*
X158400000Y-53900000D03*
X151200000Y-47800000D03*
X157900000Y-47400000D03*
X155500000Y-74500000D03*
X116400000Y-63300000D03*
X146900000Y-51900000D03*
X51000000Y-58750000D03*
X50400000Y-60900000D03*
X82600000Y-53700000D03*
X101700000Y-65400000D03*
X141500000Y-74400000D03*
X48500000Y-80900000D03*
X109900000Y-80800000D03*
X154100000Y-43600000D03*
X125900000Y-77600000D03*
X53000000Y-65900000D03*
X77700000Y-78800000D03*
X121700000Y-58700000D03*
X149100000Y-54100000D03*
X121200000Y-77400000D03*
X89250000Y-58750000D03*
X101700000Y-53500000D03*
X53200000Y-46500000D03*
X140500000Y-45300000D03*
X101750000Y-74000000D03*
X49500000Y-74500000D03*
X123100000Y-63500000D03*
X70000000Y-58750000D03*
X82600000Y-61500000D03*
X71900000Y-80900000D03*
X138000000Y-77500000D03*
X63300000Y-53800000D03*
X128300000Y-60600000D03*
X126600000Y-47500000D03*
X138100000Y-53300000D03*
X120600000Y-48000000D03*
X82750000Y-74000000D03*
X124300000Y-48700000D03*
%TO.N,+3.3V*%
X133380000Y-60870000D03*
X152880000Y-74370000D03*
%TO.N,EEPROM_MISO*%
X147630000Y-54370000D03*
%TO.N,EEPROM_MOSI*%
X140130000Y-51470000D03*
%TO.N,SW_1_3*%
X121750000Y-45750000D03*
X121750000Y-50250000D03*
%TO.N,SW_1_4*%
X123000000Y-51000000D03*
X123000000Y-45750000D03*
%TO.N,Net-(D1-DIN)*%
X121750000Y-61620000D03*
%TD*%
D23*
%TO.N,+5V*%
X125395000Y-60660000D02*
X125605000Y-60870000D01*
X157814313Y-74554313D02*
X157814313Y-72125687D01*
D24*
X157950000Y-71990000D02*
X157950000Y-73050000D01*
D23*
X121920000Y-60660000D02*
X125395000Y-60660000D01*
X127380000Y-61620000D02*
X126355000Y-61620000D01*
X126355000Y-61620000D02*
X125605000Y-60870000D01*
X157814313Y-72125687D02*
X157950000Y-71990000D01*
D24*
X157950000Y-73050000D02*
X157880000Y-73120000D01*
%TO.N,OLED_SDA*%
X137000000Y-71990000D02*
X136380000Y-71370000D01*
X137630000Y-71990000D02*
X137000000Y-71990000D01*
%TO.N,OLED_SCL*%
X140170000Y-74330000D02*
X140130000Y-74370000D01*
X140170000Y-71990000D02*
X140170000Y-74330000D01*
%TO.N,EEPROM_CS*%
X144989400Y-56489400D02*
X145250000Y-56750000D01*
X144989400Y-54510600D02*
X144989400Y-56489400D01*
%TO.N,EEPROM_SCK*%
X142710000Y-56750000D02*
X142630000Y-56670000D01*
X142630000Y-56670000D02*
X142630000Y-52370000D01*
%TO.N,GND*%
X46507500Y-57007500D02*
X48250000Y-58750000D01*
X46507500Y-72507500D02*
X48500000Y-74500000D01*
X91212500Y-61500000D02*
X91212500Y-63000000D01*
X67000000Y-58750000D02*
X70000000Y-58750000D01*
X72212500Y-63000000D02*
X72212500Y-59500000D01*
X46507500Y-69460000D02*
X46507500Y-65742500D01*
X103507500Y-56757500D02*
X105500000Y-58750000D01*
X49250000Y-63000000D02*
X53212500Y-63000000D01*
X68750000Y-63000000D02*
X72212500Y-63000000D01*
X84507500Y-65742500D02*
X87250000Y-63000000D01*
X65507500Y-72242500D02*
X63500000Y-74250000D01*
X109250000Y-59750000D02*
X108250000Y-58750000D01*
X103507500Y-49460000D02*
X103507500Y-56757500D01*
X65507500Y-57257500D02*
X67000000Y-58750000D01*
X90000000Y-59500000D02*
X89250000Y-58750000D01*
X110212500Y-59750000D02*
X109250000Y-59750000D01*
X65507500Y-49460000D02*
X65507500Y-57257500D01*
X46507500Y-65742500D02*
X49250000Y-63000000D01*
X48250000Y-58750000D02*
X51000000Y-58750000D01*
X84507500Y-69460000D02*
X84507500Y-65742500D01*
X98350000Y-64600000D02*
X110200000Y-64600000D01*
X48500000Y-74500000D02*
X49500000Y-74500000D01*
X65507500Y-66242500D02*
X68750000Y-63000000D01*
X91212500Y-59500000D02*
X91212500Y-61500000D01*
X103507500Y-69460000D02*
X103507500Y-72242500D01*
X72462500Y-59500000D02*
X70750000Y-59500000D01*
X46507500Y-49460000D02*
X46507500Y-57007500D01*
X65507500Y-69460000D02*
X65507500Y-72242500D01*
X103507500Y-72242500D02*
X101750000Y-74000000D01*
X95250000Y-61500000D02*
X98350000Y-64600000D01*
X91212500Y-61500000D02*
X95250000Y-61500000D01*
X84507500Y-69460000D02*
X84507500Y-72242500D01*
X110212500Y-64587500D02*
X110212500Y-63000000D01*
X155410000Y-71990000D02*
X155500000Y-72080000D01*
X87000000Y-58750000D02*
X89250000Y-58750000D01*
X110200000Y-64600000D02*
X110212500Y-64587500D01*
X84507500Y-49460000D02*
X84507500Y-56257500D01*
X53212500Y-59500000D02*
X51750000Y-59500000D01*
X91212500Y-59500000D02*
X90000000Y-59500000D01*
X51750000Y-59500000D02*
X51000000Y-58750000D01*
X70750000Y-59500000D02*
X70000000Y-58750000D01*
X105500000Y-58750000D02*
X108250000Y-58750000D01*
D25*
X155500000Y-72080000D02*
X155500000Y-74500000D01*
D24*
X84507500Y-56257500D02*
X87000000Y-58750000D01*
X46507500Y-69460000D02*
X46507500Y-72507500D01*
X53212500Y-63000000D02*
X53212500Y-59500000D01*
X87250000Y-63000000D02*
X91212500Y-63000000D01*
X65507500Y-69460000D02*
X65507500Y-66242500D01*
X84507500Y-72242500D02*
X82750000Y-74000000D01*
%TO.N,LED_DIN*%
X130105000Y-64095000D02*
X129855000Y-64345000D01*
X132355000Y-63670000D02*
X130205000Y-63670000D01*
X132355000Y-63670000D02*
X134180000Y-63670000D01*
X134180000Y-63670000D02*
X134880000Y-64370000D01*
X130205000Y-63670000D02*
X130105000Y-63770000D01*
X130105000Y-63770000D02*
X130105000Y-64095000D01*
X129855000Y-64345000D02*
X129855000Y-66120000D01*
X134880000Y-64370000D02*
X137630000Y-64370000D01*
%TO.N,+3.3V*%
X132630000Y-61620000D02*
X133380000Y-60870000D01*
X132355000Y-61620000D02*
X130355000Y-61620000D01*
X132355000Y-61620000D02*
X132630000Y-61620000D01*
X130355000Y-61620000D02*
X130105000Y-61870000D01*
D23*
X152880000Y-74370000D02*
X152880000Y-72000000D01*
X152880000Y-72000000D02*
X152870000Y-71990000D01*
D24*
%TO.N,EEPROM_MISO*%
X147790000Y-54530000D02*
X147790000Y-56750000D01*
X147630000Y-54370000D02*
X147790000Y-54530000D01*
%TO.N,EEPROM_MOSI*%
X140130000Y-56710000D02*
X140170000Y-56750000D01*
X140130000Y-51470000D02*
X140130000Y-56710000D01*
%TO.N,SW_1_1*%
X117807500Y-55442500D02*
X117807500Y-46920000D01*
X157950000Y-55690000D02*
X157950000Y-56750000D01*
X151130000Y-48870000D02*
X157950000Y-55690000D01*
X157880000Y-56680000D02*
X157950000Y-56750000D01*
X113500000Y-59750000D02*
X117807500Y-55442500D01*
X123930000Y-46920000D02*
X125880000Y-48870000D01*
X151130000Y-48870000D02*
X125880000Y-48870000D01*
X112287500Y-59750000D02*
X113500000Y-59750000D01*
X117807500Y-46920000D02*
X123930000Y-46920000D01*
%TO.N,SW_1_2*%
X93287500Y-59500000D02*
X93750000Y-59500000D01*
X93750000Y-59500000D02*
X98807500Y-54442500D01*
X121130000Y-49620000D02*
X150880000Y-49620000D01*
X150880000Y-49620000D02*
X155410000Y-54150000D01*
X105615000Y-61250000D02*
X117000000Y-61250000D01*
X155410000Y-54150000D02*
X155410000Y-56750000D01*
X98807500Y-54442500D02*
X98807500Y-46920000D01*
X120000000Y-50750000D02*
X121130000Y-49620000D01*
X98807500Y-54442500D02*
X105615000Y-61250000D01*
X120000000Y-58250000D02*
X120000000Y-50750000D01*
X117000000Y-61250000D02*
X120000000Y-58250000D01*
%TO.N,SW_1_3*%
X152870000Y-52610000D02*
X152870000Y-56750000D01*
X121750000Y-50250000D02*
X127000000Y-50250000D01*
X82477500Y-44250000D02*
X119250000Y-44250000D01*
X82250000Y-44477500D02*
X82477500Y-44250000D01*
X127000000Y-50250000D02*
X127120000Y-50370000D01*
X150630000Y-50370000D02*
X152870000Y-52610000D01*
X127120000Y-50370000D02*
X150630000Y-50370000D01*
X74537500Y-59500000D02*
X75500000Y-59500000D01*
X79807500Y-55192500D02*
X79807500Y-46920000D01*
X75500000Y-59500000D02*
X79807500Y-55192500D01*
X119250000Y-44250000D02*
X120250000Y-44250000D01*
X79807500Y-46920000D02*
X82250000Y-44477500D01*
X120250000Y-44250000D02*
X121750000Y-45750000D01*
X127064315Y-50370000D02*
X127120000Y-50370000D01*
%TO.N,SW_1_4*%
X119250000Y-43500000D02*
X120750000Y-43500000D01*
X60807500Y-46920000D02*
X64227500Y-43500000D01*
X149880000Y-50870000D02*
X150330000Y-51320000D01*
X127380000Y-50870000D02*
X149880000Y-50870000D01*
X64227500Y-43500000D02*
X119250000Y-43500000D01*
X150330000Y-51320000D02*
X150330000Y-56750000D01*
X56000000Y-59500000D02*
X60807500Y-54692500D01*
X127250000Y-51000000D02*
X127380000Y-50870000D01*
X123000000Y-51000000D02*
X127250000Y-51000000D01*
X55287500Y-59500000D02*
X56000000Y-59500000D01*
X60807500Y-54692500D02*
X60807500Y-46920000D01*
X120750000Y-43500000D02*
X123000000Y-45750000D01*
%TO.N,SW_2_1*%
X142710000Y-76040000D02*
X142710000Y-71990000D01*
X117807500Y-66920000D02*
X117807500Y-70307500D01*
X140250000Y-78500000D02*
X142710000Y-76040000D01*
X120750000Y-78500000D02*
X140250000Y-78500000D01*
X120000000Y-72500000D02*
X120000000Y-77750000D01*
X113887500Y-63000000D02*
X117807500Y-66920000D01*
X120000000Y-77750000D02*
X120750000Y-78500000D01*
X112287500Y-63000000D02*
X113887500Y-63000000D01*
X117807500Y-70307500D02*
X120000000Y-72500000D01*
%TO.N,SW_2_2*%
X109920000Y-66920000D02*
X112250000Y-69250000D01*
X93287500Y-63000000D02*
X94887500Y-63000000D01*
X115750000Y-69250000D02*
X119250000Y-72750000D01*
X143750000Y-79000000D02*
X145250000Y-77500000D01*
X119250000Y-72750000D02*
X119250000Y-78250000D01*
X94887500Y-63000000D02*
X98807500Y-66920000D01*
X120000000Y-79000000D02*
X143750000Y-79000000D01*
X145250000Y-77500000D02*
X145250000Y-71990000D01*
X112250000Y-69250000D02*
X115750000Y-69250000D01*
X119250000Y-78250000D02*
X120000000Y-79000000D01*
X98807500Y-66920000D02*
X109920000Y-66920000D01*
%TO.N,SW_2_3*%
X147790000Y-76710000D02*
X147790000Y-71990000D01*
X75887500Y-63000000D02*
X79807500Y-66920000D01*
X81000000Y-70000000D02*
X81000000Y-78250000D01*
X82250000Y-79500000D02*
X145000000Y-79500000D01*
X145000000Y-79500000D02*
X147790000Y-76710000D01*
X79807500Y-66920000D02*
X79807500Y-68807500D01*
X79807500Y-68807500D02*
X81000000Y-70000000D01*
X74287500Y-63000000D02*
X75887500Y-63000000D01*
X81000000Y-78250000D02*
X82250000Y-79500000D01*
%TO.N,SW_2_4*%
X146250000Y-80000000D02*
X150330000Y-75920000D01*
X150330000Y-75920000D02*
X150330000Y-71990000D01*
X63450000Y-80000000D02*
X146250000Y-80000000D01*
X56887500Y-63000000D02*
X60807500Y-66920000D01*
X63350000Y-79900000D02*
X63450000Y-80000000D01*
X63000000Y-80000000D02*
X63250000Y-80000000D01*
X60807500Y-66920000D02*
X60807500Y-68807500D01*
X63250000Y-80000000D02*
X63350000Y-79900000D01*
X55287500Y-63000000D02*
X56887500Y-63000000D01*
X60807500Y-68807500D02*
X62000000Y-70000000D01*
X62000000Y-79000000D02*
X63000000Y-80000000D01*
X62000000Y-70000000D02*
X62000000Y-79000000D01*
%TO.N,Net-(D1-DIN)*%
X126105000Y-66120000D02*
X125605000Y-65620000D01*
X125705000Y-62820000D02*
X125605000Y-62920000D01*
X123630000Y-61620000D02*
X121750000Y-61620000D01*
X128405000Y-66120000D02*
X128405000Y-62995000D01*
X124930000Y-62920000D02*
X123630000Y-61620000D01*
X128405000Y-62995000D02*
X128230000Y-62820000D01*
X128230000Y-62820000D02*
X125705000Y-62820000D01*
X125605000Y-65620000D02*
X125605000Y-62920000D01*
X128405000Y-66120000D02*
X126105000Y-66120000D01*
X125605000Y-62920000D02*
X124930000Y-62920000D01*
%TD*%
%TA.AperFunction,Conductor*%
%TO.N,GND*%
G36*
X154808363Y-42520185D02*
G01*
X154829005Y-42536819D01*
X159063181Y-46770995D01*
X159096666Y-46832318D01*
X159099500Y-46858676D01*
X159099500Y-54831664D01*
X159079815Y-54898703D01*
X159027011Y-54944458D01*
X158957853Y-54954402D01*
X158894297Y-54925377D01*
X158887819Y-54919345D01*
X158764648Y-54796174D01*
X158764647Y-54796173D01*
X158764646Y-54796172D01*
X158605405Y-54680476D01*
X158578199Y-54666614D01*
X158430029Y-54591117D01*
X158242826Y-54530290D01*
X158048422Y-54499500D01*
X158048417Y-54499500D01*
X157851583Y-54499500D01*
X157851576Y-54499500D01*
X157704340Y-54522819D01*
X157635047Y-54513864D01*
X157597262Y-54488027D01*
X151617590Y-48508355D01*
X151617588Y-48508352D01*
X151498717Y-48389481D01*
X151498716Y-48389480D01*
X151411904Y-48339360D01*
X151411904Y-48339359D01*
X151411900Y-48339358D01*
X151361785Y-48310423D01*
X151209057Y-48269499D01*
X151050943Y-48269499D01*
X151043347Y-48269499D01*
X151043331Y-48269500D01*
X145359758Y-48269500D01*
X145292719Y-48249815D01*
X145246964Y-48197011D01*
X145237020Y-48127853D01*
X145266045Y-48064297D01*
X145272077Y-48057819D01*
X145272524Y-48057372D01*
X145358495Y-47971401D01*
X145494035Y-47777830D01*
X145593903Y-47563663D01*
X145655063Y-47335408D01*
X145675659Y-47100000D01*
X145655063Y-46864592D01*
X145593903Y-46636337D01*
X145494035Y-46422171D01*
X145488425Y-46414158D01*
X145358494Y-46228597D01*
X145191402Y-46061506D01*
X145191395Y-46061501D01*
X144997834Y-45925967D01*
X144997830Y-45925965D01*
X144926727Y-45892809D01*
X144783663Y-45826097D01*
X144783659Y-45826096D01*
X144783655Y-45826094D01*
X144555413Y-45764938D01*
X144555403Y-45764936D01*
X144320001Y-45744341D01*
X144319999Y-45744341D01*
X144084596Y-45764936D01*
X144084586Y-45764938D01*
X143856344Y-45826094D01*
X143856335Y-45826098D01*
X143642171Y-45925964D01*
X143642169Y-45925965D01*
X143448597Y-46061505D01*
X143281505Y-46228597D01*
X143151575Y-46414158D01*
X143096998Y-46457783D01*
X143027500Y-46464977D01*
X142965145Y-46433454D01*
X142948425Y-46414158D01*
X142818494Y-46228597D01*
X142651402Y-46061506D01*
X142651395Y-46061501D01*
X142457834Y-45925967D01*
X142457830Y-45925965D01*
X142386727Y-45892809D01*
X142243663Y-45826097D01*
X142243659Y-45826096D01*
X142243655Y-45826094D01*
X142015413Y-45764938D01*
X142015403Y-45764936D01*
X141780001Y-45744341D01*
X141779999Y-45744341D01*
X141544596Y-45764936D01*
X141544586Y-45764938D01*
X141316344Y-45826094D01*
X141316335Y-45826098D01*
X141102171Y-45925964D01*
X141102169Y-45925965D01*
X140908597Y-46061505D01*
X140741505Y-46228597D01*
X140611575Y-46414158D01*
X140556998Y-46457783D01*
X140487500Y-46464977D01*
X140425145Y-46433454D01*
X140408425Y-46414158D01*
X140278494Y-46228597D01*
X140111402Y-46061506D01*
X140111395Y-46061501D01*
X139917834Y-45925967D01*
X139917830Y-45925965D01*
X139846727Y-45892809D01*
X139703663Y-45826097D01*
X139703659Y-45826096D01*
X139703655Y-45826094D01*
X139475413Y-45764938D01*
X139475403Y-45764936D01*
X139240001Y-45744341D01*
X139239999Y-45744341D01*
X139004596Y-45764936D01*
X139004586Y-45764938D01*
X138776344Y-45826094D01*
X138776335Y-45826098D01*
X138562171Y-45925964D01*
X138562169Y-45925965D01*
X138368600Y-46061503D01*
X138246284Y-46183819D01*
X138184961Y-46217303D01*
X138115269Y-46212319D01*
X138059336Y-46170447D01*
X138042421Y-46139470D01*
X137993354Y-46007913D01*
X137993350Y-46007906D01*
X137907190Y-45892812D01*
X137907187Y-45892809D01*
X137792093Y-45806649D01*
X137792086Y-45806645D01*
X137657379Y-45756403D01*
X137657372Y-45756401D01*
X137597844Y-45750000D01*
X136950000Y-45750000D01*
X136950000Y-46666988D01*
X136892993Y-46634075D01*
X136765826Y-46600000D01*
X136634174Y-46600000D01*
X136507007Y-46634075D01*
X136450000Y-46666988D01*
X136450000Y-45750000D01*
X135802155Y-45750000D01*
X135742627Y-45756401D01*
X135742620Y-45756403D01*
X135607913Y-45806645D01*
X135607906Y-45806649D01*
X135492812Y-45892809D01*
X135492809Y-45892812D01*
X135406649Y-46007906D01*
X135406645Y-46007913D01*
X135356403Y-46142620D01*
X135356401Y-46142627D01*
X135350000Y-46202155D01*
X135350000Y-46850000D01*
X136266988Y-46850000D01*
X136234075Y-46907007D01*
X136200000Y-47034174D01*
X136200000Y-47165826D01*
X136234075Y-47292993D01*
X136266988Y-47350000D01*
X135350000Y-47350000D01*
X135350000Y-47997844D01*
X135356401Y-48057372D01*
X135356402Y-48057376D01*
X135373108Y-48102166D01*
X135378092Y-48171858D01*
X135344607Y-48233181D01*
X135283284Y-48266666D01*
X135256926Y-48269500D01*
X126180097Y-48269500D01*
X126113058Y-48249815D01*
X126092416Y-48233181D01*
X124417590Y-46558355D01*
X124417588Y-46558352D01*
X124298717Y-46439481D01*
X124298716Y-46439480D01*
X124195374Y-46379816D01*
X124195373Y-46379815D01*
X124161783Y-46360422D01*
X124105881Y-46345443D01*
X124009057Y-46319499D01*
X123850943Y-46319499D01*
X123843347Y-46319499D01*
X123843331Y-46319500D01*
X123811929Y-46319500D01*
X123744890Y-46299815D01*
X123699135Y-46247011D01*
X123689191Y-46177853D01*
X123706936Y-46129527D01*
X123725788Y-46099524D01*
X123739091Y-46061506D01*
X123785368Y-45929255D01*
X123785739Y-45925967D01*
X123805565Y-45750000D01*
X123805565Y-45749996D01*
X123785369Y-45570750D01*
X123785368Y-45570745D01*
X123747104Y-45461392D01*
X123725789Y-45400478D01*
X123629816Y-45247738D01*
X123502262Y-45120184D01*
X123349521Y-45024210D01*
X123179249Y-44964630D01*
X123092331Y-44954837D01*
X123027917Y-44927770D01*
X123018534Y-44919298D01*
X121237590Y-43138355D01*
X121237588Y-43138352D01*
X121118717Y-43019481D01*
X121118716Y-43019480D01*
X121031904Y-42969360D01*
X121031904Y-42969359D01*
X121031900Y-42969358D01*
X120981785Y-42940423D01*
X120829057Y-42899499D01*
X120670943Y-42899499D01*
X120663347Y-42899499D01*
X120663331Y-42899500D01*
X64148440Y-42899500D01*
X64107519Y-42910464D01*
X64107519Y-42910465D01*
X64070251Y-42920451D01*
X63995714Y-42940423D01*
X63995709Y-42940426D01*
X63858790Y-43019475D01*
X63858782Y-43019481D01*
X63746978Y-43131286D01*
X61745082Y-45133181D01*
X61683759Y-45166666D01*
X61657401Y-45169500D01*
X59217129Y-45169500D01*
X59217123Y-45169501D01*
X59157516Y-45175908D01*
X59022671Y-45226202D01*
X59022664Y-45226206D01*
X58907455Y-45312452D01*
X58907452Y-45312455D01*
X58821206Y-45427664D01*
X58821202Y-45427671D01*
X58770908Y-45562517D01*
X58764501Y-45622116D01*
X58764501Y-45622123D01*
X58764500Y-45622135D01*
X58764500Y-46614848D01*
X58744815Y-46681887D01*
X58692011Y-46727642D01*
X58622853Y-46737586D01*
X58559297Y-46708561D01*
X58521523Y-46649783D01*
X58517561Y-46631033D01*
X58517157Y-46627967D01*
X58510548Y-46577762D01*
X58451158Y-46356113D01*
X58377320Y-46177853D01*
X58363349Y-46144123D01*
X58363346Y-46144117D01*
X58363344Y-46144112D01*
X58248611Y-45945388D01*
X58248608Y-45945385D01*
X58248607Y-45945382D01*
X58119860Y-45777598D01*
X58108919Y-45763339D01*
X58108918Y-45763338D01*
X58108911Y-45763330D01*
X57946670Y-45601089D01*
X57946661Y-45601081D01*
X57764617Y-45461392D01*
X57706210Y-45427671D01*
X57565888Y-45346656D01*
X57565876Y-45346650D01*
X57353887Y-45258842D01*
X57312442Y-45247737D01*
X57132238Y-45199452D01*
X57094215Y-45194446D01*
X56904741Y-45169500D01*
X56904734Y-45169500D01*
X56675266Y-45169500D01*
X56675258Y-45169500D01*
X56458715Y-45198009D01*
X56447762Y-45199452D01*
X56354076Y-45224554D01*
X56226112Y-45258842D01*
X56014123Y-45346650D01*
X56014109Y-45346657D01*
X55815382Y-45461392D01*
X55633338Y-45601081D01*
X55471081Y-45763338D01*
X55331392Y-45945382D01*
X55216657Y-46144109D01*
X55216650Y-46144123D01*
X55128842Y-46356112D01*
X55069453Y-46577759D01*
X55069451Y-46577770D01*
X55039500Y-46805258D01*
X55039500Y-47034741D01*
X55048961Y-47106597D01*
X55069452Y-47262238D01*
X55108242Y-47407007D01*
X55128842Y-47483887D01*
X55216650Y-47695876D01*
X55216657Y-47695890D01*
X55331392Y-47894617D01*
X55471081Y-48076661D01*
X55471089Y-48076670D01*
X55633330Y-48238911D01*
X55633338Y-48238918D01*
X55815382Y-48378607D01*
X55815385Y-48378608D01*
X55815388Y-48378611D01*
X56014112Y-48493344D01*
X56014117Y-48493346D01*
X56014123Y-48493349D01*
X56096678Y-48527544D01*
X56226113Y-48581158D01*
X56447762Y-48640548D01*
X56664312Y-48669057D01*
X56675250Y-48670498D01*
X56675266Y-48670500D01*
X56675273Y-48670500D01*
X56904727Y-48670500D01*
X56904734Y-48670500D01*
X57132238Y-48640548D01*
X57353887Y-48581158D01*
X57565888Y-48493344D01*
X57764612Y-48378611D01*
X57946661Y-48238919D01*
X57946665Y-48238914D01*
X57946670Y-48238911D01*
X58108911Y-48076670D01*
X58108914Y-48076665D01*
X58108919Y-48076661D01*
X58248611Y-47894612D01*
X58363344Y-47695888D01*
X58451158Y-47483887D01*
X58510548Y-47262238D01*
X58517561Y-47208964D01*
X58545827Y-47145069D01*
X58604151Y-47106597D01*
X58674016Y-47105765D01*
X58733239Y-47142837D01*
X58763019Y-47206043D01*
X58764500Y-47225150D01*
X58764500Y-48217870D01*
X58764501Y-48217876D01*
X58770908Y-48277483D01*
X58821202Y-48412328D01*
X58821206Y-48412335D01*
X58907452Y-48527544D01*
X58907455Y-48527547D01*
X59022664Y-48613793D01*
X59022671Y-48613797D01*
X59157517Y-48664091D01*
X59157516Y-48664091D01*
X59164444Y-48664835D01*
X59217127Y-48670500D01*
X60083000Y-48670499D01*
X60150039Y-48690183D01*
X60195794Y-48742987D01*
X60207000Y-48794499D01*
X60207000Y-51032408D01*
X60187315Y-51099447D01*
X60134511Y-51145202D01*
X60065353Y-51155146D01*
X60010115Y-51132726D01*
X59907263Y-51058000D01*
X59907262Y-51057999D01*
X59907260Y-51057998D01*
X59846969Y-51027278D01*
X59752791Y-50979291D01*
X59752788Y-50979290D01*
X59587913Y-50925720D01*
X59416687Y-50898600D01*
X59416682Y-50898600D01*
X59243318Y-50898600D01*
X59243313Y-50898600D01*
X59072086Y-50925720D01*
X58907211Y-50979290D01*
X58907208Y-50979291D01*
X58752739Y-51057998D01*
X58672719Y-51116136D01*
X58612486Y-51159899D01*
X58612484Y-51159901D01*
X58612483Y-51159901D01*
X58489901Y-51282483D01*
X58489901Y-51282484D01*
X58489899Y-51282486D01*
X58459231Y-51324697D01*
X58387998Y-51422739D01*
X58309291Y-51577208D01*
X58309290Y-51577211D01*
X58255720Y-51742086D01*
X58228600Y-51913312D01*
X58228600Y-52086687D01*
X58255720Y-52257913D01*
X58309290Y-52422788D01*
X58309291Y-52422791D01*
X58373728Y-52549254D01*
X58387998Y-52577260D01*
X58489899Y-52717514D01*
X58612486Y-52840101D01*
X58752740Y-52942002D01*
X58773171Y-52952412D01*
X58907208Y-53020708D01*
X58907211Y-53020709D01*
X58989648Y-53047494D01*
X59072088Y-53074280D01*
X59151391Y-53086840D01*
X59243313Y-53101400D01*
X59243318Y-53101400D01*
X59416687Y-53101400D01*
X59499695Y-53088252D01*
X59587912Y-53074280D01*
X59752791Y-53020708D01*
X59907260Y-52942002D01*
X60010116Y-52867272D01*
X60075920Y-52843793D01*
X60143974Y-52859618D01*
X60192669Y-52909723D01*
X60207000Y-52967591D01*
X60207000Y-54392402D01*
X60187315Y-54459441D01*
X60170681Y-54480083D01*
X56240186Y-58410577D01*
X56178863Y-58444062D01*
X56109171Y-58439078D01*
X56087414Y-58428437D01*
X55954464Y-58346434D01*
X55944336Y-58340187D01*
X55944331Y-58340185D01*
X55942862Y-58339698D01*
X55777797Y-58285001D01*
X55777795Y-58285000D01*
X55675010Y-58274500D01*
X54899998Y-58274500D01*
X54899980Y-58274501D01*
X54797203Y-58285000D01*
X54797200Y-58285001D01*
X54630668Y-58340185D01*
X54630663Y-58340187D01*
X54481342Y-58432289D01*
X54357288Y-58556343D01*
X54357283Y-58556349D01*
X54355241Y-58559661D01*
X54353247Y-58561453D01*
X54352807Y-58562011D01*
X54352711Y-58561935D01*
X54303291Y-58606383D01*
X54234328Y-58617602D01*
X54170247Y-58589755D01*
X54144168Y-58559656D01*
X54142319Y-58556659D01*
X54142316Y-58556655D01*
X54018345Y-58432684D01*
X53869124Y-58340643D01*
X53869119Y-58340641D01*
X53702697Y-58285494D01*
X53702690Y-58285493D01*
X53599986Y-58275000D01*
X53462500Y-58275000D01*
X53462500Y-60724999D01*
X53599972Y-60724999D01*
X53599986Y-60724998D01*
X53702697Y-60714505D01*
X53869119Y-60659358D01*
X53869124Y-60659356D01*
X54018345Y-60567315D01*
X54142318Y-60443342D01*
X54144165Y-60440348D01*
X54145969Y-60438724D01*
X54146798Y-60437677D01*
X54146976Y-60437818D01*
X54196110Y-60393621D01*
X54265073Y-60382396D01*
X54329156Y-60410236D01*
X54355243Y-60440341D01*
X54357288Y-60443656D01*
X54481344Y-60567712D01*
X54630666Y-60659814D01*
X54797203Y-60714999D01*
X54899991Y-60725500D01*
X55675008Y-60725499D01*
X55675016Y-60725498D01*
X55675019Y-60725498D01*
X55731302Y-60719748D01*
X55777797Y-60714999D01*
X55944334Y-60659814D01*
X56093656Y-60567712D01*
X56217712Y-60443656D01*
X56309814Y-60294334D01*
X56364999Y-60127797D01*
X56375500Y-60025009D01*
X56375500Y-60025004D01*
X56375501Y-60024986D01*
X71125001Y-60024986D01*
X71135494Y-60127697D01*
X71190641Y-60294119D01*
X71190643Y-60294124D01*
X71282684Y-60443345D01*
X71406654Y-60567315D01*
X71555875Y-60659356D01*
X71555880Y-60659358D01*
X71722302Y-60714505D01*
X71722309Y-60714506D01*
X71825019Y-60724999D01*
X71962499Y-60724999D01*
X71962500Y-60724998D01*
X71962500Y-59750000D01*
X71125001Y-59750000D01*
X71125001Y-60024986D01*
X56375501Y-60024986D01*
X56375660Y-60021860D01*
X56375820Y-60021868D01*
X56375821Y-60021867D01*
X56375844Y-60021869D01*
X56376448Y-60021900D01*
X56395162Y-59958093D01*
X56411819Y-59937416D01*
X56490722Y-59858514D01*
X56490729Y-59858504D01*
X57374221Y-58975013D01*
X71125000Y-58975013D01*
X71125000Y-59250000D01*
X71962500Y-59250000D01*
X71962500Y-58275000D01*
X71825027Y-58275000D01*
X71825012Y-58275001D01*
X71722302Y-58285494D01*
X71555880Y-58340641D01*
X71555875Y-58340643D01*
X71406654Y-58432684D01*
X71282684Y-58556654D01*
X71190643Y-58705875D01*
X71190641Y-58705880D01*
X71135494Y-58872302D01*
X71135493Y-58872309D01*
X71125000Y-58975013D01*
X57374221Y-58975013D01*
X61288020Y-55061216D01*
X61367077Y-54924284D01*
X61408001Y-54771557D01*
X61408001Y-54613442D01*
X61408001Y-54605847D01*
X61408000Y-54605829D01*
X61408000Y-50757844D01*
X63550000Y-50757844D01*
X63556401Y-50817372D01*
X63556403Y-50817379D01*
X63606645Y-50952086D01*
X63606649Y-50952093D01*
X63692809Y-51067187D01*
X63692812Y-51067190D01*
X63807906Y-51153350D01*
X63807913Y-51153354D01*
X63942620Y-51203596D01*
X63942627Y-51203598D01*
X64002155Y-51209999D01*
X64002172Y-51210000D01*
X65257500Y-51210000D01*
X65257500Y-49710000D01*
X63550000Y-49710000D01*
X63550000Y-50757844D01*
X61408000Y-50757844D01*
X61408000Y-48794499D01*
X61427685Y-48727460D01*
X61480489Y-48681705D01*
X61532000Y-48670499D01*
X62397871Y-48670499D01*
X62397872Y-48670499D01*
X62457483Y-48664091D01*
X62592331Y-48613796D01*
X62707546Y-48527546D01*
X62793796Y-48412331D01*
X62844091Y-48277483D01*
X62850500Y-48217873D01*
X62850500Y-48162155D01*
X63550000Y-48162155D01*
X63550000Y-49210000D01*
X65257500Y-49210000D01*
X65257500Y-47710000D01*
X65757500Y-47710000D01*
X65757500Y-51210000D01*
X67012828Y-51210000D01*
X67012844Y-51209999D01*
X67072372Y-51203598D01*
X67072383Y-51203595D01*
X67118768Y-51186295D01*
X67188459Y-51181310D01*
X67249783Y-51214794D01*
X67283268Y-51276117D01*
X67278284Y-51345809D01*
X67262420Y-51375361D01*
X67228000Y-51422736D01*
X67149291Y-51577208D01*
X67149290Y-51577211D01*
X67095720Y-51742086D01*
X67068600Y-51913312D01*
X67068600Y-52086687D01*
X67095720Y-52257913D01*
X67149290Y-52422788D01*
X67149291Y-52422791D01*
X67213728Y-52549254D01*
X67227998Y-52577260D01*
X67329899Y-52717514D01*
X67452486Y-52840101D01*
X67592740Y-52942002D01*
X67613171Y-52952412D01*
X67747208Y-53020708D01*
X67747211Y-53020709D01*
X67829648Y-53047494D01*
X67912088Y-53074280D01*
X67991391Y-53086840D01*
X68083313Y-53101400D01*
X68083318Y-53101400D01*
X68256687Y-53101400D01*
X68339695Y-53088252D01*
X68427912Y-53074280D01*
X68592791Y-53020708D01*
X68747260Y-52942002D01*
X68887514Y-52840101D01*
X69010101Y-52717514D01*
X69112002Y-52577260D01*
X69190708Y-52422791D01*
X69244280Y-52257912D01*
X69261831Y-52147099D01*
X69271400Y-52086687D01*
X69271400Y-51913312D01*
X69261831Y-51852900D01*
X71005600Y-51852900D01*
X71005600Y-52147099D01*
X71005601Y-52147116D01*
X71034944Y-52370003D01*
X71044002Y-52438800D01*
X71073598Y-52549255D01*
X71120152Y-52722994D01*
X71232734Y-52994794D01*
X71232742Y-52994810D01*
X71379840Y-53249589D01*
X71379851Y-53249605D01*
X71558948Y-53483009D01*
X71558954Y-53483016D01*
X71766983Y-53691045D01*
X71766990Y-53691051D01*
X71889181Y-53784811D01*
X72000403Y-53870155D01*
X72000410Y-53870159D01*
X72255189Y-54017257D01*
X72255205Y-54017265D01*
X72527005Y-54129847D01*
X72527007Y-54129847D01*
X72527013Y-54129850D01*
X72811200Y-54205998D01*
X73102894Y-54244400D01*
X73102901Y-54244400D01*
X73397099Y-54244400D01*
X73397106Y-54244400D01*
X73688800Y-54205998D01*
X73972987Y-54129850D01*
X74046318Y-54099475D01*
X74244794Y-54017265D01*
X74244797Y-54017263D01*
X74244803Y-54017261D01*
X74499597Y-53870155D01*
X74733011Y-53691050D01*
X74941050Y-53483011D01*
X75120155Y-53249597D01*
X75267261Y-52994803D01*
X75278533Y-52967591D01*
X75379847Y-52722994D01*
X75379846Y-52722994D01*
X75379850Y-52722987D01*
X75455998Y-52438800D01*
X75494400Y-52147106D01*
X75494400Y-51852894D01*
X75455998Y-51561200D01*
X75379850Y-51277013D01*
X75371412Y-51256642D01*
X75267265Y-51005205D01*
X75267257Y-51005189D01*
X75120159Y-50750410D01*
X75120155Y-50750403D01*
X75004380Y-50599522D01*
X74941051Y-50516990D01*
X74941045Y-50516983D01*
X74733016Y-50308954D01*
X74733009Y-50308948D01*
X74499605Y-50129851D01*
X74499603Y-50129849D01*
X74499597Y-50129845D01*
X74499592Y-50129842D01*
X74499589Y-50129840D01*
X74244810Y-49982742D01*
X74244794Y-49982734D01*
X73972994Y-49870152D01*
X73719544Y-49802240D01*
X73688800Y-49794002D01*
X73688799Y-49794001D01*
X73688796Y-49794001D01*
X73397116Y-49755601D01*
X73397111Y-49755600D01*
X73397106Y-49755600D01*
X73102894Y-49755600D01*
X73102888Y-49755600D01*
X73102883Y-49755601D01*
X72811203Y-49794001D01*
X72527005Y-49870152D01*
X72255205Y-49982734D01*
X72255189Y-49982742D01*
X72000410Y-50129840D01*
X72000394Y-50129851D01*
X71766990Y-50308948D01*
X71766983Y-50308954D01*
X71558954Y-50516983D01*
X71558948Y-50516990D01*
X71379851Y-50750394D01*
X71379840Y-50750410D01*
X71232742Y-51005189D01*
X71232734Y-51005205D01*
X71120152Y-51277005D01*
X71044001Y-51561203D01*
X71005601Y-51852883D01*
X71005600Y-51852900D01*
X69261831Y-51852900D01*
X69251135Y-51785368D01*
X69244280Y-51742088D01*
X69193120Y-51584632D01*
X69190709Y-51577211D01*
X69190708Y-51577208D01*
X69112001Y-51422738D01*
X69088580Y-51390503D01*
X69065099Y-51324697D01*
X69080924Y-51256642D01*
X69131029Y-51207947D01*
X69199507Y-51194071D01*
X69205068Y-51194675D01*
X69305874Y-51207947D01*
X69321460Y-51209999D01*
X69325266Y-51210500D01*
X69325273Y-51210500D01*
X69554727Y-51210500D01*
X69554734Y-51210500D01*
X69782238Y-51180548D01*
X70003887Y-51121158D01*
X70215888Y-51033344D01*
X70414612Y-50918611D01*
X70596661Y-50778919D01*
X70596665Y-50778914D01*
X70596670Y-50778911D01*
X70758911Y-50616670D01*
X70758914Y-50616665D01*
X70758919Y-50616661D01*
X70898611Y-50434612D01*
X71013344Y-50235888D01*
X71101158Y-50023887D01*
X71160548Y-49802238D01*
X71190500Y-49574734D01*
X71190500Y-49345266D01*
X71160548Y-49117762D01*
X71101158Y-48896113D01*
X71037731Y-48742987D01*
X71013349Y-48684123D01*
X71013346Y-48684117D01*
X71013344Y-48684112D01*
X70898611Y-48485388D01*
X70898608Y-48485385D01*
X70898607Y-48485382D01*
X70786558Y-48339359D01*
X70758919Y-48303339D01*
X70758918Y-48303338D01*
X70758911Y-48303330D01*
X70596670Y-48141089D01*
X70596661Y-48141081D01*
X70414617Y-48001392D01*
X70215890Y-47886657D01*
X70215876Y-47886650D01*
X70003887Y-47798842D01*
X69782238Y-47739452D01*
X69744215Y-47734446D01*
X69554741Y-47709500D01*
X69554734Y-47709500D01*
X69325266Y-47709500D01*
X69325258Y-47709500D01*
X69108715Y-47738009D01*
X69097762Y-47739452D01*
X69087443Y-47742217D01*
X68876112Y-47798842D01*
X68664123Y-47886650D01*
X68664109Y-47886657D01*
X68465382Y-48001392D01*
X68283338Y-48141081D01*
X68121081Y-48303338D01*
X67981392Y-48485382D01*
X67866657Y-48684109D01*
X67866650Y-48684123D01*
X67778842Y-48896112D01*
X67719453Y-49117759D01*
X67719451Y-49117770D01*
X67711939Y-49174828D01*
X67683672Y-49238724D01*
X67625347Y-49277195D01*
X67555483Y-49278026D01*
X67496260Y-49240954D01*
X67466481Y-49177748D01*
X67465000Y-49158642D01*
X67465000Y-48162172D01*
X67464999Y-48162155D01*
X67458598Y-48102627D01*
X67458596Y-48102620D01*
X67408354Y-47967913D01*
X67408350Y-47967906D01*
X67322190Y-47852812D01*
X67322187Y-47852809D01*
X67207093Y-47766649D01*
X67207086Y-47766645D01*
X67072379Y-47716403D01*
X67072372Y-47716401D01*
X67012844Y-47710000D01*
X65757500Y-47710000D01*
X65257500Y-47710000D01*
X64002155Y-47710000D01*
X63942627Y-47716401D01*
X63942620Y-47716403D01*
X63807913Y-47766645D01*
X63807906Y-47766649D01*
X63692812Y-47852809D01*
X63692809Y-47852812D01*
X63606649Y-47967906D01*
X63606645Y-47967913D01*
X63556403Y-48102620D01*
X63556401Y-48102627D01*
X63550000Y-48162155D01*
X62850500Y-48162155D01*
X62850499Y-45777596D01*
X62870184Y-45710558D01*
X62886818Y-45689916D01*
X64439916Y-44136819D01*
X64501239Y-44103334D01*
X64527597Y-44100500D01*
X81478402Y-44100500D01*
X81545441Y-44120185D01*
X81591196Y-44172989D01*
X81601140Y-44242147D01*
X81572115Y-44305703D01*
X81566083Y-44312181D01*
X80745082Y-45133181D01*
X80683759Y-45166666D01*
X80657401Y-45169500D01*
X78217129Y-45169500D01*
X78217123Y-45169501D01*
X78157516Y-45175908D01*
X78022671Y-45226202D01*
X78022664Y-45226206D01*
X77907455Y-45312452D01*
X77907452Y-45312455D01*
X77821206Y-45427664D01*
X77821202Y-45427671D01*
X77770908Y-45562517D01*
X77764501Y-45622116D01*
X77764501Y-45622123D01*
X77764500Y-45622135D01*
X77764500Y-46614848D01*
X77744815Y-46681887D01*
X77692011Y-46727642D01*
X77622853Y-46737586D01*
X77559297Y-46708561D01*
X77521523Y-46649783D01*
X77517561Y-46631033D01*
X77517157Y-46627967D01*
X77510548Y-46577762D01*
X77451158Y-46356113D01*
X77377320Y-46177853D01*
X77363349Y-46144123D01*
X77363346Y-46144117D01*
X77363344Y-46144112D01*
X77248611Y-45945388D01*
X77248608Y-45945385D01*
X77248607Y-45945382D01*
X77119860Y-45777598D01*
X77108919Y-45763339D01*
X77108918Y-45763338D01*
X77108911Y-45763330D01*
X76946670Y-45601089D01*
X76946661Y-45601081D01*
X76764617Y-45461392D01*
X76706210Y-45427671D01*
X76565888Y-45346656D01*
X76565876Y-45346650D01*
X76353887Y-45258842D01*
X76312442Y-45247737D01*
X76132238Y-45199452D01*
X76094215Y-45194446D01*
X75904741Y-45169500D01*
X75904734Y-45169500D01*
X75675266Y-45169500D01*
X75675258Y-45169500D01*
X75458715Y-45198009D01*
X75447762Y-45199452D01*
X75354076Y-45224554D01*
X75226112Y-45258842D01*
X75014123Y-45346650D01*
X75014109Y-45346657D01*
X74815382Y-45461392D01*
X74633338Y-45601081D01*
X74471081Y-45763338D01*
X74331392Y-45945382D01*
X74216657Y-46144109D01*
X74216650Y-46144123D01*
X74128842Y-46356112D01*
X74069453Y-46577759D01*
X74069451Y-46577770D01*
X74039500Y-46805258D01*
X74039500Y-47034741D01*
X74048961Y-47106597D01*
X74069452Y-47262238D01*
X74108242Y-47407007D01*
X74128842Y-47483887D01*
X74216650Y-47695876D01*
X74216657Y-47695890D01*
X74331392Y-47894617D01*
X74471081Y-48076661D01*
X74471089Y-48076670D01*
X74633330Y-48238911D01*
X74633338Y-48238918D01*
X74815382Y-48378607D01*
X74815385Y-48378608D01*
X74815388Y-48378611D01*
X75014112Y-48493344D01*
X75014117Y-48493346D01*
X75014123Y-48493349D01*
X75096678Y-48527544D01*
X75226113Y-48581158D01*
X75447762Y-48640548D01*
X75664312Y-48669057D01*
X75675250Y-48670498D01*
X75675266Y-48670500D01*
X75675273Y-48670500D01*
X75904727Y-48670500D01*
X75904734Y-48670500D01*
X76132238Y-48640548D01*
X76353887Y-48581158D01*
X76565888Y-48493344D01*
X76764612Y-48378611D01*
X76946661Y-48238919D01*
X76946665Y-48238914D01*
X76946670Y-48238911D01*
X77108911Y-48076670D01*
X77108914Y-48076665D01*
X77108919Y-48076661D01*
X77248611Y-47894612D01*
X77363344Y-47695888D01*
X77451158Y-47483887D01*
X77510548Y-47262238D01*
X77517561Y-47208964D01*
X77545827Y-47145069D01*
X77604151Y-47106597D01*
X77674016Y-47105765D01*
X77733239Y-47142837D01*
X77763019Y-47206043D01*
X77764500Y-47225150D01*
X77764500Y-48217870D01*
X77764501Y-48217876D01*
X77770908Y-48277483D01*
X77821202Y-48412328D01*
X77821206Y-48412335D01*
X77907452Y-48527544D01*
X77907455Y-48527547D01*
X78022664Y-48613793D01*
X78022671Y-48613797D01*
X78157517Y-48664091D01*
X78157516Y-48664091D01*
X78164444Y-48664835D01*
X78217127Y-48670500D01*
X79083000Y-48670499D01*
X79150039Y-48690183D01*
X79195794Y-48742987D01*
X79207000Y-48794499D01*
X79207000Y-51032408D01*
X79187315Y-51099447D01*
X79134511Y-51145202D01*
X79065353Y-51155146D01*
X79010115Y-51132726D01*
X78907263Y-51058000D01*
X78907262Y-51057999D01*
X78907260Y-51057998D01*
X78846969Y-51027278D01*
X78752791Y-50979291D01*
X78752788Y-50979290D01*
X78587913Y-50925720D01*
X78416687Y-50898600D01*
X78416682Y-50898600D01*
X78243318Y-50898600D01*
X78243313Y-50898600D01*
X78072086Y-50925720D01*
X77907211Y-50979290D01*
X77907208Y-50979291D01*
X77752739Y-51057998D01*
X77672719Y-51116136D01*
X77612486Y-51159899D01*
X77612484Y-51159901D01*
X77612483Y-51159901D01*
X77489901Y-51282483D01*
X77489901Y-51282484D01*
X77489899Y-51282486D01*
X77459231Y-51324697D01*
X77387998Y-51422739D01*
X77309291Y-51577208D01*
X77309290Y-51577211D01*
X77255720Y-51742086D01*
X77228600Y-51913312D01*
X77228600Y-52086687D01*
X77255720Y-52257913D01*
X77309290Y-52422788D01*
X77309291Y-52422791D01*
X77373728Y-52549254D01*
X77387998Y-52577260D01*
X77489899Y-52717514D01*
X77612486Y-52840101D01*
X77752740Y-52942002D01*
X77773171Y-52952412D01*
X77907208Y-53020708D01*
X77907211Y-53020709D01*
X77989648Y-53047494D01*
X78072088Y-53074280D01*
X78151391Y-53086840D01*
X78243313Y-53101400D01*
X78243318Y-53101400D01*
X78416687Y-53101400D01*
X78499695Y-53088252D01*
X78587912Y-53074280D01*
X78752791Y-53020708D01*
X78907260Y-52942002D01*
X79010116Y-52867272D01*
X79075920Y-52843793D01*
X79143974Y-52859618D01*
X79192669Y-52909723D01*
X79207000Y-52967591D01*
X79207000Y-54892402D01*
X79187315Y-54959441D01*
X79170681Y-54980083D01*
X75472315Y-58678448D01*
X75410992Y-58711933D01*
X75341300Y-58706949D01*
X75285367Y-58665077D01*
X75279095Y-58655863D01*
X75265976Y-58634594D01*
X75217712Y-58556344D01*
X75093656Y-58432288D01*
X74954464Y-58346434D01*
X74944336Y-58340187D01*
X74944331Y-58340185D01*
X74942862Y-58339698D01*
X74777797Y-58285001D01*
X74777795Y-58285000D01*
X74675010Y-58274500D01*
X73899998Y-58274500D01*
X73899980Y-58274501D01*
X73797203Y-58285000D01*
X73797200Y-58285001D01*
X73630668Y-58340185D01*
X73630663Y-58340187D01*
X73481342Y-58432289D01*
X73357288Y-58556343D01*
X73357283Y-58556349D01*
X73355241Y-58559661D01*
X73353247Y-58561453D01*
X73352807Y-58562011D01*
X73352711Y-58561935D01*
X73303291Y-58606383D01*
X73234328Y-58617602D01*
X73170247Y-58589755D01*
X73144168Y-58559656D01*
X73142319Y-58556659D01*
X73142316Y-58556655D01*
X73018345Y-58432684D01*
X72869124Y-58340643D01*
X72869119Y-58340641D01*
X72702697Y-58285494D01*
X72702690Y-58285493D01*
X72599986Y-58275000D01*
X72462500Y-58275000D01*
X72462500Y-60724999D01*
X72599972Y-60724999D01*
X72599986Y-60724998D01*
X72702697Y-60714505D01*
X72869119Y-60659358D01*
X72869124Y-60659356D01*
X73018345Y-60567315D01*
X73142318Y-60443342D01*
X73144165Y-60440348D01*
X73145969Y-60438724D01*
X73146798Y-60437677D01*
X73146976Y-60437818D01*
X73196110Y-60393621D01*
X73265073Y-60382396D01*
X73329156Y-60410236D01*
X73355243Y-60440341D01*
X73357288Y-60443656D01*
X73481344Y-60567712D01*
X73630666Y-60659814D01*
X73797203Y-60714999D01*
X73899991Y-60725500D01*
X74675008Y-60725499D01*
X74675016Y-60725498D01*
X74675019Y-60725498D01*
X74731302Y-60719748D01*
X74777797Y-60714999D01*
X74944334Y-60659814D01*
X75093656Y-60567712D01*
X75217712Y-60443656D01*
X75309814Y-60294334D01*
X75345879Y-60185496D01*
X75385652Y-60128052D01*
X75450168Y-60101229D01*
X75463585Y-60100501D01*
X75579054Y-60100501D01*
X75579057Y-60100501D01*
X75731785Y-60059577D01*
X75791660Y-60025008D01*
X75791698Y-60024986D01*
X90125001Y-60024986D01*
X90135494Y-60127697D01*
X90190641Y-60294119D01*
X90190643Y-60294124D01*
X90282684Y-60443345D01*
X90406654Y-60567315D01*
X90555875Y-60659356D01*
X90555880Y-60659358D01*
X90722302Y-60714505D01*
X90722309Y-60714506D01*
X90825019Y-60724999D01*
X90962499Y-60724999D01*
X90962500Y-60724998D01*
X90962500Y-59750000D01*
X90125001Y-59750000D01*
X90125001Y-60024986D01*
X75791698Y-60024986D01*
X75868716Y-59980520D01*
X75980520Y-59868716D01*
X75980520Y-59868714D01*
X75990724Y-59858511D01*
X75990728Y-59858506D01*
X76874221Y-58975013D01*
X90125000Y-58975013D01*
X90125000Y-59250000D01*
X90962500Y-59250000D01*
X90962500Y-58275000D01*
X90825027Y-58275000D01*
X90825012Y-58275001D01*
X90722302Y-58285494D01*
X90555880Y-58340641D01*
X90555875Y-58340643D01*
X90406654Y-58432684D01*
X90282684Y-58556654D01*
X90190643Y-58705875D01*
X90190641Y-58705880D01*
X90135494Y-58872302D01*
X90135493Y-58872309D01*
X90125000Y-58975013D01*
X76874221Y-58975013D01*
X80166006Y-55683228D01*
X80166011Y-55683224D01*
X80176214Y-55673020D01*
X80176216Y-55673020D01*
X80288020Y-55561216D01*
X80348088Y-55457174D01*
X80367077Y-55424285D01*
X80408001Y-55271557D01*
X80408001Y-55113443D01*
X80408001Y-55105848D01*
X80408000Y-55105830D01*
X80408000Y-50757844D01*
X82550000Y-50757844D01*
X82556401Y-50817372D01*
X82556403Y-50817379D01*
X82606645Y-50952086D01*
X82606649Y-50952093D01*
X82692809Y-51067187D01*
X82692812Y-51067190D01*
X82807906Y-51153350D01*
X82807913Y-51153354D01*
X82942620Y-51203596D01*
X82942627Y-51203598D01*
X83002155Y-51209999D01*
X83002172Y-51210000D01*
X84257500Y-51210000D01*
X84257500Y-49710000D01*
X82550000Y-49710000D01*
X82550000Y-50757844D01*
X80408000Y-50757844D01*
X80408000Y-48794499D01*
X80427685Y-48727460D01*
X80480489Y-48681705D01*
X80532000Y-48670499D01*
X81397871Y-48670499D01*
X81397872Y-48670499D01*
X81457483Y-48664091D01*
X81592331Y-48613796D01*
X81707546Y-48527546D01*
X81793796Y-48412331D01*
X81844091Y-48277483D01*
X81850500Y-48217873D01*
X81850500Y-48162155D01*
X82550000Y-48162155D01*
X82550000Y-49210000D01*
X84257500Y-49210000D01*
X84257500Y-47710000D01*
X84757500Y-47710000D01*
X84757500Y-51210000D01*
X86012828Y-51210000D01*
X86012844Y-51209999D01*
X86072372Y-51203598D01*
X86072383Y-51203595D01*
X86118768Y-51186295D01*
X86188459Y-51181310D01*
X86249783Y-51214794D01*
X86283268Y-51276117D01*
X86278284Y-51345809D01*
X86262420Y-51375361D01*
X86228000Y-51422736D01*
X86149291Y-51577208D01*
X86149290Y-51577211D01*
X86095720Y-51742086D01*
X86068600Y-51913312D01*
X86068600Y-52086687D01*
X86095720Y-52257913D01*
X86149290Y-52422788D01*
X86149291Y-52422791D01*
X86213728Y-52549254D01*
X86227998Y-52577260D01*
X86329899Y-52717514D01*
X86452486Y-52840101D01*
X86592740Y-52942002D01*
X86613171Y-52952412D01*
X86747208Y-53020708D01*
X86747211Y-53020709D01*
X86829648Y-53047494D01*
X86912088Y-53074280D01*
X86991391Y-53086840D01*
X87083313Y-53101400D01*
X87083318Y-53101400D01*
X87256687Y-53101400D01*
X87339695Y-53088252D01*
X87427912Y-53074280D01*
X87592791Y-53020708D01*
X87747260Y-52942002D01*
X87887514Y-52840101D01*
X88010101Y-52717514D01*
X88112002Y-52577260D01*
X88190708Y-52422791D01*
X88244280Y-52257912D01*
X88261831Y-52147099D01*
X88271400Y-52086687D01*
X88271400Y-51913312D01*
X88261831Y-51852900D01*
X90005600Y-51852900D01*
X90005600Y-52147099D01*
X90005601Y-52147116D01*
X90034944Y-52370003D01*
X90044002Y-52438800D01*
X90073598Y-52549255D01*
X90120152Y-52722994D01*
X90232734Y-52994794D01*
X90232742Y-52994810D01*
X90379840Y-53249589D01*
X90379851Y-53249605D01*
X90558948Y-53483009D01*
X90558954Y-53483016D01*
X90766983Y-53691045D01*
X90766990Y-53691051D01*
X90889181Y-53784811D01*
X91000403Y-53870155D01*
X91000410Y-53870159D01*
X91255189Y-54017257D01*
X91255205Y-54017265D01*
X91527005Y-54129847D01*
X91527007Y-54129847D01*
X91527013Y-54129850D01*
X91811200Y-54205998D01*
X92102894Y-54244400D01*
X92102901Y-54244400D01*
X92397099Y-54244400D01*
X92397106Y-54244400D01*
X92688800Y-54205998D01*
X92972987Y-54129850D01*
X93046318Y-54099475D01*
X93244794Y-54017265D01*
X93244797Y-54017263D01*
X93244803Y-54017261D01*
X93499597Y-53870155D01*
X93733011Y-53691050D01*
X93941050Y-53483011D01*
X94120155Y-53249597D01*
X94267261Y-52994803D01*
X94278533Y-52967591D01*
X94379847Y-52722994D01*
X94379846Y-52722994D01*
X94379850Y-52722987D01*
X94455998Y-52438800D01*
X94494400Y-52147106D01*
X94494400Y-51852894D01*
X94455998Y-51561200D01*
X94379850Y-51277013D01*
X94371412Y-51256642D01*
X94267265Y-51005205D01*
X94267257Y-51005189D01*
X94120159Y-50750410D01*
X94120155Y-50750403D01*
X94004380Y-50599522D01*
X93941051Y-50516990D01*
X93941045Y-50516983D01*
X93733016Y-50308954D01*
X93733009Y-50308948D01*
X93499605Y-50129851D01*
X93499603Y-50129849D01*
X93499597Y-50129845D01*
X93499592Y-50129842D01*
X93499589Y-50129840D01*
X93244810Y-49982742D01*
X93244794Y-49982734D01*
X92972994Y-49870152D01*
X92719544Y-49802240D01*
X92688800Y-49794002D01*
X92688799Y-49794001D01*
X92688796Y-49794001D01*
X92397116Y-49755601D01*
X92397111Y-49755600D01*
X92397106Y-49755600D01*
X92102894Y-49755600D01*
X92102888Y-49755600D01*
X92102883Y-49755601D01*
X91811203Y-49794001D01*
X91527005Y-49870152D01*
X91255205Y-49982734D01*
X91255189Y-49982742D01*
X91000410Y-50129840D01*
X91000394Y-50129851D01*
X90766990Y-50308948D01*
X90766983Y-50308954D01*
X90558954Y-50516983D01*
X90558948Y-50516990D01*
X90379851Y-50750394D01*
X90379840Y-50750410D01*
X90232742Y-51005189D01*
X90232734Y-51005205D01*
X90120152Y-51277005D01*
X90044001Y-51561203D01*
X90005601Y-51852883D01*
X90005600Y-51852900D01*
X88261831Y-51852900D01*
X88251135Y-51785368D01*
X88244280Y-51742088D01*
X88193120Y-51584632D01*
X88190709Y-51577211D01*
X88190708Y-51577208D01*
X88112001Y-51422738D01*
X88088580Y-51390503D01*
X88065099Y-51324697D01*
X88080924Y-51256642D01*
X88131029Y-51207947D01*
X88199507Y-51194071D01*
X88205068Y-51194675D01*
X88305874Y-51207947D01*
X88321460Y-51209999D01*
X88325266Y-51210500D01*
X88325273Y-51210500D01*
X88554727Y-51210500D01*
X88554734Y-51210500D01*
X88782238Y-51180548D01*
X89003887Y-51121158D01*
X89215888Y-51033344D01*
X89414612Y-50918611D01*
X89596661Y-50778919D01*
X89596665Y-50778914D01*
X89596670Y-50778911D01*
X89758911Y-50616670D01*
X89758914Y-50616665D01*
X89758919Y-50616661D01*
X89898611Y-50434612D01*
X90013344Y-50235888D01*
X90101158Y-50023887D01*
X90160548Y-49802238D01*
X90190500Y-49574734D01*
X90190500Y-49345266D01*
X90160548Y-49117762D01*
X90101158Y-48896113D01*
X90037731Y-48742987D01*
X90013349Y-48684123D01*
X90013346Y-48684117D01*
X90013344Y-48684112D01*
X89898611Y-48485388D01*
X89898608Y-48485385D01*
X89898607Y-48485382D01*
X89786558Y-48339359D01*
X89758919Y-48303339D01*
X89758918Y-48303338D01*
X89758911Y-48303330D01*
X89596670Y-48141089D01*
X89596661Y-48141081D01*
X89414617Y-48001392D01*
X89215890Y-47886657D01*
X89215876Y-47886650D01*
X89003887Y-47798842D01*
X88782238Y-47739452D01*
X88744215Y-47734446D01*
X88554741Y-47709500D01*
X88554734Y-47709500D01*
X88325266Y-47709500D01*
X88325258Y-47709500D01*
X88108715Y-47738009D01*
X88097762Y-47739452D01*
X88087443Y-47742217D01*
X87876112Y-47798842D01*
X87664123Y-47886650D01*
X87664109Y-47886657D01*
X87465382Y-48001392D01*
X87283338Y-48141081D01*
X87121081Y-48303338D01*
X86981392Y-48485382D01*
X86866657Y-48684109D01*
X86866650Y-48684123D01*
X86778842Y-48896112D01*
X86719453Y-49117759D01*
X86719451Y-49117770D01*
X86711939Y-49174828D01*
X86683672Y-49238724D01*
X86625347Y-49277195D01*
X86555483Y-49278026D01*
X86496260Y-49240954D01*
X86466481Y-49177748D01*
X86465000Y-49158642D01*
X86465000Y-48162172D01*
X86464999Y-48162155D01*
X86458598Y-48102627D01*
X86458596Y-48102620D01*
X86408354Y-47967913D01*
X86408350Y-47967906D01*
X86322190Y-47852812D01*
X86322187Y-47852809D01*
X86207093Y-47766649D01*
X86207086Y-47766645D01*
X86072379Y-47716403D01*
X86072372Y-47716401D01*
X86012844Y-47710000D01*
X84757500Y-47710000D01*
X84257500Y-47710000D01*
X83002155Y-47710000D01*
X82942627Y-47716401D01*
X82942620Y-47716403D01*
X82807913Y-47766645D01*
X82807906Y-47766649D01*
X82692812Y-47852809D01*
X82692809Y-47852812D01*
X82606649Y-47967906D01*
X82606645Y-47967913D01*
X82556403Y-48102620D01*
X82556401Y-48102627D01*
X82550000Y-48162155D01*
X81850500Y-48162155D01*
X81850499Y-45777597D01*
X81870184Y-45710559D01*
X81886818Y-45689917D01*
X82689917Y-44886819D01*
X82751240Y-44853334D01*
X82777598Y-44850500D01*
X119170943Y-44850500D01*
X119949903Y-44850500D01*
X120016942Y-44870185D01*
X120037584Y-44886819D01*
X120919298Y-45768533D01*
X120952783Y-45829856D01*
X120954837Y-45842330D01*
X120964630Y-45929249D01*
X121024211Y-46099523D01*
X121043064Y-46129527D01*
X121062065Y-46196764D01*
X121041698Y-46263599D01*
X120988430Y-46308814D01*
X120938071Y-46319500D01*
X119974499Y-46319500D01*
X119907460Y-46299815D01*
X119861705Y-46247011D01*
X119850499Y-46195500D01*
X119850499Y-45622129D01*
X119850498Y-45622123D01*
X119850497Y-45622116D01*
X119844976Y-45570750D01*
X119844091Y-45562516D01*
X119793797Y-45427671D01*
X119793793Y-45427664D01*
X119707547Y-45312455D01*
X119707544Y-45312452D01*
X119592335Y-45226206D01*
X119592328Y-45226202D01*
X119457482Y-45175908D01*
X119457483Y-45175908D01*
X119397883Y-45169501D01*
X119397881Y-45169500D01*
X119397873Y-45169500D01*
X119397864Y-45169500D01*
X116217129Y-45169500D01*
X116217123Y-45169501D01*
X116157516Y-45175908D01*
X116022671Y-45226202D01*
X116022664Y-45226206D01*
X115907455Y-45312452D01*
X115907452Y-45312455D01*
X115821206Y-45427664D01*
X115821202Y-45427671D01*
X115770908Y-45562517D01*
X115764501Y-45622116D01*
X115764501Y-45622123D01*
X115764500Y-45622135D01*
X115764500Y-46614848D01*
X115744815Y-46681887D01*
X115692011Y-46727642D01*
X115622853Y-46737586D01*
X115559297Y-46708561D01*
X115521523Y-46649783D01*
X115517561Y-46631033D01*
X115517157Y-46627967D01*
X115510548Y-46577762D01*
X115451158Y-46356113D01*
X115377320Y-46177853D01*
X115363349Y-46144123D01*
X115363346Y-46144117D01*
X115363344Y-46144112D01*
X115248611Y-45945388D01*
X115248608Y-45945385D01*
X115248607Y-45945382D01*
X115119860Y-45777598D01*
X115108919Y-45763339D01*
X115108918Y-45763338D01*
X115108911Y-45763330D01*
X114946670Y-45601089D01*
X114946661Y-45601081D01*
X114764617Y-45461392D01*
X114706210Y-45427671D01*
X114565888Y-45346656D01*
X114565876Y-45346650D01*
X114353887Y-45258842D01*
X114312442Y-45247737D01*
X114132238Y-45199452D01*
X114094215Y-45194446D01*
X113904741Y-45169500D01*
X113904734Y-45169500D01*
X113675266Y-45169500D01*
X113675258Y-45169500D01*
X113458715Y-45198009D01*
X113447762Y-45199452D01*
X113354076Y-45224554D01*
X113226112Y-45258842D01*
X113014123Y-45346650D01*
X113014109Y-45346657D01*
X112815382Y-45461392D01*
X112633338Y-45601081D01*
X112471081Y-45763338D01*
X112331392Y-45945382D01*
X112216657Y-46144109D01*
X112216650Y-46144123D01*
X112128842Y-46356112D01*
X112069453Y-46577759D01*
X112069451Y-46577770D01*
X112039500Y-46805258D01*
X112039500Y-47034741D01*
X112048961Y-47106597D01*
X112069452Y-47262238D01*
X112108242Y-47407007D01*
X112128842Y-47483887D01*
X112216650Y-47695876D01*
X112216657Y-47695890D01*
X112331392Y-47894617D01*
X112471081Y-48076661D01*
X112471089Y-48076670D01*
X112633330Y-48238911D01*
X112633338Y-48238918D01*
X112815382Y-48378607D01*
X112815385Y-48378608D01*
X112815388Y-48378611D01*
X113014112Y-48493344D01*
X113014117Y-48493346D01*
X113014123Y-48493349D01*
X113096678Y-48527544D01*
X113226113Y-48581158D01*
X113447762Y-48640548D01*
X113664312Y-48669057D01*
X113675250Y-48670498D01*
X113675266Y-48670500D01*
X113675273Y-48670500D01*
X113904727Y-48670500D01*
X113904734Y-48670500D01*
X114132238Y-48640548D01*
X114353887Y-48581158D01*
X114565888Y-48493344D01*
X114764612Y-48378611D01*
X114946661Y-48238919D01*
X114946665Y-48238914D01*
X114946670Y-48238911D01*
X115108911Y-48076670D01*
X115108914Y-48076665D01*
X115108919Y-48076661D01*
X115248611Y-47894612D01*
X115363344Y-47695888D01*
X115451158Y-47483887D01*
X115510548Y-47262238D01*
X115517561Y-47208964D01*
X115545827Y-47145069D01*
X115604151Y-47106597D01*
X115674016Y-47105765D01*
X115733239Y-47142837D01*
X115763019Y-47206043D01*
X115764500Y-47225150D01*
X115764500Y-48217870D01*
X115764501Y-48217876D01*
X115770908Y-48277483D01*
X115821202Y-48412328D01*
X115821206Y-48412335D01*
X115907452Y-48527544D01*
X115907455Y-48527547D01*
X116022664Y-48613793D01*
X116022671Y-48613797D01*
X116157517Y-48664091D01*
X116157516Y-48664091D01*
X116164444Y-48664835D01*
X116217127Y-48670500D01*
X117083000Y-48670499D01*
X117150039Y-48690183D01*
X117195794Y-48742987D01*
X117207000Y-48794499D01*
X117207000Y-51032408D01*
X117187315Y-51099447D01*
X117134511Y-51145202D01*
X117065353Y-51155146D01*
X117010115Y-51132726D01*
X116907263Y-51058000D01*
X116907262Y-51057999D01*
X116907260Y-51057998D01*
X116846969Y-51027278D01*
X116752791Y-50979291D01*
X116752788Y-50979290D01*
X116587913Y-50925720D01*
X116416687Y-50898600D01*
X116416682Y-50898600D01*
X116243318Y-50898600D01*
X116243313Y-50898600D01*
X116072086Y-50925720D01*
X115907211Y-50979290D01*
X115907208Y-50979291D01*
X115752739Y-51057998D01*
X115672719Y-51116136D01*
X115612486Y-51159899D01*
X115612484Y-51159901D01*
X115612483Y-51159901D01*
X115489901Y-51282483D01*
X115489901Y-51282484D01*
X115489899Y-51282486D01*
X115459231Y-51324697D01*
X115387998Y-51422739D01*
X115309291Y-51577208D01*
X115309290Y-51577211D01*
X115255720Y-51742086D01*
X115228600Y-51913312D01*
X115228600Y-52086687D01*
X115255720Y-52257913D01*
X115309290Y-52422788D01*
X115309291Y-52422791D01*
X115373728Y-52549254D01*
X115387998Y-52577260D01*
X115489899Y-52717514D01*
X115612486Y-52840101D01*
X115752740Y-52942002D01*
X115773171Y-52952412D01*
X115907208Y-53020708D01*
X115907211Y-53020709D01*
X115989648Y-53047494D01*
X116072088Y-53074280D01*
X116151391Y-53086840D01*
X116243313Y-53101400D01*
X116243318Y-53101400D01*
X116416687Y-53101400D01*
X116499695Y-53088252D01*
X116587912Y-53074280D01*
X116752791Y-53020708D01*
X116907260Y-52942002D01*
X117010116Y-52867272D01*
X117075920Y-52843793D01*
X117143974Y-52859618D01*
X117192669Y-52909723D01*
X117207000Y-52967591D01*
X117207000Y-55142402D01*
X117187315Y-55209441D01*
X117170681Y-55230083D01*
X113472315Y-58928448D01*
X113410992Y-58961933D01*
X113341300Y-58956949D01*
X113285367Y-58915077D01*
X113279095Y-58905863D01*
X113259491Y-58874080D01*
X113217712Y-58806344D01*
X113093656Y-58682288D01*
X112944334Y-58590186D01*
X112777797Y-58535001D01*
X112777795Y-58535000D01*
X112675010Y-58524500D01*
X111899998Y-58524500D01*
X111899980Y-58524501D01*
X111797203Y-58535000D01*
X111797200Y-58535001D01*
X111630668Y-58590185D01*
X111630663Y-58590187D01*
X111481342Y-58682289D01*
X111357288Y-58806343D01*
X111357283Y-58806349D01*
X111355241Y-58809661D01*
X111353247Y-58811453D01*
X111352807Y-58812011D01*
X111352711Y-58811935D01*
X111303291Y-58856383D01*
X111234328Y-58867602D01*
X111170247Y-58839755D01*
X111144168Y-58809656D01*
X111142319Y-58806659D01*
X111142316Y-58806655D01*
X111018345Y-58682684D01*
X110869124Y-58590643D01*
X110869119Y-58590641D01*
X110702697Y-58535494D01*
X110702690Y-58535493D01*
X110599986Y-58525000D01*
X110462500Y-58525000D01*
X110462500Y-59876000D01*
X110442815Y-59943039D01*
X110390011Y-59988794D01*
X110338500Y-60000000D01*
X109125001Y-60000000D01*
X109125001Y-60274986D01*
X109135494Y-60377697D01*
X109171547Y-60486496D01*
X109173949Y-60556324D01*
X109138217Y-60616366D01*
X109075697Y-60647559D01*
X109053841Y-60649500D01*
X105915097Y-60649500D01*
X105848058Y-60629815D01*
X105827416Y-60613181D01*
X104439248Y-59225013D01*
X109125000Y-59225013D01*
X109125000Y-59500000D01*
X109962500Y-59500000D01*
X109962500Y-58525000D01*
X109825027Y-58525000D01*
X109825012Y-58525001D01*
X109722302Y-58535494D01*
X109555880Y-58590641D01*
X109555875Y-58590643D01*
X109406654Y-58682684D01*
X109282684Y-58806654D01*
X109190643Y-58955875D01*
X109190641Y-58955880D01*
X109135494Y-59122302D01*
X109135493Y-59122309D01*
X109125000Y-59225013D01*
X104439248Y-59225013D01*
X99444319Y-54230084D01*
X99410834Y-54168761D01*
X99408000Y-54142403D01*
X99408000Y-50757844D01*
X101550000Y-50757844D01*
X101556401Y-50817372D01*
X101556403Y-50817379D01*
X101606645Y-50952086D01*
X101606649Y-50952093D01*
X101692809Y-51067187D01*
X101692812Y-51067190D01*
X101807906Y-51153350D01*
X101807913Y-51153354D01*
X101942620Y-51203596D01*
X101942627Y-51203598D01*
X102002155Y-51209999D01*
X102002172Y-51210000D01*
X103257500Y-51210000D01*
X103257500Y-49710000D01*
X101550000Y-49710000D01*
X101550000Y-50757844D01*
X99408000Y-50757844D01*
X99408000Y-48794499D01*
X99427685Y-48727460D01*
X99480489Y-48681705D01*
X99532000Y-48670499D01*
X100397871Y-48670499D01*
X100397872Y-48670499D01*
X100457483Y-48664091D01*
X100592331Y-48613796D01*
X100707546Y-48527546D01*
X100793796Y-48412331D01*
X100844091Y-48277483D01*
X100850500Y-48217873D01*
X100850500Y-48162155D01*
X101550000Y-48162155D01*
X101550000Y-49210000D01*
X103257500Y-49210000D01*
X103257500Y-47710000D01*
X103757500Y-47710000D01*
X103757500Y-51210000D01*
X105012828Y-51210000D01*
X105012844Y-51209999D01*
X105072372Y-51203598D01*
X105072383Y-51203595D01*
X105118768Y-51186295D01*
X105188459Y-51181310D01*
X105249783Y-51214794D01*
X105283268Y-51276117D01*
X105278284Y-51345809D01*
X105262420Y-51375361D01*
X105228000Y-51422736D01*
X105149291Y-51577208D01*
X105149290Y-51577211D01*
X105095720Y-51742086D01*
X105068600Y-51913312D01*
X105068600Y-52086687D01*
X105095720Y-52257913D01*
X105149290Y-52422788D01*
X105149291Y-52422791D01*
X105213728Y-52549254D01*
X105227998Y-52577260D01*
X105329899Y-52717514D01*
X105452486Y-52840101D01*
X105592740Y-52942002D01*
X105613171Y-52952412D01*
X105747208Y-53020708D01*
X105747211Y-53020709D01*
X105829648Y-53047494D01*
X105912088Y-53074280D01*
X105991391Y-53086840D01*
X106083313Y-53101400D01*
X106083318Y-53101400D01*
X106256687Y-53101400D01*
X106339695Y-53088252D01*
X106427912Y-53074280D01*
X106592791Y-53020708D01*
X106747260Y-52942002D01*
X106887514Y-52840101D01*
X107010101Y-52717514D01*
X107112002Y-52577260D01*
X107190708Y-52422791D01*
X107244280Y-52257912D01*
X107261831Y-52147099D01*
X107271400Y-52086687D01*
X107271400Y-51913312D01*
X107261831Y-51852900D01*
X109005600Y-51852900D01*
X109005600Y-52147099D01*
X109005601Y-52147116D01*
X109034944Y-52370003D01*
X109044002Y-52438800D01*
X109073598Y-52549255D01*
X109120152Y-52722994D01*
X109232734Y-52994794D01*
X109232742Y-52994810D01*
X109379840Y-53249589D01*
X109379851Y-53249605D01*
X109558948Y-53483009D01*
X109558954Y-53483016D01*
X109766983Y-53691045D01*
X109766990Y-53691051D01*
X109889181Y-53784811D01*
X110000403Y-53870155D01*
X110000410Y-53870159D01*
X110255189Y-54017257D01*
X110255205Y-54017265D01*
X110527005Y-54129847D01*
X110527007Y-54129847D01*
X110527013Y-54129850D01*
X110811200Y-54205998D01*
X111102894Y-54244400D01*
X111102901Y-54244400D01*
X111397099Y-54244400D01*
X111397106Y-54244400D01*
X111688800Y-54205998D01*
X111972987Y-54129850D01*
X112046318Y-54099475D01*
X112244794Y-54017265D01*
X112244797Y-54017263D01*
X112244803Y-54017261D01*
X112499597Y-53870155D01*
X112733011Y-53691050D01*
X112941050Y-53483011D01*
X113120155Y-53249597D01*
X113267261Y-52994803D01*
X113278533Y-52967591D01*
X113379847Y-52722994D01*
X113379846Y-52722994D01*
X113379850Y-52722987D01*
X113455998Y-52438800D01*
X113494400Y-52147106D01*
X113494400Y-51852894D01*
X113455998Y-51561200D01*
X113379850Y-51277013D01*
X113371412Y-51256642D01*
X113267265Y-51005205D01*
X113267257Y-51005189D01*
X113120159Y-50750410D01*
X113120155Y-50750403D01*
X113004380Y-50599522D01*
X112941051Y-50516990D01*
X112941045Y-50516983D01*
X112733016Y-50308954D01*
X112733009Y-50308948D01*
X112499605Y-50129851D01*
X112499603Y-50129849D01*
X112499597Y-50129845D01*
X112499592Y-50129842D01*
X112499589Y-50129840D01*
X112244810Y-49982742D01*
X112244794Y-49982734D01*
X111972994Y-49870152D01*
X111719544Y-49802240D01*
X111688800Y-49794002D01*
X111688799Y-49794001D01*
X111688796Y-49794001D01*
X111397116Y-49755601D01*
X111397111Y-49755600D01*
X111397106Y-49755600D01*
X111102894Y-49755600D01*
X111102888Y-49755600D01*
X111102883Y-49755601D01*
X110811203Y-49794001D01*
X110527005Y-49870152D01*
X110255205Y-49982734D01*
X110255189Y-49982742D01*
X110000410Y-50129840D01*
X110000394Y-50129851D01*
X109766990Y-50308948D01*
X109766983Y-50308954D01*
X109558954Y-50516983D01*
X109558948Y-50516990D01*
X109379851Y-50750394D01*
X109379840Y-50750410D01*
X109232742Y-51005189D01*
X109232734Y-51005205D01*
X109120152Y-51277005D01*
X109044001Y-51561203D01*
X109005601Y-51852883D01*
X109005600Y-51852900D01*
X107261831Y-51852900D01*
X107251135Y-51785368D01*
X107244280Y-51742088D01*
X107193120Y-51584632D01*
X107190709Y-51577211D01*
X107190708Y-51577208D01*
X107112001Y-51422738D01*
X107088580Y-51390503D01*
X107065099Y-51324697D01*
X107080924Y-51256642D01*
X107131029Y-51207947D01*
X107199507Y-51194071D01*
X107205068Y-51194675D01*
X107305874Y-51207947D01*
X107321460Y-51209999D01*
X107325266Y-51210500D01*
X107325273Y-51210500D01*
X107554727Y-51210500D01*
X107554734Y-51210500D01*
X107782238Y-51180548D01*
X108003887Y-51121158D01*
X108215888Y-51033344D01*
X108414612Y-50918611D01*
X108596661Y-50778919D01*
X108596665Y-50778914D01*
X108596670Y-50778911D01*
X108758911Y-50616670D01*
X108758914Y-50616665D01*
X108758919Y-50616661D01*
X108898611Y-50434612D01*
X109013344Y-50235888D01*
X109101158Y-50023887D01*
X109160548Y-49802238D01*
X109190500Y-49574734D01*
X109190500Y-49345266D01*
X109160548Y-49117762D01*
X109101158Y-48896113D01*
X109037731Y-48742987D01*
X109013349Y-48684123D01*
X109013346Y-48684117D01*
X109013344Y-48684112D01*
X108898611Y-48485388D01*
X108898608Y-48485385D01*
X108898607Y-48485382D01*
X108786558Y-48339359D01*
X108758919Y-48303339D01*
X108758918Y-48303338D01*
X108758911Y-48303330D01*
X108596670Y-48141089D01*
X108596661Y-48141081D01*
X108414617Y-48001392D01*
X108215890Y-47886657D01*
X108215876Y-47886650D01*
X108003887Y-47798842D01*
X107782238Y-47739452D01*
X107744215Y-47734446D01*
X107554741Y-47709500D01*
X107554734Y-47709500D01*
X107325266Y-47709500D01*
X107325258Y-47709500D01*
X107108715Y-47738009D01*
X107097762Y-47739452D01*
X107087443Y-47742217D01*
X106876112Y-47798842D01*
X106664123Y-47886650D01*
X106664109Y-47886657D01*
X106465382Y-48001392D01*
X106283338Y-48141081D01*
X106121081Y-48303338D01*
X105981392Y-48485382D01*
X105866657Y-48684109D01*
X105866650Y-48684123D01*
X105778842Y-48896112D01*
X105719453Y-49117759D01*
X105719451Y-49117770D01*
X105711939Y-49174828D01*
X105683672Y-49238724D01*
X105625347Y-49277195D01*
X105555483Y-49278026D01*
X105496260Y-49240954D01*
X105466481Y-49177748D01*
X105465000Y-49158642D01*
X105465000Y-48162172D01*
X105464999Y-48162155D01*
X105458598Y-48102627D01*
X105458596Y-48102620D01*
X105408354Y-47967913D01*
X105408350Y-47967906D01*
X105322190Y-47852812D01*
X105322187Y-47852809D01*
X105207093Y-47766649D01*
X105207086Y-47766645D01*
X105072379Y-47716403D01*
X105072372Y-47716401D01*
X105012844Y-47710000D01*
X103757500Y-47710000D01*
X103257500Y-47710000D01*
X102002155Y-47710000D01*
X101942627Y-47716401D01*
X101942620Y-47716403D01*
X101807913Y-47766645D01*
X101807906Y-47766649D01*
X101692812Y-47852809D01*
X101692809Y-47852812D01*
X101606649Y-47967906D01*
X101606645Y-47967913D01*
X101556403Y-48102620D01*
X101556401Y-48102627D01*
X101550000Y-48162155D01*
X100850500Y-48162155D01*
X100850499Y-45622128D01*
X100844976Y-45570750D01*
X100844091Y-45562516D01*
X100793797Y-45427671D01*
X100793793Y-45427664D01*
X100707547Y-45312455D01*
X100707544Y-45312452D01*
X100592335Y-45226206D01*
X100592328Y-45226202D01*
X100457482Y-45175908D01*
X100457483Y-45175908D01*
X100397883Y-45169501D01*
X100397881Y-45169500D01*
X100397873Y-45169500D01*
X100397864Y-45169500D01*
X97217129Y-45169500D01*
X97217123Y-45169501D01*
X97157516Y-45175908D01*
X97022671Y-45226202D01*
X97022664Y-45226206D01*
X96907455Y-45312452D01*
X96907452Y-45312455D01*
X96821206Y-45427664D01*
X96821202Y-45427671D01*
X96770908Y-45562517D01*
X96764501Y-45622116D01*
X96764501Y-45622123D01*
X96764500Y-45622135D01*
X96764500Y-46614848D01*
X96744815Y-46681887D01*
X96692011Y-46727642D01*
X96622853Y-46737586D01*
X96559297Y-46708561D01*
X96521523Y-46649783D01*
X96517561Y-46631033D01*
X96517157Y-46627967D01*
X96510548Y-46577762D01*
X96451158Y-46356113D01*
X96377320Y-46177853D01*
X96363349Y-46144123D01*
X96363346Y-46144117D01*
X96363344Y-46144112D01*
X96248611Y-45945388D01*
X96248608Y-45945385D01*
X96248607Y-45945382D01*
X96119860Y-45777598D01*
X96108919Y-45763339D01*
X96108918Y-45763338D01*
X96108911Y-45763330D01*
X95946670Y-45601089D01*
X95946661Y-45601081D01*
X95764617Y-45461392D01*
X95706210Y-45427671D01*
X95565888Y-45346656D01*
X95565876Y-45346650D01*
X95353887Y-45258842D01*
X95312442Y-45247737D01*
X95132238Y-45199452D01*
X95094215Y-45194446D01*
X94904741Y-45169500D01*
X94904734Y-45169500D01*
X94675266Y-45169500D01*
X94675258Y-45169500D01*
X94458715Y-45198009D01*
X94447762Y-45199452D01*
X94354076Y-45224554D01*
X94226112Y-45258842D01*
X94014123Y-45346650D01*
X94014109Y-45346657D01*
X93815382Y-45461392D01*
X93633338Y-45601081D01*
X93471081Y-45763338D01*
X93331392Y-45945382D01*
X93216657Y-46144109D01*
X93216650Y-46144123D01*
X93128842Y-46356112D01*
X93069453Y-46577759D01*
X93069451Y-46577770D01*
X93039500Y-46805258D01*
X93039500Y-47034741D01*
X93048961Y-47106597D01*
X93069452Y-47262238D01*
X93108242Y-47407007D01*
X93128842Y-47483887D01*
X93216650Y-47695876D01*
X93216657Y-47695890D01*
X93331392Y-47894617D01*
X93471081Y-48076661D01*
X93471089Y-48076670D01*
X93633330Y-48238911D01*
X93633338Y-48238918D01*
X93815382Y-48378607D01*
X93815385Y-48378608D01*
X93815388Y-48378611D01*
X94014112Y-48493344D01*
X94014117Y-48493346D01*
X94014123Y-48493349D01*
X94096678Y-48527544D01*
X94226113Y-48581158D01*
X94447762Y-48640548D01*
X94664312Y-48669057D01*
X94675250Y-48670498D01*
X94675266Y-48670500D01*
X94675273Y-48670500D01*
X94904727Y-48670500D01*
X94904734Y-48670500D01*
X95132238Y-48640548D01*
X95353887Y-48581158D01*
X95565888Y-48493344D01*
X95764612Y-48378611D01*
X95946661Y-48238919D01*
X95946665Y-48238914D01*
X95946670Y-48238911D01*
X96108911Y-48076670D01*
X96108914Y-48076665D01*
X96108919Y-48076661D01*
X96248611Y-47894612D01*
X96363344Y-47695888D01*
X96451158Y-47483887D01*
X96510548Y-47262238D01*
X96517561Y-47208964D01*
X96545827Y-47145069D01*
X96604151Y-47106597D01*
X96674016Y-47105765D01*
X96733239Y-47142837D01*
X96763019Y-47206043D01*
X96764500Y-47225150D01*
X96764500Y-48217870D01*
X96764501Y-48217876D01*
X96770908Y-48277483D01*
X96821202Y-48412328D01*
X96821206Y-48412335D01*
X96907452Y-48527544D01*
X96907455Y-48527547D01*
X97022664Y-48613793D01*
X97022671Y-48613797D01*
X97157517Y-48664091D01*
X97157516Y-48664091D01*
X97164444Y-48664835D01*
X97217127Y-48670500D01*
X98083000Y-48670499D01*
X98150039Y-48690183D01*
X98195794Y-48742987D01*
X98207000Y-48794499D01*
X98207000Y-51032408D01*
X98187315Y-51099447D01*
X98134511Y-51145202D01*
X98065353Y-51155146D01*
X98010115Y-51132726D01*
X97907263Y-51058000D01*
X97907262Y-51057999D01*
X97907260Y-51057998D01*
X97846969Y-51027278D01*
X97752791Y-50979291D01*
X97752788Y-50979290D01*
X97587913Y-50925720D01*
X97416687Y-50898600D01*
X97416682Y-50898600D01*
X97243318Y-50898600D01*
X97243313Y-50898600D01*
X97072086Y-50925720D01*
X96907211Y-50979290D01*
X96907208Y-50979291D01*
X96752739Y-51057998D01*
X96672719Y-51116136D01*
X96612486Y-51159899D01*
X96612484Y-51159901D01*
X96612483Y-51159901D01*
X96489901Y-51282483D01*
X96489901Y-51282484D01*
X96489899Y-51282486D01*
X96459231Y-51324697D01*
X96387998Y-51422739D01*
X96309291Y-51577208D01*
X96309290Y-51577211D01*
X96255720Y-51742086D01*
X96228600Y-51913312D01*
X96228600Y-52086687D01*
X96255720Y-52257913D01*
X96309290Y-52422788D01*
X96309291Y-52422791D01*
X96373728Y-52549254D01*
X96387998Y-52577260D01*
X96489899Y-52717514D01*
X96612486Y-52840101D01*
X96752740Y-52942002D01*
X96773171Y-52952412D01*
X96907208Y-53020708D01*
X96907211Y-53020709D01*
X96989648Y-53047494D01*
X97072088Y-53074280D01*
X97151391Y-53086840D01*
X97243313Y-53101400D01*
X97243318Y-53101400D01*
X97416687Y-53101400D01*
X97499695Y-53088252D01*
X97587912Y-53074280D01*
X97752791Y-53020708D01*
X97907260Y-52942002D01*
X98010116Y-52867272D01*
X98075920Y-52843793D01*
X98143974Y-52859618D01*
X98192669Y-52909723D01*
X98207000Y-52967591D01*
X98207000Y-54142402D01*
X98187315Y-54209441D01*
X98170681Y-54230083D01*
X94085005Y-58315758D01*
X94023682Y-58349243D01*
X93953990Y-58344259D01*
X93944922Y-58340461D01*
X93944336Y-58340187D01*
X93944334Y-58340186D01*
X93777797Y-58285001D01*
X93777795Y-58285000D01*
X93675010Y-58274500D01*
X92899998Y-58274500D01*
X92899980Y-58274501D01*
X92797203Y-58285000D01*
X92797200Y-58285001D01*
X92630668Y-58340185D01*
X92630663Y-58340187D01*
X92481342Y-58432289D01*
X92357288Y-58556343D01*
X92357283Y-58556349D01*
X92355241Y-58559661D01*
X92353247Y-58561453D01*
X92352807Y-58562011D01*
X92352711Y-58561935D01*
X92303291Y-58606383D01*
X92234328Y-58617602D01*
X92170247Y-58589755D01*
X92144168Y-58559656D01*
X92142319Y-58556659D01*
X92142316Y-58556655D01*
X92018345Y-58432684D01*
X91869124Y-58340643D01*
X91869119Y-58340641D01*
X91702697Y-58285494D01*
X91702690Y-58285493D01*
X91599986Y-58275000D01*
X91462500Y-58275000D01*
X91462500Y-60724999D01*
X91599972Y-60724999D01*
X91599986Y-60724998D01*
X91702697Y-60714505D01*
X91869119Y-60659358D01*
X91869124Y-60659356D01*
X92018345Y-60567315D01*
X92142318Y-60443342D01*
X92144165Y-60440348D01*
X92145969Y-60438724D01*
X92146798Y-60437677D01*
X92146976Y-60437818D01*
X92196110Y-60393621D01*
X92265073Y-60382396D01*
X92329156Y-60410236D01*
X92355243Y-60440341D01*
X92357288Y-60443656D01*
X92481344Y-60567712D01*
X92630666Y-60659814D01*
X92797203Y-60714999D01*
X92899991Y-60725500D01*
X93675008Y-60725499D01*
X93675016Y-60725498D01*
X93675019Y-60725498D01*
X93731302Y-60719748D01*
X93777797Y-60714999D01*
X93944334Y-60659814D01*
X94093656Y-60567712D01*
X94217712Y-60443656D01*
X94309814Y-60294334D01*
X94364999Y-60127797D01*
X94375500Y-60025009D01*
X94375499Y-59775095D01*
X94395183Y-59708057D01*
X94411813Y-59687420D01*
X98719822Y-55379412D01*
X98781141Y-55345930D01*
X98850833Y-55350914D01*
X98895180Y-55379415D01*
X105130139Y-61614374D01*
X105130149Y-61614385D01*
X105134479Y-61618715D01*
X105134480Y-61618716D01*
X105246284Y-61730520D01*
X105322462Y-61774501D01*
X105383215Y-61809577D01*
X105535943Y-61850501D01*
X105535946Y-61850501D01*
X105701653Y-61850501D01*
X105701669Y-61850500D01*
X109189564Y-61850500D01*
X109256603Y-61870185D01*
X109302358Y-61922989D01*
X109312302Y-61992147D01*
X109286832Y-62051409D01*
X109282684Y-62056654D01*
X109190643Y-62205875D01*
X109190641Y-62205880D01*
X109135494Y-62372302D01*
X109135493Y-62372309D01*
X109125000Y-62475013D01*
X109125000Y-62750000D01*
X110338500Y-62750000D01*
X110405539Y-62769685D01*
X110451294Y-62822489D01*
X110462500Y-62874000D01*
X110462500Y-64224999D01*
X110599972Y-64224999D01*
X110599986Y-64224998D01*
X110702697Y-64214505D01*
X110869119Y-64159358D01*
X110869124Y-64159356D01*
X111018345Y-64067315D01*
X111142318Y-63943342D01*
X111144165Y-63940348D01*
X111145969Y-63938724D01*
X111146798Y-63937677D01*
X111146976Y-63937818D01*
X111196110Y-63893621D01*
X111265073Y-63882396D01*
X111329156Y-63910236D01*
X111355243Y-63940341D01*
X111357288Y-63943656D01*
X111481344Y-64067712D01*
X111630666Y-64159814D01*
X111797203Y-64214999D01*
X111899991Y-64225500D01*
X112675008Y-64225499D01*
X112675016Y-64225498D01*
X112675019Y-64225498D01*
X112731302Y-64219748D01*
X112777797Y-64214999D01*
X112944334Y-64159814D01*
X113093656Y-64067712D01*
X113217712Y-63943656D01*
X113309814Y-63794334D01*
X113345879Y-63685494D01*
X113385652Y-63628051D01*
X113450167Y-63601228D01*
X113463585Y-63600500D01*
X113587403Y-63600500D01*
X113654442Y-63620185D01*
X113675084Y-63636819D01*
X115728181Y-65689916D01*
X115761666Y-65751239D01*
X115764500Y-65777597D01*
X115764500Y-66614847D01*
X115744815Y-66681886D01*
X115692011Y-66727641D01*
X115622853Y-66737585D01*
X115559297Y-66708560D01*
X115521523Y-66649782D01*
X115517561Y-66631032D01*
X115515737Y-66617174D01*
X115510548Y-66577762D01*
X115451158Y-66356113D01*
X115363344Y-66144112D01*
X115248611Y-65945388D01*
X115248608Y-65945385D01*
X115248607Y-65945382D01*
X115147764Y-65813962D01*
X115108919Y-65763339D01*
X115108918Y-65763338D01*
X115108911Y-65763330D01*
X114946670Y-65601089D01*
X114946661Y-65601081D01*
X114764617Y-65461392D01*
X114726740Y-65439524D01*
X114661792Y-65402026D01*
X114565890Y-65346657D01*
X114565876Y-65346650D01*
X114353887Y-65258842D01*
X114132238Y-65199452D01*
X114094215Y-65194446D01*
X113904741Y-65169500D01*
X113904734Y-65169500D01*
X113675266Y-65169500D01*
X113675258Y-65169500D01*
X113458715Y-65198009D01*
X113447762Y-65199452D01*
X113354076Y-65224554D01*
X113226112Y-65258842D01*
X113014123Y-65346650D01*
X113014109Y-65346657D01*
X112815382Y-65461392D01*
X112633338Y-65601081D01*
X112471081Y-65763338D01*
X112331392Y-65945382D01*
X112216657Y-66144109D01*
X112216650Y-66144123D01*
X112128842Y-66356112D01*
X112069453Y-66577759D01*
X112069451Y-66577770D01*
X112039500Y-66805258D01*
X112039500Y-67034741D01*
X112048961Y-67106597D01*
X112069452Y-67262238D01*
X112098078Y-67369073D01*
X112128842Y-67483887D01*
X112216650Y-67695876D01*
X112216657Y-67695890D01*
X112331392Y-67894617D01*
X112471081Y-68076661D01*
X112471089Y-68076670D01*
X112633330Y-68238911D01*
X112633338Y-68238918D01*
X112815382Y-68378607D01*
X112815385Y-68378608D01*
X112815388Y-68378611D01*
X112873788Y-68412328D01*
X112883808Y-68418113D01*
X112932024Y-68468680D01*
X112945246Y-68537287D01*
X112919278Y-68602152D01*
X112862364Y-68642680D01*
X112821808Y-68649500D01*
X112550098Y-68649500D01*
X112483059Y-68629815D01*
X112462417Y-68613181D01*
X110407590Y-66558355D01*
X110407588Y-66558352D01*
X110288717Y-66439481D01*
X110288716Y-66439480D01*
X110201904Y-66389360D01*
X110201904Y-66389359D01*
X110201900Y-66389358D01*
X110151785Y-66360423D01*
X109999057Y-66319499D01*
X109840943Y-66319499D01*
X109833347Y-66319499D01*
X109833331Y-66319500D01*
X100974499Y-66319500D01*
X100907460Y-66299815D01*
X100861705Y-66247011D01*
X100850499Y-66195500D01*
X100850499Y-65622129D01*
X100850498Y-65622123D01*
X100850269Y-65619997D01*
X100844091Y-65562517D01*
X100798217Y-65439523D01*
X100793797Y-65427671D01*
X100793793Y-65427664D01*
X100707547Y-65312455D01*
X100707544Y-65312452D01*
X100592335Y-65226206D01*
X100592328Y-65226202D01*
X100457482Y-65175908D01*
X100457483Y-65175908D01*
X100397883Y-65169501D01*
X100397881Y-65169500D01*
X100397873Y-65169500D01*
X100397865Y-65169500D01*
X97957597Y-65169500D01*
X97890558Y-65149815D01*
X97869916Y-65133181D01*
X96261721Y-63524986D01*
X109125001Y-63524986D01*
X109135494Y-63627697D01*
X109190641Y-63794119D01*
X109190643Y-63794124D01*
X109282684Y-63943345D01*
X109406654Y-64067315D01*
X109555875Y-64159356D01*
X109555880Y-64159358D01*
X109722302Y-64214505D01*
X109722309Y-64214506D01*
X109825019Y-64224999D01*
X109962499Y-64224999D01*
X109962500Y-64224998D01*
X109962500Y-63250000D01*
X109125001Y-63250000D01*
X109125001Y-63524986D01*
X96261721Y-63524986D01*
X95375090Y-62638355D01*
X95375088Y-62638352D01*
X95256217Y-62519481D01*
X95256216Y-62519480D01*
X95169404Y-62469360D01*
X95169404Y-62469359D01*
X95169400Y-62469358D01*
X95119285Y-62440423D01*
X94966557Y-62399499D01*
X94808443Y-62399499D01*
X94800847Y-62399499D01*
X94800831Y-62399500D01*
X94463585Y-62399500D01*
X94396546Y-62379815D01*
X94350791Y-62327011D01*
X94345879Y-62314504D01*
X94309814Y-62205666D01*
X94217712Y-62056344D01*
X94093656Y-61932288D01*
X93967614Y-61854545D01*
X93944336Y-61840187D01*
X93944331Y-61840185D01*
X93942862Y-61839698D01*
X93777797Y-61785001D01*
X93777795Y-61785000D01*
X93675010Y-61774500D01*
X92899998Y-61774500D01*
X92899980Y-61774501D01*
X92797203Y-61785000D01*
X92797200Y-61785001D01*
X92630668Y-61840185D01*
X92630663Y-61840187D01*
X92481342Y-61932289D01*
X92357288Y-62056343D01*
X92357283Y-62056349D01*
X92355241Y-62059661D01*
X92353247Y-62061453D01*
X92352807Y-62062011D01*
X92352711Y-62061935D01*
X92303291Y-62106383D01*
X92234328Y-62117602D01*
X92170247Y-62089755D01*
X92144168Y-62059656D01*
X92142319Y-62056659D01*
X92142316Y-62056655D01*
X92018345Y-61932684D01*
X91869124Y-61840643D01*
X91869119Y-61840641D01*
X91702697Y-61785494D01*
X91702690Y-61785493D01*
X91599986Y-61775000D01*
X91462500Y-61775000D01*
X91462500Y-64224999D01*
X91599972Y-64224999D01*
X91599986Y-64224998D01*
X91702697Y-64214505D01*
X91869119Y-64159358D01*
X91869124Y-64159356D01*
X92018345Y-64067315D01*
X92142318Y-63943342D01*
X92144165Y-63940348D01*
X92145969Y-63938724D01*
X92146798Y-63937677D01*
X92146976Y-63937818D01*
X92196110Y-63893621D01*
X92265073Y-63882396D01*
X92329156Y-63910236D01*
X92355243Y-63940341D01*
X92357288Y-63943656D01*
X92481344Y-64067712D01*
X92630666Y-64159814D01*
X92797203Y-64214999D01*
X92899991Y-64225500D01*
X93675008Y-64225499D01*
X93675016Y-64225498D01*
X93675019Y-64225498D01*
X93731302Y-64219748D01*
X93777797Y-64214999D01*
X93944334Y-64159814D01*
X94093656Y-64067712D01*
X94217712Y-63943656D01*
X94309814Y-63794334D01*
X94345879Y-63685494D01*
X94385652Y-63628051D01*
X94450167Y-63601228D01*
X94463585Y-63600500D01*
X94587403Y-63600500D01*
X94654442Y-63620185D01*
X94675084Y-63636819D01*
X96728181Y-65689916D01*
X96761666Y-65751239D01*
X96764500Y-65777597D01*
X96764500Y-66614847D01*
X96744815Y-66681886D01*
X96692011Y-66727641D01*
X96622853Y-66737585D01*
X96559297Y-66708560D01*
X96521523Y-66649782D01*
X96517561Y-66631032D01*
X96515737Y-66617174D01*
X96510548Y-66577762D01*
X96451158Y-66356113D01*
X96363344Y-66144112D01*
X96248611Y-65945388D01*
X96248608Y-65945385D01*
X96248607Y-65945382D01*
X96147764Y-65813962D01*
X96108919Y-65763339D01*
X96108918Y-65763338D01*
X96108911Y-65763330D01*
X95946670Y-65601089D01*
X95946661Y-65601081D01*
X95764617Y-65461392D01*
X95726740Y-65439524D01*
X95661792Y-65402026D01*
X95565890Y-65346657D01*
X95565876Y-65346650D01*
X95353887Y-65258842D01*
X95132238Y-65199452D01*
X95094215Y-65194446D01*
X94904741Y-65169500D01*
X94904734Y-65169500D01*
X94675266Y-65169500D01*
X94675258Y-65169500D01*
X94458715Y-65198009D01*
X94447762Y-65199452D01*
X94354076Y-65224554D01*
X94226112Y-65258842D01*
X94014123Y-65346650D01*
X94014109Y-65346657D01*
X93815382Y-65461392D01*
X93633338Y-65601081D01*
X93471081Y-65763338D01*
X93331392Y-65945382D01*
X93216657Y-66144109D01*
X93216650Y-66144123D01*
X93128842Y-66356112D01*
X93069453Y-66577759D01*
X93069451Y-66577770D01*
X93039500Y-66805258D01*
X93039500Y-67034741D01*
X93048961Y-67106597D01*
X93069452Y-67262238D01*
X93098078Y-67369073D01*
X93128842Y-67483887D01*
X93216650Y-67695876D01*
X93216657Y-67695890D01*
X93331392Y-67894617D01*
X93471081Y-68076661D01*
X93471089Y-68076670D01*
X93633330Y-68238911D01*
X93633338Y-68238918D01*
X93815382Y-68378607D01*
X93815385Y-68378608D01*
X93815388Y-68378611D01*
X94014112Y-68493344D01*
X94014117Y-68493346D01*
X94014123Y-68493349D01*
X94096678Y-68527544D01*
X94226113Y-68581158D01*
X94447762Y-68640548D01*
X94664312Y-68669057D01*
X94675250Y-68670498D01*
X94675266Y-68670500D01*
X94675273Y-68670500D01*
X94904727Y-68670500D01*
X94904734Y-68670500D01*
X95132238Y-68640548D01*
X95353887Y-68581158D01*
X95565888Y-68493344D01*
X95764612Y-68378611D01*
X95946661Y-68238919D01*
X95946665Y-68238914D01*
X95946670Y-68238911D01*
X96108911Y-68076670D01*
X96108914Y-68076665D01*
X96108919Y-68076661D01*
X96248611Y-67894612D01*
X96363344Y-67695888D01*
X96451158Y-67483887D01*
X96510548Y-67262238D01*
X96517561Y-67208964D01*
X96545827Y-67145069D01*
X96604151Y-67106597D01*
X96674016Y-67105765D01*
X96733239Y-67142837D01*
X96763019Y-67206043D01*
X96764500Y-67225150D01*
X96764500Y-68217870D01*
X96764501Y-68217876D01*
X96770908Y-68277483D01*
X96821202Y-68412328D01*
X96821206Y-68412335D01*
X96907452Y-68527544D01*
X96907455Y-68527547D01*
X97022664Y-68613793D01*
X97022671Y-68613797D01*
X97157517Y-68664091D01*
X97157516Y-68664091D01*
X97164444Y-68664835D01*
X97217127Y-68670500D01*
X100397872Y-68670499D01*
X100457483Y-68664091D01*
X100592331Y-68613796D01*
X100707546Y-68527546D01*
X100793796Y-68412331D01*
X100844091Y-68277483D01*
X100850500Y-68217873D01*
X100850500Y-67644500D01*
X100870185Y-67577461D01*
X100922989Y-67531706D01*
X100974500Y-67520500D01*
X101780570Y-67520500D01*
X101847609Y-67540185D01*
X101893364Y-67592989D01*
X101903308Y-67662147D01*
X101874283Y-67725703D01*
X101823903Y-67760682D01*
X101807913Y-67766645D01*
X101807906Y-67766649D01*
X101692812Y-67852809D01*
X101692809Y-67852812D01*
X101606649Y-67967906D01*
X101606645Y-67967913D01*
X101556403Y-68102620D01*
X101556401Y-68102627D01*
X101550000Y-68162155D01*
X101550000Y-69210000D01*
X103633500Y-69210000D01*
X103700539Y-69229685D01*
X103746294Y-69282489D01*
X103757500Y-69334000D01*
X103757500Y-71210000D01*
X105012828Y-71210000D01*
X105012844Y-71209999D01*
X105072372Y-71203598D01*
X105072383Y-71203595D01*
X105118768Y-71186295D01*
X105188459Y-71181310D01*
X105249783Y-71214794D01*
X105283268Y-71276117D01*
X105278284Y-71345809D01*
X105262420Y-71375361D01*
X105228000Y-71422736D01*
X105149291Y-71577208D01*
X105149290Y-71577211D01*
X105095720Y-71742086D01*
X105068600Y-71913312D01*
X105068600Y-72086687D01*
X105095720Y-72257913D01*
X105149290Y-72422788D01*
X105149291Y-72422791D01*
X105227998Y-72577260D01*
X105329899Y-72717514D01*
X105452486Y-72840101D01*
X105592740Y-72942002D01*
X105632805Y-72962416D01*
X105747208Y-73020708D01*
X105747211Y-73020709D01*
X105829648Y-73047494D01*
X105912088Y-73074280D01*
X105991391Y-73086840D01*
X106083313Y-73101400D01*
X106083318Y-73101400D01*
X106256687Y-73101400D01*
X106339695Y-73088252D01*
X106427912Y-73074280D01*
X106592791Y-73020708D01*
X106747260Y-72942002D01*
X106887514Y-72840101D01*
X107010101Y-72717514D01*
X107112002Y-72577260D01*
X107190708Y-72422791D01*
X107244280Y-72257912D01*
X107260521Y-72155368D01*
X107271400Y-72086687D01*
X107271400Y-71913312D01*
X107246430Y-71755665D01*
X107244280Y-71742088D01*
X107217494Y-71659648D01*
X107190709Y-71577211D01*
X107190708Y-71577208D01*
X107112001Y-71422738D01*
X107088580Y-71390503D01*
X107065099Y-71324697D01*
X107080924Y-71256642D01*
X107131029Y-71207947D01*
X107199507Y-71194071D01*
X107205068Y-71194675D01*
X107305874Y-71207947D01*
X107321460Y-71209999D01*
X107325266Y-71210500D01*
X107325273Y-71210500D01*
X107554727Y-71210500D01*
X107554734Y-71210500D01*
X107782238Y-71180548D01*
X108003887Y-71121158D01*
X108215888Y-71033344D01*
X108414612Y-70918611D01*
X108596661Y-70778919D01*
X108596665Y-70778914D01*
X108596670Y-70778911D01*
X108758911Y-70616670D01*
X108758914Y-70616665D01*
X108758919Y-70616661D01*
X108898611Y-70434612D01*
X109013344Y-70235888D01*
X109101158Y-70023887D01*
X109160548Y-69802238D01*
X109190500Y-69574734D01*
X109190500Y-69345266D01*
X109160548Y-69117762D01*
X109101158Y-68896113D01*
X109031705Y-68728439D01*
X109013349Y-68684123D01*
X109013346Y-68684117D01*
X109013344Y-68684112D01*
X108898611Y-68485388D01*
X108898608Y-68485385D01*
X108898607Y-68485382D01*
X108758918Y-68303338D01*
X108758911Y-68303330D01*
X108596670Y-68141089D01*
X108596661Y-68141081D01*
X108414617Y-68001392D01*
X108376740Y-67979524D01*
X108215888Y-67886656D01*
X108215876Y-67886650D01*
X108003887Y-67798842D01*
X107874876Y-67764274D01*
X107815217Y-67727910D01*
X107784688Y-67665063D01*
X107792983Y-67595688D01*
X107837468Y-67541810D01*
X107904020Y-67520535D01*
X107906971Y-67520500D01*
X109619903Y-67520500D01*
X109686942Y-67540185D01*
X109707584Y-67556819D01*
X111725273Y-69574509D01*
X111758758Y-69635832D01*
X111753774Y-69705524D01*
X111711902Y-69761457D01*
X111646438Y-69785874D01*
X111621407Y-69785129D01*
X111397116Y-69755601D01*
X111397111Y-69755600D01*
X111397106Y-69755600D01*
X111102894Y-69755600D01*
X111102888Y-69755600D01*
X111102883Y-69755601D01*
X110811203Y-69794001D01*
X110527005Y-69870152D01*
X110255205Y-69982734D01*
X110255189Y-69982742D01*
X110000410Y-70129840D01*
X110000394Y-70129851D01*
X109766990Y-70308948D01*
X109766983Y-70308954D01*
X109558954Y-70516983D01*
X109558948Y-70516990D01*
X109379851Y-70750394D01*
X109379840Y-70750410D01*
X109232742Y-71005189D01*
X109232734Y-71005205D01*
X109120152Y-71277005D01*
X109044001Y-71561203D01*
X109005601Y-71852883D01*
X109005600Y-71852900D01*
X109005600Y-72147099D01*
X109005601Y-72147116D01*
X109044001Y-72438796D01*
X109120152Y-72722994D01*
X109232734Y-72994794D01*
X109232742Y-72994810D01*
X109379840Y-73249589D01*
X109379851Y-73249605D01*
X109558948Y-73483009D01*
X109558954Y-73483016D01*
X109766983Y-73691045D01*
X109766990Y-73691051D01*
X109915030Y-73804646D01*
X110000403Y-73870155D01*
X110000410Y-73870159D01*
X110255189Y-74017257D01*
X110255205Y-74017265D01*
X110527005Y-74129847D01*
X110527007Y-74129847D01*
X110527013Y-74129850D01*
X110811200Y-74205998D01*
X111102894Y-74244400D01*
X111102901Y-74244400D01*
X111397099Y-74244400D01*
X111397106Y-74244400D01*
X111688800Y-74205998D01*
X111972987Y-74129850D01*
X112140284Y-74060554D01*
X112244794Y-74017265D01*
X112244797Y-74017263D01*
X112244803Y-74017261D01*
X112499597Y-73870155D01*
X112733011Y-73691050D01*
X112941050Y-73483011D01*
X113120155Y-73249597D01*
X113267261Y-72994803D01*
X113379850Y-72722987D01*
X113455998Y-72438800D01*
X113494400Y-72147106D01*
X113494400Y-71852894D01*
X113455998Y-71561200D01*
X113379850Y-71277013D01*
X113371412Y-71256642D01*
X113267265Y-71005205D01*
X113267257Y-71005189D01*
X113120159Y-70750410D01*
X113120155Y-70750403D01*
X113011564Y-70608884D01*
X112941051Y-70516990D01*
X112941045Y-70516983D01*
X112733016Y-70308954D01*
X112733009Y-70308948D01*
X112499605Y-70129851D01*
X112499603Y-70129849D01*
X112499597Y-70129845D01*
X112499592Y-70129842D01*
X112499589Y-70129840D01*
X112416532Y-70081887D01*
X112368316Y-70031320D01*
X112355094Y-69962713D01*
X112381062Y-69897848D01*
X112437976Y-69857320D01*
X112478532Y-69850500D01*
X115449903Y-69850500D01*
X115516942Y-69870185D01*
X115537584Y-69886819D01*
X116337684Y-70686919D01*
X116371169Y-70748242D01*
X116366185Y-70817934D01*
X116324313Y-70873867D01*
X116258849Y-70898284D01*
X116250003Y-70898600D01*
X116243313Y-70898600D01*
X116072086Y-70925720D01*
X115907211Y-70979290D01*
X115907208Y-70979291D01*
X115752739Y-71057998D01*
X115740092Y-71067187D01*
X115612486Y-71159899D01*
X115612484Y-71159901D01*
X115612483Y-71159901D01*
X115489901Y-71282483D01*
X115489901Y-71282484D01*
X115489899Y-71282486D01*
X115459231Y-71324697D01*
X115387998Y-71422739D01*
X115309291Y-71577208D01*
X115309290Y-71577211D01*
X115255720Y-71742086D01*
X115228600Y-71913312D01*
X115228600Y-72086687D01*
X115255720Y-72257913D01*
X115309290Y-72422788D01*
X115309291Y-72422791D01*
X115387998Y-72577260D01*
X115489899Y-72717514D01*
X115612486Y-72840101D01*
X115752740Y-72942002D01*
X115792805Y-72962416D01*
X115907208Y-73020708D01*
X115907211Y-73020709D01*
X115989648Y-73047494D01*
X116072088Y-73074280D01*
X116151391Y-73086840D01*
X116243313Y-73101400D01*
X116243318Y-73101400D01*
X116416687Y-73101400D01*
X116499695Y-73088252D01*
X116587912Y-73074280D01*
X116752791Y-73020708D01*
X116907260Y-72942002D01*
X117047514Y-72840101D01*
X117170101Y-72717514D01*
X117272002Y-72577260D01*
X117350708Y-72422791D01*
X117404280Y-72257912D01*
X117420521Y-72155368D01*
X117431400Y-72086687D01*
X117431400Y-72079997D01*
X117451085Y-72012958D01*
X117503889Y-71967203D01*
X117573047Y-71957259D01*
X117636603Y-71986284D01*
X117643081Y-71992316D01*
X118613181Y-72962416D01*
X118646666Y-73023739D01*
X118649500Y-73050097D01*
X118649500Y-78163330D01*
X118649499Y-78163348D01*
X118649499Y-78329054D01*
X118649498Y-78329054D01*
X118690424Y-78481789D01*
X118690425Y-78481790D01*
X118712186Y-78519480D01*
X118712187Y-78519482D01*
X118769475Y-78618709D01*
X118769481Y-78618717D01*
X118838583Y-78687819D01*
X118872068Y-78749142D01*
X118867084Y-78818834D01*
X118825212Y-78874767D01*
X118759748Y-78899184D01*
X118750902Y-78899500D01*
X82550097Y-78899500D01*
X82483058Y-78879815D01*
X82462416Y-78863181D01*
X81636819Y-78037584D01*
X81603334Y-77976261D01*
X81600500Y-77949903D01*
X81600500Y-70757844D01*
X82550000Y-70757844D01*
X82556401Y-70817372D01*
X82556403Y-70817379D01*
X82606645Y-70952086D01*
X82606649Y-70952093D01*
X82692809Y-71067187D01*
X82692812Y-71067190D01*
X82807906Y-71153350D01*
X82807913Y-71153354D01*
X82942620Y-71203596D01*
X82942627Y-71203598D01*
X83002155Y-71209999D01*
X83002172Y-71210000D01*
X84257500Y-71210000D01*
X84257500Y-69710000D01*
X82550000Y-69710000D01*
X82550000Y-70757844D01*
X81600500Y-70757844D01*
X81600500Y-70089060D01*
X81600501Y-70089047D01*
X81600501Y-69920944D01*
X81595856Y-69903608D01*
X81559577Y-69768216D01*
X81544918Y-69742826D01*
X81480524Y-69631290D01*
X81480518Y-69631282D01*
X81126431Y-69277195D01*
X80731414Y-68882179D01*
X80697930Y-68820857D01*
X80702914Y-68751166D01*
X80744786Y-68695232D01*
X80810250Y-68670815D01*
X80819096Y-68670499D01*
X81397871Y-68670499D01*
X81397872Y-68670499D01*
X81457483Y-68664091D01*
X81592331Y-68613796D01*
X81707546Y-68527546D01*
X81793796Y-68412331D01*
X81844091Y-68277483D01*
X81850500Y-68217873D01*
X81850500Y-68162155D01*
X82550000Y-68162155D01*
X82550000Y-69210000D01*
X84257500Y-69210000D01*
X84257500Y-67710000D01*
X84757500Y-67710000D01*
X84757500Y-71210000D01*
X86012828Y-71210000D01*
X86012844Y-71209999D01*
X86072372Y-71203598D01*
X86072383Y-71203595D01*
X86118768Y-71186295D01*
X86188459Y-71181310D01*
X86249783Y-71214794D01*
X86283268Y-71276117D01*
X86278284Y-71345809D01*
X86262420Y-71375361D01*
X86228000Y-71422736D01*
X86149291Y-71577208D01*
X86149290Y-71577211D01*
X86095720Y-71742086D01*
X86068600Y-71913312D01*
X86068600Y-72086687D01*
X86095720Y-72257913D01*
X86149290Y-72422788D01*
X86149291Y-72422791D01*
X86227998Y-72577260D01*
X86329899Y-72717514D01*
X86452486Y-72840101D01*
X86592740Y-72942002D01*
X86632805Y-72962416D01*
X86747208Y-73020708D01*
X86747211Y-73020709D01*
X86829648Y-73047494D01*
X86912088Y-73074280D01*
X86991391Y-73086840D01*
X87083313Y-73101400D01*
X87083318Y-73101400D01*
X87256687Y-73101400D01*
X87339695Y-73088252D01*
X87427912Y-73074280D01*
X87592791Y-73020708D01*
X87747260Y-72942002D01*
X87887514Y-72840101D01*
X88010101Y-72717514D01*
X88112002Y-72577260D01*
X88190708Y-72422791D01*
X88244280Y-72257912D01*
X88260521Y-72155368D01*
X88271400Y-72086687D01*
X88271400Y-71913312D01*
X88261831Y-71852900D01*
X90005600Y-71852900D01*
X90005600Y-72147099D01*
X90005601Y-72147116D01*
X90044001Y-72438796D01*
X90120152Y-72722994D01*
X90232734Y-72994794D01*
X90232742Y-72994810D01*
X90379840Y-73249589D01*
X90379851Y-73249605D01*
X90558948Y-73483009D01*
X90558954Y-73483016D01*
X90766983Y-73691045D01*
X90766990Y-73691051D01*
X90915030Y-73804646D01*
X91000403Y-73870155D01*
X91000410Y-73870159D01*
X91255189Y-74017257D01*
X91255205Y-74017265D01*
X91527005Y-74129847D01*
X91527007Y-74129847D01*
X91527013Y-74129850D01*
X91811200Y-74205998D01*
X92102894Y-74244400D01*
X92102901Y-74244400D01*
X92397099Y-74244400D01*
X92397106Y-74244400D01*
X92688800Y-74205998D01*
X92972987Y-74129850D01*
X93140284Y-74060554D01*
X93244794Y-74017265D01*
X93244797Y-74017263D01*
X93244803Y-74017261D01*
X93499597Y-73870155D01*
X93733011Y-73691050D01*
X93941050Y-73483011D01*
X94120155Y-73249597D01*
X94267261Y-72994803D01*
X94379850Y-72722987D01*
X94455998Y-72438800D01*
X94494400Y-72147106D01*
X94494400Y-71913312D01*
X96228600Y-71913312D01*
X96228600Y-72086687D01*
X96255720Y-72257913D01*
X96309290Y-72422788D01*
X96309291Y-72422791D01*
X96387998Y-72577260D01*
X96489899Y-72717514D01*
X96612486Y-72840101D01*
X96752740Y-72942002D01*
X96792805Y-72962416D01*
X96907208Y-73020708D01*
X96907211Y-73020709D01*
X96989648Y-73047494D01*
X97072088Y-73074280D01*
X97151391Y-73086840D01*
X97243313Y-73101400D01*
X97243318Y-73101400D01*
X97416687Y-73101400D01*
X97499695Y-73088252D01*
X97587912Y-73074280D01*
X97752791Y-73020708D01*
X97907260Y-72942002D01*
X98047514Y-72840101D01*
X98170101Y-72717514D01*
X98272002Y-72577260D01*
X98350708Y-72422791D01*
X98404280Y-72257912D01*
X98420521Y-72155368D01*
X98431400Y-72086687D01*
X98431400Y-71913312D01*
X98406430Y-71755665D01*
X98404280Y-71742088D01*
X98377494Y-71659648D01*
X98350709Y-71577211D01*
X98350708Y-71577208D01*
X98272001Y-71422739D01*
X98170101Y-71282486D01*
X98047514Y-71159899D01*
X97907260Y-71057998D01*
X97899902Y-71054249D01*
X97752791Y-70979291D01*
X97752788Y-70979290D01*
X97587913Y-70925720D01*
X97416687Y-70898600D01*
X97416682Y-70898600D01*
X97243318Y-70898600D01*
X97243313Y-70898600D01*
X97072086Y-70925720D01*
X96907211Y-70979290D01*
X96907208Y-70979291D01*
X96752739Y-71057998D01*
X96740092Y-71067187D01*
X96612486Y-71159899D01*
X96612484Y-71159901D01*
X96612483Y-71159901D01*
X96489901Y-71282483D01*
X96489901Y-71282484D01*
X96489899Y-71282486D01*
X96459231Y-71324697D01*
X96387998Y-71422739D01*
X96309291Y-71577208D01*
X96309290Y-71577211D01*
X96255720Y-71742086D01*
X96228600Y-71913312D01*
X94494400Y-71913312D01*
X94494400Y-71852894D01*
X94455998Y-71561200D01*
X94379850Y-71277013D01*
X94371412Y-71256642D01*
X94267265Y-71005205D01*
X94267257Y-71005189D01*
X94124451Y-70757844D01*
X101550000Y-70757844D01*
X101556401Y-70817372D01*
X101556403Y-70817379D01*
X101606645Y-70952086D01*
X101606649Y-70952093D01*
X101692809Y-71067187D01*
X101692812Y-71067190D01*
X101807906Y-71153350D01*
X101807913Y-71153354D01*
X101942620Y-71203596D01*
X101942627Y-71203598D01*
X102002155Y-71209999D01*
X102002172Y-71210000D01*
X103257500Y-71210000D01*
X103257500Y-69710000D01*
X101550000Y-69710000D01*
X101550000Y-70757844D01*
X94124451Y-70757844D01*
X94120159Y-70750410D01*
X94120155Y-70750403D01*
X94011564Y-70608884D01*
X93941051Y-70516990D01*
X93941045Y-70516983D01*
X93733016Y-70308954D01*
X93733009Y-70308948D01*
X93499605Y-70129851D01*
X93499603Y-70129849D01*
X93499597Y-70129845D01*
X93499592Y-70129842D01*
X93499589Y-70129840D01*
X93244810Y-69982742D01*
X93244794Y-69982734D01*
X92972994Y-69870152D01*
X92955927Y-69865579D01*
X92688800Y-69794002D01*
X92688799Y-69794001D01*
X92688796Y-69794001D01*
X92397116Y-69755601D01*
X92397111Y-69755600D01*
X92397106Y-69755600D01*
X92102894Y-69755600D01*
X92102888Y-69755600D01*
X92102883Y-69755601D01*
X91811203Y-69794001D01*
X91527005Y-69870152D01*
X91255205Y-69982734D01*
X91255189Y-69982742D01*
X91000410Y-70129840D01*
X91000394Y-70129851D01*
X90766990Y-70308948D01*
X90766983Y-70308954D01*
X90558954Y-70516983D01*
X90558948Y-70516990D01*
X90379851Y-70750394D01*
X90379840Y-70750410D01*
X90232742Y-71005189D01*
X90232734Y-71005205D01*
X90120152Y-71277005D01*
X90044001Y-71561203D01*
X90005601Y-71852883D01*
X90005600Y-71852900D01*
X88261831Y-71852900D01*
X88246430Y-71755665D01*
X88244280Y-71742088D01*
X88217494Y-71659648D01*
X88190709Y-71577211D01*
X88190708Y-71577208D01*
X88112001Y-71422738D01*
X88088580Y-71390503D01*
X88065099Y-71324697D01*
X88080924Y-71256642D01*
X88131029Y-71207947D01*
X88199507Y-71194071D01*
X88205068Y-71194675D01*
X88305874Y-71207947D01*
X88321460Y-71209999D01*
X88325266Y-71210500D01*
X88325273Y-71210500D01*
X88554727Y-71210500D01*
X88554734Y-71210500D01*
X88782238Y-71180548D01*
X89003887Y-71121158D01*
X89215888Y-71033344D01*
X89414612Y-70918611D01*
X89596661Y-70778919D01*
X89596665Y-70778914D01*
X89596670Y-70778911D01*
X89758911Y-70616670D01*
X89758914Y-70616665D01*
X89758919Y-70616661D01*
X89898611Y-70434612D01*
X90013344Y-70235888D01*
X90101158Y-70023887D01*
X90160548Y-69802238D01*
X90190500Y-69574734D01*
X90190500Y-69345266D01*
X90160548Y-69117762D01*
X90101158Y-68896113D01*
X90031705Y-68728439D01*
X90013349Y-68684123D01*
X90013346Y-68684117D01*
X90013344Y-68684112D01*
X89898611Y-68485388D01*
X89898608Y-68485385D01*
X89898607Y-68485382D01*
X89758918Y-68303338D01*
X89758911Y-68303330D01*
X89596670Y-68141089D01*
X89596661Y-68141081D01*
X89414617Y-68001392D01*
X89376740Y-67979524D01*
X89215888Y-67886656D01*
X89215876Y-67886650D01*
X89003887Y-67798842D01*
X88782238Y-67739452D01*
X88744215Y-67734446D01*
X88554741Y-67709500D01*
X88554734Y-67709500D01*
X88325266Y-67709500D01*
X88325258Y-67709500D01*
X88108715Y-67738009D01*
X88097762Y-67739452D01*
X88018530Y-67760682D01*
X87876112Y-67798842D01*
X87664123Y-67886650D01*
X87664109Y-67886657D01*
X87465382Y-68001392D01*
X87283338Y-68141081D01*
X87121081Y-68303338D01*
X86981392Y-68485382D01*
X86866657Y-68684109D01*
X86866650Y-68684123D01*
X86782055Y-68888355D01*
X86778842Y-68896113D01*
X86727051Y-69089404D01*
X86719453Y-69117759D01*
X86719451Y-69117770D01*
X86711939Y-69174828D01*
X86683672Y-69238724D01*
X86625347Y-69277195D01*
X86555483Y-69278026D01*
X86496260Y-69240954D01*
X86466481Y-69177748D01*
X86465000Y-69158642D01*
X86465000Y-68162172D01*
X86464999Y-68162155D01*
X86458598Y-68102627D01*
X86458596Y-68102620D01*
X86408354Y-67967913D01*
X86408350Y-67967906D01*
X86322190Y-67852812D01*
X86322187Y-67852809D01*
X86207093Y-67766649D01*
X86207086Y-67766645D01*
X86072379Y-67716403D01*
X86072372Y-67716401D01*
X86012844Y-67710000D01*
X84757500Y-67710000D01*
X84257500Y-67710000D01*
X83002155Y-67710000D01*
X82942627Y-67716401D01*
X82942620Y-67716403D01*
X82807913Y-67766645D01*
X82807906Y-67766649D01*
X82692812Y-67852809D01*
X82692809Y-67852812D01*
X82606649Y-67967906D01*
X82606645Y-67967913D01*
X82556403Y-68102620D01*
X82556401Y-68102627D01*
X82550000Y-68162155D01*
X81850500Y-68162155D01*
X81850499Y-65622128D01*
X81844091Y-65562517D01*
X81798217Y-65439523D01*
X81793797Y-65427671D01*
X81793793Y-65427664D01*
X81707547Y-65312455D01*
X81707544Y-65312452D01*
X81592335Y-65226206D01*
X81592328Y-65226202D01*
X81457482Y-65175908D01*
X81457483Y-65175908D01*
X81397883Y-65169501D01*
X81397881Y-65169500D01*
X81397873Y-65169500D01*
X81397865Y-65169500D01*
X78957597Y-65169500D01*
X78890558Y-65149815D01*
X78869916Y-65133181D01*
X77261721Y-63524986D01*
X90125001Y-63524986D01*
X90135494Y-63627697D01*
X90190641Y-63794119D01*
X90190643Y-63794124D01*
X90282684Y-63943345D01*
X90406654Y-64067315D01*
X90555875Y-64159356D01*
X90555880Y-64159358D01*
X90722302Y-64214505D01*
X90722309Y-64214506D01*
X90825019Y-64224999D01*
X90962499Y-64224999D01*
X90962500Y-64224998D01*
X90962500Y-63250000D01*
X90125001Y-63250000D01*
X90125001Y-63524986D01*
X77261721Y-63524986D01*
X76375090Y-62638355D01*
X76375088Y-62638352D01*
X76256217Y-62519481D01*
X76256216Y-62519480D01*
X76179195Y-62475013D01*
X90125000Y-62475013D01*
X90125000Y-62750000D01*
X90962500Y-62750000D01*
X90962500Y-61775000D01*
X90825027Y-61775000D01*
X90825012Y-61775001D01*
X90722302Y-61785494D01*
X90555880Y-61840641D01*
X90555875Y-61840643D01*
X90406654Y-61932684D01*
X90282684Y-62056654D01*
X90190643Y-62205875D01*
X90190641Y-62205880D01*
X90135494Y-62372302D01*
X90135493Y-62372309D01*
X90125000Y-62475013D01*
X76179195Y-62475013D01*
X76169404Y-62469360D01*
X76169404Y-62469359D01*
X76169400Y-62469358D01*
X76119285Y-62440423D01*
X75966557Y-62399499D01*
X75808443Y-62399499D01*
X75800847Y-62399499D01*
X75800831Y-62399500D01*
X75463585Y-62399500D01*
X75396546Y-62379815D01*
X75350791Y-62327011D01*
X75345879Y-62314504D01*
X75309814Y-62205666D01*
X75217712Y-62056344D01*
X75093656Y-61932288D01*
X74967614Y-61854545D01*
X74944336Y-61840187D01*
X74944331Y-61840185D01*
X74942862Y-61839698D01*
X74777797Y-61785001D01*
X74777795Y-61785000D01*
X74675010Y-61774500D01*
X73899998Y-61774500D01*
X73899980Y-61774501D01*
X73797203Y-61785000D01*
X73797200Y-61785001D01*
X73630668Y-61840185D01*
X73630663Y-61840187D01*
X73481342Y-61932289D01*
X73357288Y-62056343D01*
X73357283Y-62056349D01*
X73355241Y-62059661D01*
X73353247Y-62061453D01*
X73352807Y-62062011D01*
X73352711Y-62061935D01*
X73303291Y-62106383D01*
X73234328Y-62117602D01*
X73170247Y-62089755D01*
X73144168Y-62059656D01*
X73142319Y-62056659D01*
X73142316Y-62056655D01*
X73018345Y-61932684D01*
X72869124Y-61840643D01*
X72869119Y-61840641D01*
X72702697Y-61785494D01*
X72702690Y-61785493D01*
X72599986Y-61775000D01*
X72462500Y-61775000D01*
X72462500Y-64224999D01*
X72599972Y-64224999D01*
X72599986Y-64224998D01*
X72702697Y-64214505D01*
X72869119Y-64159358D01*
X72869124Y-64159356D01*
X73018345Y-64067315D01*
X73142318Y-63943342D01*
X73144165Y-63940348D01*
X73145969Y-63938724D01*
X73146798Y-63937677D01*
X73146976Y-63937818D01*
X73196110Y-63893621D01*
X73265073Y-63882396D01*
X73329156Y-63910236D01*
X73355243Y-63940341D01*
X73357288Y-63943656D01*
X73481344Y-64067712D01*
X73630666Y-64159814D01*
X73797203Y-64214999D01*
X73899991Y-64225500D01*
X74675008Y-64225499D01*
X74675016Y-64225498D01*
X74675019Y-64225498D01*
X74731302Y-64219748D01*
X74777797Y-64214999D01*
X74944334Y-64159814D01*
X75093656Y-64067712D01*
X75217712Y-63943656D01*
X75309814Y-63794334D01*
X75345879Y-63685494D01*
X75385652Y-63628051D01*
X75450167Y-63601228D01*
X75463585Y-63600500D01*
X75587403Y-63600500D01*
X75654442Y-63620185D01*
X75675084Y-63636819D01*
X77728181Y-65689916D01*
X77761666Y-65751239D01*
X77764500Y-65777597D01*
X77764500Y-66614847D01*
X77744815Y-66681886D01*
X77692011Y-66727641D01*
X77622853Y-66737585D01*
X77559297Y-66708560D01*
X77521523Y-66649782D01*
X77517561Y-66631032D01*
X77515737Y-66617174D01*
X77510548Y-66577762D01*
X77451158Y-66356113D01*
X77363344Y-66144112D01*
X77248611Y-65945388D01*
X77248608Y-65945385D01*
X77248607Y-65945382D01*
X77147764Y-65813962D01*
X77108919Y-65763339D01*
X77108918Y-65763338D01*
X77108911Y-65763330D01*
X76946670Y-65601089D01*
X76946661Y-65601081D01*
X76764617Y-65461392D01*
X76726740Y-65439524D01*
X76661792Y-65402026D01*
X76565890Y-65346657D01*
X76565876Y-65346650D01*
X76353887Y-65258842D01*
X76132238Y-65199452D01*
X76094215Y-65194446D01*
X75904741Y-65169500D01*
X75904734Y-65169500D01*
X75675266Y-65169500D01*
X75675258Y-65169500D01*
X75458715Y-65198009D01*
X75447762Y-65199452D01*
X75354076Y-65224554D01*
X75226112Y-65258842D01*
X75014123Y-65346650D01*
X75014109Y-65346657D01*
X74815382Y-65461392D01*
X74633338Y-65601081D01*
X74471081Y-65763338D01*
X74331392Y-65945382D01*
X74216657Y-66144109D01*
X74216650Y-66144123D01*
X74128842Y-66356112D01*
X74069453Y-66577759D01*
X74069451Y-66577770D01*
X74039500Y-66805258D01*
X74039500Y-67034741D01*
X74048961Y-67106597D01*
X74069452Y-67262238D01*
X74098078Y-67369073D01*
X74128842Y-67483887D01*
X74216650Y-67695876D01*
X74216657Y-67695890D01*
X74331392Y-67894617D01*
X74471081Y-68076661D01*
X74471089Y-68076670D01*
X74633330Y-68238911D01*
X74633338Y-68238918D01*
X74815382Y-68378607D01*
X74815385Y-68378608D01*
X74815388Y-68378611D01*
X75014112Y-68493344D01*
X75014117Y-68493346D01*
X75014123Y-68493349D01*
X75096678Y-68527544D01*
X75226113Y-68581158D01*
X75447762Y-68640548D01*
X75664312Y-68669057D01*
X75675250Y-68670498D01*
X75675266Y-68670500D01*
X75675273Y-68670500D01*
X75904727Y-68670500D01*
X75904734Y-68670500D01*
X76132238Y-68640548D01*
X76353887Y-68581158D01*
X76565888Y-68493344D01*
X76764612Y-68378611D01*
X76946661Y-68238919D01*
X76946665Y-68238914D01*
X76946670Y-68238911D01*
X77108911Y-68076670D01*
X77108914Y-68076665D01*
X77108919Y-68076661D01*
X77248611Y-67894612D01*
X77363344Y-67695888D01*
X77451158Y-67483887D01*
X77510548Y-67262238D01*
X77517561Y-67208964D01*
X77545827Y-67145069D01*
X77604151Y-67106597D01*
X77674016Y-67105765D01*
X77733239Y-67142837D01*
X77763019Y-67206043D01*
X77764500Y-67225150D01*
X77764500Y-68217870D01*
X77764501Y-68217876D01*
X77770908Y-68277483D01*
X77821202Y-68412328D01*
X77821206Y-68412335D01*
X77907452Y-68527544D01*
X77907455Y-68527547D01*
X78022664Y-68613793D01*
X78022671Y-68613797D01*
X78157517Y-68664091D01*
X78157516Y-68664091D01*
X78164444Y-68664835D01*
X78217127Y-68670500D01*
X79082999Y-68670499D01*
X79150038Y-68690183D01*
X79195793Y-68742987D01*
X79206999Y-68794499D01*
X79206999Y-68886554D01*
X79206998Y-68886554D01*
X79247923Y-69039285D01*
X79276858Y-69089400D01*
X79276859Y-69089404D01*
X79276860Y-69089404D01*
X79293230Y-69117759D01*
X79326979Y-69176214D01*
X79326981Y-69176217D01*
X79445849Y-69295085D01*
X79445855Y-69295090D01*
X80363181Y-70212416D01*
X80396666Y-70273739D01*
X80399500Y-70300097D01*
X80399500Y-78163330D01*
X80399499Y-78163348D01*
X80399499Y-78329054D01*
X80399498Y-78329054D01*
X80440424Y-78481789D01*
X80440425Y-78481790D01*
X80462186Y-78519480D01*
X80462187Y-78519482D01*
X80519475Y-78618709D01*
X80519481Y-78618717D01*
X80638349Y-78737585D01*
X80638355Y-78737590D01*
X81088584Y-79187819D01*
X81122069Y-79249142D01*
X81117085Y-79318834D01*
X81075213Y-79374767D01*
X81009749Y-79399184D01*
X81000903Y-79399500D01*
X63717335Y-79399500D01*
X63655335Y-79382887D01*
X63581788Y-79340424D01*
X63581787Y-79340423D01*
X63520693Y-79324053D01*
X63429057Y-79299499D01*
X63270943Y-79299499D01*
X63270941Y-79299499D01*
X63243707Y-79306796D01*
X63173857Y-79305131D01*
X63123937Y-79274701D01*
X62636819Y-78787583D01*
X62603334Y-78726260D01*
X62600500Y-78699902D01*
X62600500Y-70757844D01*
X63550000Y-70757844D01*
X63556401Y-70817372D01*
X63556403Y-70817379D01*
X63606645Y-70952086D01*
X63606649Y-70952093D01*
X63692809Y-71067187D01*
X63692812Y-71067190D01*
X63807906Y-71153350D01*
X63807913Y-71153354D01*
X63942620Y-71203596D01*
X63942627Y-71203598D01*
X64002155Y-71209999D01*
X64002172Y-71210000D01*
X65257500Y-71210000D01*
X65257500Y-69710000D01*
X63550000Y-69710000D01*
X63550000Y-70757844D01*
X62600500Y-70757844D01*
X62600500Y-70089060D01*
X62600501Y-70089047D01*
X62600501Y-69920944D01*
X62595856Y-69903608D01*
X62559577Y-69768216D01*
X62544918Y-69742826D01*
X62480524Y-69631290D01*
X62480518Y-69631282D01*
X62126431Y-69277195D01*
X61731414Y-68882179D01*
X61697930Y-68820857D01*
X61702914Y-68751166D01*
X61744786Y-68695232D01*
X61810250Y-68670815D01*
X61819096Y-68670499D01*
X62397871Y-68670499D01*
X62397872Y-68670499D01*
X62457483Y-68664091D01*
X62592331Y-68613796D01*
X62707546Y-68527546D01*
X62793796Y-68412331D01*
X62844091Y-68277483D01*
X62850500Y-68217873D01*
X62850500Y-68162155D01*
X63550000Y-68162155D01*
X63550000Y-69210000D01*
X65257500Y-69210000D01*
X65257500Y-67710000D01*
X65757500Y-67710000D01*
X65757500Y-71210000D01*
X67012828Y-71210000D01*
X67012844Y-71209999D01*
X67072372Y-71203598D01*
X67072383Y-71203595D01*
X67118768Y-71186295D01*
X67188459Y-71181310D01*
X67249783Y-71214794D01*
X67283268Y-71276117D01*
X67278284Y-71345809D01*
X67262420Y-71375361D01*
X67228000Y-71422736D01*
X67149291Y-71577208D01*
X67149290Y-71577211D01*
X67095720Y-71742086D01*
X67068600Y-71913312D01*
X67068600Y-72086687D01*
X67095720Y-72257913D01*
X67149290Y-72422788D01*
X67149291Y-72422791D01*
X67227998Y-72577260D01*
X67329899Y-72717514D01*
X67452486Y-72840101D01*
X67592740Y-72942002D01*
X67632805Y-72962416D01*
X67747208Y-73020708D01*
X67747211Y-73020709D01*
X67829648Y-73047494D01*
X67912088Y-73074280D01*
X67991391Y-73086840D01*
X68083313Y-73101400D01*
X68083318Y-73101400D01*
X68256687Y-73101400D01*
X68339695Y-73088252D01*
X68427912Y-73074280D01*
X68592791Y-73020708D01*
X68747260Y-72942002D01*
X68887514Y-72840101D01*
X69010101Y-72717514D01*
X69112002Y-72577260D01*
X69190708Y-72422791D01*
X69244280Y-72257912D01*
X69260521Y-72155368D01*
X69271400Y-72086687D01*
X69271400Y-71913312D01*
X69261831Y-71852900D01*
X71005600Y-71852900D01*
X71005600Y-72147099D01*
X71005601Y-72147116D01*
X71044001Y-72438796D01*
X71120152Y-72722994D01*
X71232734Y-72994794D01*
X71232742Y-72994810D01*
X71379840Y-73249589D01*
X71379851Y-73249605D01*
X71558948Y-73483009D01*
X71558954Y-73483016D01*
X71766983Y-73691045D01*
X71766990Y-73691051D01*
X71915030Y-73804646D01*
X72000403Y-73870155D01*
X72000410Y-73870159D01*
X72255189Y-74017257D01*
X72255205Y-74017265D01*
X72527005Y-74129847D01*
X72527007Y-74129847D01*
X72527013Y-74129850D01*
X72811200Y-74205998D01*
X73102894Y-74244400D01*
X73102901Y-74244400D01*
X73397099Y-74244400D01*
X73397106Y-74244400D01*
X73688800Y-74205998D01*
X73972987Y-74129850D01*
X74140284Y-74060554D01*
X74244794Y-74017265D01*
X74244797Y-74017263D01*
X74244803Y-74017261D01*
X74499597Y-73870155D01*
X74733011Y-73691050D01*
X74941050Y-73483011D01*
X75120155Y-73249597D01*
X75267261Y-72994803D01*
X75379850Y-72722987D01*
X75455998Y-72438800D01*
X75494400Y-72147106D01*
X75494400Y-71913312D01*
X77228600Y-71913312D01*
X77228600Y-72086687D01*
X77255720Y-72257913D01*
X77309290Y-72422788D01*
X77309291Y-72422791D01*
X77387998Y-72577260D01*
X77489899Y-72717514D01*
X77612486Y-72840101D01*
X77752740Y-72942002D01*
X77792805Y-72962416D01*
X77907208Y-73020708D01*
X77907211Y-73020709D01*
X77989648Y-73047494D01*
X78072088Y-73074280D01*
X78151391Y-73086840D01*
X78243313Y-73101400D01*
X78243318Y-73101400D01*
X78416687Y-73101400D01*
X78499695Y-73088252D01*
X78587912Y-73074280D01*
X78752791Y-73020708D01*
X78907260Y-72942002D01*
X79047514Y-72840101D01*
X79170101Y-72717514D01*
X79272002Y-72577260D01*
X79350708Y-72422791D01*
X79404280Y-72257912D01*
X79420521Y-72155368D01*
X79431400Y-72086687D01*
X79431400Y-71913312D01*
X79406430Y-71755665D01*
X79404280Y-71742088D01*
X79377494Y-71659648D01*
X79350709Y-71577211D01*
X79350708Y-71577208D01*
X79272001Y-71422739D01*
X79170101Y-71282486D01*
X79047514Y-71159899D01*
X78907260Y-71057998D01*
X78899902Y-71054249D01*
X78752791Y-70979291D01*
X78752788Y-70979290D01*
X78587913Y-70925720D01*
X78416687Y-70898600D01*
X78416682Y-70898600D01*
X78243318Y-70898600D01*
X78243313Y-70898600D01*
X78072086Y-70925720D01*
X77907211Y-70979290D01*
X77907208Y-70979291D01*
X77752739Y-71057998D01*
X77740092Y-71067187D01*
X77612486Y-71159899D01*
X77612484Y-71159901D01*
X77612483Y-71159901D01*
X77489901Y-71282483D01*
X77489901Y-71282484D01*
X77489899Y-71282486D01*
X77459231Y-71324697D01*
X77387998Y-71422739D01*
X77309291Y-71577208D01*
X77309290Y-71577211D01*
X77255720Y-71742086D01*
X77228600Y-71913312D01*
X75494400Y-71913312D01*
X75494400Y-71852894D01*
X75455998Y-71561200D01*
X75379850Y-71277013D01*
X75371412Y-71256642D01*
X75267265Y-71005205D01*
X75267257Y-71005189D01*
X75120159Y-70750410D01*
X75120155Y-70750403D01*
X75011564Y-70608884D01*
X74941051Y-70516990D01*
X74941045Y-70516983D01*
X74733016Y-70308954D01*
X74733009Y-70308948D01*
X74499605Y-70129851D01*
X74499603Y-70129849D01*
X74499597Y-70129845D01*
X74499592Y-70129842D01*
X74499589Y-70129840D01*
X74244810Y-69982742D01*
X74244794Y-69982734D01*
X73972994Y-69870152D01*
X73955927Y-69865579D01*
X73688800Y-69794002D01*
X73688799Y-69794001D01*
X73688796Y-69794001D01*
X73397116Y-69755601D01*
X73397111Y-69755600D01*
X73397106Y-69755600D01*
X73102894Y-69755600D01*
X73102888Y-69755600D01*
X73102883Y-69755601D01*
X72811203Y-69794001D01*
X72527005Y-69870152D01*
X72255205Y-69982734D01*
X72255189Y-69982742D01*
X72000410Y-70129840D01*
X72000394Y-70129851D01*
X71766990Y-70308948D01*
X71766983Y-70308954D01*
X71558954Y-70516983D01*
X71558948Y-70516990D01*
X71379851Y-70750394D01*
X71379840Y-70750410D01*
X71232742Y-71005189D01*
X71232734Y-71005205D01*
X71120152Y-71277005D01*
X71044001Y-71561203D01*
X71005601Y-71852883D01*
X71005600Y-71852900D01*
X69261831Y-71852900D01*
X69246430Y-71755665D01*
X69244280Y-71742088D01*
X69217494Y-71659648D01*
X69190709Y-71577211D01*
X69190708Y-71577208D01*
X69112001Y-71422738D01*
X69088580Y-71390503D01*
X69065099Y-71324697D01*
X69080924Y-71256642D01*
X69131029Y-71207947D01*
X69199507Y-71194071D01*
X69205068Y-71194675D01*
X69305874Y-71207947D01*
X69321460Y-71209999D01*
X69325266Y-71210500D01*
X69325273Y-71210500D01*
X69554727Y-71210500D01*
X69554734Y-71210500D01*
X69782238Y-71180548D01*
X70003887Y-71121158D01*
X70215888Y-71033344D01*
X70414612Y-70918611D01*
X70596661Y-70778919D01*
X70596665Y-70778914D01*
X70596670Y-70778911D01*
X70758911Y-70616670D01*
X70758914Y-70616665D01*
X70758919Y-70616661D01*
X70898611Y-70434612D01*
X71013344Y-70235888D01*
X71101158Y-70023887D01*
X71160548Y-69802238D01*
X71190500Y-69574734D01*
X71190500Y-69345266D01*
X71160548Y-69117762D01*
X71101158Y-68896113D01*
X71031705Y-68728439D01*
X71013349Y-68684123D01*
X71013346Y-68684117D01*
X71013344Y-68684112D01*
X70898611Y-68485388D01*
X70898608Y-68485385D01*
X70898607Y-68485382D01*
X70758918Y-68303338D01*
X70758911Y-68303330D01*
X70596670Y-68141089D01*
X70596661Y-68141081D01*
X70414617Y-68001392D01*
X70376740Y-67979524D01*
X70215888Y-67886656D01*
X70215876Y-67886650D01*
X70003887Y-67798842D01*
X69782238Y-67739452D01*
X69744215Y-67734446D01*
X69554741Y-67709500D01*
X69554734Y-67709500D01*
X69325266Y-67709500D01*
X69325258Y-67709500D01*
X69108715Y-67738009D01*
X69097762Y-67739452D01*
X69018530Y-67760682D01*
X68876112Y-67798842D01*
X68664123Y-67886650D01*
X68664109Y-67886657D01*
X68465382Y-68001392D01*
X68283338Y-68141081D01*
X68121081Y-68303338D01*
X67981392Y-68485382D01*
X67866657Y-68684109D01*
X67866650Y-68684123D01*
X67782055Y-68888355D01*
X67778842Y-68896113D01*
X67727051Y-69089404D01*
X67719453Y-69117759D01*
X67719451Y-69117770D01*
X67711939Y-69174828D01*
X67683672Y-69238724D01*
X67625347Y-69277195D01*
X67555483Y-69278026D01*
X67496260Y-69240954D01*
X67466481Y-69177748D01*
X67465000Y-69158642D01*
X67465000Y-68162172D01*
X67464999Y-68162155D01*
X67458598Y-68102627D01*
X67458596Y-68102620D01*
X67408354Y-67967913D01*
X67408350Y-67967906D01*
X67322190Y-67852812D01*
X67322187Y-67852809D01*
X67207093Y-67766649D01*
X67207086Y-67766645D01*
X67072379Y-67716403D01*
X67072372Y-67716401D01*
X67012844Y-67710000D01*
X65757500Y-67710000D01*
X65257500Y-67710000D01*
X64002155Y-67710000D01*
X63942627Y-67716401D01*
X63942620Y-67716403D01*
X63807913Y-67766645D01*
X63807906Y-67766649D01*
X63692812Y-67852809D01*
X63692809Y-67852812D01*
X63606649Y-67967906D01*
X63606645Y-67967913D01*
X63556403Y-68102620D01*
X63556401Y-68102627D01*
X63550000Y-68162155D01*
X62850500Y-68162155D01*
X62850499Y-65622128D01*
X62844091Y-65562517D01*
X62798217Y-65439523D01*
X62793797Y-65427671D01*
X62793793Y-65427664D01*
X62707547Y-65312455D01*
X62707544Y-65312452D01*
X62592335Y-65226206D01*
X62592328Y-65226202D01*
X62457482Y-65175908D01*
X62457483Y-65175908D01*
X62397883Y-65169501D01*
X62397881Y-65169500D01*
X62397873Y-65169500D01*
X62397865Y-65169500D01*
X59957597Y-65169500D01*
X59890558Y-65149815D01*
X59869916Y-65133181D01*
X58261721Y-63524986D01*
X71125001Y-63524986D01*
X71135494Y-63627697D01*
X71190641Y-63794119D01*
X71190643Y-63794124D01*
X71282684Y-63943345D01*
X71406654Y-64067315D01*
X71555875Y-64159356D01*
X71555880Y-64159358D01*
X71722302Y-64214505D01*
X71722309Y-64214506D01*
X71825019Y-64224999D01*
X71962499Y-64224999D01*
X71962500Y-64224998D01*
X71962500Y-63250000D01*
X71125001Y-63250000D01*
X71125001Y-63524986D01*
X58261721Y-63524986D01*
X57375090Y-62638355D01*
X57375088Y-62638352D01*
X57256217Y-62519481D01*
X57256216Y-62519480D01*
X57179195Y-62475013D01*
X71125000Y-62475013D01*
X71125000Y-62750000D01*
X71962500Y-62750000D01*
X71962500Y-61775000D01*
X71825027Y-61775000D01*
X71825012Y-61775001D01*
X71722302Y-61785494D01*
X71555880Y-61840641D01*
X71555875Y-61840643D01*
X71406654Y-61932684D01*
X71282684Y-62056654D01*
X71190643Y-62205875D01*
X71190641Y-62205880D01*
X71135494Y-62372302D01*
X71135493Y-62372309D01*
X71125000Y-62475013D01*
X57179195Y-62475013D01*
X57169404Y-62469360D01*
X57169404Y-62469359D01*
X57169400Y-62469358D01*
X57119285Y-62440423D01*
X56966557Y-62399499D01*
X56808443Y-62399499D01*
X56800847Y-62399499D01*
X56800831Y-62399500D01*
X56463585Y-62399500D01*
X56396546Y-62379815D01*
X56350791Y-62327011D01*
X56345879Y-62314504D01*
X56309814Y-62205666D01*
X56217712Y-62056344D01*
X56093656Y-61932288D01*
X55967614Y-61854545D01*
X55944336Y-61840187D01*
X55944331Y-61840185D01*
X55942862Y-61839698D01*
X55777797Y-61785001D01*
X55777795Y-61785000D01*
X55675010Y-61774500D01*
X54899998Y-61774500D01*
X54899980Y-61774501D01*
X54797203Y-61785000D01*
X54797200Y-61785001D01*
X54630668Y-61840185D01*
X54630663Y-61840187D01*
X54481342Y-61932289D01*
X54357288Y-62056343D01*
X54357283Y-62056349D01*
X54355241Y-62059661D01*
X54353247Y-62061453D01*
X54352807Y-62062011D01*
X54352711Y-62061935D01*
X54303291Y-62106383D01*
X54234328Y-62117602D01*
X54170247Y-62089755D01*
X54144168Y-62059656D01*
X54142319Y-62056659D01*
X54142316Y-62056655D01*
X54018345Y-61932684D01*
X53869124Y-61840643D01*
X53869119Y-61840641D01*
X53702697Y-61785494D01*
X53702690Y-61785493D01*
X53599986Y-61775000D01*
X53462500Y-61775000D01*
X53462500Y-64224999D01*
X53599972Y-64224999D01*
X53599986Y-64224998D01*
X53702697Y-64214505D01*
X53869119Y-64159358D01*
X53869124Y-64159356D01*
X54018345Y-64067315D01*
X54142318Y-63943342D01*
X54144165Y-63940348D01*
X54145969Y-63938724D01*
X54146798Y-63937677D01*
X54146976Y-63937818D01*
X54196110Y-63893621D01*
X54265073Y-63882396D01*
X54329156Y-63910236D01*
X54355243Y-63940341D01*
X54357288Y-63943656D01*
X54481344Y-64067712D01*
X54630666Y-64159814D01*
X54797203Y-64214999D01*
X54899991Y-64225500D01*
X55675008Y-64225499D01*
X55675016Y-64225498D01*
X55675019Y-64225498D01*
X55731302Y-64219748D01*
X55777797Y-64214999D01*
X55944334Y-64159814D01*
X56093656Y-64067712D01*
X56217712Y-63943656D01*
X56309814Y-63794334D01*
X56345879Y-63685494D01*
X56385652Y-63628051D01*
X56450167Y-63601228D01*
X56463585Y-63600500D01*
X56587403Y-63600500D01*
X56654442Y-63620185D01*
X56675084Y-63636819D01*
X58728181Y-65689916D01*
X58761666Y-65751239D01*
X58764500Y-65777597D01*
X58764500Y-66614847D01*
X58744815Y-66681886D01*
X58692011Y-66727641D01*
X58622853Y-66737585D01*
X58559297Y-66708560D01*
X58521523Y-66649782D01*
X58517561Y-66631032D01*
X58515737Y-66617174D01*
X58510548Y-66577762D01*
X58451158Y-66356113D01*
X58363344Y-66144112D01*
X58248611Y-65945388D01*
X58248608Y-65945385D01*
X58248607Y-65945382D01*
X58147764Y-65813962D01*
X58108919Y-65763339D01*
X58108918Y-65763338D01*
X58108911Y-65763330D01*
X57946670Y-65601089D01*
X57946661Y-65601081D01*
X57764617Y-65461392D01*
X57726740Y-65439524D01*
X57661792Y-65402026D01*
X57565890Y-65346657D01*
X57565876Y-65346650D01*
X57353887Y-65258842D01*
X57132238Y-65199452D01*
X57094215Y-65194446D01*
X56904741Y-65169500D01*
X56904734Y-65169500D01*
X56675266Y-65169500D01*
X56675258Y-65169500D01*
X56458715Y-65198009D01*
X56447762Y-65199452D01*
X56354076Y-65224554D01*
X56226112Y-65258842D01*
X56014123Y-65346650D01*
X56014109Y-65346657D01*
X55815382Y-65461392D01*
X55633338Y-65601081D01*
X55471081Y-65763338D01*
X55331392Y-65945382D01*
X55216657Y-66144109D01*
X55216650Y-66144123D01*
X55128842Y-66356112D01*
X55069453Y-66577759D01*
X55069451Y-66577770D01*
X55039500Y-66805258D01*
X55039500Y-67034741D01*
X55048961Y-67106597D01*
X55069452Y-67262238D01*
X55098078Y-67369073D01*
X55128842Y-67483887D01*
X55216650Y-67695876D01*
X55216657Y-67695890D01*
X55331392Y-67894617D01*
X55471081Y-68076661D01*
X55471089Y-68076670D01*
X55633330Y-68238911D01*
X55633338Y-68238918D01*
X55815382Y-68378607D01*
X55815385Y-68378608D01*
X55815388Y-68378611D01*
X56014112Y-68493344D01*
X56014117Y-68493346D01*
X56014123Y-68493349D01*
X56096678Y-68527544D01*
X56226113Y-68581158D01*
X56447762Y-68640548D01*
X56664312Y-68669057D01*
X56675250Y-68670498D01*
X56675266Y-68670500D01*
X56675273Y-68670500D01*
X56904727Y-68670500D01*
X56904734Y-68670500D01*
X57132238Y-68640548D01*
X57353887Y-68581158D01*
X57565888Y-68493344D01*
X57764612Y-68378611D01*
X57946661Y-68238919D01*
X57946665Y-68238914D01*
X57946670Y-68238911D01*
X58108911Y-68076670D01*
X58108914Y-68076665D01*
X58108919Y-68076661D01*
X58248611Y-67894612D01*
X58363344Y-67695888D01*
X58451158Y-67483887D01*
X58510548Y-67262238D01*
X58517561Y-67208964D01*
X58545827Y-67145069D01*
X58604151Y-67106597D01*
X58674016Y-67105765D01*
X58733239Y-67142837D01*
X58763019Y-67206043D01*
X58764500Y-67225150D01*
X58764500Y-68217870D01*
X58764501Y-68217876D01*
X58770908Y-68277483D01*
X58821202Y-68412328D01*
X58821206Y-68412335D01*
X58907452Y-68527544D01*
X58907455Y-68527547D01*
X59022664Y-68613793D01*
X59022671Y-68613797D01*
X59157517Y-68664091D01*
X59157516Y-68664091D01*
X59164444Y-68664835D01*
X59217127Y-68670500D01*
X60082999Y-68670499D01*
X60150038Y-68690183D01*
X60195793Y-68742987D01*
X60206999Y-68794499D01*
X60206999Y-68886554D01*
X60206998Y-68886554D01*
X60247923Y-69039285D01*
X60276858Y-69089400D01*
X60276859Y-69089404D01*
X60276860Y-69089404D01*
X60293230Y-69117759D01*
X60326979Y-69176214D01*
X60326981Y-69176217D01*
X60445849Y-69295085D01*
X60445855Y-69295090D01*
X61363181Y-70212416D01*
X61396666Y-70273739D01*
X61399500Y-70300097D01*
X61399500Y-78913330D01*
X61399499Y-78913348D01*
X61399499Y-79079054D01*
X61399498Y-79079054D01*
X61440424Y-79231789D01*
X61440425Y-79231790D01*
X61461455Y-79268214D01*
X61461456Y-79268216D01*
X61519475Y-79368709D01*
X61519481Y-79368717D01*
X61638349Y-79487585D01*
X61638354Y-79487589D01*
X62631284Y-80480520D01*
X62631286Y-80480521D01*
X62631290Y-80480524D01*
X62768209Y-80559573D01*
X62768216Y-80559577D01*
X62920943Y-80600501D01*
X62920945Y-80600501D01*
X63086654Y-80600501D01*
X63086670Y-80600500D01*
X63163331Y-80600500D01*
X63163347Y-80600501D01*
X63170943Y-80600501D01*
X63329059Y-80600501D01*
X63333812Y-80599875D01*
X63366193Y-80599874D01*
X63370938Y-80600498D01*
X63370942Y-80600500D01*
X63370943Y-80600500D01*
X146163331Y-80600500D01*
X146163347Y-80600501D01*
X146170943Y-80600501D01*
X146329054Y-80600501D01*
X146329057Y-80600501D01*
X146481785Y-80559577D01*
X146531904Y-80530639D01*
X146618716Y-80480520D01*
X146730520Y-80368716D01*
X146730520Y-80368714D01*
X146740728Y-80358507D01*
X146740730Y-80358504D01*
X150688506Y-76410728D01*
X150688511Y-76410724D01*
X150698714Y-76400520D01*
X150698716Y-76400520D01*
X150810520Y-76288716D01*
X150889577Y-76151784D01*
X150930500Y-75999057D01*
X150930500Y-74162596D01*
X150950185Y-74095557D01*
X150981614Y-74062278D01*
X150985403Y-74059524D01*
X150985405Y-74059524D01*
X151144646Y-73943828D01*
X151283828Y-73804646D01*
X151399524Y-73645405D01*
X151482265Y-73483016D01*
X151489515Y-73468787D01*
X151537489Y-73417990D01*
X151605310Y-73401195D01*
X151671445Y-73423732D01*
X151710485Y-73468787D01*
X151800474Y-73645403D01*
X151833636Y-73691045D01*
X151916172Y-73804646D01*
X152055354Y-73943828D01*
X152079948Y-73961697D01*
X152080937Y-73962415D01*
X152123603Y-74017744D01*
X152129582Y-74087358D01*
X152125094Y-74103687D01*
X152094632Y-74190742D01*
X152094630Y-74190750D01*
X152074435Y-74369996D01*
X152074435Y-74370003D01*
X152094630Y-74549249D01*
X152094631Y-74549254D01*
X152154211Y-74719523D01*
X152250184Y-74872262D01*
X152377738Y-74999816D01*
X152530478Y-75095789D01*
X152700745Y-75155368D01*
X152700750Y-75155369D01*
X152879996Y-75175565D01*
X152880000Y-75175565D01*
X152880004Y-75175565D01*
X153059249Y-75155369D01*
X153059252Y-75155368D01*
X153059255Y-75155368D01*
X153229522Y-75095789D01*
X153382262Y-74999816D01*
X153509816Y-74872262D01*
X153605789Y-74719522D01*
X153665368Y-74549255D01*
X153685565Y-74370000D01*
X153671413Y-74244400D01*
X153665369Y-74190750D01*
X153665366Y-74190737D01*
X153630852Y-74092103D01*
X153627290Y-74022324D01*
X153662018Y-73961697D01*
X153675015Y-73950825D01*
X153679880Y-73947291D01*
X153684646Y-73943828D01*
X153823828Y-73804646D01*
X153939524Y-73645405D01*
X154028884Y-73470025D01*
X154028884Y-73470022D01*
X154029795Y-73468236D01*
X154077769Y-73417440D01*
X154145590Y-73400644D01*
X154211725Y-73423181D01*
X154250765Y-73468235D01*
X154340904Y-73645143D01*
X154456555Y-73804321D01*
X154595678Y-73943444D01*
X154754856Y-74059095D01*
X154930162Y-74148418D01*
X155117283Y-74209218D01*
X155160000Y-74215984D01*
X155160000Y-72364000D01*
X155179685Y-72296961D01*
X155232489Y-72251206D01*
X155284000Y-72240000D01*
X155536000Y-72240000D01*
X155603039Y-72259685D01*
X155648794Y-72312489D01*
X155660000Y-72364000D01*
X155660000Y-74215983D01*
X155702716Y-74209218D01*
X155889837Y-74148418D01*
X156065143Y-74059095D01*
X156224321Y-73943444D01*
X156363444Y-73804321D01*
X156479097Y-73645141D01*
X156569234Y-73468236D01*
X156617208Y-73417439D01*
X156685029Y-73400644D01*
X156751164Y-73423181D01*
X156790204Y-73468235D01*
X156791115Y-73470024D01*
X156791116Y-73470025D01*
X156880476Y-73645405D01*
X156996172Y-73804646D01*
X156996174Y-73804648D01*
X157077494Y-73885968D01*
X157110979Y-73947291D01*
X157113813Y-73973649D01*
X157113813Y-74128820D01*
X157094807Y-74194791D01*
X157088522Y-74204792D01*
X157028946Y-74375050D01*
X157028943Y-74375063D01*
X157008748Y-74554309D01*
X157008748Y-74554316D01*
X157028943Y-74733562D01*
X157028944Y-74733567D01*
X157088524Y-74903836D01*
X157148832Y-74999815D01*
X157184497Y-75056575D01*
X157312051Y-75184129D01*
X157464791Y-75280102D01*
X157635058Y-75339681D01*
X157635063Y-75339682D01*
X157814309Y-75359878D01*
X157814313Y-75359878D01*
X157814317Y-75359878D01*
X157993562Y-75339682D01*
X157993565Y-75339681D01*
X157993568Y-75339681D01*
X158163835Y-75280102D01*
X158316575Y-75184129D01*
X158444129Y-75056575D01*
X158540102Y-74903835D01*
X158599681Y-74733568D01*
X158599682Y-74733562D01*
X158619878Y-74554316D01*
X158619878Y-74554309D01*
X158599682Y-74375063D01*
X158599679Y-74375050D01*
X158542625Y-74211999D01*
X158539063Y-74142220D01*
X158573791Y-74081593D01*
X158603374Y-74060558D01*
X158605405Y-74059524D01*
X158764646Y-73943828D01*
X158887819Y-73820655D01*
X158949142Y-73787170D01*
X159018834Y-73792154D01*
X159074767Y-73834026D01*
X159099184Y-73899490D01*
X159099500Y-73908336D01*
X159099500Y-77141324D01*
X159079815Y-77208363D01*
X159063181Y-77229005D01*
X154829005Y-81463181D01*
X154767682Y-81496666D01*
X154741324Y-81499500D01*
X48258676Y-81499500D01*
X48191637Y-81479815D01*
X48170995Y-81463181D01*
X43536819Y-76829005D01*
X43503334Y-76767682D01*
X43500500Y-76741324D01*
X43500500Y-70757844D01*
X44550000Y-70757844D01*
X44556401Y-70817372D01*
X44556403Y-70817379D01*
X44606645Y-70952086D01*
X44606649Y-70952093D01*
X44692809Y-71067187D01*
X44692812Y-71067190D01*
X44807906Y-71153350D01*
X44807913Y-71153354D01*
X44942620Y-71203596D01*
X44942627Y-71203598D01*
X45002155Y-71209999D01*
X45002172Y-71210000D01*
X46257500Y-71210000D01*
X46257500Y-69710000D01*
X44550000Y-69710000D01*
X44550000Y-70757844D01*
X43500500Y-70757844D01*
X43500500Y-68162155D01*
X44550000Y-68162155D01*
X44550000Y-69210000D01*
X46257500Y-69210000D01*
X46257500Y-67710000D01*
X46757500Y-67710000D01*
X46757500Y-71210000D01*
X48012828Y-71210000D01*
X48012844Y-71209999D01*
X48072372Y-71203598D01*
X48072383Y-71203595D01*
X48118768Y-71186295D01*
X48188459Y-71181310D01*
X48249783Y-71214794D01*
X48283268Y-71276117D01*
X48278284Y-71345809D01*
X48262420Y-71375361D01*
X48228000Y-71422736D01*
X48149291Y-71577208D01*
X48149290Y-71577211D01*
X48095720Y-71742086D01*
X48068600Y-71913312D01*
X48068600Y-72086687D01*
X48095720Y-72257913D01*
X48149290Y-72422788D01*
X48149291Y-72422791D01*
X48227998Y-72577260D01*
X48329899Y-72717514D01*
X48452486Y-72840101D01*
X48592740Y-72942002D01*
X48632805Y-72962416D01*
X48747208Y-73020708D01*
X48747211Y-73020709D01*
X48829648Y-73047494D01*
X48912088Y-73074280D01*
X48991391Y-73086840D01*
X49083313Y-73101400D01*
X49083318Y-73101400D01*
X49256687Y-73101400D01*
X49339695Y-73088252D01*
X49427912Y-73074280D01*
X49592791Y-73020708D01*
X49747260Y-72942002D01*
X49887514Y-72840101D01*
X50010101Y-72717514D01*
X50112002Y-72577260D01*
X50190708Y-72422791D01*
X50244280Y-72257912D01*
X50260521Y-72155368D01*
X50271400Y-72086687D01*
X50271400Y-71913312D01*
X50261831Y-71852900D01*
X52005600Y-71852900D01*
X52005600Y-72147099D01*
X52005601Y-72147116D01*
X52044001Y-72438796D01*
X52120152Y-72722994D01*
X52232734Y-72994794D01*
X52232742Y-72994810D01*
X52379840Y-73249589D01*
X52379851Y-73249605D01*
X52558948Y-73483009D01*
X52558954Y-73483016D01*
X52766983Y-73691045D01*
X52766990Y-73691051D01*
X52915030Y-73804646D01*
X53000403Y-73870155D01*
X53000410Y-73870159D01*
X53255189Y-74017257D01*
X53255205Y-74017265D01*
X53527005Y-74129847D01*
X53527007Y-74129847D01*
X53527013Y-74129850D01*
X53811200Y-74205998D01*
X54102894Y-74244400D01*
X54102901Y-74244400D01*
X54397099Y-74244400D01*
X54397106Y-74244400D01*
X54688800Y-74205998D01*
X54972987Y-74129850D01*
X55140284Y-74060554D01*
X55244794Y-74017265D01*
X55244797Y-74017263D01*
X55244803Y-74017261D01*
X55499597Y-73870155D01*
X55733011Y-73691050D01*
X55941050Y-73483011D01*
X56120155Y-73249597D01*
X56267261Y-72994803D01*
X56379850Y-72722987D01*
X56455998Y-72438800D01*
X56494400Y-72147106D01*
X56494400Y-71913312D01*
X58228600Y-71913312D01*
X58228600Y-72086687D01*
X58255720Y-72257913D01*
X58309290Y-72422788D01*
X58309291Y-72422791D01*
X58387998Y-72577260D01*
X58489899Y-72717514D01*
X58612486Y-72840101D01*
X58752740Y-72942002D01*
X58792805Y-72962416D01*
X58907208Y-73020708D01*
X58907211Y-73020709D01*
X58989648Y-73047494D01*
X59072088Y-73074280D01*
X59151391Y-73086840D01*
X59243313Y-73101400D01*
X59243318Y-73101400D01*
X59416687Y-73101400D01*
X59499695Y-73088252D01*
X59587912Y-73074280D01*
X59752791Y-73020708D01*
X59907260Y-72942002D01*
X60047514Y-72840101D01*
X60170101Y-72717514D01*
X60272002Y-72577260D01*
X60350708Y-72422791D01*
X60404280Y-72257912D01*
X60420521Y-72155368D01*
X60431400Y-72086687D01*
X60431400Y-71913312D01*
X60406430Y-71755665D01*
X60404280Y-71742088D01*
X60377494Y-71659648D01*
X60350709Y-71577211D01*
X60350708Y-71577208D01*
X60272001Y-71422739D01*
X60170101Y-71282486D01*
X60047514Y-71159899D01*
X59907260Y-71057998D01*
X59899902Y-71054249D01*
X59752791Y-70979291D01*
X59752788Y-70979290D01*
X59587913Y-70925720D01*
X59416687Y-70898600D01*
X59416682Y-70898600D01*
X59243318Y-70898600D01*
X59243313Y-70898600D01*
X59072086Y-70925720D01*
X58907211Y-70979290D01*
X58907208Y-70979291D01*
X58752739Y-71057998D01*
X58740092Y-71067187D01*
X58612486Y-71159899D01*
X58612484Y-71159901D01*
X58612483Y-71159901D01*
X58489901Y-71282483D01*
X58489901Y-71282484D01*
X58489899Y-71282486D01*
X58459231Y-71324697D01*
X58387998Y-71422739D01*
X58309291Y-71577208D01*
X58309290Y-71577211D01*
X58255720Y-71742086D01*
X58228600Y-71913312D01*
X56494400Y-71913312D01*
X56494400Y-71852894D01*
X56455998Y-71561200D01*
X56379850Y-71277013D01*
X56371412Y-71256642D01*
X56267265Y-71005205D01*
X56267257Y-71005189D01*
X56120159Y-70750410D01*
X56120155Y-70750403D01*
X56011564Y-70608884D01*
X55941051Y-70516990D01*
X55941045Y-70516983D01*
X55733016Y-70308954D01*
X55733009Y-70308948D01*
X55499605Y-70129851D01*
X55499603Y-70129849D01*
X55499597Y-70129845D01*
X55499592Y-70129842D01*
X55499589Y-70129840D01*
X55244810Y-69982742D01*
X55244794Y-69982734D01*
X54972994Y-69870152D01*
X54955927Y-69865579D01*
X54688800Y-69794002D01*
X54688799Y-69794001D01*
X54688796Y-69794001D01*
X54397116Y-69755601D01*
X54397111Y-69755600D01*
X54397106Y-69755600D01*
X54102894Y-69755600D01*
X54102888Y-69755600D01*
X54102883Y-69755601D01*
X53811203Y-69794001D01*
X53527005Y-69870152D01*
X53255205Y-69982734D01*
X53255189Y-69982742D01*
X53000410Y-70129840D01*
X53000394Y-70129851D01*
X52766990Y-70308948D01*
X52766983Y-70308954D01*
X52558954Y-70516983D01*
X52558948Y-70516990D01*
X52379851Y-70750394D01*
X52379840Y-70750410D01*
X52232742Y-71005189D01*
X52232734Y-71005205D01*
X52120152Y-71277005D01*
X52044001Y-71561203D01*
X52005601Y-71852883D01*
X52005600Y-71852900D01*
X50261831Y-71852900D01*
X50246430Y-71755665D01*
X50244280Y-71742088D01*
X50217494Y-71659648D01*
X50190709Y-71577211D01*
X50190708Y-71577208D01*
X50112001Y-71422738D01*
X50088580Y-71390503D01*
X50065099Y-71324697D01*
X50080924Y-71256642D01*
X50131029Y-71207947D01*
X50199507Y-71194071D01*
X50205068Y-71194675D01*
X50305874Y-71207947D01*
X50321460Y-71209999D01*
X50325266Y-71210500D01*
X50325273Y-71210500D01*
X50554727Y-71210500D01*
X50554734Y-71210500D01*
X50782238Y-71180548D01*
X51003887Y-71121158D01*
X51215888Y-71033344D01*
X51414612Y-70918611D01*
X51596661Y-70778919D01*
X51596665Y-70778914D01*
X51596670Y-70778911D01*
X51758911Y-70616670D01*
X51758914Y-70616665D01*
X51758919Y-70616661D01*
X51898611Y-70434612D01*
X52013344Y-70235888D01*
X52101158Y-70023887D01*
X52160548Y-69802238D01*
X52190500Y-69574734D01*
X52190500Y-69345266D01*
X52160548Y-69117762D01*
X52101158Y-68896113D01*
X52031705Y-68728439D01*
X52013349Y-68684123D01*
X52013346Y-68684117D01*
X52013344Y-68684112D01*
X51898611Y-68485388D01*
X51898608Y-68485385D01*
X51898607Y-68485382D01*
X51758918Y-68303338D01*
X51758911Y-68303330D01*
X51596670Y-68141089D01*
X51596661Y-68141081D01*
X51414617Y-68001392D01*
X51376740Y-67979524D01*
X51215888Y-67886656D01*
X51215876Y-67886650D01*
X51003887Y-67798842D01*
X50782238Y-67739452D01*
X50744215Y-67734446D01*
X50554741Y-67709500D01*
X50554734Y-67709500D01*
X50325266Y-67709500D01*
X50325258Y-67709500D01*
X50108715Y-67738009D01*
X50097762Y-67739452D01*
X50018530Y-67760682D01*
X49876112Y-67798842D01*
X49664123Y-67886650D01*
X49664109Y-67886657D01*
X49465382Y-68001392D01*
X49283338Y-68141081D01*
X49121081Y-68303338D01*
X48981392Y-68485382D01*
X48866657Y-68684109D01*
X48866650Y-68684123D01*
X48782055Y-68888355D01*
X48778842Y-68896113D01*
X48727051Y-69089404D01*
X48719453Y-69117759D01*
X48719451Y-69117770D01*
X48711939Y-69174828D01*
X48683672Y-69238724D01*
X48625347Y-69277195D01*
X48555483Y-69278026D01*
X48496260Y-69240954D01*
X48466481Y-69177748D01*
X48465000Y-69158642D01*
X48465000Y-68162172D01*
X48464999Y-68162155D01*
X48458598Y-68102627D01*
X48458596Y-68102620D01*
X48408354Y-67967913D01*
X48408350Y-67967906D01*
X48322190Y-67852812D01*
X48322187Y-67852809D01*
X48207093Y-67766649D01*
X48207086Y-67766645D01*
X48072379Y-67716403D01*
X48072372Y-67716401D01*
X48012844Y-67710000D01*
X46757500Y-67710000D01*
X46257500Y-67710000D01*
X45002155Y-67710000D01*
X44942627Y-67716401D01*
X44942620Y-67716403D01*
X44807913Y-67766645D01*
X44807906Y-67766649D01*
X44692812Y-67852809D01*
X44692809Y-67852812D01*
X44606649Y-67967906D01*
X44606645Y-67967913D01*
X44556403Y-68102620D01*
X44556401Y-68102627D01*
X44550000Y-68162155D01*
X43500500Y-68162155D01*
X43500500Y-63524986D01*
X52125001Y-63524986D01*
X52135494Y-63627697D01*
X52190641Y-63794119D01*
X52190643Y-63794124D01*
X52282684Y-63943345D01*
X52406654Y-64067315D01*
X52555875Y-64159356D01*
X52555880Y-64159358D01*
X52722302Y-64214505D01*
X52722309Y-64214506D01*
X52825019Y-64224999D01*
X52962499Y-64224999D01*
X52962500Y-64224998D01*
X52962500Y-63250000D01*
X52125001Y-63250000D01*
X52125001Y-63524986D01*
X43500500Y-63524986D01*
X43500500Y-62475013D01*
X52125000Y-62475013D01*
X52125000Y-62750000D01*
X52962500Y-62750000D01*
X52962500Y-61775000D01*
X52825027Y-61775000D01*
X52825012Y-61775001D01*
X52722302Y-61785494D01*
X52555880Y-61840641D01*
X52555875Y-61840643D01*
X52406654Y-61932684D01*
X52282684Y-62056654D01*
X52190643Y-62205875D01*
X52190641Y-62205880D01*
X52135494Y-62372302D01*
X52135493Y-62372309D01*
X52125000Y-62475013D01*
X43500500Y-62475013D01*
X43500500Y-60024986D01*
X52125001Y-60024986D01*
X52135494Y-60127697D01*
X52190641Y-60294119D01*
X52190643Y-60294124D01*
X52282684Y-60443345D01*
X52406654Y-60567315D01*
X52555875Y-60659356D01*
X52555880Y-60659358D01*
X52722302Y-60714505D01*
X52722309Y-60714506D01*
X52825019Y-60724999D01*
X52962499Y-60724999D01*
X52962500Y-60724998D01*
X52962500Y-59750000D01*
X52125001Y-59750000D01*
X52125001Y-60024986D01*
X43500500Y-60024986D01*
X43500500Y-58975013D01*
X52125000Y-58975013D01*
X52125000Y-59250000D01*
X52962500Y-59250000D01*
X52962500Y-58275000D01*
X52825027Y-58275000D01*
X52825012Y-58275001D01*
X52722302Y-58285494D01*
X52555880Y-58340641D01*
X52555875Y-58340643D01*
X52406654Y-58432684D01*
X52282684Y-58556654D01*
X52190643Y-58705875D01*
X52190641Y-58705880D01*
X52135494Y-58872302D01*
X52135493Y-58872309D01*
X52125000Y-58975013D01*
X43500500Y-58975013D01*
X43500500Y-50757844D01*
X44550000Y-50757844D01*
X44556401Y-50817372D01*
X44556403Y-50817379D01*
X44606645Y-50952086D01*
X44606649Y-50952093D01*
X44692809Y-51067187D01*
X44692812Y-51067190D01*
X44807906Y-51153350D01*
X44807913Y-51153354D01*
X44942620Y-51203596D01*
X44942627Y-51203598D01*
X45002155Y-51209999D01*
X45002172Y-51210000D01*
X46257500Y-51210000D01*
X46257500Y-49710000D01*
X44550000Y-49710000D01*
X44550000Y-50757844D01*
X43500500Y-50757844D01*
X43500500Y-48162155D01*
X44550000Y-48162155D01*
X44550000Y-49210000D01*
X46257500Y-49210000D01*
X46257500Y-47710000D01*
X46757500Y-47710000D01*
X46757500Y-51210000D01*
X48012828Y-51210000D01*
X48012844Y-51209999D01*
X48072372Y-51203598D01*
X48072383Y-51203595D01*
X48118768Y-51186295D01*
X48188459Y-51181310D01*
X48249783Y-51214794D01*
X48283268Y-51276117D01*
X48278284Y-51345809D01*
X48262420Y-51375361D01*
X48228000Y-51422736D01*
X48149291Y-51577208D01*
X48149290Y-51577211D01*
X48095720Y-51742086D01*
X48068600Y-51913312D01*
X48068600Y-52086687D01*
X48095720Y-52257913D01*
X48149290Y-52422788D01*
X48149291Y-52422791D01*
X48213728Y-52549254D01*
X48227998Y-52577260D01*
X48329899Y-52717514D01*
X48452486Y-52840101D01*
X48592740Y-52942002D01*
X48613171Y-52952412D01*
X48747208Y-53020708D01*
X48747211Y-53020709D01*
X48829648Y-53047494D01*
X48912088Y-53074280D01*
X48991391Y-53086840D01*
X49083313Y-53101400D01*
X49083318Y-53101400D01*
X49256687Y-53101400D01*
X49339695Y-53088252D01*
X49427912Y-53074280D01*
X49592791Y-53020708D01*
X49747260Y-52942002D01*
X49887514Y-52840101D01*
X50010101Y-52717514D01*
X50112002Y-52577260D01*
X50190708Y-52422791D01*
X50244280Y-52257912D01*
X50261831Y-52147099D01*
X50271400Y-52086687D01*
X50271400Y-51913312D01*
X50261831Y-51852900D01*
X52005600Y-51852900D01*
X52005600Y-52147099D01*
X52005601Y-52147116D01*
X52034944Y-52370003D01*
X52044002Y-52438800D01*
X52073598Y-52549255D01*
X52120152Y-52722994D01*
X52232734Y-52994794D01*
X52232742Y-52994810D01*
X52379840Y-53249589D01*
X52379851Y-53249605D01*
X52558948Y-53483009D01*
X52558954Y-53483016D01*
X52766983Y-53691045D01*
X52766990Y-53691051D01*
X52889181Y-53784811D01*
X53000403Y-53870155D01*
X53000410Y-53870159D01*
X53255189Y-54017257D01*
X53255205Y-54017265D01*
X53527005Y-54129847D01*
X53527007Y-54129847D01*
X53527013Y-54129850D01*
X53811200Y-54205998D01*
X54102894Y-54244400D01*
X54102901Y-54244400D01*
X54397099Y-54244400D01*
X54397106Y-54244400D01*
X54688800Y-54205998D01*
X54972987Y-54129850D01*
X55046318Y-54099475D01*
X55244794Y-54017265D01*
X55244797Y-54017263D01*
X55244803Y-54017261D01*
X55499597Y-53870155D01*
X55733011Y-53691050D01*
X55941050Y-53483011D01*
X56120155Y-53249597D01*
X56267261Y-52994803D01*
X56278533Y-52967591D01*
X56379847Y-52722994D01*
X56379846Y-52722994D01*
X56379850Y-52722987D01*
X56455998Y-52438800D01*
X56494400Y-52147106D01*
X56494400Y-51852894D01*
X56455998Y-51561200D01*
X56379850Y-51277013D01*
X56371412Y-51256642D01*
X56267265Y-51005205D01*
X56267257Y-51005189D01*
X56120159Y-50750410D01*
X56120155Y-50750403D01*
X56004380Y-50599522D01*
X55941051Y-50516990D01*
X55941045Y-50516983D01*
X55733016Y-50308954D01*
X55733009Y-50308948D01*
X55499605Y-50129851D01*
X55499603Y-50129849D01*
X55499597Y-50129845D01*
X55499592Y-50129842D01*
X55499589Y-50129840D01*
X55244810Y-49982742D01*
X55244794Y-49982734D01*
X54972994Y-49870152D01*
X54719544Y-49802240D01*
X54688800Y-49794002D01*
X54688799Y-49794001D01*
X54688796Y-49794001D01*
X54397116Y-49755601D01*
X54397111Y-49755600D01*
X54397106Y-49755600D01*
X54102894Y-49755600D01*
X54102888Y-49755600D01*
X54102883Y-49755601D01*
X53811203Y-49794001D01*
X53527005Y-49870152D01*
X53255205Y-49982734D01*
X53255189Y-49982742D01*
X53000410Y-50129840D01*
X53000394Y-50129851D01*
X52766990Y-50308948D01*
X52766983Y-50308954D01*
X52558954Y-50516983D01*
X52558948Y-50516990D01*
X52379851Y-50750394D01*
X52379840Y-50750410D01*
X52232742Y-51005189D01*
X52232734Y-51005205D01*
X52120152Y-51277005D01*
X52044001Y-51561203D01*
X52005601Y-51852883D01*
X52005600Y-51852900D01*
X50261831Y-51852900D01*
X50251135Y-51785368D01*
X50244280Y-51742088D01*
X50193120Y-51584632D01*
X50190709Y-51577211D01*
X50190708Y-51577208D01*
X50112001Y-51422738D01*
X50088580Y-51390503D01*
X50065099Y-51324697D01*
X50080924Y-51256642D01*
X50131029Y-51207947D01*
X50199507Y-51194071D01*
X50205068Y-51194675D01*
X50305874Y-51207947D01*
X50321460Y-51209999D01*
X50325266Y-51210500D01*
X50325273Y-51210500D01*
X50554727Y-51210500D01*
X50554734Y-51210500D01*
X50782238Y-51180548D01*
X51003887Y-51121158D01*
X51215888Y-51033344D01*
X51414612Y-50918611D01*
X51596661Y-50778919D01*
X51596665Y-50778914D01*
X51596670Y-50778911D01*
X51758911Y-50616670D01*
X51758914Y-50616665D01*
X51758919Y-50616661D01*
X51898611Y-50434612D01*
X52013344Y-50235888D01*
X52101158Y-50023887D01*
X52160548Y-49802238D01*
X52190500Y-49574734D01*
X52190500Y-49345266D01*
X52160548Y-49117762D01*
X52101158Y-48896113D01*
X52037731Y-48742987D01*
X52013349Y-48684123D01*
X52013346Y-48684117D01*
X52013344Y-48684112D01*
X51898611Y-48485388D01*
X51898608Y-48485385D01*
X51898607Y-48485382D01*
X51786558Y-48339359D01*
X51758919Y-48303339D01*
X51758918Y-48303338D01*
X51758911Y-48303330D01*
X51596670Y-48141089D01*
X51596661Y-48141081D01*
X51414617Y-48001392D01*
X51215890Y-47886657D01*
X51215876Y-47886650D01*
X51003887Y-47798842D01*
X50782238Y-47739452D01*
X50744215Y-47734446D01*
X50554741Y-47709500D01*
X50554734Y-47709500D01*
X50325266Y-47709500D01*
X50325258Y-47709500D01*
X50108715Y-47738009D01*
X50097762Y-47739452D01*
X50087443Y-47742217D01*
X49876112Y-47798842D01*
X49664123Y-47886650D01*
X49664109Y-47886657D01*
X49465382Y-48001392D01*
X49283338Y-48141081D01*
X49121081Y-48303338D01*
X48981392Y-48485382D01*
X48866657Y-48684109D01*
X48866650Y-48684123D01*
X48778842Y-48896112D01*
X48719453Y-49117759D01*
X48719451Y-49117770D01*
X48711939Y-49174828D01*
X48683672Y-49238724D01*
X48625347Y-49277195D01*
X48555483Y-49278026D01*
X48496260Y-49240954D01*
X48466481Y-49177748D01*
X48465000Y-49158642D01*
X48465000Y-48162172D01*
X48464999Y-48162155D01*
X48458598Y-48102627D01*
X48458596Y-48102620D01*
X48408354Y-47967913D01*
X48408350Y-47967906D01*
X48322190Y-47852812D01*
X48322187Y-47852809D01*
X48207093Y-47766649D01*
X48207086Y-47766645D01*
X48072379Y-47716403D01*
X48072372Y-47716401D01*
X48012844Y-47710000D01*
X46757500Y-47710000D01*
X46257500Y-47710000D01*
X45002155Y-47710000D01*
X44942627Y-47716401D01*
X44942620Y-47716403D01*
X44807913Y-47766645D01*
X44807906Y-47766649D01*
X44692812Y-47852809D01*
X44692809Y-47852812D01*
X44606649Y-47967906D01*
X44606645Y-47967913D01*
X44556403Y-48102620D01*
X44556401Y-48102627D01*
X44550000Y-48162155D01*
X43500500Y-48162155D01*
X43500500Y-47258676D01*
X43520185Y-47191637D01*
X43536819Y-47170995D01*
X48170995Y-42536819D01*
X48232318Y-42503334D01*
X48258676Y-42500500D01*
X154741324Y-42500500D01*
X154808363Y-42520185D01*
G37*
%TD.AperFunction*%
%TA.AperFunction,Conductor*%
G36*
X121035822Y-50665924D02*
G01*
X121091756Y-50707795D01*
X121097482Y-50716133D01*
X121117658Y-50748242D01*
X121120184Y-50752262D01*
X121247738Y-50879816D01*
X121400478Y-50975789D01*
X121547625Y-51027278D01*
X121570745Y-51035368D01*
X121570750Y-51035369D01*
X121749996Y-51055565D01*
X121750000Y-51055565D01*
X121750004Y-51055565D01*
X121929249Y-51035369D01*
X121929251Y-51035368D01*
X121929255Y-51035368D01*
X121929258Y-51035366D01*
X121929262Y-51035366D01*
X122041444Y-50996112D01*
X122111223Y-50992550D01*
X122171850Y-51027278D01*
X122204078Y-51089272D01*
X122205619Y-51099269D01*
X122214630Y-51179250D01*
X122214631Y-51179254D01*
X122274211Y-51349523D01*
X122370184Y-51502262D01*
X122497738Y-51629816D01*
X122650478Y-51725789D01*
X122820745Y-51785368D01*
X122820750Y-51785369D01*
X122999996Y-51805565D01*
X123000000Y-51805565D01*
X123000004Y-51805565D01*
X123179249Y-51785369D01*
X123179252Y-51785368D01*
X123179255Y-51785368D01*
X123349522Y-51725789D01*
X123502262Y-51629816D01*
X123502267Y-51629810D01*
X123505097Y-51627555D01*
X123507275Y-51626665D01*
X123508158Y-51626111D01*
X123508255Y-51626265D01*
X123569783Y-51601145D01*
X123582412Y-51600500D01*
X127163331Y-51600500D01*
X127163347Y-51600501D01*
X127170943Y-51600501D01*
X127329054Y-51600501D01*
X127329057Y-51600501D01*
X127481785Y-51559577D01*
X127531904Y-51530639D01*
X127607298Y-51487112D01*
X127669296Y-51470500D01*
X139213678Y-51470500D01*
X139280717Y-51490185D01*
X139326472Y-51542989D01*
X139336898Y-51580617D01*
X139344630Y-51649249D01*
X139404210Y-51819521D01*
X139500185Y-51972263D01*
X139502445Y-51975097D01*
X139503334Y-51977275D01*
X139503889Y-51978158D01*
X139503734Y-51978255D01*
X139528855Y-52039783D01*
X139529500Y-52052412D01*
X139529500Y-54606465D01*
X139509815Y-54673504D01*
X139478386Y-54706782D01*
X139355360Y-54796167D01*
X139355351Y-54796174D01*
X139216174Y-54935351D01*
X139216174Y-54935352D01*
X139216172Y-54935354D01*
X139210061Y-54943765D01*
X139100476Y-55094594D01*
X139010485Y-55271213D01*
X138962511Y-55322009D01*
X138894690Y-55338804D01*
X138828555Y-55316267D01*
X138789515Y-55271213D01*
X138750053Y-55193765D01*
X138699524Y-55094595D01*
X138583828Y-54935354D01*
X138444646Y-54796172D01*
X138285405Y-54680476D01*
X138258199Y-54666614D01*
X138110029Y-54591117D01*
X137922826Y-54530290D01*
X137728422Y-54499500D01*
X137728417Y-54499500D01*
X137531583Y-54499500D01*
X137531578Y-54499500D01*
X137337173Y-54530290D01*
X137149970Y-54591117D01*
X136974594Y-54680476D01*
X136920853Y-54719522D01*
X136815354Y-54796172D01*
X136815352Y-54796174D01*
X136815351Y-54796174D01*
X136676174Y-54935351D01*
X136676174Y-54935352D01*
X136676172Y-54935354D01*
X136670061Y-54943765D01*
X136560476Y-55094594D01*
X136471117Y-55269970D01*
X136410290Y-55457173D01*
X136379500Y-55651577D01*
X136379500Y-56848422D01*
X136410290Y-57042826D01*
X136471117Y-57230029D01*
X136560475Y-57405403D01*
X136560476Y-57405405D01*
X136676172Y-57564646D01*
X136815354Y-57703828D01*
X136943609Y-57797011D01*
X136968619Y-57815182D01*
X137011284Y-57870512D01*
X137017263Y-57940126D01*
X136984657Y-58001921D01*
X136923818Y-58036278D01*
X136895733Y-58039500D01*
X136531578Y-58039500D01*
X136337173Y-58070290D01*
X136149970Y-58131117D01*
X135974594Y-58220476D01*
X135899548Y-58275001D01*
X135815354Y-58336172D01*
X135815352Y-58336174D01*
X135815351Y-58336174D01*
X135676174Y-58475351D01*
X135676174Y-58475352D01*
X135676172Y-58475354D01*
X135626485Y-58543741D01*
X135560476Y-58634594D01*
X135471117Y-58809970D01*
X135410290Y-58997173D01*
X135379500Y-59191577D01*
X135379500Y-59388422D01*
X135410290Y-59582826D01*
X135471117Y-59770029D01*
X135554772Y-59934211D01*
X135560476Y-59945405D01*
X135676172Y-60104646D01*
X135815354Y-60243828D01*
X135974595Y-60359524D01*
X136038726Y-60392200D01*
X136151213Y-60449515D01*
X136202009Y-60497489D01*
X136218804Y-60565310D01*
X136196267Y-60631445D01*
X136151213Y-60670485D01*
X135974594Y-60760476D01*
X135900327Y-60814435D01*
X135815354Y-60876172D01*
X135815352Y-60876174D01*
X135815351Y-60876174D01*
X135676174Y-61015351D01*
X135676174Y-61015352D01*
X135676172Y-61015354D01*
X135634725Y-61072401D01*
X135560476Y-61174594D01*
X135471117Y-61349970D01*
X135410290Y-61537173D01*
X135379500Y-61731577D01*
X135379500Y-61928422D01*
X135410290Y-62122826D01*
X135471117Y-62310029D01*
X135544774Y-62454588D01*
X135560476Y-62485405D01*
X135676172Y-62644646D01*
X135815354Y-62783828D01*
X135974595Y-62899524D01*
X136073297Y-62949815D01*
X136151213Y-62989515D01*
X136202009Y-63037489D01*
X136218804Y-63105310D01*
X136196267Y-63171445D01*
X136151213Y-63210485D01*
X135974594Y-63300476D01*
X135883741Y-63366485D01*
X135815354Y-63416172D01*
X135815352Y-63416174D01*
X135815351Y-63416174D01*
X135676174Y-63555351D01*
X135676174Y-63555352D01*
X135676172Y-63555354D01*
X135561158Y-63713657D01*
X135557722Y-63718386D01*
X135502392Y-63761051D01*
X135457404Y-63769500D01*
X135180097Y-63769500D01*
X135113058Y-63749815D01*
X135092416Y-63733181D01*
X134667590Y-63308355D01*
X134667588Y-63308352D01*
X134548717Y-63189481D01*
X134548716Y-63189480D01*
X134461904Y-63139360D01*
X134461904Y-63139359D01*
X134461900Y-63139358D01*
X134411785Y-63110423D01*
X134259057Y-63069499D01*
X134100943Y-63069499D01*
X134093347Y-63069499D01*
X134093331Y-63069500D01*
X133586058Y-63069500D01*
X133519019Y-63049815D01*
X133480519Y-63010597D01*
X133467516Y-62989515D01*
X133397712Y-62876344D01*
X133273656Y-62752288D01*
X133270819Y-62750538D01*
X133269283Y-62748830D01*
X133267989Y-62747807D01*
X133268163Y-62747585D01*
X133224096Y-62698594D01*
X133212872Y-62629632D01*
X133240713Y-62565549D01*
X133270817Y-62539462D01*
X133273656Y-62537712D01*
X133397712Y-62413656D01*
X133489814Y-62264334D01*
X133544999Y-62097797D01*
X133555500Y-61995009D01*
X133555499Y-61744664D01*
X133575183Y-61677626D01*
X133627987Y-61631871D01*
X133638540Y-61627624D01*
X133729522Y-61595789D01*
X133882262Y-61499816D01*
X134009816Y-61372262D01*
X134105789Y-61219522D01*
X134165368Y-61049255D01*
X134165369Y-61049249D01*
X134185565Y-60870003D01*
X134185565Y-60869996D01*
X134165369Y-60690750D01*
X134165368Y-60690745D01*
X134105789Y-60520478D01*
X134099022Y-60509709D01*
X134055437Y-60440343D01*
X134009816Y-60367738D01*
X133882262Y-60240184D01*
X133859152Y-60225663D01*
X133729523Y-60144211D01*
X133559254Y-60084631D01*
X133559249Y-60084630D01*
X133380004Y-60064435D01*
X133379996Y-60064435D01*
X133200750Y-60084630D01*
X133200745Y-60084631D01*
X133030476Y-60144211D01*
X132877737Y-60240184D01*
X132750184Y-60367737D01*
X132675578Y-60486472D01*
X132623243Y-60532763D01*
X132570584Y-60544500D01*
X131854998Y-60544500D01*
X131854980Y-60544501D01*
X131752203Y-60555000D01*
X131752200Y-60555001D01*
X131585668Y-60610185D01*
X131585663Y-60610187D01*
X131436342Y-60702289D01*
X131312289Y-60826342D01*
X131229481Y-60960597D01*
X131177533Y-61007321D01*
X131123942Y-61019500D01*
X130275940Y-61019500D01*
X130235019Y-61030464D01*
X130235019Y-61030465D01*
X130123216Y-61060423D01*
X130123214Y-61060424D01*
X130115366Y-61062527D01*
X130115180Y-61061834D01*
X130076637Y-61069500D01*
X129451798Y-61069500D01*
X129414932Y-61072401D01*
X129414926Y-61072402D01*
X129257106Y-61118254D01*
X129257103Y-61118255D01*
X129115637Y-61201917D01*
X129115629Y-61201923D01*
X128999423Y-61318129D01*
X128999417Y-61318137D01*
X128915755Y-61459603D01*
X128915754Y-61459606D01*
X128869902Y-61617426D01*
X128869901Y-61617432D01*
X128867000Y-61654298D01*
X128867000Y-61895500D01*
X128847315Y-61962539D01*
X128794511Y-62008294D01*
X128743000Y-62019500D01*
X128263063Y-62019500D01*
X128196024Y-61999815D01*
X128150269Y-61947011D01*
X128140325Y-61877853D01*
X128146022Y-61854545D01*
X128165366Y-61799262D01*
X128165369Y-61799249D01*
X128185565Y-61620003D01*
X128185565Y-61619996D01*
X128165369Y-61440750D01*
X128165368Y-61440745D01*
X128133604Y-61349970D01*
X128105789Y-61270478D01*
X128009816Y-61117738D01*
X127882262Y-60990184D01*
X127835175Y-60960597D01*
X127729523Y-60894211D01*
X127559254Y-60834631D01*
X127559249Y-60834630D01*
X127380004Y-60814435D01*
X127379996Y-60814435D01*
X127200750Y-60834630D01*
X127200745Y-60834631D01*
X127030474Y-60894212D01*
X127020477Y-60900494D01*
X126954506Y-60919500D01*
X126929500Y-60919500D01*
X126862461Y-60899815D01*
X126816706Y-60847011D01*
X126805500Y-60795500D01*
X126805499Y-60494999D01*
X126805498Y-60494980D01*
X126794999Y-60392203D01*
X126794998Y-60392200D01*
X126784170Y-60359523D01*
X126739814Y-60225666D01*
X126647712Y-60076344D01*
X126523656Y-59952288D01*
X126397752Y-59874630D01*
X126374336Y-59860187D01*
X126374331Y-59860185D01*
X126369246Y-59858500D01*
X126207797Y-59805001D01*
X126207795Y-59805000D01*
X126105010Y-59794500D01*
X125104998Y-59794500D01*
X125104980Y-59794501D01*
X125002203Y-59805000D01*
X125002200Y-59805001D01*
X124835668Y-59860185D01*
X124835659Y-59860189D01*
X124704581Y-59941039D01*
X124639485Y-59959500D01*
X122345494Y-59959500D01*
X122279523Y-59940494D01*
X122269525Y-59934212D01*
X122099254Y-59874631D01*
X122099249Y-59874630D01*
X121920004Y-59854435D01*
X121919996Y-59854435D01*
X121740750Y-59874630D01*
X121740745Y-59874631D01*
X121570476Y-59934211D01*
X121417737Y-60030184D01*
X121290184Y-60157737D01*
X121194211Y-60310476D01*
X121134631Y-60480745D01*
X121134630Y-60480750D01*
X121114435Y-60659996D01*
X121114435Y-60660003D01*
X121134630Y-60839249D01*
X121134632Y-60839257D01*
X121177339Y-60961306D01*
X121180900Y-61031084D01*
X121147981Y-61089939D01*
X121120185Y-61117736D01*
X121024211Y-61270476D01*
X120964631Y-61440745D01*
X120964630Y-61440750D01*
X120944435Y-61619996D01*
X120944435Y-61620003D01*
X120964630Y-61799249D01*
X120964631Y-61799254D01*
X121024211Y-61969523D01*
X121117256Y-62117602D01*
X121120184Y-62122262D01*
X121247738Y-62249816D01*
X121400478Y-62345789D01*
X121475965Y-62372203D01*
X121570745Y-62405368D01*
X121570750Y-62405369D01*
X121749996Y-62425565D01*
X121750000Y-62425565D01*
X121750004Y-62425565D01*
X121929249Y-62405369D01*
X121929252Y-62405368D01*
X121929255Y-62405368D01*
X122099522Y-62345789D01*
X122252262Y-62249816D01*
X122252267Y-62249810D01*
X122255097Y-62247555D01*
X122257275Y-62246665D01*
X122258158Y-62246111D01*
X122258255Y-62246265D01*
X122319783Y-62221145D01*
X122332412Y-62220500D01*
X123329903Y-62220500D01*
X123396942Y-62240185D01*
X123417584Y-62256819D01*
X124368181Y-63207417D01*
X124401666Y-63268740D01*
X124404156Y-63291869D01*
X124404176Y-63291868D01*
X124404180Y-63291868D01*
X124404341Y-63291860D01*
X124404501Y-63295018D01*
X124415001Y-63397797D01*
X124415001Y-63397799D01*
X124467209Y-63555351D01*
X124470186Y-63564334D01*
X124562288Y-63713656D01*
X124686344Y-63837712D01*
X124835666Y-63929814D01*
X124919505Y-63957595D01*
X124976948Y-63997366D01*
X125003772Y-64061882D01*
X125004500Y-64075300D01*
X125004500Y-64449345D01*
X124984815Y-64516384D01*
X124951623Y-64550920D01*
X124798121Y-64658402D01*
X124643402Y-64813121D01*
X124517900Y-64992357D01*
X124517898Y-64992361D01*
X124425426Y-65190668D01*
X124425422Y-65190677D01*
X124368793Y-65402020D01*
X124368793Y-65402024D01*
X124349723Y-65619997D01*
X124349723Y-65620002D01*
X124368793Y-65837975D01*
X124368793Y-65837979D01*
X124425422Y-66049322D01*
X124425424Y-66049326D01*
X124425425Y-66049330D01*
X124469621Y-66144109D01*
X124517897Y-66247638D01*
X124542998Y-66283486D01*
X124643402Y-66426877D01*
X124798123Y-66581598D01*
X124977361Y-66707102D01*
X125175670Y-66799575D01*
X125387023Y-66856207D01*
X125569926Y-66872208D01*
X125604998Y-66875277D01*
X125605000Y-66875277D01*
X125605002Y-66875277D01*
X125633254Y-66872805D01*
X125822977Y-66856207D01*
X126034330Y-66799575D01*
X126178992Y-66732117D01*
X126231397Y-66720500D01*
X127275500Y-66720500D01*
X127342539Y-66740185D01*
X127388294Y-66792989D01*
X127399500Y-66844500D01*
X127399500Y-66870002D01*
X127404644Y-66941940D01*
X127445182Y-67079994D01*
X127522967Y-67201030D01*
X127522971Y-67201034D01*
X127593590Y-67262226D01*
X127631706Y-67295254D01*
X127672174Y-67313735D01*
X127762580Y-67355023D01*
X127762583Y-67355023D01*
X127762584Y-67355024D01*
X127905000Y-67375500D01*
X127905003Y-67375500D01*
X129054998Y-67375500D01*
X129055000Y-67375500D01*
X129055002Y-67375499D01*
X129055021Y-67375499D01*
X129135326Y-67369076D01*
X129135326Y-67369075D01*
X129135338Y-67369075D01*
X129163740Y-67360213D01*
X129218316Y-67355848D01*
X129355000Y-67375500D01*
X129355003Y-67375500D01*
X130355000Y-67375500D01*
X130426940Y-67370355D01*
X130564992Y-67329819D01*
X130686032Y-67252031D01*
X130780254Y-67143294D01*
X130840024Y-67012416D01*
X130860500Y-66870000D01*
X130860500Y-65370000D01*
X130855355Y-65298060D01*
X130814819Y-65160008D01*
X130737031Y-65038968D01*
X130683245Y-64992362D01*
X130628299Y-64944750D01*
X130628297Y-64944748D01*
X130628294Y-64944746D01*
X130628291Y-64944745D01*
X130628289Y-64944743D01*
X130527988Y-64898937D01*
X130475184Y-64853182D01*
X130455500Y-64786143D01*
X130455500Y-64694500D01*
X130475185Y-64627461D01*
X130527989Y-64581706D01*
X130579500Y-64570500D01*
X130758186Y-64570500D01*
X130758194Y-64570500D01*
X130795069Y-64567598D01*
X130795071Y-64567597D01*
X130795073Y-64567597D01*
X130836691Y-64555505D01*
X130952898Y-64521744D01*
X131094365Y-64438081D01*
X131108501Y-64423945D01*
X131169823Y-64390458D01*
X131239515Y-64395441D01*
X131295449Y-64437311D01*
X131301722Y-64446526D01*
X131312288Y-64463656D01*
X131436344Y-64587712D01*
X131585666Y-64679814D01*
X131752203Y-64734999D01*
X131854991Y-64745500D01*
X132855008Y-64745499D01*
X132855016Y-64745498D01*
X132855019Y-64745498D01*
X132911302Y-64739748D01*
X132957797Y-64734999D01*
X133124334Y-64679814D01*
X133273656Y-64587712D01*
X133397712Y-64463656D01*
X133480519Y-64329402D01*
X133532467Y-64282679D01*
X133586058Y-64270500D01*
X133879903Y-64270500D01*
X133946942Y-64290185D01*
X133967584Y-64306819D01*
X134395139Y-64734374D01*
X134395149Y-64734385D01*
X134399479Y-64738715D01*
X134399480Y-64738716D01*
X134511284Y-64850520D01*
X134511286Y-64850521D01*
X134511290Y-64850524D01*
X134648209Y-64929573D01*
X134648216Y-64929577D01*
X134760019Y-64959534D01*
X134800942Y-64970500D01*
X134800943Y-64970500D01*
X135457404Y-64970500D01*
X135524443Y-64990185D01*
X135557722Y-65021614D01*
X135560475Y-65025403D01*
X135560476Y-65025405D01*
X135676172Y-65184646D01*
X135815354Y-65323828D01*
X135974595Y-65439524D01*
X136017508Y-65461389D01*
X136151213Y-65529515D01*
X136202009Y-65577489D01*
X136218804Y-65645310D01*
X136196267Y-65711445D01*
X136151213Y-65750485D01*
X135974594Y-65840476D01*
X135883741Y-65906485D01*
X135815354Y-65956172D01*
X135815352Y-65956174D01*
X135815351Y-65956174D01*
X135676174Y-66095351D01*
X135676174Y-66095352D01*
X135676172Y-66095354D01*
X135640749Y-66144109D01*
X135560476Y-66254594D01*
X135471117Y-66429970D01*
X135410290Y-66617173D01*
X135379500Y-66811577D01*
X135379500Y-67008422D01*
X135410290Y-67202826D01*
X135471117Y-67390029D01*
X135545324Y-67535668D01*
X135560476Y-67565405D01*
X135676172Y-67724646D01*
X135815354Y-67863828D01*
X135974595Y-67979524D01*
X136017508Y-68001389D01*
X136151213Y-68069515D01*
X136202009Y-68117489D01*
X136218804Y-68185310D01*
X136196267Y-68251445D01*
X136151213Y-68290485D01*
X135974594Y-68380476D01*
X135930745Y-68412335D01*
X135815354Y-68496172D01*
X135815352Y-68496174D01*
X135815351Y-68496174D01*
X135676174Y-68635351D01*
X135676174Y-68635352D01*
X135676172Y-68635354D01*
X135636162Y-68690423D01*
X135560476Y-68794594D01*
X135471117Y-68969970D01*
X135410290Y-69157173D01*
X135379500Y-69351577D01*
X135379500Y-69548422D01*
X135410290Y-69742826D01*
X135471117Y-69930029D01*
X135547053Y-70079061D01*
X135560476Y-70105405D01*
X135676172Y-70264646D01*
X135815354Y-70403828D01*
X135944212Y-70497449D01*
X135986876Y-70552778D01*
X135992855Y-70622392D01*
X135960249Y-70684187D01*
X135937298Y-70702759D01*
X135877740Y-70740182D01*
X135877737Y-70740184D01*
X135750184Y-70867737D01*
X135654211Y-71020476D01*
X135594631Y-71190745D01*
X135594630Y-71190750D01*
X135574435Y-71369996D01*
X135574435Y-71370003D01*
X135594630Y-71549249D01*
X135594631Y-71549254D01*
X135654211Y-71719523D01*
X135668390Y-71742088D01*
X135750184Y-71872262D01*
X135877738Y-71999816D01*
X136030478Y-72095789D01*
X136200745Y-72155368D01*
X136269384Y-72163101D01*
X136333796Y-72190166D01*
X136373352Y-72247760D01*
X136379500Y-72286321D01*
X136379500Y-73088422D01*
X136410290Y-73282826D01*
X136471117Y-73470029D01*
X136560341Y-73645141D01*
X136560476Y-73645405D01*
X136676172Y-73804646D01*
X136815354Y-73943828D01*
X136974595Y-74059524D01*
X137045314Y-74095557D01*
X137149970Y-74148882D01*
X137149972Y-74148882D01*
X137149975Y-74148884D01*
X137250317Y-74181487D01*
X137337173Y-74209709D01*
X137531578Y-74240500D01*
X137531583Y-74240500D01*
X137728422Y-74240500D01*
X137922826Y-74209709D01*
X137937962Y-74204791D01*
X138110025Y-74148884D01*
X138285405Y-74059524D01*
X138444646Y-73943828D01*
X138583828Y-73804646D01*
X138699524Y-73645405D01*
X138782265Y-73483016D01*
X138789515Y-73468787D01*
X138837489Y-73417990D01*
X138905310Y-73401195D01*
X138971445Y-73423732D01*
X139010485Y-73468787D01*
X139100474Y-73645403D01*
X139133636Y-73691045D01*
X139216172Y-73804646D01*
X139216174Y-73804648D01*
X139356321Y-73944795D01*
X139389806Y-74006118D01*
X139385682Y-74073431D01*
X139344631Y-74190745D01*
X139344630Y-74190750D01*
X139324435Y-74369996D01*
X139324435Y-74370003D01*
X139344630Y-74549249D01*
X139344631Y-74549254D01*
X139404211Y-74719523D01*
X139500184Y-74872262D01*
X139627738Y-74999816D01*
X139780478Y-75095789D01*
X139950745Y-75155368D01*
X139950750Y-75155369D01*
X140129996Y-75175565D01*
X140130000Y-75175565D01*
X140130004Y-75175565D01*
X140309249Y-75155369D01*
X140309252Y-75155368D01*
X140309255Y-75155368D01*
X140479522Y-75095789D01*
X140632262Y-74999816D01*
X140759816Y-74872262D01*
X140855789Y-74719522D01*
X140915368Y-74549255D01*
X140935565Y-74370000D01*
X140921413Y-74244400D01*
X140915369Y-74190753D01*
X140915368Y-74190751D01*
X140915368Y-74190745D01*
X140890985Y-74121065D01*
X140887423Y-74051289D01*
X140922152Y-73990661D01*
X140935134Y-73979800D01*
X140984646Y-73943828D01*
X141123828Y-73804646D01*
X141239524Y-73645405D01*
X141322265Y-73483016D01*
X141329515Y-73468787D01*
X141377489Y-73417990D01*
X141445310Y-73401195D01*
X141511445Y-73423732D01*
X141550485Y-73468787D01*
X141640474Y-73645403D01*
X141673636Y-73691045D01*
X141756172Y-73804646D01*
X141895354Y-73943828D01*
X142054594Y-74059523D01*
X142058386Y-74062278D01*
X142101051Y-74117608D01*
X142109500Y-74162596D01*
X142109500Y-75739903D01*
X142089815Y-75806942D01*
X142073181Y-75827584D01*
X140037584Y-77863181D01*
X139976261Y-77896666D01*
X139949903Y-77899500D01*
X121050097Y-77899500D01*
X120983058Y-77879815D01*
X120962416Y-77863181D01*
X120636819Y-77537584D01*
X120603334Y-77476261D01*
X120600500Y-77449903D01*
X120600500Y-72420943D01*
X120600499Y-72420939D01*
X120589874Y-72381285D01*
X120589874Y-72381284D01*
X120559577Y-72268215D01*
X120530639Y-72218095D01*
X120480520Y-72131284D01*
X120368716Y-72019480D01*
X120368715Y-72019479D01*
X120364385Y-72015149D01*
X120364374Y-72015139D01*
X118444319Y-70095084D01*
X118410834Y-70033761D01*
X118408000Y-70007403D01*
X118408000Y-68794499D01*
X118427685Y-68727460D01*
X118480489Y-68681705D01*
X118532000Y-68670499D01*
X119397871Y-68670499D01*
X119397872Y-68670499D01*
X119457483Y-68664091D01*
X119592331Y-68613796D01*
X119707546Y-68527546D01*
X119793796Y-68412331D01*
X119844091Y-68277483D01*
X119850500Y-68217873D01*
X119850499Y-65622128D01*
X119844091Y-65562517D01*
X119798217Y-65439523D01*
X119793797Y-65427671D01*
X119793793Y-65427664D01*
X119707547Y-65312455D01*
X119707544Y-65312452D01*
X119592335Y-65226206D01*
X119592328Y-65226202D01*
X119457482Y-65175908D01*
X119457483Y-65175908D01*
X119397883Y-65169501D01*
X119397881Y-65169500D01*
X119397873Y-65169500D01*
X119397865Y-65169500D01*
X116957597Y-65169500D01*
X116890558Y-65149815D01*
X116869916Y-65133181D01*
X114375090Y-62638355D01*
X114375088Y-62638352D01*
X114256217Y-62519481D01*
X114256216Y-62519480D01*
X114169404Y-62469360D01*
X114169404Y-62469359D01*
X114169400Y-62469358D01*
X114119285Y-62440423D01*
X113966557Y-62399499D01*
X113808443Y-62399499D01*
X113800847Y-62399499D01*
X113800831Y-62399500D01*
X113463585Y-62399500D01*
X113396546Y-62379815D01*
X113350791Y-62327011D01*
X113345879Y-62314504D01*
X113309814Y-62205666D01*
X113217712Y-62056344D01*
X113217708Y-62056340D01*
X113213812Y-62051413D01*
X113187671Y-61986618D01*
X113200710Y-61917975D01*
X113248789Y-61867279D01*
X113311077Y-61850500D01*
X116913331Y-61850500D01*
X116913347Y-61850501D01*
X116920943Y-61850501D01*
X117079054Y-61850501D01*
X117079057Y-61850501D01*
X117231785Y-61809577D01*
X117292538Y-61774501D01*
X117368716Y-61730520D01*
X117480520Y-61618716D01*
X117480520Y-61618714D01*
X117490724Y-61608511D01*
X117490727Y-61608506D01*
X120480520Y-58618716D01*
X120559577Y-58481784D01*
X120600501Y-58329057D01*
X120600501Y-58170942D01*
X120600501Y-58163347D01*
X120600500Y-58163329D01*
X120600500Y-51050096D01*
X120620185Y-50983057D01*
X120636815Y-50962419D01*
X120904810Y-50694423D01*
X120966131Y-50660940D01*
X121035822Y-50665924D01*
G37*
%TD.AperFunction*%
%TA.AperFunction,Conductor*%
G36*
X123696942Y-47540185D02*
G01*
X123717584Y-47556819D01*
X124968584Y-48807819D01*
X125002069Y-48869142D01*
X124997085Y-48938834D01*
X124955213Y-48994767D01*
X124889749Y-49019184D01*
X124880903Y-49019500D01*
X121050940Y-49019500D01*
X121010019Y-49030464D01*
X121010019Y-49030465D01*
X120972751Y-49040451D01*
X120898214Y-49060423D01*
X120898209Y-49060426D01*
X120761290Y-49139475D01*
X120761282Y-49139481D01*
X119519481Y-50381282D01*
X119519479Y-50381285D01*
X119480353Y-50449055D01*
X119480352Y-50449057D01*
X119440423Y-50518214D01*
X119440423Y-50518215D01*
X119399499Y-50670943D01*
X119399499Y-50670945D01*
X119399499Y-50839046D01*
X119399500Y-50839059D01*
X119399500Y-57949902D01*
X119379815Y-58016941D01*
X119363181Y-58037583D01*
X116787584Y-60613181D01*
X116726261Y-60646666D01*
X116699903Y-60649500D01*
X113446685Y-60649500D01*
X113379646Y-60629815D01*
X113333891Y-60577011D01*
X113323947Y-60507853D01*
X113328976Y-60486505D01*
X113345879Y-60435494D01*
X113385653Y-60378051D01*
X113450169Y-60351229D01*
X113463585Y-60350501D01*
X113579054Y-60350501D01*
X113579057Y-60350501D01*
X113731785Y-60309577D01*
X113822324Y-60257304D01*
X113868716Y-60230520D01*
X113980520Y-60118716D01*
X113980520Y-60118714D01*
X113990724Y-60108511D01*
X113990728Y-60108506D01*
X118176213Y-55923021D01*
X118176216Y-55923020D01*
X118288020Y-55811216D01*
X118338139Y-55724404D01*
X118367077Y-55674285D01*
X118408001Y-55521557D01*
X118408001Y-55363443D01*
X118408001Y-55355848D01*
X118408000Y-55355830D01*
X118408000Y-48794499D01*
X118427685Y-48727460D01*
X118480489Y-48681705D01*
X118532000Y-48670499D01*
X119397871Y-48670499D01*
X119397872Y-48670499D01*
X119457483Y-48664091D01*
X119592331Y-48613796D01*
X119707546Y-48527546D01*
X119793796Y-48412331D01*
X119844091Y-48277483D01*
X119850500Y-48217873D01*
X119850500Y-47644500D01*
X119870185Y-47577461D01*
X119922989Y-47531706D01*
X119974500Y-47520500D01*
X123629903Y-47520500D01*
X123696942Y-47540185D01*
G37*
%TD.AperFunction*%
%TA.AperFunction,Conductor*%
G36*
X149646942Y-51490185D02*
G01*
X149667584Y-51506819D01*
X149693181Y-51532416D01*
X149726666Y-51593739D01*
X149729500Y-51620097D01*
X149729500Y-54577403D01*
X149709815Y-54644442D01*
X149678386Y-54677721D01*
X149515352Y-54796173D01*
X149376174Y-54935351D01*
X149376174Y-54935352D01*
X149376172Y-54935354D01*
X149370061Y-54943765D01*
X149260476Y-55094594D01*
X149170485Y-55271213D01*
X149122511Y-55322009D01*
X149054690Y-55338804D01*
X148988555Y-55316267D01*
X148949515Y-55271213D01*
X148910053Y-55193765D01*
X148859524Y-55094595D01*
X148743828Y-54935354D01*
X148604646Y-54796172D01*
X148459465Y-54690691D01*
X148416800Y-54635360D01*
X148410821Y-54565747D01*
X148415310Y-54549419D01*
X148415368Y-54549255D01*
X148425488Y-54459441D01*
X148435565Y-54370003D01*
X148435565Y-54369996D01*
X148415369Y-54190750D01*
X148415368Y-54190745D01*
X148355788Y-54020476D01*
X148261337Y-53870159D01*
X148259816Y-53867738D01*
X148132262Y-53740184D01*
X148108466Y-53725232D01*
X147979523Y-53644211D01*
X147809254Y-53584631D01*
X147809249Y-53584630D01*
X147630004Y-53564435D01*
X147629996Y-53564435D01*
X147450750Y-53584630D01*
X147450745Y-53584631D01*
X147280476Y-53644211D01*
X147127737Y-53740184D01*
X147000184Y-53867737D01*
X146904211Y-54020476D01*
X146844631Y-54190745D01*
X146844630Y-54190750D01*
X146824435Y-54369996D01*
X146824435Y-54370003D01*
X146844630Y-54549249D01*
X146844631Y-54549254D01*
X146904212Y-54719524D01*
X146908632Y-54726560D01*
X146927628Y-54793797D01*
X146907258Y-54860632D01*
X146891318Y-54880207D01*
X146836172Y-54935354D01*
X146720476Y-55094594D01*
X146630485Y-55271213D01*
X146582511Y-55322009D01*
X146514690Y-55338804D01*
X146448555Y-55316267D01*
X146409515Y-55271213D01*
X146370053Y-55193765D01*
X146319524Y-55094595D01*
X146203828Y-54935354D01*
X146064646Y-54796172D01*
X145905405Y-54680476D01*
X145859402Y-54657036D01*
X145808607Y-54609063D01*
X145791812Y-54541242D01*
X145792476Y-54532684D01*
X145794965Y-54510600D01*
X145794965Y-54510596D01*
X145774769Y-54331350D01*
X145774768Y-54331345D01*
X145715189Y-54161078D01*
X145619216Y-54008338D01*
X145491662Y-53880784D01*
X145338923Y-53784811D01*
X145168654Y-53725231D01*
X145168649Y-53725230D01*
X144989404Y-53705035D01*
X144989396Y-53705035D01*
X144810150Y-53725230D01*
X144810145Y-53725231D01*
X144639876Y-53784811D01*
X144487137Y-53880784D01*
X144359584Y-54008337D01*
X144263611Y-54161076D01*
X144204031Y-54331345D01*
X144204030Y-54331350D01*
X144183835Y-54510596D01*
X144183835Y-54510603D01*
X144204030Y-54689849D01*
X144204033Y-54689862D01*
X144263611Y-54860122D01*
X144266233Y-54865567D01*
X144277585Y-54934508D01*
X144254831Y-54992253D01*
X144180478Y-55094591D01*
X144090485Y-55271213D01*
X144042511Y-55322009D01*
X143974690Y-55338804D01*
X143908555Y-55316267D01*
X143869515Y-55271213D01*
X143830053Y-55193765D01*
X143779524Y-55094595D01*
X143663828Y-54935354D01*
X143524646Y-54796172D01*
X143365405Y-54680476D01*
X143365404Y-54680475D01*
X143365402Y-54680474D01*
X143298204Y-54646234D01*
X143247408Y-54598259D01*
X143230500Y-54535750D01*
X143230500Y-52952412D01*
X143250185Y-52885373D01*
X143257555Y-52875097D01*
X143259810Y-52872267D01*
X143259816Y-52872262D01*
X143355789Y-52719522D01*
X143415368Y-52549255D01*
X143415369Y-52549249D01*
X143435565Y-52370003D01*
X143435565Y-52369996D01*
X143415369Y-52190750D01*
X143415368Y-52190745D01*
X143355789Y-52020478D01*
X143343913Y-52001578D01*
X143259815Y-51867737D01*
X143132262Y-51740184D01*
X143118308Y-51731416D01*
X143067503Y-51699493D01*
X143021213Y-51647159D01*
X143010565Y-51578106D01*
X143038940Y-51514257D01*
X143097330Y-51475885D01*
X143133476Y-51470500D01*
X149579903Y-51470500D01*
X149646942Y-51490185D01*
G37*
%TD.AperFunction*%
%TD*%
M02*
