%TF.GenerationSoftware,KiCad,Pcbnew,8.0.2*%
%TF.CreationDate,2024-06-01T03:16:02+02:00*%
%TF.ProjectId,Hellboard,48656c6c-626f-4617-9264-2e6b69636164,rev?*%
%TF.SameCoordinates,Original*%
%TF.FileFunction,Legend,Bot*%
%TF.FilePolarity,Positive*%
%FSLAX46Y46*%
G04 Gerber Fmt 4.6, Leading zero omitted, Abs format (unit mm)*
G04 Created by KiCad (PCBNEW 8.0.2) date 2024-06-01 03:16:02*
%MOMM*%
%LPD*%
G01*
G04 APERTURE LIST*
%ADD10C,0.150000*%
%ADD11C,0.120000*%
G04 APERTURE END LIST*
D10*
X129963333Y-67574819D02*
X129963333Y-68289104D01*
X129963333Y-68289104D02*
X130010952Y-68431961D01*
X130010952Y-68431961D02*
X130106190Y-68527200D01*
X130106190Y-68527200D02*
X130249047Y-68574819D01*
X130249047Y-68574819D02*
X130344285Y-68574819D01*
X129487142Y-68574819D02*
X129487142Y-67574819D01*
X129487142Y-67574819D02*
X129106190Y-67574819D01*
X129106190Y-67574819D02*
X129010952Y-67622438D01*
X129010952Y-67622438D02*
X128963333Y-67670057D01*
X128963333Y-67670057D02*
X128915714Y-67765295D01*
X128915714Y-67765295D02*
X128915714Y-67908152D01*
X128915714Y-67908152D02*
X128963333Y-68003390D01*
X128963333Y-68003390D02*
X129010952Y-68051009D01*
X129010952Y-68051009D02*
X129106190Y-68098628D01*
X129106190Y-68098628D02*
X129487142Y-68098628D01*
X127963333Y-68574819D02*
X128534761Y-68574819D01*
X128249047Y-68574819D02*
X128249047Y-67574819D01*
X128249047Y-67574819D02*
X128344285Y-67717676D01*
X128344285Y-67717676D02*
X128439523Y-67812914D01*
X128439523Y-67812914D02*
X128534761Y-67860533D01*
X114916666Y-63609580D02*
X114964285Y-63657200D01*
X114964285Y-63657200D02*
X115107142Y-63704819D01*
X115107142Y-63704819D02*
X115202380Y-63704819D01*
X115202380Y-63704819D02*
X115345237Y-63657200D01*
X115345237Y-63657200D02*
X115440475Y-63561961D01*
X115440475Y-63561961D02*
X115488094Y-63466723D01*
X115488094Y-63466723D02*
X115535713Y-63276247D01*
X115535713Y-63276247D02*
X115535713Y-63133390D01*
X115535713Y-63133390D02*
X115488094Y-62942914D01*
X115488094Y-62942914D02*
X115440475Y-62847676D01*
X115440475Y-62847676D02*
X115345237Y-62752438D01*
X115345237Y-62752438D02*
X115202380Y-62704819D01*
X115202380Y-62704819D02*
X115107142Y-62704819D01*
X115107142Y-62704819D02*
X114964285Y-62752438D01*
X114964285Y-62752438D02*
X114916666Y-62800057D01*
X114011904Y-62704819D02*
X114488094Y-62704819D01*
X114488094Y-62704819D02*
X114535713Y-63181009D01*
X114535713Y-63181009D02*
X114488094Y-63133390D01*
X114488094Y-63133390D02*
X114392856Y-63085771D01*
X114392856Y-63085771D02*
X114154761Y-63085771D01*
X114154761Y-63085771D02*
X114059523Y-63133390D01*
X114059523Y-63133390D02*
X114011904Y-63181009D01*
X114011904Y-63181009D02*
X113964285Y-63276247D01*
X113964285Y-63276247D02*
X113964285Y-63514342D01*
X113964285Y-63514342D02*
X114011904Y-63609580D01*
X114011904Y-63609580D02*
X114059523Y-63657200D01*
X114059523Y-63657200D02*
X114154761Y-63704819D01*
X114154761Y-63704819D02*
X114392856Y-63704819D01*
X114392856Y-63704819D02*
X114488094Y-63657200D01*
X114488094Y-63657200D02*
X114535713Y-63609580D01*
X57916666Y-63359580D02*
X57964285Y-63407200D01*
X57964285Y-63407200D02*
X58107142Y-63454819D01*
X58107142Y-63454819D02*
X58202380Y-63454819D01*
X58202380Y-63454819D02*
X58345237Y-63407200D01*
X58345237Y-63407200D02*
X58440475Y-63311961D01*
X58440475Y-63311961D02*
X58488094Y-63216723D01*
X58488094Y-63216723D02*
X58535713Y-63026247D01*
X58535713Y-63026247D02*
X58535713Y-62883390D01*
X58535713Y-62883390D02*
X58488094Y-62692914D01*
X58488094Y-62692914D02*
X58440475Y-62597676D01*
X58440475Y-62597676D02*
X58345237Y-62502438D01*
X58345237Y-62502438D02*
X58202380Y-62454819D01*
X58202380Y-62454819D02*
X58107142Y-62454819D01*
X58107142Y-62454819D02*
X57964285Y-62502438D01*
X57964285Y-62502438D02*
X57916666Y-62550057D01*
X57345237Y-62883390D02*
X57440475Y-62835771D01*
X57440475Y-62835771D02*
X57488094Y-62788152D01*
X57488094Y-62788152D02*
X57535713Y-62692914D01*
X57535713Y-62692914D02*
X57535713Y-62645295D01*
X57535713Y-62645295D02*
X57488094Y-62550057D01*
X57488094Y-62550057D02*
X57440475Y-62502438D01*
X57440475Y-62502438D02*
X57345237Y-62454819D01*
X57345237Y-62454819D02*
X57154761Y-62454819D01*
X57154761Y-62454819D02*
X57059523Y-62502438D01*
X57059523Y-62502438D02*
X57011904Y-62550057D01*
X57011904Y-62550057D02*
X56964285Y-62645295D01*
X56964285Y-62645295D02*
X56964285Y-62692914D01*
X56964285Y-62692914D02*
X57011904Y-62788152D01*
X57011904Y-62788152D02*
X57059523Y-62835771D01*
X57059523Y-62835771D02*
X57154761Y-62883390D01*
X57154761Y-62883390D02*
X57345237Y-62883390D01*
X57345237Y-62883390D02*
X57440475Y-62931009D01*
X57440475Y-62931009D02*
X57488094Y-62978628D01*
X57488094Y-62978628D02*
X57535713Y-63073866D01*
X57535713Y-63073866D02*
X57535713Y-63264342D01*
X57535713Y-63264342D02*
X57488094Y-63359580D01*
X57488094Y-63359580D02*
X57440475Y-63407200D01*
X57440475Y-63407200D02*
X57345237Y-63454819D01*
X57345237Y-63454819D02*
X57154761Y-63454819D01*
X57154761Y-63454819D02*
X57059523Y-63407200D01*
X57059523Y-63407200D02*
X57011904Y-63359580D01*
X57011904Y-63359580D02*
X56964285Y-63264342D01*
X56964285Y-63264342D02*
X56964285Y-63073866D01*
X56964285Y-63073866D02*
X57011904Y-62978628D01*
X57011904Y-62978628D02*
X57059523Y-62931009D01*
X57059523Y-62931009D02*
X57154761Y-62883390D01*
X123411819Y-64358095D02*
X123411819Y-64929523D01*
X124411819Y-64643809D02*
X123411819Y-64643809D01*
X124411819Y-65262857D02*
X123411819Y-65262857D01*
X123411819Y-65262857D02*
X123411819Y-65643809D01*
X123411819Y-65643809D02*
X123459438Y-65739047D01*
X123459438Y-65739047D02*
X123507057Y-65786666D01*
X123507057Y-65786666D02*
X123602295Y-65834285D01*
X123602295Y-65834285D02*
X123745152Y-65834285D01*
X123745152Y-65834285D02*
X123840390Y-65786666D01*
X123840390Y-65786666D02*
X123888009Y-65739047D01*
X123888009Y-65739047D02*
X123935628Y-65643809D01*
X123935628Y-65643809D02*
X123935628Y-65262857D01*
X124411819Y-66786666D02*
X124411819Y-66215238D01*
X124411819Y-66500952D02*
X123411819Y-66500952D01*
X123411819Y-66500952D02*
X123554676Y-66405714D01*
X123554676Y-66405714D02*
X123649914Y-66310476D01*
X123649914Y-66310476D02*
X123697533Y-66215238D01*
X124084819Y-61203333D02*
X123608628Y-60870000D01*
X124084819Y-60631905D02*
X123084819Y-60631905D01*
X123084819Y-60631905D02*
X123084819Y-61012857D01*
X123084819Y-61012857D02*
X123132438Y-61108095D01*
X123132438Y-61108095D02*
X123180057Y-61155714D01*
X123180057Y-61155714D02*
X123275295Y-61203333D01*
X123275295Y-61203333D02*
X123418152Y-61203333D01*
X123418152Y-61203333D02*
X123513390Y-61155714D01*
X123513390Y-61155714D02*
X123561009Y-61108095D01*
X123561009Y-61108095D02*
X123608628Y-61012857D01*
X123608628Y-61012857D02*
X123608628Y-60631905D01*
X124084819Y-62155714D02*
X124084819Y-61584286D01*
X124084819Y-61870000D02*
X123084819Y-61870000D01*
X123084819Y-61870000D02*
X123227676Y-61774762D01*
X123227676Y-61774762D02*
X123322914Y-61679524D01*
X123322914Y-61679524D02*
X123370533Y-61584286D01*
X114916666Y-60109580D02*
X114964285Y-60157200D01*
X114964285Y-60157200D02*
X115107142Y-60204819D01*
X115107142Y-60204819D02*
X115202380Y-60204819D01*
X115202380Y-60204819D02*
X115345237Y-60157200D01*
X115345237Y-60157200D02*
X115440475Y-60061961D01*
X115440475Y-60061961D02*
X115488094Y-59966723D01*
X115488094Y-59966723D02*
X115535713Y-59776247D01*
X115535713Y-59776247D02*
X115535713Y-59633390D01*
X115535713Y-59633390D02*
X115488094Y-59442914D01*
X115488094Y-59442914D02*
X115440475Y-59347676D01*
X115440475Y-59347676D02*
X115345237Y-59252438D01*
X115345237Y-59252438D02*
X115202380Y-59204819D01*
X115202380Y-59204819D02*
X115107142Y-59204819D01*
X115107142Y-59204819D02*
X114964285Y-59252438D01*
X114964285Y-59252438D02*
X114916666Y-59300057D01*
X113964285Y-60204819D02*
X114535713Y-60204819D01*
X114249999Y-60204819D02*
X114249999Y-59204819D01*
X114249999Y-59204819D02*
X114345237Y-59347676D01*
X114345237Y-59347676D02*
X114440475Y-59442914D01*
X114440475Y-59442914D02*
X114535713Y-59490533D01*
X129262738Y-60970057D02*
X129357976Y-60922438D01*
X129357976Y-60922438D02*
X129453214Y-60827200D01*
X129453214Y-60827200D02*
X129596071Y-60684342D01*
X129596071Y-60684342D02*
X129691309Y-60636723D01*
X129691309Y-60636723D02*
X129786547Y-60636723D01*
X129738928Y-60874819D02*
X129834166Y-60827200D01*
X129834166Y-60827200D02*
X129929404Y-60731961D01*
X129929404Y-60731961D02*
X129977023Y-60541485D01*
X129977023Y-60541485D02*
X129977023Y-60208152D01*
X129977023Y-60208152D02*
X129929404Y-60017676D01*
X129929404Y-60017676D02*
X129834166Y-59922438D01*
X129834166Y-59922438D02*
X129738928Y-59874819D01*
X129738928Y-59874819D02*
X129548452Y-59874819D01*
X129548452Y-59874819D02*
X129453214Y-59922438D01*
X129453214Y-59922438D02*
X129357976Y-60017676D01*
X129357976Y-60017676D02*
X129310357Y-60208152D01*
X129310357Y-60208152D02*
X129310357Y-60541485D01*
X129310357Y-60541485D02*
X129357976Y-60731961D01*
X129357976Y-60731961D02*
X129453214Y-60827200D01*
X129453214Y-60827200D02*
X129548452Y-60874819D01*
X129548452Y-60874819D02*
X129738928Y-60874819D01*
X128357976Y-60874819D02*
X128929404Y-60874819D01*
X128643690Y-60874819D02*
X128643690Y-59874819D01*
X128643690Y-59874819D02*
X128738928Y-60017676D01*
X128738928Y-60017676D02*
X128834166Y-60112914D01*
X128834166Y-60112914D02*
X128929404Y-60160533D01*
X134584819Y-62203333D02*
X134108628Y-61870000D01*
X134584819Y-61631905D02*
X133584819Y-61631905D01*
X133584819Y-61631905D02*
X133584819Y-62012857D01*
X133584819Y-62012857D02*
X133632438Y-62108095D01*
X133632438Y-62108095D02*
X133680057Y-62155714D01*
X133680057Y-62155714D02*
X133775295Y-62203333D01*
X133775295Y-62203333D02*
X133918152Y-62203333D01*
X133918152Y-62203333D02*
X134013390Y-62155714D01*
X134013390Y-62155714D02*
X134061009Y-62108095D01*
X134061009Y-62108095D02*
X134108628Y-62012857D01*
X134108628Y-62012857D02*
X134108628Y-61631905D01*
X133680057Y-62584286D02*
X133632438Y-62631905D01*
X133632438Y-62631905D02*
X133584819Y-62727143D01*
X133584819Y-62727143D02*
X133584819Y-62965238D01*
X133584819Y-62965238D02*
X133632438Y-63060476D01*
X133632438Y-63060476D02*
X133680057Y-63108095D01*
X133680057Y-63108095D02*
X133775295Y-63155714D01*
X133775295Y-63155714D02*
X133870533Y-63155714D01*
X133870533Y-63155714D02*
X134013390Y-63108095D01*
X134013390Y-63108095D02*
X134584819Y-62536667D01*
X134584819Y-62536667D02*
X134584819Y-63155714D01*
X76916666Y-59859580D02*
X76964285Y-59907200D01*
X76964285Y-59907200D02*
X77107142Y-59954819D01*
X77107142Y-59954819D02*
X77202380Y-59954819D01*
X77202380Y-59954819D02*
X77345237Y-59907200D01*
X77345237Y-59907200D02*
X77440475Y-59811961D01*
X77440475Y-59811961D02*
X77488094Y-59716723D01*
X77488094Y-59716723D02*
X77535713Y-59526247D01*
X77535713Y-59526247D02*
X77535713Y-59383390D01*
X77535713Y-59383390D02*
X77488094Y-59192914D01*
X77488094Y-59192914D02*
X77440475Y-59097676D01*
X77440475Y-59097676D02*
X77345237Y-59002438D01*
X77345237Y-59002438D02*
X77202380Y-58954819D01*
X77202380Y-58954819D02*
X77107142Y-58954819D01*
X77107142Y-58954819D02*
X76964285Y-59002438D01*
X76964285Y-59002438D02*
X76916666Y-59050057D01*
X76583332Y-58954819D02*
X75964285Y-58954819D01*
X75964285Y-58954819D02*
X76297618Y-59335771D01*
X76297618Y-59335771D02*
X76154761Y-59335771D01*
X76154761Y-59335771D02*
X76059523Y-59383390D01*
X76059523Y-59383390D02*
X76011904Y-59431009D01*
X76011904Y-59431009D02*
X75964285Y-59526247D01*
X75964285Y-59526247D02*
X75964285Y-59764342D01*
X75964285Y-59764342D02*
X76011904Y-59859580D01*
X76011904Y-59859580D02*
X76059523Y-59907200D01*
X76059523Y-59907200D02*
X76154761Y-59954819D01*
X76154761Y-59954819D02*
X76440475Y-59954819D01*
X76440475Y-59954819D02*
X76535713Y-59907200D01*
X76535713Y-59907200D02*
X76583332Y-59859580D01*
X95666666Y-63359580D02*
X95714285Y-63407200D01*
X95714285Y-63407200D02*
X95857142Y-63454819D01*
X95857142Y-63454819D02*
X95952380Y-63454819D01*
X95952380Y-63454819D02*
X96095237Y-63407200D01*
X96095237Y-63407200D02*
X96190475Y-63311961D01*
X96190475Y-63311961D02*
X96238094Y-63216723D01*
X96238094Y-63216723D02*
X96285713Y-63026247D01*
X96285713Y-63026247D02*
X96285713Y-62883390D01*
X96285713Y-62883390D02*
X96238094Y-62692914D01*
X96238094Y-62692914D02*
X96190475Y-62597676D01*
X96190475Y-62597676D02*
X96095237Y-62502438D01*
X96095237Y-62502438D02*
X95952380Y-62454819D01*
X95952380Y-62454819D02*
X95857142Y-62454819D01*
X95857142Y-62454819D02*
X95714285Y-62502438D01*
X95714285Y-62502438D02*
X95666666Y-62550057D01*
X94809523Y-62454819D02*
X94999999Y-62454819D01*
X94999999Y-62454819D02*
X95095237Y-62502438D01*
X95095237Y-62502438D02*
X95142856Y-62550057D01*
X95142856Y-62550057D02*
X95238094Y-62692914D01*
X95238094Y-62692914D02*
X95285713Y-62883390D01*
X95285713Y-62883390D02*
X95285713Y-63264342D01*
X95285713Y-63264342D02*
X95238094Y-63359580D01*
X95238094Y-63359580D02*
X95190475Y-63407200D01*
X95190475Y-63407200D02*
X95095237Y-63454819D01*
X95095237Y-63454819D02*
X94904761Y-63454819D01*
X94904761Y-63454819D02*
X94809523Y-63407200D01*
X94809523Y-63407200D02*
X94761904Y-63359580D01*
X94761904Y-63359580D02*
X94714285Y-63264342D01*
X94714285Y-63264342D02*
X94714285Y-63026247D01*
X94714285Y-63026247D02*
X94761904Y-62931009D01*
X94761904Y-62931009D02*
X94809523Y-62883390D01*
X94809523Y-62883390D02*
X94904761Y-62835771D01*
X94904761Y-62835771D02*
X95095237Y-62835771D01*
X95095237Y-62835771D02*
X95190475Y-62883390D01*
X95190475Y-62883390D02*
X95238094Y-62931009D01*
X95238094Y-62931009D02*
X95285713Y-63026247D01*
X95666666Y-59859580D02*
X95714285Y-59907200D01*
X95714285Y-59907200D02*
X95857142Y-59954819D01*
X95857142Y-59954819D02*
X95952380Y-59954819D01*
X95952380Y-59954819D02*
X96095237Y-59907200D01*
X96095237Y-59907200D02*
X96190475Y-59811961D01*
X96190475Y-59811961D02*
X96238094Y-59716723D01*
X96238094Y-59716723D02*
X96285713Y-59526247D01*
X96285713Y-59526247D02*
X96285713Y-59383390D01*
X96285713Y-59383390D02*
X96238094Y-59192914D01*
X96238094Y-59192914D02*
X96190475Y-59097676D01*
X96190475Y-59097676D02*
X96095237Y-59002438D01*
X96095237Y-59002438D02*
X95952380Y-58954819D01*
X95952380Y-58954819D02*
X95857142Y-58954819D01*
X95857142Y-58954819D02*
X95714285Y-59002438D01*
X95714285Y-59002438D02*
X95666666Y-59050057D01*
X95285713Y-59050057D02*
X95238094Y-59002438D01*
X95238094Y-59002438D02*
X95142856Y-58954819D01*
X95142856Y-58954819D02*
X94904761Y-58954819D01*
X94904761Y-58954819D02*
X94809523Y-59002438D01*
X94809523Y-59002438D02*
X94761904Y-59050057D01*
X94761904Y-59050057D02*
X94714285Y-59145295D01*
X94714285Y-59145295D02*
X94714285Y-59240533D01*
X94714285Y-59240533D02*
X94761904Y-59383390D01*
X94761904Y-59383390D02*
X95333332Y-59954819D01*
X95333332Y-59954819D02*
X94714285Y-59954819D01*
X57666666Y-60109580D02*
X57714285Y-60157200D01*
X57714285Y-60157200D02*
X57857142Y-60204819D01*
X57857142Y-60204819D02*
X57952380Y-60204819D01*
X57952380Y-60204819D02*
X58095237Y-60157200D01*
X58095237Y-60157200D02*
X58190475Y-60061961D01*
X58190475Y-60061961D02*
X58238094Y-59966723D01*
X58238094Y-59966723D02*
X58285713Y-59776247D01*
X58285713Y-59776247D02*
X58285713Y-59633390D01*
X58285713Y-59633390D02*
X58238094Y-59442914D01*
X58238094Y-59442914D02*
X58190475Y-59347676D01*
X58190475Y-59347676D02*
X58095237Y-59252438D01*
X58095237Y-59252438D02*
X57952380Y-59204819D01*
X57952380Y-59204819D02*
X57857142Y-59204819D01*
X57857142Y-59204819D02*
X57714285Y-59252438D01*
X57714285Y-59252438D02*
X57666666Y-59300057D01*
X56809523Y-59538152D02*
X56809523Y-60204819D01*
X57047618Y-59157200D02*
X57285713Y-59871485D01*
X57285713Y-59871485D02*
X56666666Y-59871485D01*
X76666666Y-63609580D02*
X76714285Y-63657200D01*
X76714285Y-63657200D02*
X76857142Y-63704819D01*
X76857142Y-63704819D02*
X76952380Y-63704819D01*
X76952380Y-63704819D02*
X77095237Y-63657200D01*
X77095237Y-63657200D02*
X77190475Y-63561961D01*
X77190475Y-63561961D02*
X77238094Y-63466723D01*
X77238094Y-63466723D02*
X77285713Y-63276247D01*
X77285713Y-63276247D02*
X77285713Y-63133390D01*
X77285713Y-63133390D02*
X77238094Y-62942914D01*
X77238094Y-62942914D02*
X77190475Y-62847676D01*
X77190475Y-62847676D02*
X77095237Y-62752438D01*
X77095237Y-62752438D02*
X76952380Y-62704819D01*
X76952380Y-62704819D02*
X76857142Y-62704819D01*
X76857142Y-62704819D02*
X76714285Y-62752438D01*
X76714285Y-62752438D02*
X76666666Y-62800057D01*
X76333332Y-62704819D02*
X75666666Y-62704819D01*
X75666666Y-62704819D02*
X76095237Y-63704819D01*
%TO.C,D6*%
X66900000Y-67555000D02*
X66900000Y-67936000D01*
X66900000Y-70984000D02*
X66900000Y-71365000D01*
X67281000Y-71365000D02*
X66900000Y-71365000D01*
X69440000Y-65015000D02*
X78330000Y-65015000D01*
X70785838Y-71365000D02*
X69059000Y-71365000D01*
X78330000Y-65015000D02*
X78330000Y-65396000D01*
X78330000Y-68444000D02*
X78330000Y-69460000D01*
X78330000Y-69460000D02*
X73250000Y-69460000D01*
X66900000Y-67555000D02*
G75*
G02*
X69440000Y-65015000I2540001J-1D01*
G01*
X70785838Y-71383960D02*
G75*
G02*
X73250000Y-69459999I2464162J-616039D01*
G01*
%TO.C,D8*%
X104900000Y-67555000D02*
X104900000Y-67936000D01*
X104900000Y-70984000D02*
X104900000Y-71365000D01*
X105281000Y-71365000D02*
X104900000Y-71365000D01*
X107440000Y-65015000D02*
X116330000Y-65015000D01*
X108785838Y-71365000D02*
X107059000Y-71365000D01*
X116330000Y-65015000D02*
X116330000Y-65396000D01*
X116330000Y-68444000D02*
X116330000Y-69460000D01*
X116330000Y-69460000D02*
X111250000Y-69460000D01*
X104900000Y-67555000D02*
G75*
G02*
X107440000Y-65015000I2540001J-1D01*
G01*
X108785838Y-71383960D02*
G75*
G02*
X111250000Y-69459999I2464162J-616039D01*
G01*
%TO.C,D1*%
X104900000Y-47555000D02*
X104900000Y-47936000D01*
X104900000Y-50984000D02*
X104900000Y-51365000D01*
X105281000Y-51365000D02*
X104900000Y-51365000D01*
X107440000Y-45015000D02*
X116330000Y-45015000D01*
X108785838Y-51365000D02*
X107059000Y-51365000D01*
X116330000Y-45015000D02*
X116330000Y-45396000D01*
X116330000Y-48444000D02*
X116330000Y-49460000D01*
X116330000Y-49460000D02*
X111250000Y-49460000D01*
X104900000Y-47555000D02*
G75*
G02*
X107440000Y-45015000I2540001J-1D01*
G01*
X108785838Y-51383960D02*
G75*
G02*
X111250000Y-49459999I2464162J-616039D01*
G01*
%TO.C,D2*%
X85900000Y-47555000D02*
X85900000Y-47936000D01*
X85900000Y-50984000D02*
X85900000Y-51365000D01*
X86281000Y-51365000D02*
X85900000Y-51365000D01*
X88440000Y-45015000D02*
X97330000Y-45015000D01*
X89785838Y-51365000D02*
X88059000Y-51365000D01*
X97330000Y-45015000D02*
X97330000Y-45396000D01*
X97330000Y-48444000D02*
X97330000Y-49460000D01*
X97330000Y-49460000D02*
X92250000Y-49460000D01*
X85900000Y-47555000D02*
G75*
G02*
X88440000Y-45015000I2540001J-1D01*
G01*
X89785838Y-51383960D02*
G75*
G02*
X92250000Y-49459999I2464162J-616039D01*
G01*
%TO.C,D3*%
X66900000Y-47555000D02*
X66900000Y-47936000D01*
X66900000Y-50984000D02*
X66900000Y-51365000D01*
X67281000Y-51365000D02*
X66900000Y-51365000D01*
X69440000Y-45015000D02*
X78330000Y-45015000D01*
X70785838Y-51365000D02*
X69059000Y-51365000D01*
X78330000Y-45015000D02*
X78330000Y-45396000D01*
X78330000Y-48444000D02*
X78330000Y-49460000D01*
X78330000Y-49460000D02*
X73250000Y-49460000D01*
X66900000Y-47555000D02*
G75*
G02*
X69440000Y-45015000I2540001J-1D01*
G01*
X70785838Y-51383960D02*
G75*
G02*
X73250000Y-49459999I2464162J-616039D01*
G01*
%TO.C,D7*%
X85900000Y-67555000D02*
X85900000Y-67936000D01*
X85900000Y-70984000D02*
X85900000Y-71365000D01*
X86281000Y-71365000D02*
X85900000Y-71365000D01*
X88440000Y-65015000D02*
X97330000Y-65015000D01*
X89785838Y-71365000D02*
X88059000Y-71365000D01*
X97330000Y-65015000D02*
X97330000Y-65396000D01*
X97330000Y-68444000D02*
X97330000Y-69460000D01*
X97330000Y-69460000D02*
X92250000Y-69460000D01*
X85900000Y-67555000D02*
G75*
G02*
X88440000Y-65015000I2540001J-1D01*
G01*
X89785838Y-71383960D02*
G75*
G02*
X92250000Y-69459999I2464162J-616039D01*
G01*
%TO.C,D4*%
X47900000Y-47555000D02*
X47900000Y-47936000D01*
X47900000Y-50984000D02*
X47900000Y-51365000D01*
X48281000Y-51365000D02*
X47900000Y-51365000D01*
X50440000Y-45015000D02*
X59330000Y-45015000D01*
X51785838Y-51365000D02*
X50059000Y-51365000D01*
X59330000Y-45015000D02*
X59330000Y-45396000D01*
X59330000Y-48444000D02*
X59330000Y-49460000D01*
X59330000Y-49460000D02*
X54250000Y-49460000D01*
X47900000Y-47555000D02*
G75*
G02*
X50440000Y-45015000I2540001J-1D01*
G01*
X51785838Y-51383960D02*
G75*
G02*
X54250000Y-49459999I2464162J-616039D01*
G01*
%TO.C,D5*%
X47900000Y-67555000D02*
X47900000Y-67936000D01*
X47900000Y-70984000D02*
X47900000Y-71365000D01*
X48281000Y-71365000D02*
X47900000Y-71365000D01*
X50440000Y-65015000D02*
X59330000Y-65015000D01*
X51785838Y-71365000D02*
X50059000Y-71365000D01*
X59330000Y-65015000D02*
X59330000Y-65396000D01*
X59330000Y-68444000D02*
X59330000Y-69460000D01*
X59330000Y-69460000D02*
X54250000Y-69460000D01*
X47900000Y-67555000D02*
G75*
G02*
X50440000Y-65015000I2540001J-1D01*
G01*
X51785838Y-71383960D02*
G75*
G02*
X54250000Y-69459999I2464162J-616039D01*
G01*
D11*
%TO.C,JP1*%
X127730000Y-65120000D02*
X130530000Y-65120000D01*
X127730000Y-67120000D02*
X127730000Y-65120000D01*
X130530000Y-65120000D02*
X130530000Y-67120000D01*
X130530000Y-67120000D02*
X127730000Y-67120000D01*
%TO.C,C5*%
X111511252Y-62265000D02*
X110988748Y-62265000D01*
X111511252Y-63735000D02*
X110988748Y-63735000D01*
%TO.C,C8*%
X54511252Y-62265000D02*
X53988748Y-62265000D01*
X54511252Y-63735000D02*
X53988748Y-63735000D01*
%TO.C,TP1*%
X126555000Y-65620000D02*
G75*
G02*
X124655000Y-65620000I-950000J0D01*
G01*
X124655000Y-65620000D02*
G75*
G02*
X126555000Y-65620000I950000J0D01*
G01*
%TO.C,R1*%
X124645000Y-60035000D02*
X124645000Y-62895000D01*
X126565000Y-60035000D02*
X124645000Y-60035000D01*
X126565000Y-62895000D02*
X126565000Y-60035000D01*
%TO.C,C1*%
X111511252Y-59015000D02*
X110988748Y-59015000D01*
X111511252Y-60485000D02*
X110988748Y-60485000D01*
%TO.C,Q1*%
X128517500Y-61260000D02*
X129167500Y-61260000D01*
X128517500Y-64380000D02*
X129167500Y-64380000D01*
X129817500Y-61260000D02*
X129167500Y-61260000D01*
X129817500Y-64380000D02*
X129167500Y-64380000D01*
X130330000Y-61310000D02*
X130090000Y-60980000D01*
X130570000Y-60980000D01*
X130330000Y-61310000D01*
G36*
X130330000Y-61310000D02*
G01*
X130090000Y-60980000D01*
X130570000Y-60980000D01*
X130330000Y-61310000D01*
G37*
%TO.C,R2*%
X131395000Y-60785000D02*
X131395000Y-63645000D01*
X133315000Y-60785000D02*
X131395000Y-60785000D01*
X133315000Y-63645000D02*
X133315000Y-60785000D01*
%TO.C,C3*%
X73511252Y-58765000D02*
X72988748Y-58765000D01*
X73511252Y-60235000D02*
X72988748Y-60235000D01*
%TO.C,C6*%
X92511252Y-62265000D02*
X91988748Y-62265000D01*
X92511252Y-63735000D02*
X91988748Y-63735000D01*
%TO.C,C2*%
X92511252Y-58765000D02*
X91988748Y-58765000D01*
X92511252Y-60235000D02*
X91988748Y-60235000D01*
%TO.C,C4*%
X54511252Y-58765000D02*
X53988748Y-58765000D01*
X54511252Y-60235000D02*
X53988748Y-60235000D01*
%TO.C,C7*%
X73511252Y-62265000D02*
X72988748Y-62265000D01*
X73511252Y-63735000D02*
X72988748Y-63735000D01*
%TD*%
M02*
